<?xml version="1.0" encoding="UTF-8"?>
<svg version="1.1" xmlns="http://www.w3.org/2000/svg" width="628" height="74">
<path d="M0 0 C1.05848145 0.00829834 2.11696289 0.01659668 3.20751953 0.02514648 C12.11035028 0.21538948 19.99438774 1.51038739 28.4375 4.4375 C29.16130859 4.67887695 29.88511719 4.92025391 30.63085938 5.16894531 C45.39787878 10.17311429 57.35897728 17.61090525 69.4375 27.4375 C70.448125 28.200625 71.45875 28.96375 72.5 29.75 C73.139375 30.306875 73.77875 30.86375 74.4375 31.4375 C74.4375 32.0975 74.4375 32.7575 74.4375 33.4375 C75.4275 33.7675 76.4175 34.0975 77.4375 34.4375 C86.96999243 44.28962236 99.4375 60.26574713 99.4375 74.4375 C61.13847336 74.46076947 22.83944784 74.47819659 -15.45958452 74.48856533 C-20.05809868 74.48981493 -24.65661282 74.49110936 -29.25512695 74.49243164 C-30.16999552 74.49269395 -31.08486409 74.49295626 -32.02745595 74.49322652 C-44.75485516 74.49696788 -57.48225116 74.50309753 -70.20964829 74.51123533 C-157.33274805 74.56689247 -244.44434884 74.49746584 -331.5625 73.4375 C-332.4259168 73.42706146 -333.2893336 73.41662292 -334.17891455 73.40586805 C-352.08483418 73.18886304 -369.98980963 72.93374843 -387.89428711 72.61743164 C-392.48341595 72.53635843 -397.07258803 72.46012873 -401.66186523 72.38793945 C-428.3863456 71.9674867 -455.09645476 71.35917054 -481.80859375 70.43359375 C-483.01701494 70.39182573 -484.22543613 70.35005772 -485.47047615 70.307024 C-499.84137505 69.80471974 -514.20329387 69.20567118 -528.5625 68.4375 C-528.2325 67.1175 -527.9025 65.7975 -527.5625 64.4375 C-526.81764343 64.42941315 -526.07278687 64.42132629 -525.30535889 64.41299438 C-518.18884366 64.33414159 -511.07249594 64.24660271 -503.95620346 64.14997292 C-500.30010297 64.10061643 -496.64402332 64.05429717 -492.98779297 64.015625 C-477.54983789 63.85001905 -462.1974853 63.65228321 -446.85705566 61.72467041 C-444.44389774 61.42265658 -442.02880224 61.14455209 -439.61230469 60.87060547 C-434.59204677 60.29658767 -429.57672224 59.68688731 -424.5625 59.0625 C-423.69329926 58.95456116 -422.82409851 58.84662231 -421.92855835 58.7354126 C-405.82370551 56.72052647 -390.20896134 53.79003737 -374.41796875 50.03125 C-370.16101186 49.14608249 -365.89716046 48.72125881 -361.5625 48.4375 C-361.5625 47.7775 -361.5625 47.1175 -361.5625 46.4375 C-360.94503906 46.32792969 -360.32757813 46.21835937 -359.69140625 46.10546875 C-358.84449219 45.94691406 -357.99757813 45.78835937 -357.125 45.625 C-356.30128906 45.47417969 -355.47757813 45.32335938 -354.62890625 45.16796875 C-352.16163679 44.58022431 -349.86669114 43.89444544 -347.47265625 43.078125 C-341.85540812 41.16324701 -336.15554552 39.58333817 -330.4375 38 C-329.3338208 37.69288086 -328.2301416 37.38576172 -327.09301758 37.06933594 C-318.93027418 34.80326983 -310.75806187 32.58203892 -302.5625 30.4375 C-301.61632812 30.17324219 -300.67015625 29.90898437 -299.6953125 29.63671875 C-267.3983573 20.91385689 -234.9024813 23.1313557 -203.5625 34.4375 C-202.62792969 34.76492187 -201.69335938 35.09234375 -200.73046875 35.4296875 C-192.72926083 38.42848185 -185.16074402 42.55353408 -177.5625 46.4375 C-177.9234375 45.78265625 -178.284375 45.1278125 -178.65625 44.453125 C-182.24931592 37.38676203 -183.83408383 31.35957978 -182.5625 23.4375 C-181.48959981 20.71150466 -180.30167562 18.82886648 -178.5625 16.4375 C-177.9025 16.4375 -177.2425 16.4375 -176.5625 16.4375 C-176.5625 15.7775 -176.5625 15.1175 -176.5625 14.4375 C-167.07500032 8.74500019 -158.28834386 7.23922987 -147.3125 7.25 C-146.01227905 7.2512085 -146.01227905 7.2512085 -144.68579102 7.25244141 C-135.56769329 7.33661608 -126.59199527 8.21493778 -117.5625 9.4375 C-115.93828125 9.6540625 -115.93828125 9.6540625 -114.28125 9.875 C-108.88442179 10.72393927 -104.14989123 12.22644004 -99.13671875 14.3828125 C-96.43808833 15.48847291 -93.72635528 16.33691796 -90.9375 17.1875 C-74.24614934 22.68708605 -59.15030438 32.46492156 -45.5625 43.4375 C-44.45261719 44.21480469 -44.45261719 44.21480469 -43.3203125 45.0078125 C-42.74023438 45.47960938 -42.16015625 45.95140625 -41.5625 46.4375 C-41.5625 47.0975 -41.5625 47.7575 -41.5625 48.4375 C-40.5725 48.7675 -39.5825 49.0975 -38.5625 49.4375 C-38.57821045 48.82342285 -38.5939209 48.2093457 -38.61010742 47.57666016 C-38.67326194 44.73870411 -38.71174177 41.90089667 -38.75 39.0625 C-38.78770508 37.61423828 -38.78770508 37.61423828 -38.82617188 36.13671875 C-38.92698076 26.12303638 -37.02735496 18.15515779 -30.51171875 10.41015625 C-22.12825548 1.92588981 -11.52529255 -0.11711571 0 0 Z " fill="#FBFBFB" transform="translate(528.5625,-0.43750000000000006)"/>
<path d="" fill="#000000" transform="translate(0,0)"/>
<path d="" fill="#000000" transform="translate(0,0)"/>
</svg>
