<?xml version="1.0" encoding="UTF-8"?>
<svg version="1.1" xmlns="http://www.w3.org/2000/svg" width="842" height="109">
<path d="M0 0 C1.04994141 -0.00386719 2.09988281 -0.00773437 3.18164062 -0.01171875 C8.54121122 -0.00497291 13.65864148 0.18154444 18.9375 1.125 C18.9375 1.785 18.9375 2.445 18.9375 3.125 C19.906875 3.16625 20.87625 3.2075 21.875 3.25 C27.08496892 3.98825471 30.81801676 7.03727033 34.9375 10.125 C35.50855469 10.52976562 36.07960937 10.93453125 36.66796875 11.3515625 C44.93708126 17.60122594 48.88118996 28.2551498 50.9375 38.125 C51.02950703 40.0321494 51.06816887 41.94219623 51.0703125 43.8515625 C51.07160156 44.96660156 51.07289063 46.08164062 51.07421875 47.23046875 C51.07035156 48.39191406 51.06648437 49.55335937 51.0625 50.75 C51.06636719 51.88824219 51.07023438 53.02648438 51.07421875 54.19921875 C51.06652153 60.90349356 50.76807087 67.4709732 49.9375 74.125 C50.9275 73.795 51.9175 73.465 52.9375 73.125 C53.2675 72.135 53.5975 71.145 53.9375 70.125 C54.5975 70.125 55.2575 70.125 55.9375 70.125 C56.13601562 69.58230469 56.33453125 69.03960937 56.5390625 68.48046875 C58.52751718 65.13120011 61.35560255 62.90112155 64.3125 60.4375 C64.94099854 59.90858154 65.56949707 59.37966309 66.21704102 58.8347168 C89.73354373 39.19857053 115.6608086 25.90399874 144.9375 17.125 C146.00742187 16.80273438 147.07734375 16.48046875 148.1796875 16.1484375 C154.69705249 14.27823711 161.23635968 13.12111545 167.9375 12.125 C168.98679687 11.93808594 170.03609375 11.75117188 171.1171875 11.55859375 C189.86654977 8.51873116 214.23049082 6.53873445 231.125 16.9375 C237.01726846 21.4507269 242.82884532 27.5895945 244.625 34.9375 C245.85701474 47.50405032 243.02037406 55.66312183 236.6171875 66.28125 C234.85273835 68.71804243 234.85273835 68.71804243 234.9375 70.125 C235.60910156 69.67511719 236.28070313 69.22523437 236.97265625 68.76171875 C252.7924226 58.57583048 270.02616213 50.81231141 287.9375 45.125 C289.08476562 44.74859375 290.23203125 44.3721875 291.4140625 43.984375 C340.27419679 28.35846093 387.51112373 37.99037417 435.1875 52.75 C436.35152344 53.10980957 437.51554688 53.46961914 438.71484375 53.84033203 C445.79314912 56.05886018 452.78075189 58.46356579 459.74194336 61.02636719 C463.75053229 62.40452061 467.79329777 63.42250782 471.92578125 64.3515625 C474.41879497 64.9917917 476.79339104 65.73011721 479.2265625 66.55859375 C483.77116836 68.09981203 488.35385258 69.36763737 493 70.5625 C494.24305908 70.88444336 494.24305908 70.88444336 495.51123047 71.21289062 C497.19703958 71.64848018 498.8832331 72.08258496 500.56982422 72.51513672 C502.66487 73.05477627 504.75661507 73.60525738 506.84765625 74.16015625 C518.06032342 77.07238421 529.39707854 79.26744013 540.76391602 81.4831543 C544.06311672 82.15040552 547.34404899 82.88280356 550.62890625 83.6171875 C558.78449671 85.37450971 566.98868442 86.56022283 575.25 87.6875 C576.41715042 87.8494989 576.41715042 87.8494989 577.60787964 88.01477051 C590.6690284 89.82096275 603.70544481 91.14050125 616.87329102 91.90722656 C618.9375 92.125 618.9375 92.125 621.9375 93.125 C624.45018499 93.35577423 626.93841643 93.52743793 629.45703125 93.65234375 C630.26993118 93.69366928 631.08283112 93.73499481 631.92036438 93.77757263 C645.70169262 94.40845744 659.50773187 94.48041133 673.30078125 94.65722656 C677.21683436 94.70823398 681.13282744 94.76349839 685.04882812 94.81835938 C692.67833402 94.9246397 700.3078912 95.02635103 707.9375 95.125 C707.6075 96.445 707.2775 97.765 706.9375 99.125 C706.27434438 99.1395394 705.61118876 99.15407881 704.92793751 99.1690588 C688.74193979 99.52417559 672.55603502 99.88324693 656.37022114 100.24664211 C648.54267236 100.42228804 640.71509869 100.5966282 632.88745117 100.76782227 C626.05956225 100.91715457 619.23173474 101.06901034 612.40396756 101.22381264 C608.79356756 101.30558336 605.18315029 101.38614724 601.57265663 101.46368217 C597.52791763 101.55059003 593.48332541 101.6431353 589.4387207 101.73608398 C588.26051254 101.76054092 587.08230438 101.78499786 585.86839294 101.81019592 C579.22025283 101.96817331 572.62933632 102.3538324 566.00217342 102.89819431 C561.50141341 103.23127971 557.00895712 103.33608114 552.49755859 103.40625 C551.53463677 103.4243167 550.57171495 103.4423834 549.57961369 103.46099758 C546.41510951 103.51937916 543.25054049 103.57227053 540.0859375 103.625 C537.82373046 103.66541092 535.56152861 103.7061131 533.29933167 103.74708557 C527.23387404 103.85574459 521.16833869 103.95918416 515.10276413 104.06108475 C511.28334711 104.12549161 507.46395236 104.19109527 503.64456177 104.25704956 C447.67901791 105.2220377 391.7167974 105.97019266 335.74426913 106.35517764 C332.67223283 106.3763739 329.60019849 106.39784546 326.52816409 106.41931528 C322.6659939 106.44628047 318.8038224 106.47305381 314.94165039 106.49975586 C314.17360144 106.50506872 313.40555248 106.51038158 312.61422932 106.51585543 C303.40353003 106.57936252 294.19281992 106.63904275 284.98205912 106.69291383 C279.15822182 106.72709959 273.33440793 106.76423542 267.51060236 106.80345172 C264.11246522 106.82617222 260.71434671 106.84683625 257.31617737 106.86448479 C253.56287926 106.88411072 249.80965308 106.90926201 246.05639648 106.93554688 C244.98895675 106.93973413 243.92151701 106.94392138 242.82173061 106.94823551 C236.60158126 106.99809707 230.4195312 107.25095131 224.21269226 107.62875366 C215.27368602 108.16454865 206.36836379 108.2669555 197.41552734 108.25439453 C195.75099652 108.25575451 194.086466 108.25753776 192.42193604 108.25970459 C187.9639216 108.26420446 183.5059307 108.26252148 179.04791594 108.2593255 C174.35653852 108.25676716 169.66516291 108.25914862 164.9737854 108.26071167 C157.11158898 108.26252152 149.24940201 108.26015643 141.38720703 108.25537109 C132.31315623 108.24991177 123.23912784 108.25170798 114.16507757 108.2571975 C106.34129787 108.26173988 98.5175249 108.26237423 90.6937443 108.25975883 C86.03465 108.25820469 81.37556624 108.25797896 76.71647263 108.26129532 C72.34474641 108.26419107 67.9730491 108.26216708 63.60132599 108.25640106 C62.00178958 108.25508342 60.40225072 108.2554506 58.8027153 108.25766373 C56.6125342 108.26041404 54.42244462 108.25694726 52.23226929 108.25198364 C51.00938391 108.25160662 49.78649853 108.25122959 48.52655602 108.25084114 C44.59861043 108.1131177 40.83371845 107.63561417 36.9375 107.125 C35.4927739 107.0483916 34.04584613 106.99885744 32.59909058 106.99801636 C31.83949036 106.99519653 31.07989014 106.99237671 30.29727173 106.98947144 C29.49389374 106.99149567 28.69051575 106.9935199 27.86279297 106.99560547 C26.55876526 106.99297699 26.55876526 106.99297699 25.22839355 106.99029541 C22.37880406 106.98592415 19.52927753 106.98879764 16.6796875 106.9921875 C14.68767281 106.99151323 12.69565821 106.99054217 10.7036438 106.98928833 C6.53956312 106.98781787 2.37550395 106.98994542 -1.78857422 106.99462891 C-7.11926036 107.00033323 -12.44989622 106.9970386 -17.78058052 106.99105644 C-21.88984556 106.98743958 -25.99909871 106.98859447 -30.10836411 106.99118423 C-32.07391236 106.99185 -34.03946171 106.99103734 -36.0050087 106.98870468 C-38.75222883 106.98615889 -41.49936792 106.9900456 -44.24658203 106.99560547 C-45.05400848 106.99358124 -45.86143494 106.99155701 -46.69332886 106.98947144 C-50.94540964 107.00537428 -54.86223701 107.40625287 -59.0625 108.125 C-61.55271721 108.20981232 -64.04496365 108.24277737 -66.53662109 108.23852539 C-67.25926147 108.23867142 -67.98190186 108.23881744 -68.72644043 108.2389679 C-71.09630416 108.23827561 -73.46608763 108.23051546 -75.8359375 108.22265625 C-77.48645993 108.22078964 -79.13698292 108.21936688 -80.7875061 108.21836853 C-85.11771187 108.2145625 -89.44788374 108.20474866 -93.77807617 108.19366455 C-98.20230654 108.18340917 -102.62654241 108.17886209 -107.05078125 108.17382812 C-115.72136967 108.16312458 -124.39193061 108.14607128 -133.0625 108.125 C-132.21589973 98.603812 -132.21589973 98.603812 -130.42578125 94.6953125 C-129.93573608 93.60512817 -129.93573608 93.60512817 -129.43579102 92.49291992 C-129.08572998 91.75275635 -128.73566895 91.01259277 -128.375 90.25 C-128.01269287 89.46407471 -127.65038574 88.67814941 -127.27709961 87.8684082 C-123.21054456 79.13973238 -118.72051728 70.90556375 -113.3125 62.9375 C-112.92328369 62.35959717 -112.53406738 61.78169434 -112.13305664 61.1862793 C-111.16304683 59.79367836 -110.11856349 58.45352787 -109.0625 57.125 C-108.4025 57.125 -107.7425 57.125 -107.0625 57.125 C-106.83175781 56.403125 -106.60101563 55.68125 -106.36328125 54.9375 C-104.81323816 51.58605548 -102.90914545 49.67650388 -100.25 47.125 C-99.39792969 46.3 -98.54585937 45.475 -97.66796875 44.625 C-96.80816406 43.8 -95.94835937 42.975 -95.0625 42.125 C-94.17691406 41.22007813 -93.29132813 40.31515625 -92.37890625 39.3828125 C-90.26704182 37.32436791 -88.63954381 36.4135219 -86.0625 35.125 C-85.7325 34.135 -85.4025 33.145 -85.0625 32.125 C-82.5 30.9375 -82.5 30.9375 -80.0625 30.125 C-80.0625 29.465 -80.0625 28.805 -80.0625 28.125 C-78.6640625 27.01513672 -78.6640625 27.01513672 -76.6875 25.8046875 C-75.95732666 25.35552979 -75.22715332 24.90637207 -74.47485352 24.44360352 C-73.67877686 23.96721436 -72.8827002 23.4908252 -72.0625 23 C-71.25031006 22.51007568 -70.43812012 22.02015137 -69.60131836 21.51538086 C-55.0099649 12.82468166 -40.60688351 5.99424582 -23.8359375 2.73828125 C-21.16710568 2.40885772 -21.16710568 2.40885772 -20.0625 1.125 C-13.3743771 0.00373264 -6.768612 -0.0250226 0 0 Z M47.9375 75.125 C48.9375 77.125 48.9375 77.125 48.9375 77.125 Z " fill="#FBFBFB" transform="translate(134.0625,-0.125)"/>
<path d="" fill="#000000" transform="translate(0,0)"/>
<path d="" fill="#000000" transform="translate(0,0)"/>
<path d="" fill="#000000" transform="translate(0,0)"/>
<path d="" fill="#000000" transform="translate(0,0)"/>
<path d="" fill="#000000" transform="translate(0,0)"/>
<path d="" fill="#000000" transform="translate(0,0)"/>
</svg>
