<svg width="328" height="107" viewBox="0 0 328 107" fill="none" xmlns="http://www.w3.org/2000/svg">
<g clip-path="url(#clip0_177_381)">
<path d="M321.137 42.8726C325.114 44.5234 327.942 48.4933 327.981 53.1903C327.99 53.2395 327.99 53.2788 327.99 53.3279V53.6424C327.99 53.7013 327.99 53.7406 327.981 53.7898C327.932 58.4082 325.134 62.4075 321.186 64.0977C325.202 65.7485 327.99 69.8265 327.99 74.494C327.99 79.4073 325.036 83.5737 320.806 85.0771C325.036 86.6297 327.99 90.8158 327.99 95.7093C327.99 101.92 323.067 107.01 317.023 107.01C310.979 107.01 306.563 102.372 306.163 96.5151H306.036C305.656 102.381 300.938 107.01 295.196 107.01C289.454 107.01 284.677 102.372 284.307 96.5151H284.219C284.219 96.5937 284.209 96.6723 284.2 96.7509C284.18 96.9769 284.151 97.1931 284.122 97.4191C284.093 97.6058 284.054 97.8023 284.024 97.9792C283.995 98.1659 283.946 98.3428 283.898 98.5295C283.81 98.8832 283.703 99.2468 283.576 99.5907C283.41 100.062 283.205 100.514 282.981 100.957V100.976C282.562 101.782 282.065 102.549 281.47 103.227C281.363 103.354 281.246 103.482 281.139 103.6C280.973 103.767 280.827 103.924 280.661 104.072C280.525 104.209 280.388 104.327 280.242 104.425C279.979 104.671 279.686 104.897 279.403 105.074C279.267 105.182 279.13 105.29 278.984 105.379C277.775 106.135 276.43 106.666 274.978 106.902C274.792 106.931 274.597 106.961 274.402 106.97C274.237 106.98 274.071 107 273.905 107.02C273.691 107.02 273.496 107.029 273.281 107.029C273.018 107.029 272.745 107.02 272.482 107C272.258 106.99 272.024 106.951 271.809 106.921C271.722 106.921 271.634 106.911 271.546 106.892C270.99 106.803 270.464 106.666 269.938 106.489C269.528 106.351 269.138 106.194 268.758 106.007C268.739 106.007 268.719 105.988 268.7 105.978C267.198 105.261 265.892 104.199 264.859 102.892C264.849 102.873 264.829 102.863 264.82 102.843C264.712 102.706 264.605 102.578 264.508 102.431C264.313 102.155 264.118 101.861 263.952 101.576C263.864 101.418 263.777 101.271 263.699 101.114C262.958 99.7283 262.499 98.1856 262.392 96.5347H262.314C262.1 99.8266 260.52 102.745 258.152 104.651H258.142C257.888 104.877 257.606 105.064 257.333 105.251H257.323C256.611 105.732 255.851 106.106 255.052 106.4C253.93 106.803 252.722 107.029 251.464 107.029C250.207 107.029 248.998 106.803 247.867 106.4C247.545 106.283 247.223 106.145 246.911 105.998C245.829 105.496 244.845 104.799 243.987 103.973C242.027 102.087 240.76 99.4532 240.575 96.5249H240.507C240.438 97.4879 240.253 98.4116 239.961 99.296C239.785 99.8757 239.551 100.436 239.259 100.966C239.249 100.986 239.23 101.025 239.2 101.055C239.103 101.271 238.976 101.477 238.859 101.694C238.781 101.802 238.713 101.92 238.635 102.028C238.528 102.195 238.411 102.362 238.294 102.529C238.118 102.775 237.923 103.01 237.728 103.236C237.68 103.295 237.641 103.335 237.582 103.394C237.524 103.472 237.465 103.541 237.397 103.61C237.231 103.777 237.085 103.934 236.929 104.081C236.9 104.131 236.851 104.15 236.822 104.19C236.734 104.278 236.646 104.357 236.549 104.445C236.412 104.543 236.276 104.661 236.139 104.769C235.993 104.877 235.866 104.985 235.72 105.084C235.72 105.084 235.71 105.094 235.701 105.103C235.554 105.192 235.408 105.29 235.262 105.379H235.252C234.043 106.135 232.698 106.666 231.246 106.902C230.7 106.99 230.163 107.02 229.598 107.02C229.033 107.02 228.477 106.97 227.941 106.902C227.912 106.902 227.873 106.892 227.843 106.882C227.619 106.852 227.405 106.803 227.18 106.744C226.625 106.626 226.089 106.44 225.572 106.233C225.426 106.165 225.279 106.106 225.143 106.047C224.548 105.772 223.983 105.447 223.447 105.064C223.028 104.769 222.628 104.445 222.248 104.081C222.111 103.973 221.984 103.846 221.858 103.718C221.585 103.443 221.341 103.148 221.097 102.843C221.029 102.755 220.98 102.666 220.912 102.578C220.727 102.322 220.542 102.067 220.376 101.792C220.22 101.536 220.074 101.281 219.937 101.025C219.918 101.016 219.918 100.996 219.918 100.976C219.781 100.711 219.664 100.436 219.538 100.161C219.06 99.0306 218.758 97.8122 218.67 96.5347H218.611C218.309 101.124 215.365 104.956 211.349 106.4C210.218 106.803 209.009 107.029 207.761 107.029C206.513 107.029 205.295 106.803 204.164 106.4C203.842 106.283 203.521 106.145 203.209 105.998C203.043 105.929 202.887 105.85 202.741 105.772C202.302 105.526 201.863 105.261 201.454 104.956H201.444C198.841 103.059 197.077 100.013 196.862 96.5249H196.794C196.784 96.6821 196.775 96.8393 196.745 96.9867C196.736 97.0359 196.726 97.0752 196.726 97.1243C196.658 97.8318 196.511 98.5098 196.297 99.1682C196.238 99.3353 196.19 99.5023 196.131 99.6694C195.663 100.996 194.942 102.205 194.045 103.246C193.938 103.374 193.821 103.502 193.714 103.62C193.548 103.787 193.402 103.944 193.246 104.091C193.138 104.19 193.021 104.288 192.914 104.386C192.895 104.406 192.856 104.435 192.827 104.465C192.69 104.563 192.554 104.681 192.417 104.789C192.281 104.917 192.144 105.015 192.008 105.113C191.852 105.211 191.696 105.31 191.549 105.408C190.497 106.076 189.307 106.568 188.05 106.823C187.874 106.852 187.699 106.892 187.504 106.921C186.987 107.01 186.431 107.039 185.876 107.039C185.32 107.039 184.755 106.99 184.199 106.921C183.604 106.823 183.01 106.676 182.435 106.479C182.24 106.41 182.045 106.342 181.859 106.263C181.674 106.184 181.479 106.106 181.294 106.017C180.748 105.762 180.231 105.457 179.734 105.113C179.305 104.799 178.886 104.465 178.496 104.101C178.34 103.954 178.184 103.796 178.028 103.629C177.921 103.521 177.804 103.384 177.697 103.256C176.117 101.438 175.104 99.0994 174.938 96.5446H174.87C174.655 99.8364 173.076 102.755 170.707 104.661H170.697C170.444 104.887 170.161 105.074 169.888 105.261H169.878C169.176 105.732 168.426 106.116 167.626 106.41C166.496 106.813 165.287 107.039 164.029 107.039C162.577 107.039 161.192 106.744 159.935 106.224C159.457 106.027 159.009 105.801 158.57 105.536C158.424 105.457 158.268 105.369 158.131 105.27C157.858 105.084 157.585 104.877 157.322 104.671C157.059 104.474 156.786 104.239 156.542 104.003C154.593 102.116 153.306 99.4827 153.13 96.5544H153.062C152.896 99.1093 151.892 101.448 150.313 103.266C150.206 103.394 150.089 103.521 149.972 103.639C149.894 103.728 149.816 103.806 149.728 103.885C149.65 103.964 149.572 104.042 149.494 104.111C149.104 104.484 148.685 104.818 148.256 105.123C148.1 105.221 147.954 105.32 147.798 105.418C147.73 105.457 147.661 105.487 147.603 105.526C147.379 105.654 147.164 105.791 146.93 105.909C146.609 106.076 146.277 106.224 145.936 106.351C145.585 106.489 145.224 106.607 144.864 106.695C144.688 106.754 144.513 106.784 144.327 106.833C144.152 106.862 143.967 106.902 143.782 106.931C143.236 107.02 142.699 107.049 142.134 107.049C141.569 107.049 141.013 107 140.477 106.931C139.853 106.833 139.268 106.676 138.693 106.489C138.118 106.292 137.562 106.057 137.045 105.762C136.694 105.575 136.343 105.359 136.012 105.123C135.583 104.809 135.164 104.474 134.774 104.111C134.618 103.964 134.452 103.806 134.306 103.639C134.189 103.531 134.072 103.394 133.965 103.266C132.395 101.448 131.381 99.1093 131.206 96.5544H131.147C130.962 99.4827 129.685 102.116 127.735 104.003C127.618 104.111 127.482 104.229 127.345 104.347C127.102 104.583 126.848 104.779 126.566 104.985H126.556C126.293 105.182 126.01 105.379 125.727 105.546C125.288 105.801 124.83 106.037 124.353 106.233C124.187 106.302 124.031 106.351 123.875 106.42C122.744 106.823 121.535 107.049 120.287 107.049C119.04 107.049 117.821 106.823 116.69 106.42C112.635 104.966 109.691 101.143 109.389 96.5544H109.33C109.164 99.1093 108.141 101.448 106.571 103.266C106.464 103.394 106.347 103.521 106.24 103.639C106.084 103.806 105.928 103.964 105.772 104.111C105.382 104.484 104.963 104.818 104.534 105.123C104.378 105.221 104.232 105.32 104.076 105.418C104.017 105.447 103.949 105.487 103.9 105.526C103.764 105.605 103.637 105.683 103.491 105.762C103.14 105.948 102.779 106.116 102.409 106.273C102.028 106.42 101.648 106.548 101.258 106.666C100.859 106.774 100.459 106.862 100.049 106.931C99.5133 107.02 98.9674 107.049 98.4117 107.049C97.856 107.049 97.2906 107 96.735 106.931C96.1403 106.833 95.5456 106.685 94.9705 106.489C94.7755 106.42 94.5805 106.351 94.3953 106.273C94.0151 106.116 93.6544 105.948 93.3035 105.762C92.9525 105.565 92.6016 105.359 92.2701 105.123C91.8412 104.809 91.422 104.474 91.032 104.111C90.8761 103.964 90.7201 103.806 90.5641 103.639C90.4569 103.531 90.3399 103.394 90.2327 103.266C88.6534 101.448 87.6395 99.1093 87.4738 96.5544H87.4153C87.2301 99.4827 85.953 102.116 84.0033 104.003C83.8669 104.111 83.7499 104.229 83.6134 104.347C83.3697 104.583 83.1162 104.779 82.8335 104.985H82.8238C82.5605 105.182 82.2778 105.379 81.9951 105.546C80.3866 106.509 78.5246 107.049 76.5554 107.049C73.6504 107.049 71.028 105.889 69.0685 104.003C67.1188 102.116 65.8418 99.4827 65.6565 96.5544H65.5786C65.4713 98.1954 65.0131 99.748 64.2722 101.133C64.1943 101.291 64.1163 101.438 64.0188 101.595C63.9408 101.743 63.8531 101.89 63.7556 102.018C63.6386 102.214 63.5021 102.421 63.3559 102.607C63.1902 102.833 63.0147 103.05 62.8197 103.266C62.7125 103.394 62.5955 103.521 62.4883 103.639C62.42 103.708 62.3518 103.767 62.2933 103.836C62.2153 103.914 62.1471 103.983 62.0691 104.062C62.0593 104.072 62.0398 104.091 62.0203 104.111C61.6304 104.484 61.2112 104.818 60.7823 105.123C60.6263 105.221 60.4801 105.32 60.3241 105.418C60.2656 105.457 60.1974 105.487 60.1291 105.526C59.9049 105.663 59.6709 105.801 59.437 105.919C59.1055 106.086 58.7643 106.243 58.4231 106.371C58.2476 106.43 58.0819 106.489 57.9162 106.548C57.8869 106.558 57.8479 106.568 57.8187 106.577C57.5165 106.666 57.2045 106.744 56.9023 106.813C56.7171 106.862 56.5124 106.892 56.3272 106.921C56.1419 106.951 55.9665 106.98 55.7715 106.99C55.6155 107.01 55.4596 107.02 55.3036 107.02C55.0891 107.039 54.8844 107.039 54.6699 107.039H54.6504C54.397 107.039 54.1337 107.029 53.8705 107.01C53.7146 107 53.5586 106.99 53.4026 106.961C53.2661 106.951 53.1394 106.941 53.0029 106.911C52.8469 106.882 52.7007 106.843 52.5447 106.813C52.4473 106.794 52.34 106.774 52.2425 106.744C51.9891 106.685 51.7356 106.617 51.4821 106.538C51.4139 106.518 51.3554 106.489 51.2872 106.469C50.3026 106.135 49.3667 105.683 48.5381 105.103C48.3918 104.995 48.2554 104.868 48.1091 104.759C47.9824 104.661 47.8654 104.563 47.7387 104.455C47.5925 104.327 47.4267 104.219 47.2903 104.091C47.1343 103.944 46.9686 103.787 46.8223 103.62C46.7053 103.511 46.5884 103.374 46.4811 103.246C44.9116 101.428 43.8978 99.0896 43.732 96.5347H43.654C43.2739 102.401 38.5555 107.029 32.8136 107.029C27.0717 107.029 22.295 102.391 21.9148 96.5347H21.7978C21.3981 102.401 16.748 107.029 10.9379 107.029C5.12774 107.029 0 101.91 0 95.6995C0 90.8059 2.94406 86.6199 7.16519 85.0673C2.94406 83.5638 0 79.3974 0 74.4842C0 69.571 2.76859 65.7387 6.77525 64.0879C2.83683 62.4075 0.0584914 58.4082 0 53.7898V53.2002C0.0584914 48.5031 2.86608 44.5333 6.83374 42.8824C2.78809 41.2905 0 37.2126 0 32.4271C0 27.6416 2.94406 23.4261 7.16519 21.8637C2.94406 20.3406 0 16.184 0 11.2708C0 5.00153 4.90352 -0.000123449 10.9574 -0.000123449C17.0112 -0.000123449 21.8758 5.00153 21.8758 11.2708C21.8758 5.01136 26.7793 -0.000123449 32.8331 -0.000123449C38.887 -0.000123449 43.654 4.92292 43.732 11.1332C43.732 10.8974 43.7613 10.6812 43.7808 10.4552C43.7808 10.3569 43.7905 10.2685 43.8003 10.1702C43.8295 9.89509 43.8588 9.61995 43.9075 9.34481C43.927 9.24655 43.9465 9.15811 43.9563 9.06967C43.9952 8.86332 44.0245 8.64714 44.0732 8.44078C44.2097 7.90033 44.3754 7.37953 44.5802 6.86855C44.7751 6.3674 45.0383 5.87608 45.3113 5.40441C45.4868 5.09979 45.6915 4.805 45.8865 4.51021C45.9937 4.36281 46.1107 4.21542 46.2179 4.07785C46.4421 3.80271 46.6858 3.52757 46.9296 3.2819C47.0465 3.16399 47.183 3.02642 47.3098 2.91833C47.378 2.85937 47.456 2.81024 47.5145 2.75128C47.7484 2.54492 47.9922 2.33857 48.2456 2.15186C48.3431 2.07325 48.4308 1.98482 48.5381 1.91603H48.5478C48.6551 1.83742 48.7915 1.77846 48.8988 1.70968C49.045 1.62124 49.1912 1.5328 49.3375 1.44436C49.6884 1.24783 50.0491 1.06113 50.4195 0.894082C50.595 0.81547 50.7705 0.746685 50.946 0.687727C51.1019 0.628768 51.2482 0.550157 51.4139 0.501024C51.7649 0.392934 52.1255 0.304496 52.4862 0.235711C52.4862 0.235711 52.4862 0.225884 52.496 0.235711C52.7982 0.176752 53.0907 0.12762 53.4026 0.0883144C53.5586 0.0686616 53.7146 0.0588351 53.8705 0.0391823C54.124 0.0195294 54.3872 0.00970298 54.6504 0.00970298H54.6992C54.9721 0.00970298 55.2451 0.0195294 55.518 0.0391823C55.713 0.0490087 55.9177 0.0686616 56.103 0.107967C56.2687 0.117794 56.4344 0.157099 56.6001 0.186579C56.7561 0.196405 56.9023 0.235711 57.0388 0.26519C57.341 0.333975 57.6237 0.412587 57.9162 0.501024C58.7058 0.756512 59.4467 1.08078 60.1291 1.49349C60.3533 1.63106 60.5678 1.76863 60.7823 1.91603H60.792C60.9675 2.0536 61.143 2.17152 61.3087 2.30909C61.4744 2.44666 61.6304 2.5744 61.7961 2.7218C61.8059 2.73162 61.8156 2.74145 61.8449 2.75128C62.0008 2.89867 62.1568 3.04607 62.303 3.18364C62.654 3.52757 62.9854 3.90097 63.2779 4.30385C63.4339 4.50038 63.5898 4.72639 63.7361 4.9524C63.8823 5.16858 64.009 5.38476 64.1455 5.62059C64.2625 5.8466 64.3892 6.08244 64.4965 6.30844C64.6037 6.54428 64.7207 6.78011 64.8084 7.02577C64.9059 7.28126 64.9936 7.52692 65.0716 7.78241C65.1496 8.00842 65.2081 8.21477 65.2569 8.44078C65.3933 8.99106 65.4908 9.53151 65.5493 10.1014L65.5786 10.4749C65.5883 10.6419 65.5981 10.8188 65.5981 10.9858C65.5981 10.8777 65.6078 10.7696 65.6078 10.6616C65.6176 10.4749 65.6273 10.298 65.6565 10.1014C65.676 9.91475 65.7053 9.71822 65.7248 9.54134C65.754 9.35464 65.793 9.15811 65.8223 8.98123C65.8515 8.79453 65.9003 8.61766 65.9393 8.43095C66.027 8.05755 66.1342 7.71362 66.261 7.3697C66.4364 6.8489 66.6606 6.33792 66.9239 5.86626C67.1968 5.3258 67.5283 4.81483 67.9085 4.33333C67.9865 4.19576 68.0839 4.07785 68.1814 3.95993C69.166 2.75128 70.4041 1.76863 71.8079 1.09061C71.9736 1.012 72.1296 0.933387 72.2953 0.864602C73.0167 0.550157 73.7673 0.314322 74.557 0.176752C74.8494 0.117794 75.1419 0.078488 75.4441 0.0391823C75.8145 0.00970298 76.1752 -0.0197763 76.5554 -0.0197763C77.2963 -0.0197763 78.0275 0.0588351 78.7391 0.206232C79.246 0.314322 79.7432 0.451892 80.2306 0.638595C80.2501 0.648421 80.2599 0.648421 80.2794 0.648421C82.4046 1.44436 84.2373 2.9085 85.4949 4.79517C85.5923 4.94257 85.6801 5.08997 85.7873 5.23736C86.7817 6.8489 87.3861 8.7454 87.4641 10.7893C87.4738 10.4552 87.5226 10.1309 87.5616 9.80665C87.5616 9.77717 87.5616 9.7477 87.5616 9.70839C87.7468 8.2246 88.2147 6.8489 88.9166 5.61077C88.9556 5.53216 88.9946 5.45355 89.0433 5.37493C89.0628 5.34545 89.0726 5.3258 89.0921 5.29632C89.1701 5.16858 89.2286 5.04084 89.3065 4.91309C89.5015 4.6183 89.716 4.32351 89.9402 4.03854C90.1742 3.77323 90.3984 3.49809 90.6518 3.2426C90.7786 3.12468 90.9053 2.98711 91.032 2.87902C91.227 2.69232 91.4415 2.50562 91.6559 2.35822C91.8704 2.19117 92.0654 2.03395 92.2896 1.87672C92.5041 1.7195 92.7088 1.58193 92.9233 1.47384C92.9818 1.42471 93.0305 1.39523 93.089 1.37558C93.2547 1.27731 93.4204 1.18887 93.5862 1.11026C93.6349 1.08078 93.6837 1.0513 93.7421 1.03165C93.9664 0.933387 94.1808 0.835123 94.405 0.736859C94.6 0.648421 94.8145 0.579636 95.029 0.510851C95.1167 0.461719 95.2044 0.442066 95.2922 0.422413C95.4579 0.363454 95.6334 0.324149 95.8088 0.284843C95.8868 0.255364 95.9551 0.235711 96.0331 0.225884C96.0915 0.206232 96.1403 0.196405 96.1988 0.176752C96.384 0.147273 96.5692 0.107967 96.7447 0.078488C97.3004 -0.000123445 97.856 -0.0492556 98.4214 -0.0492556C99.5523 -0.0492556 100.634 0.117794 101.658 0.442066H101.677C101.931 0.520677 102.175 0.618942 102.418 0.717206C102.925 0.913735 103.403 1.14957 103.871 1.42471C104.105 1.56228 104.329 1.69985 104.544 1.85707C105.08 2.23048 105.587 2.65301 106.055 3.13451C106.22 3.29173 106.376 3.45878 106.532 3.62583C106.883 4.02871 107.205 4.45125 107.497 4.90326C108.609 6.57376 109.272 8.57835 109.359 10.7402C109.476 7.7431 110.724 5.08014 112.664 3.14433C113.649 2.15186 114.828 1.3461 116.125 0.81547C116.291 0.736859 116.456 0.6779 116.622 0.618942C117.772 0.196405 119.01 -0.0394292 120.307 -0.0394292C121.418 -0.0394292 122.481 0.12762 123.485 0.451892C123.651 0.510851 123.816 0.559983 123.982 0.618942C128.047 2.10273 131.021 6.03331 131.206 10.7303C131.255 9.67891 131.43 8.67661 131.742 7.72345C131.849 7.35987 131.986 6.99629 132.142 6.65237C132.161 6.61306 132.181 6.57376 132.2 6.52463C132.307 6.28879 132.405 6.06278 132.522 5.83678C132.571 5.74834 132.619 5.66973 132.668 5.58129C132.678 5.57146 132.678 5.55181 132.697 5.53216C132.766 5.39459 132.844 5.26684 132.931 5.12927C132.98 5.05066 133.039 4.97205 133.087 4.89344C133.185 4.74604 133.273 4.59865 133.38 4.46108C133.487 4.31368 133.604 4.16628 133.711 4.02871C133.926 3.75357 134.169 3.47843 134.423 3.23277H134.433C134.501 3.17381 134.559 3.11485 134.618 3.04607C134.676 2.97728 134.735 2.92815 134.793 2.86919H134.803C135.193 2.48596 135.593 2.16169 136.022 1.8669H136.031C136.392 1.61141 136.782 1.37558 137.182 1.17905C137.377 1.08078 137.581 0.98252 137.796 0.874429C137.825 0.854776 137.874 0.84495 137.913 0.825297C138.108 0.736859 138.322 0.658247 138.537 0.579636C138.663 0.520677 138.78 0.491198 138.907 0.442066C139.014 0.412587 139.131 0.373281 139.239 0.353628C139.473 0.284843 139.697 0.225884 139.921 0.186579C140.642 0.0293558 141.393 -0.0492556 142.163 -0.0492556C143.294 -0.0492556 144.386 0.117794 145.41 0.442066H145.419C146.462 0.776165 147.418 1.24783 148.276 1.85707C148.646 2.11256 148.987 2.39753 149.328 2.67267C149.66 2.97728 149.982 3.29173 150.274 3.62583C150.625 4.02871 150.947 4.45125 151.249 4.90326C152.37 6.61306 153.043 8.63731 153.111 10.8384C153.111 10.6812 153.121 10.524 153.13 10.3668C153.16 9.98353 153.208 9.61013 153.267 9.24655C153.91 5.39459 156.445 2.25013 159.847 0.805644C159.847 0.805644 159.85 0.805644 159.857 0.805644C160.023 0.727032 160.188 0.668074 160.354 0.609115C160.52 0.550157 160.686 0.501024 160.851 0.442066C161.875 0.117794 162.947 -0.0492556 164.049 -0.0492556C166.076 -0.0492556 167.977 0.530504 169.625 1.52297C170.21 1.89638 170.766 2.30909 171.272 2.78076C171.409 2.88885 171.526 3.01659 171.653 3.13451C173.602 5.08014 174.84 7.78241 174.957 10.809C174.957 10.5829 175.006 10.3668 175.026 10.1408C175.045 9.92457 175.055 9.69856 175.084 9.49221C175.133 9.15811 175.201 8.82401 175.279 8.49974C175.308 8.38182 175.338 8.25408 175.367 8.13616C175.464 7.79224 175.572 7.45814 175.689 7.13387C175.718 7.04543 175.757 6.96682 175.786 6.87838C175.932 6.52463 176.078 6.1807 176.264 5.8466C176.264 5.8466 176.264 5.8466 176.264 5.83678C176.273 5.81712 176.293 5.79747 176.303 5.76799C176.459 5.4732 176.615 5.16858 176.8 4.89344C176.819 4.86396 176.858 4.81483 176.888 4.78535C177.053 4.52986 177.239 4.27437 177.434 4.02871C177.658 3.75357 177.892 3.47843 178.145 3.23277C178.213 3.16399 178.282 3.0952 178.34 3.04607C178.399 2.97728 178.457 2.92815 178.516 2.86919C178.711 2.68249 178.925 2.49579 179.14 2.34839C179.334 2.18134 179.559 2.02412 179.773 1.8669C179.988 1.70968 180.192 1.57211 180.407 1.46401C180.456 1.41488 180.504 1.39523 180.553 1.37558C180.748 1.26749 180.953 1.14957 181.157 1.0513C181.391 0.943214 181.635 0.825297 181.889 0.727032C182.084 0.638595 182.298 0.569809 182.513 0.501024C182.6 0.451892 182.688 0.43224 182.776 0.412587C182.941 0.353628 183.117 0.314322 183.292 0.275017C183.37 0.245537 183.439 0.225884 183.517 0.216058C183.575 0.196405 183.624 0.186579 183.682 0.166926C183.868 0.137447 184.053 0.0981409 184.228 0.0686616C184.784 -0.00994988 185.32 -0.059082 185.905 -0.059082C186.49 -0.059082 187.016 -0.0296027 187.533 0.0686616C187.718 0.0981409 187.894 0.137447 188.089 0.166926C188.264 0.196405 188.44 0.245537 188.625 0.284843C188.81 0.324149 188.966 0.373281 189.142 0.43224H189.161C189.298 0.481372 189.424 0.520677 189.551 0.579636C190.107 0.776165 190.643 1.02183 191.159 1.30679C191.462 1.47384 191.744 1.65072 192.037 1.85707C192.573 2.23048 193.08 2.65301 193.548 3.13451C193.714 3.29173 193.87 3.45878 194.026 3.62583C194.377 4.02871 194.698 4.45125 194.991 4.90326C196.083 6.56393 196.755 8.53905 196.853 10.7009C196.989 7.73328 198.217 5.07031 200.157 3.15416C201.025 2.27961 202.019 1.56228 203.131 1.03165C203.452 0.884255 203.774 0.736859 204.096 0.618942C205.246 0.196405 206.504 -0.0394292 207.81 -0.0394292C208.921 -0.0394292 209.984 0.12762 210.988 0.451892C211.154 0.510851 211.32 0.559983 211.485 0.618942C215.541 2.10273 218.494 6.00383 218.709 10.691C218.787 8.94193 219.245 7.30091 220.015 5.8466C220.064 5.75816 220.113 5.67955 220.161 5.59112C220.171 5.58129 220.171 5.56164 220.191 5.54198C220.259 5.40441 220.337 5.27667 220.425 5.1391C220.473 5.06049 220.532 4.98188 220.581 4.90326C220.678 4.75587 220.766 4.60847 220.873 4.4709C220.98 4.32351 221.088 4.17611 221.195 4.03854C221.283 3.94028 221.37 3.84201 221.458 3.74375C221.546 3.64548 221.633 3.54722 221.721 3.43913C221.789 3.37034 221.848 3.30156 221.906 3.2426C222.014 3.12468 222.15 2.98711 222.287 2.87902H222.296C222.647 2.5351 223.018 2.23048 223.417 1.95534C223.612 1.80794 223.827 1.6802 224.041 1.55245C224.451 1.28714 224.88 1.06113 225.328 0.864602C226.001 0.569809 226.712 0.343802 227.453 0.196405C227.629 0.166926 227.804 0.12762 227.999 0.0981409C228.545 0.0195294 229.091 -0.0296027 229.657 -0.0296027C230.222 -0.0296027 230.768 -0.000123452 231.294 0.0981409C231.47 0.12762 231.655 0.166926 231.84 0.196405H231.86C232.103 0.255364 232.337 0.304496 232.571 0.373281C232.805 0.442066 233.049 0.520677 233.283 0.599289C233.497 0.6779 233.712 0.766338 233.926 0.84495C233.936 0.854776 233.946 0.864602 233.975 0.864602C234.619 1.13974 235.223 1.48367 235.788 1.87672C235.954 1.98482 236.1 2.12239 236.247 2.2403C236.286 2.26978 236.315 2.29926 236.354 2.31891C236.861 2.7218 237.338 3.15416 237.767 3.63566C237.875 3.77323 238.001 3.90097 238.089 4.03854C238.333 4.31368 238.547 4.60847 238.742 4.91309C239.23 5.6599 239.62 6.47549 239.922 7.33039C240.107 7.84137 240.263 8.372 240.37 8.92228C240.419 9.14828 240.448 9.36447 240.477 9.59047C240.546 10.0032 240.585 10.4061 240.585 10.8286C240.741 6.08244 243.724 2.12239 247.838 0.618942C248.003 0.559983 248.169 0.510851 248.335 0.451892C249.339 0.12762 250.421 -0.0394292 251.523 -0.0394292C251.903 -0.0394292 252.273 -0.0197763 252.644 0.0195294C252.975 0.0490087 253.297 0.107967 253.619 0.176752C254.008 0.255364 254.379 0.343802 254.749 0.471545C255.081 0.569809 255.402 0.697553 255.714 0.825297C255.724 0.835123 255.734 0.835123 255.763 0.84495C256.065 0.98252 256.358 1.12009 256.66 1.27731C256.67 1.28714 256.689 1.29697 256.719 1.30679C256.875 1.39523 257.021 1.48367 257.177 1.57211C257.771 1.95534 258.337 2.3877 258.863 2.86919C258.98 2.99694 259.117 3.11486 259.243 3.23277C259.36 3.36052 259.487 3.48826 259.604 3.62583C259.711 3.7634 259.828 3.89114 259.945 4.02871C260.287 4.44142 260.589 4.88361 260.852 5.35528C260.94 5.5125 261.027 5.66973 261.115 5.82695C261.876 7.27144 262.343 8.8928 262.421 10.6419C262.431 10.7107 262.441 10.7893 262.441 10.8679C262.451 10.6714 262.46 10.4552 262.47 10.2587C262.519 9.82631 262.568 9.37429 262.646 8.95175C262.646 8.94193 262.646 8.9321 262.655 8.92228C262.743 8.48991 262.85 8.06738 262.987 7.64484C263.055 7.42866 263.123 7.2223 263.211 7.01595C263.611 5.97435 264.166 5.02118 264.829 4.16628C264.859 4.12698 264.898 4.07785 264.927 4.03854C264.956 4.00906 264.985 3.96975 265.015 3.94028C265.629 3.18364 266.34 2.52527 267.13 1.96516C267.14 1.96516 267.15 1.94551 267.159 1.94551C267.549 1.67037 267.959 1.40506 268.388 1.18887C268.612 1.08078 268.826 0.962867 269.05 0.864602C269.06 0.854776 269.07 0.854776 269.07 0.854776C269.294 0.766338 269.509 0.6779 269.733 0.599289C269.967 0.520677 270.201 0.442066 270.445 0.373281C270.503 0.353628 270.542 0.343802 270.6 0.324149C270.786 0.275017 270.981 0.235711 271.176 0.186579C271.322 0.166926 271.449 0.12762 271.605 0.107967C271.683 0.0883144 271.751 0.078488 271.819 0.078488C272.063 0.0490087 272.297 0.0195294 272.54 -0.000123449C272.804 -0.0197763 273.077 -0.0296027 273.34 -0.0296027H273.428C273.671 -0.0296027 273.905 -0.0197763 274.149 -0.000123449C274.305 0.00970298 274.461 0.0195294 274.617 0.0490087C274.763 0.0490087 274.89 0.0686616 275.026 0.0981409C275.192 0.12762 275.377 0.166926 275.543 0.196405H275.563C275.913 0.275017 276.264 0.363454 276.596 0.471545C277.805 0.835123 278.906 1.42471 279.901 2.19117C280.047 2.29926 280.174 2.41718 280.31 2.52527C280.456 2.63336 280.603 2.7611 280.729 2.87902C280.866 2.98711 280.973 3.10503 281.1 3.2426H281.109C281.353 3.49809 281.597 3.7634 281.821 4.03854C281.928 4.18594 282.045 4.33333 282.143 4.4709C282.25 4.6183 282.357 4.7657 282.445 4.90326C282.737 5.34545 283.001 5.82695 283.235 6.31827C283.313 6.48532 283.391 6.65237 283.459 6.81942C283.527 6.98647 283.595 7.15352 283.654 7.33039C284.063 8.46043 284.297 9.65926 284.326 10.9367C284.463 4.805 289.308 -0.0492556 295.274 -0.0492556C301.24 -0.0492556 306.173 4.9524 306.173 11.2217C306.173 4.96222 311.047 -0.0492556 317.091 -0.0492556C323.135 -0.0492556 328.059 4.9524 328.059 11.2217C328.059 16.1349 325.105 20.3013 320.874 21.8146C325.105 23.377 328.059 27.5532 328.059 32.378C328.059 37.2027 325.261 41.2316 321.205 42.8333L321.137 42.8726Z" fill="#003D23"/>
<path d="M302.4 69.6593C302.4 78.5817 295.225 85.814 286.374 85.814C280.583 85.814 275.504 82.7187 272.697 78.0806C269.869 82.7187 264.79 85.814 259 85.814C253.209 85.814 248.13 82.7187 245.323 78.0806C242.505 82.7187 237.426 85.814 231.636 85.814C225.845 85.814 220.766 82.7187 217.958 78.0806C215.131 82.7187 210.052 85.814 204.262 85.814C198.471 85.814 193.392 82.7187 190.584 78.0806C187.767 82.7187 182.688 85.814 176.897 85.814C171.107 85.814 166.028 82.7187 163.21 78.0806C160.393 82.7187 155.314 85.814 149.523 85.814C143.733 85.814 138.654 82.7187 135.846 78.0806C133.029 82.7187 127.95 85.814 122.159 85.814C116.369 85.814 111.28 82.7187 108.472 78.0806C105.655 82.7187 100.576 85.814 94.7853 85.814C88.9947 85.814 83.9157 82.7187 81.1081 78.0806C78.2907 82.7187 73.2117 85.814 67.4113 85.814C61.611 85.814 56.5417 82.7187 53.7341 78.0806C50.9168 82.7187 45.8378 85.814 40.0471 85.814C31.1954 85.814 24.0205 78.5817 24.0205 69.6593C24.0205 60.7369 31.1954 53.4948 40.0471 53.4948C31.1954 53.4948 24.0205 46.2626 24.0205 37.3402C24.0205 28.4178 31.1954 21.1855 40.0471 21.1855C45.8378 21.1855 50.9168 24.2809 53.7341 28.9288C56.5417 24.2809 61.6207 21.1855 67.4113 21.1855C73.202 21.1855 78.2907 24.2809 81.1081 28.9288C83.9157 24.2809 88.9947 21.1855 94.7853 21.1855C100.576 21.1855 105.655 24.2809 108.472 28.9288C111.28 24.2809 116.359 21.1855 122.159 21.1855C127.96 21.1855 133.029 24.2809 135.846 28.9288C138.654 24.2809 143.733 21.1855 149.523 21.1855C155.314 21.1855 160.393 24.2809 163.21 28.9288C166.028 24.2809 171.107 21.1855 176.897 21.1855C182.688 21.1855 187.767 24.2809 190.584 28.9288C193.392 24.2809 198.471 21.1855 204.262 21.1855C210.052 21.1855 215.131 24.2809 217.958 28.9288C220.766 24.2809 225.845 21.1855 231.636 21.1855C237.426 21.1855 242.505 24.2809 245.323 28.9288C248.13 24.2809 253.209 21.1855 259 21.1855C264.79 21.1855 269.869 24.2809 272.697 28.9288C275.504 24.2809 280.583 21.1855 286.374 21.1855C295.225 21.1855 302.4 28.4178 302.4 37.3402C302.4 46.2626 295.225 53.4948 286.374 53.4948C295.225 53.4948 302.4 60.7369 302.4 69.6593Z" fill="#06F93F"/>
<path d="M53.047 60V57.68H54.887V48.32H53.047V46H58.807C60.687 46 62.1136 46.48 63.087 47.44C64.0736 48.3867 64.567 49.8 64.567 51.68V54.32C64.567 56.2 64.0736 57.62 63.087 58.58C62.1136 59.5267 60.687 60 58.807 60H53.047ZM57.527 57.6H58.847C59.9136 57.6 60.6936 57.32 61.187 56.76C61.6803 56.2 61.927 55.4133 61.927 54.4V51.6C61.927 50.5733 61.6803 49.7867 61.187 49.24C60.6936 48.68 59.9136 48.4 58.847 48.4H57.527V57.6ZM66.8473 60V50.08H69.3673V60H66.8473ZM68.1073 48.92C67.6539 48.92 67.2673 48.7733 66.9473 48.48C66.6406 48.1867 66.4873 47.8 66.4873 47.32C66.4873 46.84 66.6406 46.4533 66.9473 46.16C67.2673 45.8667 67.6539 45.72 68.1073 45.72C68.5739 45.72 68.9606 45.8667 69.2673 46.16C69.5739 46.4533 69.7273 46.84 69.7273 47.32C69.7273 47.8 69.5739 48.1867 69.2673 48.48C68.9606 48.7733 68.5739 48.92 68.1073 48.92ZM76.2798 60.28C74.9864 60.28 73.9264 60 73.0998 59.44C72.2731 58.88 71.7731 58.08 71.5998 57.04L73.9198 56.44C74.0131 56.9067 74.1664 57.2733 74.3798 57.54C74.6064 57.8067 74.8798 58 75.1998 58.12C75.5331 58.2267 75.8931 58.28 76.2798 58.28C76.8664 58.28 77.2998 58.18 77.5798 57.98C77.8598 57.7667 77.9998 57.5067 77.9998 57.2C77.9998 56.8933 77.8664 56.66 77.5998 56.5C77.3331 56.3267 76.9064 56.1867 76.3198 56.08L75.7598 55.98C75.0664 55.8467 74.4331 55.6667 73.8598 55.44C73.2864 55.2 72.8264 54.8733 72.4798 54.46C72.1331 54.0467 71.9598 53.5133 71.9598 52.86C71.9598 51.8733 72.3198 51.12 73.0398 50.6C73.7598 50.0667 74.7064 49.8 75.8798 49.8C76.9864 49.8 77.9064 50.0467 78.6398 50.54C79.3731 51.0333 79.8531 51.68 80.0798 52.48L77.7398 53.2C77.6331 52.6933 77.4131 52.3333 77.0798 52.12C76.7598 51.9067 76.3598 51.8 75.8798 51.8C75.3998 51.8 75.0331 51.8867 74.7798 52.06C74.5264 52.22 74.3998 52.4467 74.3998 52.74C74.3998 53.06 74.5331 53.3 74.7998 53.46C75.0664 53.6067 75.4264 53.72 75.8798 53.8L76.4398 53.9C77.1864 54.0333 77.8598 54.2133 78.4598 54.44C79.0731 54.6533 79.5531 54.9667 79.8998 55.38C80.2598 55.78 80.4398 56.3267 80.4398 57.02C80.4398 58.06 80.0598 58.8667 79.2998 59.44C78.5531 60 77.5464 60.28 76.2798 60.28ZM87.308 60.28C86.348 60.28 85.4747 60.08 84.688 59.68C83.9147 59.28 83.3014 58.7 82.848 57.94C82.3947 57.18 82.168 56.26 82.168 55.18V54.9C82.168 53.82 82.3947 52.9 82.848 52.14C83.3014 51.38 83.9147 50.8 84.688 50.4C85.4747 50 86.348 49.8 87.308 49.8C88.2547 49.8 89.068 49.9667 89.748 50.3C90.428 50.6333 90.9747 51.0933 91.388 51.68C91.8147 52.2533 92.0947 52.9067 92.228 53.64L89.788 54.16C89.7347 53.76 89.6147 53.4 89.428 53.08C89.2414 52.76 88.9747 52.5067 88.628 52.32C88.2947 52.1333 87.8747 52.04 87.368 52.04C86.8614 52.04 86.4014 52.1533 85.988 52.38C85.588 52.5933 85.268 52.92 85.028 53.36C84.8014 53.7867 84.688 54.3133 84.688 54.94V55.14C84.688 55.7667 84.8014 56.3 85.028 56.74C85.268 57.1667 85.588 57.4933 85.988 57.72C86.4014 57.9333 86.8614 58.04 87.368 58.04C88.128 58.04 88.7014 57.8467 89.088 57.46C89.488 57.06 89.7414 56.54 89.848 55.9L92.288 56.48C92.1147 57.1867 91.8147 57.8333 91.388 58.42C90.9747 58.9933 90.428 59.4467 89.748 59.78C89.068 60.1133 88.2547 60.28 87.308 60.28ZM99.0868 60.28C98.1001 60.28 97.2135 60.08 96.4268 59.68C95.6401 59.28 95.0201 58.7 94.5668 57.94C94.1135 57.18 93.8868 56.2667 93.8868 55.2V54.88C93.8868 53.8133 94.1135 52.9 94.5668 52.14C95.0201 51.38 95.6401 50.8 96.4268 50.4C97.2135 50 98.1001 49.8 99.0868 49.8C100.073 49.8 100.96 50 101.747 50.4C102.533 50.8 103.153 51.38 103.607 52.14C104.06 52.9 104.287 53.8133 104.287 54.88V55.2C104.287 56.2667 104.06 57.18 103.607 57.94C103.153 58.7 102.533 59.28 101.747 59.68C100.96 60.08 100.073 60.28 99.0868 60.28ZM99.0868 58.04C99.8601 58.04 100.5 57.7933 101.007 57.3C101.513 56.7933 101.767 56.0733 101.767 55.14V54.94C101.767 54.0067 101.513 53.2933 101.007 52.8C100.513 52.2933 99.8735 52.04 99.0868 52.04C98.3135 52.04 97.6735 52.2933 97.1668 52.8C96.6601 53.2933 96.4068 54.0067 96.4068 54.94V55.14C96.4068 56.0733 96.6601 56.7933 97.1668 57.3C97.6735 57.7933 98.3135 58.04 99.0868 58.04ZM108.4 60L105.24 50.08H107.92L110.22 58.16H110.58L112.88 50.08H115.56L112.4 60H108.4ZM121.504 60.28C120.517 60.28 119.644 60.0733 118.884 59.66C118.137 59.2333 117.551 58.64 117.124 57.88C116.711 57.1067 116.504 56.2 116.504 55.16V54.92C116.504 53.88 116.711 52.98 117.124 52.22C117.537 51.4467 118.117 50.8533 118.864 50.44C119.611 50.0133 120.477 49.8 121.464 49.8C122.437 49.8 123.284 50.02 124.004 50.46C124.724 50.8867 125.284 51.4867 125.684 52.26C126.084 53.02 126.284 53.9067 126.284 54.92V55.78H119.064C119.091 56.46 119.344 57.0133 119.824 57.44C120.304 57.8667 120.891 58.08 121.584 58.08C122.291 58.08 122.811 57.9267 123.144 57.62C123.477 57.3133 123.731 56.9733 123.904 56.6L125.964 57.68C125.777 58.0267 125.504 58.4067 125.144 58.82C124.797 59.22 124.331 59.5667 123.744 59.86C123.157 60.14 122.411 60.28 121.504 60.28ZM119.084 53.9H123.724C123.671 53.3267 123.437 52.8667 123.024 52.52C122.624 52.1733 122.097 52 121.444 52C120.764 52 120.224 52.1733 119.824 52.52C119.424 52.8667 119.177 53.3267 119.084 53.9ZM128.527 60V50.08H131.007V51.2H131.367C131.514 50.8 131.754 50.5067 132.087 50.32C132.434 50.1333 132.834 50.04 133.287 50.04H134.487V52.28H133.247C132.607 52.28 132.08 52.4533 131.667 52.8C131.254 53.1333 131.047 53.6533 131.047 54.36V60H128.527ZM146.255 60.28C145.268 60.28 144.381 60.08 143.595 59.68C142.808 59.28 142.188 58.7 141.735 57.94C141.281 57.18 141.055 56.2667 141.055 55.2V54.88C141.055 53.8133 141.281 52.9 141.735 52.14C142.188 51.38 142.808 50.8 143.595 50.4C144.381 50 145.268 49.8 146.255 49.8C147.241 49.8 148.128 50 148.915 50.4C149.701 50.8 150.321 51.38 150.775 52.14C151.228 52.9 151.455 53.8133 151.455 54.88V55.2C151.455 56.2667 151.228 57.18 150.775 57.94C150.321 58.7 149.701 59.28 148.915 59.68C148.128 60.08 147.241 60.28 146.255 60.28ZM146.255 58.04C147.028 58.04 147.668 57.7933 148.175 57.3C148.681 56.7933 148.935 56.0733 148.935 55.14V54.94C148.935 54.0067 148.681 53.2933 148.175 52.8C147.681 52.2933 147.041 52.04 146.255 52.04C145.481 52.04 144.841 52.2933 144.335 52.8C143.828 53.2933 143.575 54.0067 143.575 54.94V55.14C143.575 56.0733 143.828 56.7933 144.335 57.3C144.841 57.7933 145.481 58.04 146.255 58.04ZM157.561 60.16C156.788 60.16 156.108 59.9867 155.521 59.64C154.948 59.28 154.501 58.7867 154.181 58.16C153.861 57.5333 153.701 56.8133 153.701 56V50.08H156.221V55.8C156.221 56.5467 156.401 57.1067 156.761 57.48C157.134 57.8533 157.661 58.04 158.341 58.04C159.114 58.04 159.714 57.7867 160.141 57.28C160.568 56.76 160.781 56.04 160.781 55.12V50.08H163.301V60H160.821V58.7H160.461C160.301 59.0333 160.001 59.36 159.561 59.68C159.121 60 158.454 60.16 157.561 60.16ZM166.105 60V50.08H168.585V51.2H168.945C169.092 50.8 169.332 50.5067 169.665 50.32C170.012 50.1333 170.412 50.04 170.865 50.04H172.065V52.28H170.825C170.185 52.28 169.658 52.4533 169.245 52.8C168.832 53.1333 168.625 53.6533 168.625 54.36V60H166.105ZM179.033 60V46H188.033V48.4H181.673V51.74H187.473V54.14H181.673V57.6H188.153V60H179.033ZM190.187 60V50.08H192.707V60H190.187ZM191.447 48.92C190.994 48.92 190.607 48.7733 190.287 48.48C189.98 48.1867 189.827 47.8 189.827 47.32C189.827 46.84 189.98 46.4533 190.287 46.16C190.607 45.8667 190.994 45.72 191.447 45.72C191.914 45.72 192.3 45.8667 192.607 46.16C192.914 46.4533 193.067 46.84 193.067 47.32C193.067 47.8 192.914 48.1867 192.607 48.48C192.3 48.7733 191.914 48.92 191.447 48.92ZM199.5 60.28C198.713 60.28 197.973 60.0867 197.28 59.7C196.6 59.3 196.053 58.72 195.64 57.96C195.226 57.2 195.02 56.28 195.02 55.2V54.88C195.02 53.8 195.226 52.88 195.64 52.12C196.053 51.36 196.6 50.7867 197.28 50.4C197.96 50 198.7 49.8 199.5 49.8C200.1 49.8 200.6 49.8733 201 50.02C201.413 50.1533 201.746 50.3267 202 50.54C202.253 50.7533 202.446 50.98 202.58 51.22H202.94V46H205.46V60H202.98V58.8H202.62C202.393 59.1733 202.04 59.5133 201.56 59.82C201.093 60.1267 200.406 60.28 199.5 60.28ZM200.26 58.08C201.033 58.08 201.68 57.8333 202.2 57.34C202.72 56.8333 202.98 56.1 202.98 55.14V54.94C202.98 53.98 202.72 53.2533 202.2 52.76C201.693 52.2533 201.046 52 200.26 52C199.486 52 198.84 52.2533 198.32 52.76C197.8 53.2533 197.54 53.98 197.54 54.94V55.14C197.54 56.1 197.8 56.8333 198.32 57.34C198.84 57.8333 199.486 58.08 200.26 58.08ZM213.252 60V46H222.252V48.4H215.892V51.74H221.692V54.14H215.892V57.6H222.372V60H213.252ZM226.486 60L223.326 50.08H226.006L228.306 58.16H228.666L230.966 50.08H233.646L230.486 60H226.486ZM239.59 60.28C238.603 60.28 237.73 60.0733 236.97 59.66C236.223 59.2333 235.637 58.64 235.21 57.88C234.797 57.1067 234.59 56.2 234.59 55.16V54.92C234.59 53.88 234.797 52.98 235.21 52.22C235.623 51.4467 236.203 50.8533 236.95 50.44C237.697 50.0133 238.563 49.8 239.55 49.8C240.523 49.8 241.37 50.02 242.09 50.46C242.81 50.8867 243.37 51.4867 243.77 52.26C244.17 53.02 244.37 53.9067 244.37 54.92V55.78H237.15C237.177 56.46 237.43 57.0133 237.91 57.44C238.39 57.8667 238.977 58.08 239.67 58.08C240.377 58.08 240.897 57.9267 241.23 57.62C241.563 57.3133 241.817 56.9733 241.99 56.6L244.05 57.68C243.863 58.0267 243.59 58.4067 243.23 58.82C242.883 59.22 242.417 59.5667 241.83 59.86C241.243 60.14 240.497 60.28 239.59 60.28ZM237.17 53.9H241.81C241.757 53.3267 241.523 52.8667 241.11 52.52C240.71 52.1733 240.183 52 239.53 52C238.85 52 238.31 52.1733 237.91 52.52C237.51 52.8667 237.263 53.3267 237.17 53.9ZM246.613 60V50.08H249.093V51.38H249.453C249.613 51.0333 249.913 50.7067 250.353 50.4C250.793 50.08 251.46 49.92 252.353 49.92C253.126 49.92 253.8 50.1 254.373 50.46C254.96 50.8067 255.413 51.2933 255.733 51.92C256.053 52.5333 256.213 53.2533 256.213 54.08V60H253.693V54.28C253.693 53.5333 253.506 52.9733 253.133 52.6C252.773 52.2267 252.253 52.04 251.573 52.04C250.8 52.04 250.2 52.3 249.773 52.82C249.346 53.3267 249.133 54.04 249.133 54.96V60H246.613ZM262.464 60C261.81 60 261.277 59.8 260.864 59.4C260.464 58.9867 260.264 58.44 260.264 57.76V52.16H257.784V50.08H260.264V47H262.784V50.08H265.504V52.16H262.784V57.32C262.784 57.72 262.97 57.92 263.344 57.92H265.264V60H262.464ZM271.905 60.28C270.611 60.28 269.551 60 268.725 59.44C267.898 58.88 267.398 58.08 267.225 57.04L269.545 56.44C269.638 56.9067 269.791 57.2733 270.005 57.54C270.231 57.8067 270.505 58 270.825 58.12C271.158 58.2267 271.518 58.28 271.905 58.28C272.491 58.28 272.925 58.18 273.205 57.98C273.485 57.7667 273.625 57.5067 273.625 57.2C273.625 56.8933 273.491 56.66 273.225 56.5C272.958 56.3267 272.531 56.1867 271.945 56.08L271.385 55.98C270.691 55.8467 270.058 55.6667 269.485 55.44C268.911 55.2 268.451 54.8733 268.105 54.46C267.758 54.0467 267.585 53.5133 267.585 52.86C267.585 51.8733 267.945 51.12 268.665 50.6C269.385 50.0667 270.331 49.8 271.505 49.8C272.611 49.8 273.531 50.0467 274.265 50.54C274.998 51.0333 275.478 51.68 275.705 52.48L273.365 53.2C273.258 52.6933 273.038 52.3333 272.705 52.12C272.385 51.9067 271.985 51.8 271.505 51.8C271.025 51.8 270.658 51.8867 270.405 52.06C270.151 52.22 270.025 52.4467 270.025 52.74C270.025 53.06 270.158 53.3 270.425 53.46C270.691 53.6067 271.051 53.72 271.505 53.8L272.065 53.9C272.811 54.0333 273.485 54.2133 274.085 54.44C274.698 54.6533 275.178 54.9667 275.525 55.38C275.885 55.78 276.065 56.3267 276.065 57.02C276.065 58.06 275.685 58.8667 274.925 59.44C274.178 60 273.171 60.28 271.905 60.28Z" fill="#003D23"/>
</g>
<defs>
<clipPath id="clip0_177_381">
<rect width="328" height="107" fill="white"/>
</clipPath>
</defs>
</svg>
