<svg width="288" height="93" viewBox="0 0 288 93" fill="none" xmlns="http://www.w3.org/2000/svg">
<g clip-path="url(#clip0_58_1526)">
<path d="M281.989 37.2719C285.481 38.708 287.951 42.1528 288 46.2381C288 46.2769 288 46.3254 288 46.3642V46.6359C288 46.6359 288 46.7232 288 46.7621C287.961 50.7794 285.5 54.2533 282.037 55.7186C285.568 57.1547 288 60.6965 288 64.7527C288 69.0126 285.403 72.6321 281.697 73.9518C285.412 75.3006 288 78.9394 288 83.1897C288 88.5849 283.681 93.0098 278.37 93.0098C273.06 93.0098 269.189 88.9827 268.839 83.8786H268.732C268.401 88.9827 264.257 93.0098 259.219 93.0098C254.181 93.0098 249.979 88.9827 249.658 83.8786H249.59C249.444 86.1105 248.559 88.1385 247.178 89.7105C247.081 89.8173 246.983 89.9337 246.876 90.0405C246.74 90.1763 246.604 90.3219 246.468 90.448C246.011 90.875 245.515 91.2534 244.98 91.5833C243.919 92.2432 242.733 92.6993 241.459 92.8933C240.992 92.971 240.505 93.0001 240.019 93.0001C239.533 93.0001 239.037 92.9613 238.56 92.8933C236.488 92.5634 234.631 91.5639 233.22 90.1181C232.987 89.8755 232.763 89.6232 232.559 89.3612C231.343 87.8377 230.565 85.9455 230.429 83.8689H230.361C230.03 88.973 225.887 93.0001 220.848 93.0001C215.81 93.0001 211.598 88.973 211.277 83.8689H211.209C211.034 86.4113 209.906 88.7013 208.175 90.351C208.116 90.4092 208.048 90.4674 207.98 90.5353C207.893 90.6033 207.825 90.6712 207.727 90.7488C207.611 90.8458 207.494 90.9429 207.367 91.0399C207.251 91.1273 207.124 91.2243 207.008 91.3116C207.008 91.3116 206.998 91.3116 206.978 91.3213C206.852 91.4087 206.725 91.4863 206.599 91.5736C205.539 92.2335 204.342 92.6896 203.068 92.8836C202.601 92.9613 202.125 92.9904 201.629 92.9904C201.133 92.9904 200.646 92.9516 200.17 92.8836C198.73 92.6507 197.398 92.1073 196.25 91.3116C195.871 91.0399 195.501 90.7488 195.161 90.4286C195.025 90.2927 194.879 90.1569 194.752 90.021C194.645 89.9143 194.548 89.8076 194.451 89.6911C193.06 88.1094 192.184 86.0813 192.029 83.8592H191.961C191.63 88.9633 187.487 92.9904 182.448 92.9904C177.41 92.9904 173.198 88.9633 172.877 83.8592H172.809C172.663 86.091 171.778 88.1191 170.397 89.6911C170.3 89.7979 170.203 89.9143 170.096 90.021C169.96 90.1569 169.823 90.3025 169.687 90.4286C169.347 90.7488 168.977 91.0399 168.598 91.3116C168.462 91.399 168.335 91.4863 168.199 91.5639C167.149 92.2238 165.952 92.6798 164.678 92.8739C164.211 92.9516 163.725 92.9807 163.239 92.9807C162.752 92.9807 162.256 92.9418 161.78 92.8739C160.34 92.641 159.008 92.0976 157.86 91.3019C157.481 91.0302 157.111 90.7391 156.77 90.4189C156.634 90.283 156.488 90.1472 156.362 90.0113C156.255 89.9046 156.158 89.7979 156.06 89.6814C154.679 88.0997 153.794 86.0716 153.639 83.8495H153.57C153.24 88.9536 149.096 92.9807 144.058 92.9807C139.02 92.9807 134.808 88.9536 134.487 83.8495H134.419C134.273 86.0814 133.388 88.1094 132.007 89.6814C131.91 89.7882 131.812 89.9046 131.705 90.0113C131.569 90.1472 131.433 90.2927 131.297 90.4189C130.956 90.7391 130.587 91.0302 130.208 91.3019C129.06 92.0976 127.727 92.641 126.288 92.8739C125.821 92.9516 125.335 92.9807 124.848 92.9807C124.362 92.9807 123.866 92.9418 123.389 92.8739C121.95 92.641 120.617 92.0976 119.47 91.3019C119.09 91.0302 118.721 90.7391 118.38 90.4189C118.244 90.283 118.098 90.1472 117.972 90.0113C117.865 89.9046 117.767 89.7979 117.67 89.6814C116.279 88.0997 115.404 86.0716 115.248 83.8495H115.18C114.849 88.9536 110.706 92.9807 105.668 92.9807C100.629 92.9807 96.4276 88.9536 96.0969 83.8495H96.0288C95.8829 86.0814 94.9978 88.1094 93.6167 89.6814C93.5194 89.7882 93.4221 89.9046 93.3152 90.0113C93.179 90.1472 93.0428 90.2927 92.9066 90.4189C92.5662 90.7391 92.1966 91.0302 91.8173 91.3019C91.6811 91.3893 91.5547 91.4766 91.4185 91.5542C90.368 92.2141 89.1717 92.6701 87.8975 92.8642C87.4209 92.9418 86.9443 92.971 86.458 92.971C85.9717 92.971 85.4756 92.9321 84.999 92.8642C83.5595 92.6313 82.227 92.0879 81.0793 91.2922C80.7 91.0205 80.3303 90.7294 79.9899 90.4092C79.8537 90.2733 79.7079 90.1375 79.5814 90.0016C79.4744 89.8949 79.3772 89.7882 79.2799 89.6717C77.8987 88.09 77.0136 86.0619 76.8677 83.8398H76.7996C76.4689 88.9439 72.3255 92.971 67.2872 92.971C62.2489 92.971 58.0471 88.9439 57.7164 83.8398H57.6094C57.2592 88.9439 53.1741 92.971 48.0775 92.971C42.9808 92.971 38.458 88.5461 38.458 83.1508C38.458 78.9006 41.055 75.2617 44.7607 73.9129C41.055 72.6029 38.458 68.9738 38.458 64.7139C38.458 60.4539 40.8896 57.1159 44.4203 55.6797C40.9577 54.2242 38.5066 50.7503 38.4677 46.7232C38.4677 46.6844 38.4677 46.6359 38.4677 46.5971V46.3254C38.4677 46.3254 38.4677 46.2381 38.4677 46.1992C38.5066 42.114 40.9772 38.6692 44.469 37.2331C40.9188 35.8454 38.458 32.3036 38.458 28.1504C38.458 23.9972 41.055 20.3293 44.7607 18.9707C41.055 17.651 38.458 14.0316 38.458 9.76195C38.458 4.31819 42.7668 -0.0387601 48.0775 -0.0387601C53.3881 -0.0387601 57.6677 4.31819 57.6677 9.76195C57.6677 4.31819 61.9863 -0.0387601 67.2969 -0.0387601C72.6076 -0.0387601 76.7899 4.24056 76.858 9.6358C76.858 8.8304 76.965 8.0541 77.1595 7.30692C77.2762 6.83144 77.4319 6.37537 77.6069 5.9387C77.7917 5.50204 78.0057 5.07508 78.2489 4.66752C78.4045 4.39582 78.5796 4.13382 78.7644 3.88152C78.8617 3.75538 78.9492 3.62923 79.0465 3.50308C79.2507 3.26049 79.455 3.0276 79.669 2.81412C79.7759 2.70738 79.8927 2.59094 79.9996 2.4842C80.3401 2.16397 80.7 1.87286 81.0793 1.61086C81.8379 1.08687 82.6841 0.669608 83.5984 0.388202C84.503 0.106795 85.4659 -0.0484637 86.4677 -0.0484637C87.4696 -0.0484637 88.413 0.106795 89.3079 0.388202C90.2124 0.669608 91.0586 1.08687 91.827 1.61086C92.469 2.04753 93.0525 2.56182 93.568 3.14405C93.8793 3.49338 94.1614 3.86212 94.424 4.25026C95.4258 5.75433 96.0191 7.54951 96.058 9.49995C96.1845 4.17263 100.445 -0.0484637 105.677 -0.0484637C110.91 -0.0484637 115.112 4.17263 115.239 9.49995C115.277 7.55922 115.881 5.75433 116.873 4.25026C117.048 3.99797 117.232 3.73597 117.427 3.49338C117.631 3.26049 117.826 3.0179 118.049 2.80442C118.156 2.69768 118.273 2.58123 118.38 2.47449C119.625 1.31005 121.181 0.485238 122.913 0.14561C123.068 0.106795 123.234 0.0873877 123.389 0.0582767C123.866 -0.00964905 124.352 -0.0484637 124.848 -0.0484637C125.84 -0.0484637 126.794 0.106795 127.688 0.388202C128.593 0.669608 129.439 1.08687 130.208 1.61086C130.849 2.04753 131.433 2.56182 131.949 3.14405C132.26 3.49338 132.542 3.86212 132.805 4.25026C133.806 5.75433 134.4 7.54951 134.439 9.49995C134.565 4.17263 138.825 -0.0484637 144.058 -0.0484637C149.291 -0.0484637 153.493 4.17263 153.619 9.49995C153.658 7.89885 154.067 6.38507 154.777 5.06537C154.884 4.8616 155.01 4.65782 155.136 4.45404C155.253 4.25026 155.389 4.05619 155.525 3.87182C155.623 3.74567 155.71 3.61952 155.808 3.49338C156.002 3.25079 156.206 3.0179 156.43 2.80442C156.537 2.69768 156.654 2.58123 156.761 2.47449C157.101 2.15427 157.461 1.86316 157.84 1.60116C158.599 1.07716 159.445 0.659904 160.36 0.378498C161.264 0.0970914 162.227 -0.0581674 163.229 -0.0581674C164.231 -0.0581674 165.174 0.0970914 166.069 0.378498C166.974 0.659904 167.82 1.07716 168.588 1.60116C169.23 2.03783 169.814 2.55212 170.329 3.13434C170.64 3.48367 170.922 3.85241 171.185 4.24056C172.187 5.74463 172.78 7.53981 172.819 9.49025C172.946 4.16293 177.206 -0.0581674 182.439 -0.0581674C187.671 -0.0581674 191.873 4.16293 192 9.49025C192.039 7.54951 192.642 5.74463 193.634 4.24056C193.809 3.98827 193.994 3.72627 194.188 3.48367C194.383 3.24108 194.587 3.00819 194.811 2.79471C194.918 2.68797 195.034 2.57153 195.141 2.46479C196.386 1.30035 197.943 0.475535 199.674 0.135906C199.829 0.0970914 199.995 0.077684 200.15 0.048573C200.627 -0.0193527 201.113 -0.0581674 201.609 -0.0581674C202.105 -0.0581674 202.582 -0.0193527 203.049 0.048573C203.205 0.077684 203.37 0.106795 203.525 0.135906C204.79 0.388202 205.957 0.892793 206.969 1.59146C207.611 2.02812 208.194 2.54242 208.71 3.12464C209.021 3.47397 209.303 3.84271 209.566 4.23086C210.567 5.73493 211.161 7.53011 211.2 9.48055C211.326 4.15323 215.586 -0.0678711 220.819 -0.0678711C226.052 -0.0678711 230.254 4.15323 230.38 9.48055C230.419 7.87944 230.828 6.36566 231.538 5.04597C231.645 4.84219 231.771 4.63841 231.898 4.43463C232.014 4.23086 232.15 4.03678 232.287 3.85241C232.384 3.72627 232.471 3.60012 232.569 3.47397C232.773 3.24108 232.977 2.99849 233.191 2.78501C233.298 2.67827 233.415 2.56182 233.522 2.45508C234.767 1.29064 236.323 0.465831 238.054 0.126202C238.21 0.0873877 238.375 0.0679803 238.531 0.0388693C239.008 -0.0290564 239.494 -0.0678711 239.99 -0.0678711C240.486 -0.0678711 240.963 -0.0290564 241.429 0.0388693C241.585 0.0679803 241.75 0.0970914 241.906 0.126202C243.637 0.475535 245.184 1.30035 246.439 2.45508C246.555 2.55212 246.672 2.65886 246.769 2.78501C246.983 3.00819 247.197 3.24108 247.392 3.47397C247.489 3.60012 247.586 3.72627 247.674 3.85241C247.81 4.03678 247.946 4.23086 248.073 4.43463C248.199 4.63841 248.316 4.83248 248.423 5.04597C249.133 6.36566 249.551 7.87944 249.58 9.48055C249.707 4.15323 253.967 -0.0678711 259.19 -0.0678711C264.413 -0.0678711 268.761 4.28908 268.761 9.73284C268.761 4.28908 273.031 -0.0678711 278.351 -0.0678711C283.671 -0.0678711 287.98 4.28908 287.98 9.73284C287.98 13.9928 285.383 17.6219 281.677 18.9416C285.393 20.3001 287.98 23.9293 287.98 28.1213C287.98 32.3133 285.529 35.8066 281.969 37.2039L281.989 37.2719Z" fill="#003D23"/>
<path d="M243.579 37.2716C247.071 38.7078 249.542 42.1526 249.59 46.2378C249.59 46.2766 249.59 46.3251 249.59 46.364V46.6357C249.59 46.6357 249.59 46.723 249.59 46.7618C249.551 50.7791 247.091 54.253 243.628 55.7183C247.159 57.1544 249.59 60.6963 249.59 64.7524C249.59 69.0123 246.993 72.6318 243.288 73.9515C247.003 75.3003 249.59 78.9392 249.59 83.1894C249.59 88.5846 245.272 93.0095 239.961 93.0095C234.65 93.0095 230.779 88.9825 230.429 83.8784H230.322C229.991 88.9825 225.848 93.0095 220.81 93.0095C215.771 93.0095 211.57 88.9825 211.249 83.8784H211.18C211.035 86.1102 210.15 88.1383 208.768 89.7103C208.671 89.817 208.574 89.9334 208.467 90.0402C208.331 90.176 208.194 90.3216 208.058 90.4477C207.601 90.8747 207.105 91.2531 206.57 91.5831C205.51 92.2429 204.323 92.699 203.049 92.8931C202.582 92.9707 202.096 92.9998 201.61 92.9998C201.123 92.9998 200.627 92.961 200.151 92.8931C198.079 92.5631 196.221 91.5637 194.811 90.1178C194.577 89.8752 194.354 89.6229 194.15 89.3609C192.934 87.8375 192.156 85.9452 192.019 83.8687H191.951C191.621 88.9728 187.477 92.9998 182.439 92.9998C177.401 92.9998 173.189 88.9728 172.868 83.8687H172.8C172.625 86.411 171.497 88.7011 169.765 90.3507C169.707 90.4089 169.639 90.4672 169.571 90.5351C169.483 90.603 169.415 90.6709 169.318 90.7486C169.201 90.8456 169.084 90.9426 168.958 91.0397C168.841 91.127 168.715 91.224 168.598 91.3114C168.598 91.3114 168.588 91.3114 168.569 91.3211C168.443 91.4084 168.316 91.486 168.19 91.5734C167.129 92.2332 165.933 92.6893 164.659 92.8834C164.192 92.961 163.715 92.9901 163.219 92.9901C162.723 92.9901 162.237 92.9513 161.76 92.8834C160.321 92.6505 158.988 92.1071 157.841 91.3114C157.461 91.0397 157.092 90.7486 156.751 90.4283C156.615 90.2925 156.469 90.1566 156.343 90.0208C156.236 89.914 156.139 89.8073 156.041 89.6909C154.65 88.1092 153.775 86.0811 153.619 83.8589H153.551C153.221 88.9631 149.077 92.9901 144.039 92.9901C139.001 92.9901 134.789 88.9631 134.468 83.8589H134.4C134.254 86.0908 133.369 88.1189 131.988 89.6909C131.891 89.7976 131.793 89.914 131.686 90.0208C131.55 90.1566 131.414 90.3022 131.278 90.4283C130.937 90.7486 130.568 91.0397 130.188 91.3114C130.052 91.3987 129.926 91.486 129.79 91.5637C128.739 92.2235 127.543 92.6796 126.269 92.8737C125.802 92.9513 125.315 92.9804 124.829 92.9804C124.343 92.9804 123.847 92.9416 123.37 92.8737C121.931 92.6408 120.598 92.0974 119.45 91.3017C119.071 91.03 118.701 90.7389 118.361 90.4186C118.225 90.2828 118.079 90.1469 117.953 90.0111C117.846 89.9043 117.748 89.7976 117.651 89.6812C116.27 88.0995 115.385 86.0714 115.229 83.8493H115.161C114.83 88.9534 110.687 92.9804 105.649 92.9804C100.61 92.9804 96.3988 88.9534 96.0778 83.8493H96.0097C95.8638 86.0811 94.9787 88.1092 93.5975 89.6812C93.5003 89.7879 93.403 89.9043 93.296 90.0111C93.1598 90.1469 93.0237 90.2925 92.8875 90.4186C92.5471 90.7389 92.1775 91.03 91.7981 91.3017C90.6504 92.0974 89.3179 92.6408 87.8784 92.8737C87.4115 92.9513 86.9252 92.9804 86.4389 92.9804C85.9526 92.9804 85.4565 92.9416 84.9799 92.8737C83.5404 92.6408 82.2079 92.0974 81.0601 91.3017C80.6808 91.03 80.3112 90.7389 79.9708 90.4186C79.8346 90.2828 79.6887 90.1469 79.5623 90.0111C79.4553 89.9043 79.358 89.7976 79.2607 89.6812C77.8699 88.0995 76.9945 86.0714 76.8389 83.8493H76.7708C76.4401 88.9534 72.2966 92.9804 67.2583 92.9804C62.22 92.9804 58.0182 88.9534 57.6875 83.8493H57.6194C57.4735 86.0811 56.5884 88.1092 55.2073 89.6812C55.11 89.7879 55.0127 89.9043 54.9057 90.0111C54.7696 90.1469 54.6334 90.2925 54.4972 90.4186C54.1568 90.7389 53.7872 91.03 53.4079 91.3017C53.2717 91.389 53.1452 91.4763 53.0091 91.554C51.9586 92.2138 50.7623 92.6699 49.4881 92.864C49.0115 92.9416 48.5349 92.9707 48.0486 92.9707C47.5623 92.9707 47.0662 92.9319 46.5896 92.864C45.1501 92.6311 43.8176 92.0877 42.6699 91.292C42.2905 91.0203 41.9209 90.7291 41.5805 90.4089C41.4443 90.2731 41.2984 90.1372 41.172 90.0014C41.065 89.8946 40.9677 89.7879 40.8705 89.6715C39.4893 88.0898 38.6042 86.0617 38.4583 83.8395H38.3902C38.0595 88.9437 33.9161 92.9707 28.8778 92.9707C23.8395 92.9707 19.6377 88.9437 19.307 83.8395H19.2C18.8498 88.9437 14.7647 92.9707 9.66805 92.9707C4.57139 92.9707 -3.91817e-05 88.5652 -3.91817e-05 83.1797C-3.91817e-05 78.9295 2.59692 75.2906 6.3027 73.9418C2.59692 72.6318 -3.91817e-05 69.0026 -3.91817e-05 64.7427C-3.91817e-05 60.4828 2.43157 57.1447 5.96227 55.7086C2.49966 54.2433 0.048593 50.7694 -3.91817e-05 46.7521C-3.91817e-05 46.7133 -3.91817e-05 46.6648 -3.91817e-05 46.626V46.3543C-3.91817e-05 46.3543 -3.91817e-05 46.2669 -3.91817e-05 46.2281C0.0388666 42.1429 2.50938 38.6981 6.00118 37.2619C2.45102 35.8743 -0.00976562 32.3325 -0.00976562 28.1793C-0.00976562 24.0261 2.58719 20.3581 6.29297 18.9996C2.59692 17.6896 -3.91817e-05 14.0604 -3.91817e-05 9.80052C-3.91817e-05 4.35676 4.30878 -0.000185858 9.61941 -0.000185858C14.9301 -0.000185858 19.2097 4.35676 19.2097 9.80052C19.2097 4.35676 23.5282 -0.000185858 28.8389 -0.000185858C34.1495 -0.000185858 38.3319 4.27913 38.4 9.67438C38.4 8.86897 38.507 8.09268 38.7015 7.34549C38.8182 6.87001 38.9738 6.41394 39.1489 5.97728C39.3337 5.54061 39.5477 5.11365 39.7908 4.7061C39.9465 4.43439 40.1215 4.17239 40.3063 3.9201C40.4036 3.79395 40.4911 3.6678 40.5884 3.54165C40.7927 3.29906 40.9969 3.06617 41.2109 2.85269C41.3179 2.74595 41.4346 2.62951 41.5416 2.52277C41.882 2.20255 42.2419 1.91144 42.6212 1.64944C43.3799 1.12544 44.2261 0.708182 45.1404 0.426776C46.0449 0.145369 47.0079 -0.00988953 48.0097 -0.00988953C49.0115 -0.00988953 49.955 0.145369 50.8498 0.426776C51.7544 0.708182 52.6006 1.12544 53.369 1.64944C54.0109 2.0861 54.5945 2.6004 55.11 3.18262C55.4212 3.53195 55.7033 3.90069 55.9659 4.28884C56.9677 5.79291 57.5611 7.58809 57.6 9.53852C57.7264 4.21121 61.9866 -0.00988953 67.2194 -0.00988953C72.4522 -0.00988953 76.6541 4.21121 76.7805 9.53852C76.8194 7.59779 77.4225 5.79291 78.4146 4.28884C78.5896 4.03654 78.7744 3.77454 78.969 3.53195C79.1732 3.29906 79.3677 3.05647 79.5915 2.84299C79.6984 2.73625 79.8152 2.61981 79.9221 2.51307C81.1671 1.34862 82.7234 0.523812 84.4547 0.184184C84.6103 0.145369 84.7757 0.125962 84.9313 0.0968509C85.4079 0.0289252 85.8942 -0.00988953 86.3902 -0.00988953C87.3823 -0.00988953 88.3355 0.145369 89.2304 0.426776C90.1349 0.708182 90.9811 1.12544 91.7495 1.64944C92.3915 2.0861 92.975 2.6004 93.4905 3.18262C93.8018 3.53195 94.0839 3.90069 94.3465 4.28884C95.3483 5.79291 95.9416 7.58809 95.9805 9.53852C96.107 4.21121 100.367 -0.00988953 105.6 -0.00988953C110.833 -0.00988953 115.035 4.21121 115.161 9.53852C115.2 7.93742 115.608 6.42365 116.319 5.10395C116.425 4.90017 116.552 4.69639 116.678 4.49261C116.795 4.28884 116.931 4.09476 117.067 3.91039C117.165 3.78425 117.252 3.6581 117.35 3.53195C117.544 3.28936 117.748 3.05647 117.972 2.84299C118.079 2.73625 118.196 2.61981 118.303 2.51307C118.643 2.19284 119.003 1.90173 119.382 1.63973C120.141 1.11574 120.987 0.698479 121.901 0.417072C122.806 0.135666 123.769 -0.0195932 124.771 -0.0195932C125.773 -0.0195932 126.716 0.135666 127.611 0.417072C128.515 0.698479 129.362 1.11574 130.13 1.63973C130.772 2.0764 131.356 2.59069 131.871 3.17291C132.182 3.52225 132.464 3.89099 132.727 4.27913C133.729 5.7832 134.322 7.57838 134.361 9.52882C134.487 4.2015 138.748 -0.0195932 143.98 -0.0195932C149.213 -0.0195932 153.415 4.2015 153.542 9.52882C153.581 7.58809 154.184 5.7832 155.176 4.27913C155.351 4.02684 155.536 3.76484 155.73 3.52225C155.925 3.27966 156.129 3.04677 156.353 2.83329C156.46 2.72655 156.576 2.6101 156.683 2.50336C157.928 1.33892 159.484 0.514109 161.216 0.17448C161.371 0.135666 161.537 0.116258 161.692 0.0871472C162.169 0.0192215 162.655 -0.0195932 163.151 -0.0195932C163.647 -0.0195932 164.124 0.0192215 164.591 0.0871472C164.746 0.116258 164.912 0.145369 165.067 0.17448C166.332 0.426776 167.499 0.931367 168.511 1.63003C169.153 2.0667 169.736 2.58099 170.252 3.16321C170.563 3.51254 170.845 3.88128 171.108 4.26943C172.109 5.7735 172.703 7.56868 172.742 9.51912C172.868 4.1918 177.128 -0.0292969 182.361 -0.0292969C187.594 -0.0292969 191.796 4.1918 191.922 9.51912C191.961 7.91801 192.37 6.40424 193.08 5.08454C193.187 4.88076 193.313 4.67698 193.439 4.47321C193.556 4.26943 193.692 4.07536 193.829 3.89099C193.926 3.76484 194.013 3.63869 194.111 3.51254C194.315 3.27966 194.519 3.03706 194.733 2.82358C194.84 2.71684 194.957 2.6004 195.064 2.49366C196.309 1.32922 197.865 0.504405 199.596 0.164777C199.752 0.125962 199.917 0.106555 200.073 0.0774435C200.549 0.00951781 201.036 -0.0292969 201.532 -0.0292969C202.028 -0.0292969 202.505 0.00951781 202.971 0.0774435C203.127 0.106555 203.292 0.135666 203.448 0.164777C205.179 0.514109 206.726 1.33892 207.98 2.49366C208.097 2.59069 208.214 2.69744 208.311 2.82358C208.525 3.04677 208.739 3.27966 208.934 3.51254C209.031 3.63869 209.128 3.76484 209.216 3.89099C209.352 4.07536 209.488 4.26943 209.615 4.47321C209.741 4.67698 209.858 4.87106 209.965 5.08454C210.675 6.40424 211.093 7.91801 211.122 9.51912C211.249 4.1918 215.509 -0.0292969 220.732 -0.0292969C225.955 -0.0292969 230.303 4.32765 230.303 9.77141C230.303 4.32765 234.573 -0.0292969 239.893 -0.0292969C245.213 -0.0292969 249.522 4.32765 249.522 9.77141C249.522 14.0313 246.925 17.6605 243.219 18.9802C246.935 20.3387 249.522 23.9679 249.522 28.1599C249.522 32.3519 247.071 35.8452 243.511 37.2425L243.579 37.2716Z" fill="#003D23"/>
<path d="M74.5825 53.33C69.2585 53.33 66.8165 51.328 67.7405 46.268L68.2465 43.364H70.3585L70.7325 43.848L70.3805 46.092C69.9625 48.952 71.3925 49.612 74.9345 49.612C77.0245 49.612 79.7745 49.304 81.6665 48.798L81.5565 35.73L84.1525 35.004L84.6365 35.4V47.28C84.6585 48.71 85.3845 49.282 86.7925 49.282H87.2545L88.7945 50.14V52.142L87.2545 53H86.7485C85.1645 53 83.9985 52.538 83.2725 51.68C82.7665 52.076 82.1065 52.362 81.3365 52.604C79.3565 53.176 76.7605 53.33 74.5825 53.33ZM73.7685 45.278V44.024L73.9885 43.826C74.7805 43.914 75.3965 43.98 75.9025 43.98C76.8925 43.98 77.2445 43.804 77.2445 43.518C77.2445 43.144 76.7165 42.572 74.5385 41.912L74.6045 40.57L77.9705 38.81L78.1905 39.008L78.1245 40.108L76.2765 41.12C78.0145 41.802 78.7185 42.748 78.7185 43.672C78.7185 44.794 77.7065 45.542 75.8145 45.542C75.1985 45.542 74.5165 45.454 73.7685 45.278ZM90.1863 39.648L87.3703 37.954L89.0203 35.182L91.6603 36.766L92.6283 35.116L95.4443 36.81L93.7943 39.604L91.1543 37.998L90.1863 39.648ZM85.7188 52.142V50.14L87.2588 49.282H87.9628C89.1508 49.282 90.8008 49.084 91.6368 48.732C91.5048 47.61 91.3288 46.444 91.1088 45.256L90.6908 42.99L93.5948 41.384L94.2768 44.838C94.8268 47.5 94.8048 49.26 94.2108 50.536C93.4188 52.274 91.3948 53 87.9628 53H87.2588L85.7188 52.142ZM109.084 53C107.61 53 106.312 52.494 105.388 51.504L104.948 52.538L103.54 52.934C98.7443 54.276 96.0603 52.428 96.7423 48.204L96.8963 47.148H99.4483L99.3603 48.094C99.2283 49.458 100.658 50.074 102.968 49.436L104.2 49.084C104.112 48.666 104.068 48.226 104.068 47.742L103.98 41.868L106.928 40.944L106.95 47.236C106.95 48.864 108.072 49.282 109.37 49.282H110.206L111.746 50.14V52.142L110.206 53H109.084ZM112.509 60.04L109.693 58.346L111.343 55.552L113.983 57.158L114.951 55.508L117.767 57.202L116.117 59.974L113.477 58.39L112.509 60.04ZM108.664 52.142V50.14L110.204 49.282H110.908C112.096 49.282 113.746 49.084 114.582 48.732C114.45 47.61 114.274 46.444 114.054 45.256L113.636 42.99L116.54 41.384L117.222 44.838C117.772 47.5 117.75 49.26 117.156 50.536C116.364 52.274 114.34 53 110.908 53H110.204L108.664 52.142ZM119.535 35.73L122.131 35.004L122.615 35.4V47.038C122.615 48.556 123.165 49.282 124.859 49.282H125.079L126.619 50.14V52.142L125.079 53H124.771C121.295 53 119.645 51.174 119.623 47.764L119.535 35.73ZM125.071 53L123.531 52.142V50.14L125.071 49.282H126.655C127.491 49.282 128.481 49.238 129.559 49.084C128.569 48.248 127.601 47.368 126.611 46.51L127.645 42.154L130.219 41.626C131.627 41.34 132.881 41.054 134.003 41.076C136.269 41.098 138.139 42.506 138.359 44.882L138.469 45.96C138.557 46.774 138.359 47.5 137.875 48.138C137.567 48.534 137.237 48.908 136.863 49.216C137.501 49.26 138.161 49.282 138.821 49.282H141.021L142.539 50.14V52.142L141.021 53H138.557C136.269 53 134.575 52.67 132.705 51.768C130.549 52.67 128.371 53 126.127 53H125.071ZM129.185 44.97C130.417 46.07 131.649 47.17 132.859 48.27L135.763 46.796L135.719 46.048C135.631 44.772 134.861 44.2 133.761 44.2C132.793 44.178 131.825 44.442 130.571 44.684L129.185 44.97ZM141.013 53L139.473 52.142V50.14L141.013 49.282H141.255C142.949 49.282 143.631 48.732 144.071 47.566L144.929 45.278C145.523 43.672 146.689 42.594 148.647 42.594H149.857C152.497 42.594 153.817 44.398 154.103 46.752L154.345 48.666C154.587 50.756 153.839 52.142 152.321 52.67L151.749 52.868C149.373 53.704 147.239 53.396 145.875 51.768L145.413 51.218C144.533 52.34 143.169 53 141.321 53H141.013ZM146.997 48.138L147.459 48.688C148.295 49.7 149.615 49.898 151.265 49.216L151.595 49.084L151.397 47.39C151.265 46.334 150.781 45.762 149.483 45.762H147.899L146.997 48.138ZM165.21 38.648L162.394 36.954L164.044 34.182L166.684 35.766L167.652 34.116L170.468 35.81L168.818 38.604L166.178 36.998L165.21 38.648ZM173.095 53C171.225 53 169.729 52.34 168.805 51.042L168.563 51.812L167.529 52.01C163.283 52.802 160.665 50.844 161.259 46.642L161.369 45.872C161.655 43.716 162.997 42.44 165.153 42.11L167.749 41.736V41.098L170.719 40.13L170.741 47.236C170.741 48.754 171.731 49.282 173.183 49.282H173.843L175.361 50.14V52.142L173.843 53H173.095ZM164.141 46.334C163.921 48.028 164.779 48.82 167.023 48.38L167.881 48.204C167.859 48.05 167.859 47.896 167.859 47.742L167.815 44.948L164.251 45.432L164.141 46.334ZM178.165 35.648L175.349 33.954L176.999 31.182L179.639 32.766L180.607 31.116L183.423 32.81L181.773 35.604L179.133 33.998L178.165 35.648ZM173.841 53L172.301 52.142V50.14L173.841 49.282H178.725C180.133 49.282 181.365 49.084 182.311 48.578C182.289 48.182 182.267 47.72 182.179 47.302C181.893 47.5 181.475 47.698 181.189 47.808C179.429 48.468 177.581 48.314 176.085 47.412L175.931 47.324C174.809 46.664 174.523 45.586 174.545 44.2L174.567 42.902C174.611 39.888 176.481 37.93 179.319 37.93H180.441C182.487 37.93 183.895 39.294 184.335 41.428C184.599 42.638 184.753 43.562 184.907 44.596C185.303 47.126 185.303 48.82 184.797 50.074C183.961 52.208 181.651 53 177.845 53H173.841ZM177.317 44.134C177.537 44.266 177.735 44.376 177.955 44.464C178.879 44.86 179.891 44.75 181.057 44.288L181.673 44.024L181.475 43.034L181.123 41.098H179.407C177.911 41.098 177.317 41.846 177.317 43.122V44.134ZM187.103 35.73L189.699 35.004L190.183 35.4V47.038C190.183 48.556 190.733 49.282 192.427 49.282H192.647L194.187 50.14V52.142L192.647 53H192.339C188.863 53 187.213 51.174 187.191 47.764L187.103 35.73ZM192.64 53L191.1 52.142V50.14L192.64 49.282H194.884L195.214 48.754C195.72 47.896 195.918 47.17 195.918 45.96L195.83 35.73L198.448 35.004L198.91 35.4V40.394C198.91 42.066 198.91 42.462 198.206 43.672C197.964 44.112 197.678 44.552 197.414 44.992L197.634 45.124L198.052 44.552C198.976 43.056 200.318 42.066 202.21 42.066H203.508C206.676 42.066 208.634 44.31 208.744 47.412L208.766 48.204V48.886C209.338 49.194 210.02 49.282 210.724 49.282H211.23L212.77 50.14V52.142L211.23 53H210.966C209.602 53 208.216 52.692 207.226 51.944C206.126 52.736 204.476 53 202.496 53H192.64ZM198.448 49.282H202.826C204.146 49.282 205.158 49.15 206.038 48.732L206.016 47.83C205.95 46.092 205.026 45.212 203.244 45.212H200.824L198.448 49.282ZM215.225 59.446L212.255 57.664L213.993 54.716L216.963 56.498L215.225 59.446ZM209.684 52.142V50.14L211.224 49.282H211.928C213.116 49.282 214.766 49.084 215.602 48.732C215.47 47.61 215.294 46.444 215.074 45.256L214.656 42.99L217.56 41.384L218.242 44.838C218.792 47.5 218.77 49.26 218.176 50.536C217.384 52.274 215.36 53 211.928 53H211.224L209.684 52.142Z" fill="#6FF6F8"/>
</g>
<defs>
<clipPath id="clip0_58_1526">
<rect width="288" height="93" fill="white"/>
</clipPath>
</defs>
</svg>
