<svg width="288" height="93" viewBox="0 0 288 93" fill="none" xmlns="http://www.w3.org/2000/svg">
<g clip-path="url(#clip0_58_1522)">
<path d="M281.989 37.2719C285.481 38.708 287.951 42.1528 288 46.2381C288 46.2769 288 46.3254 288 46.3642V46.6359C288 46.6359 288 46.7232 288 46.7621C287.961 50.7794 285.5 54.2533 282.037 55.7186C285.568 57.1547 288 60.6965 288 64.7527C288 69.0126 285.403 72.6321 281.697 73.9518C285.412 75.3006 288 78.9394 288 83.1897C288 88.5849 283.681 93.0098 278.37 93.0098C273.06 93.0098 269.189 88.9827 268.839 83.8786H268.732C268.401 88.9827 264.257 93.0098 259.219 93.0098C254.181 93.0098 249.979 88.9827 249.658 83.8786H249.59C249.444 86.1105 248.559 88.1385 247.178 89.7105C247.081 89.8173 246.983 89.9337 246.876 90.0405C246.74 90.1763 246.604 90.3219 246.468 90.448C246.011 90.875 245.515 91.2534 244.98 91.5833C243.919 92.2432 242.733 92.6993 241.459 92.8933C240.992 92.971 240.505 93.0001 240.019 93.0001C239.533 93.0001 239.037 92.9613 238.56 92.8933C236.488 92.5634 234.631 91.5639 233.22 90.1181C232.987 89.8755 232.763 89.6232 232.559 89.3612C231.343 87.8377 230.565 85.9455 230.429 83.8689H230.361C230.03 88.973 225.887 93.0001 220.848 93.0001C215.81 93.0001 211.598 88.973 211.277 83.8689H211.209C211.034 86.4113 209.906 88.7013 208.175 90.351C208.116 90.4092 208.048 90.4674 207.98 90.5353C207.893 90.6033 207.825 90.6712 207.727 90.7488C207.611 90.8458 207.494 90.9429 207.367 91.0399C207.251 91.1273 207.124 91.2243 207.008 91.3116C207.008 91.3116 206.998 91.3116 206.978 91.3213C206.852 91.4087 206.725 91.4863 206.599 91.5736C205.539 92.2335 204.342 92.6896 203.068 92.8836C202.601 92.9613 202.125 92.9904 201.629 92.9904C201.133 92.9904 200.646 92.9516 200.17 92.8836C198.73 92.6507 197.398 92.1073 196.25 91.3116C195.871 91.0399 195.501 90.7488 195.161 90.4286C195.025 90.2927 194.879 90.1569 194.752 90.021C194.645 89.9143 194.548 89.8076 194.451 89.6911C193.06 88.1094 192.184 86.0813 192.029 83.8592H191.961C191.63 88.9633 187.487 92.9904 182.448 92.9904C177.41 92.9904 173.198 88.9633 172.877 83.8592H172.809C172.663 86.091 171.778 88.1191 170.397 89.6911C170.3 89.7979 170.203 89.9143 170.096 90.021C169.96 90.1569 169.823 90.3025 169.687 90.4286C169.347 90.7488 168.977 91.0399 168.598 91.3116C168.462 91.399 168.335 91.4863 168.199 91.5639C167.149 92.2238 165.952 92.6798 164.678 92.8739C164.211 92.9516 163.725 92.9807 163.239 92.9807C162.752 92.9807 162.256 92.9418 161.78 92.8739C160.34 92.641 159.008 92.0976 157.86 91.3019C157.481 91.0302 157.111 90.7391 156.77 90.4189C156.634 90.283 156.488 90.1472 156.362 90.0113C156.255 89.9046 156.158 89.7979 156.06 89.6814C154.679 88.0997 153.794 86.0716 153.639 83.8495H153.57C153.24 88.9536 149.096 92.9807 144.058 92.9807C139.02 92.9807 134.808 88.9536 134.487 83.8495H134.419C134.273 86.0814 133.388 88.1094 132.007 89.6814C131.91 89.7882 131.812 89.9046 131.705 90.0113C131.569 90.1472 131.433 90.2927 131.297 90.4189C130.956 90.7391 130.587 91.0302 130.208 91.3019C129.06 92.0976 127.727 92.641 126.288 92.8739C125.821 92.9516 125.335 92.9807 124.848 92.9807C124.362 92.9807 123.866 92.9418 123.389 92.8739C121.95 92.641 120.617 92.0976 119.47 91.3019C119.09 91.0302 118.721 90.7391 118.38 90.4189C118.244 90.283 118.098 90.1472 117.972 90.0113C117.865 89.9046 117.767 89.7979 117.67 89.6814C116.279 88.0997 115.404 86.0716 115.248 83.8495H115.18C114.849 88.9536 110.706 92.9807 105.668 92.9807C100.629 92.9807 96.4276 88.9536 96.0969 83.8495H96.0288C95.8829 86.0814 94.9978 88.1094 93.6167 89.6814C93.5194 89.7882 93.4221 89.9046 93.3152 90.0113C93.179 90.1472 93.0428 90.2927 92.9066 90.4189C92.5662 90.7391 92.1966 91.0302 91.8173 91.3019C91.6811 91.3893 91.5547 91.4766 91.4185 91.5542C90.368 92.2141 89.1717 92.6701 87.8975 92.8642C87.4209 92.9418 86.9443 92.971 86.458 92.971C85.9717 92.971 85.4756 92.9321 84.999 92.8642C83.5595 92.6313 82.227 92.0879 81.0793 91.2922C80.7 91.0205 80.3303 90.7294 79.9899 90.4092C79.8537 90.2733 79.7079 90.1375 79.5814 90.0016C79.4744 89.8949 79.3772 89.7882 79.2799 89.6717C77.8987 88.09 77.0136 86.0619 76.8677 83.8398H76.7996C76.4689 88.9439 72.3255 92.971 67.2872 92.971C62.2489 92.971 58.0471 88.9439 57.7164 83.8398H57.6094C57.2592 88.9439 53.1741 92.971 48.0775 92.971C42.9808 92.971 38.458 88.5461 38.458 83.1508C38.458 78.9006 41.055 75.2617 44.7607 73.9129C41.055 72.6029 38.458 68.9738 38.458 64.7139C38.458 60.4539 40.8896 57.1159 44.4203 55.6797C40.9577 54.2242 38.5066 50.7503 38.4677 46.7232C38.4677 46.6844 38.4677 46.6359 38.4677 46.5971V46.3254C38.4677 46.3254 38.4677 46.2381 38.4677 46.1992C38.5066 42.114 40.9772 38.6692 44.469 37.2331C40.9188 35.8454 38.458 32.3036 38.458 28.1504C38.458 23.9972 41.055 20.3293 44.7607 18.9707C41.055 17.651 38.458 14.0316 38.458 9.76195C38.458 4.31819 42.7668 -0.0387601 48.0775 -0.0387601C53.3881 -0.0387601 57.6677 4.31819 57.6677 9.76195C57.6677 4.31819 61.9863 -0.0387601 67.2969 -0.0387601C72.6076 -0.0387601 76.7899 4.24056 76.858 9.6358C76.858 8.8304 76.965 8.0541 77.1595 7.30692C77.2762 6.83144 77.4319 6.37537 77.6069 5.9387C77.7917 5.50204 78.0057 5.07508 78.2489 4.66752C78.4045 4.39582 78.5796 4.13382 78.7644 3.88152C78.8617 3.75538 78.9492 3.62923 79.0465 3.50308C79.2507 3.26049 79.455 3.0276 79.669 2.81412C79.7759 2.70738 79.8927 2.59094 79.9996 2.4842C80.3401 2.16397 80.7 1.87286 81.0793 1.61086C81.8379 1.08687 82.6841 0.669608 83.5984 0.388202C84.503 0.106795 85.4659 -0.0484637 86.4677 -0.0484637C87.4696 -0.0484637 88.413 0.106795 89.3079 0.388202C90.2124 0.669608 91.0586 1.08687 91.827 1.61086C92.469 2.04753 93.0525 2.56182 93.568 3.14405C93.8793 3.49338 94.1614 3.86212 94.424 4.25026C95.4258 5.75433 96.0191 7.54951 96.058 9.49995C96.1845 4.17263 100.445 -0.0484637 105.677 -0.0484637C110.91 -0.0484637 115.112 4.17263 115.239 9.49995C115.277 7.55922 115.881 5.75433 116.873 4.25026C117.048 3.99797 117.232 3.73597 117.427 3.49338C117.631 3.26049 117.826 3.0179 118.049 2.80442C118.156 2.69768 118.273 2.58123 118.38 2.47449C119.625 1.31005 121.181 0.485238 122.913 0.14561C123.068 0.106795 123.234 0.0873877 123.389 0.0582767C123.866 -0.00964905 124.352 -0.0484637 124.848 -0.0484637C125.84 -0.0484637 126.794 0.106795 127.688 0.388202C128.593 0.669608 129.439 1.08687 130.208 1.61086C130.849 2.04753 131.433 2.56182 131.949 3.14405C132.26 3.49338 132.542 3.86212 132.805 4.25026C133.806 5.75433 134.4 7.54951 134.439 9.49995C134.565 4.17263 138.825 -0.0484637 144.058 -0.0484637C149.291 -0.0484637 153.493 4.17263 153.619 9.49995C153.658 7.89885 154.067 6.38507 154.777 5.06537C154.884 4.8616 155.01 4.65782 155.136 4.45404C155.253 4.25026 155.389 4.05619 155.525 3.87182C155.623 3.74567 155.71 3.61952 155.808 3.49338C156.002 3.25079 156.206 3.0179 156.43 2.80442C156.537 2.69768 156.654 2.58123 156.761 2.47449C157.101 2.15427 157.461 1.86316 157.84 1.60116C158.599 1.07716 159.445 0.659904 160.36 0.378498C161.264 0.0970914 162.227 -0.0581674 163.229 -0.0581674C164.231 -0.0581674 165.174 0.0970914 166.069 0.378498C166.974 0.659904 167.82 1.07716 168.588 1.60116C169.23 2.03783 169.814 2.55212 170.329 3.13434C170.64 3.48367 170.922 3.85241 171.185 4.24056C172.187 5.74463 172.78 7.53981 172.819 9.49025C172.946 4.16293 177.206 -0.0581674 182.439 -0.0581674C187.671 -0.0581674 191.873 4.16293 192 9.49025C192.039 7.54951 192.642 5.74463 193.634 4.24056C193.809 3.98827 193.994 3.72627 194.188 3.48367C194.383 3.24108 194.587 3.00819 194.811 2.79471C194.918 2.68797 195.034 2.57153 195.141 2.46479C196.386 1.30035 197.943 0.475535 199.674 0.135906C199.829 0.0970914 199.995 0.077684 200.15 0.048573C200.627 -0.0193527 201.113 -0.0581674 201.609 -0.0581674C202.105 -0.0581674 202.582 -0.0193527 203.049 0.048573C203.205 0.077684 203.37 0.106795 203.525 0.135906C204.79 0.388202 205.957 0.892793 206.969 1.59146C207.611 2.02812 208.194 2.54242 208.71 3.12464C209.021 3.47397 209.303 3.84271 209.566 4.23086C210.567 5.73493 211.161 7.53011 211.2 9.48055C211.326 4.15323 215.586 -0.0678711 220.819 -0.0678711C226.052 -0.0678711 230.254 4.15323 230.38 9.48055C230.419 7.87944 230.828 6.36566 231.538 5.04597C231.645 4.84219 231.771 4.63841 231.898 4.43463C232.014 4.23086 232.15 4.03678 232.287 3.85241C232.384 3.72627 232.471 3.60012 232.569 3.47397C232.773 3.24108 232.977 2.99849 233.191 2.78501C233.298 2.67827 233.415 2.56182 233.522 2.45508C234.767 1.29064 236.323 0.465831 238.054 0.126202C238.21 0.0873877 238.375 0.0679803 238.531 0.0388693C239.008 -0.0290564 239.494 -0.0678711 239.99 -0.0678711C240.486 -0.0678711 240.963 -0.0290564 241.429 0.0388693C241.585 0.0679803 241.75 0.0970914 241.906 0.126202C243.637 0.475535 245.184 1.30035 246.439 2.45508C246.555 2.55212 246.672 2.65886 246.769 2.78501C246.983 3.00819 247.197 3.24108 247.392 3.47397C247.489 3.60012 247.586 3.72627 247.674 3.85241C247.81 4.03678 247.946 4.23086 248.073 4.43463C248.199 4.63841 248.316 4.83248 248.423 5.04597C249.133 6.36566 249.551 7.87944 249.58 9.48055C249.707 4.15323 253.967 -0.0678711 259.19 -0.0678711C264.413 -0.0678711 268.761 4.28908 268.761 9.73284C268.761 4.28908 273.031 -0.0678711 278.351 -0.0678711C283.671 -0.0678711 287.98 4.28908 287.98 9.73284C287.98 13.9928 285.383 17.6219 281.677 18.9416C285.393 20.3001 287.98 23.9293 287.98 28.1213C287.98 32.3133 285.529 35.8066 281.969 37.2039L281.989 37.2719Z" fill="#003D23"/>
<path d="M243.579 37.2716C247.071 38.7078 249.542 42.1526 249.59 46.2378C249.59 46.2766 249.59 46.3251 249.59 46.364V46.6357C249.59 46.6357 249.59 46.723 249.59 46.7618C249.551 50.7791 247.091 54.253 243.628 55.7183C247.159 57.1544 249.59 60.6963 249.59 64.7524C249.59 69.0123 246.993 72.6318 243.288 73.9515C247.003 75.3003 249.59 78.9392 249.59 83.1894C249.59 88.5846 245.272 93.0095 239.961 93.0095C234.65 93.0095 230.779 88.9825 230.429 83.8784H230.322C229.991 88.9825 225.848 93.0095 220.81 93.0095C215.771 93.0095 211.57 88.9825 211.249 83.8784H211.18C211.035 86.1102 210.15 88.1383 208.768 89.7103C208.671 89.817 208.574 89.9334 208.467 90.0402C208.331 90.176 208.194 90.3216 208.058 90.4477C207.601 90.8747 207.105 91.2531 206.57 91.5831C205.51 92.2429 204.323 92.699 203.049 92.8931C202.582 92.9707 202.096 92.9998 201.61 92.9998C201.123 92.9998 200.627 92.961 200.151 92.8931C198.079 92.5631 196.221 91.5637 194.811 90.1178C194.577 89.8752 194.354 89.6229 194.15 89.3609C192.934 87.8375 192.156 85.9452 192.019 83.8687H191.951C191.621 88.9728 187.477 92.9998 182.439 92.9998C177.401 92.9998 173.189 88.9728 172.868 83.8687H172.8C172.625 86.411 171.497 88.7011 169.765 90.3507C169.707 90.4089 169.639 90.4672 169.571 90.5351C169.483 90.603 169.415 90.6709 169.318 90.7486C169.201 90.8456 169.084 90.9426 168.958 91.0397C168.841 91.127 168.715 91.224 168.598 91.3114C168.598 91.3114 168.588 91.3114 168.569 91.3211C168.443 91.4084 168.316 91.486 168.19 91.5734C167.129 92.2332 165.933 92.6893 164.659 92.8834C164.192 92.961 163.715 92.9901 163.219 92.9901C162.723 92.9901 162.237 92.9513 161.76 92.8834C160.321 92.6505 158.988 92.1071 157.841 91.3114C157.461 91.0397 157.092 90.7486 156.751 90.4283C156.615 90.2925 156.469 90.1566 156.343 90.0208C156.236 89.914 156.139 89.8073 156.041 89.6909C154.65 88.1092 153.775 86.0811 153.619 83.8589H153.551C153.221 88.9631 149.077 92.9901 144.039 92.9901C139.001 92.9901 134.789 88.9631 134.468 83.8589H134.4C134.254 86.0908 133.369 88.1189 131.988 89.6909C131.891 89.7976 131.793 89.914 131.686 90.0208C131.55 90.1566 131.414 90.3022 131.278 90.4283C130.937 90.7486 130.568 91.0397 130.188 91.3114C130.052 91.3987 129.926 91.486 129.79 91.5637C128.739 92.2235 127.543 92.6796 126.269 92.8737C125.802 92.9513 125.315 92.9804 124.829 92.9804C124.343 92.9804 123.847 92.9416 123.37 92.8737C121.931 92.6408 120.598 92.0974 119.45 91.3017C119.071 91.03 118.701 90.7389 118.361 90.4186C118.225 90.2828 118.079 90.1469 117.953 90.0111C117.846 89.9043 117.748 89.7976 117.651 89.6812C116.27 88.0995 115.385 86.0714 115.229 83.8493H115.161C114.83 88.9534 110.687 92.9804 105.649 92.9804C100.61 92.9804 96.3988 88.9534 96.0778 83.8493H96.0097C95.8638 86.0811 94.9787 88.1092 93.5975 89.6812C93.5003 89.7879 93.403 89.9043 93.296 90.0111C93.1598 90.1469 93.0237 90.2925 92.8875 90.4186C92.5471 90.7389 92.1775 91.03 91.7981 91.3017C90.6504 92.0974 89.3179 92.6408 87.8784 92.8737C87.4115 92.9513 86.9252 92.9804 86.4389 92.9804C85.9526 92.9804 85.4565 92.9416 84.9799 92.8737C83.5404 92.6408 82.2079 92.0974 81.0601 91.3017C80.6808 91.03 80.3112 90.7389 79.9708 90.4186C79.8346 90.2828 79.6887 90.1469 79.5623 90.0111C79.4553 89.9043 79.358 89.7976 79.2607 89.6812C77.8699 88.0995 76.9945 86.0714 76.8389 83.8493H76.7708C76.4401 88.9534 72.2966 92.9804 67.2583 92.9804C62.22 92.9804 58.0182 88.9534 57.6875 83.8493H57.6194C57.4735 86.0811 56.5884 88.1092 55.2073 89.6812C55.11 89.7879 55.0127 89.9043 54.9057 90.0111C54.7696 90.1469 54.6334 90.2925 54.4972 90.4186C54.1568 90.7389 53.7872 91.03 53.4079 91.3017C53.2717 91.389 53.1452 91.4763 53.0091 91.554C51.9586 92.2138 50.7623 92.6699 49.4881 92.864C49.0115 92.9416 48.5349 92.9707 48.0486 92.9707C47.5623 92.9707 47.0662 92.9319 46.5896 92.864C45.1501 92.6311 43.8176 92.0877 42.6699 91.292C42.2905 91.0203 41.9209 90.7291 41.5805 90.4089C41.4443 90.2731 41.2984 90.1372 41.172 90.0014C41.065 89.8946 40.9677 89.7879 40.8705 89.6715C39.4893 88.0898 38.6042 86.0617 38.4583 83.8395H38.3902C38.0595 88.9437 33.9161 92.9707 28.8778 92.9707C23.8395 92.9707 19.6377 88.9437 19.307 83.8395H19.2C18.8498 88.9437 14.7647 92.9707 9.66805 92.9707C4.57139 92.9707 -3.91817e-05 88.5652 -3.91817e-05 83.1797C-3.91817e-05 78.9295 2.59692 75.2906 6.3027 73.9418C2.59692 72.6318 -3.91817e-05 69.0026 -3.91817e-05 64.7427C-3.91817e-05 60.4828 2.43157 57.1447 5.96227 55.7086C2.49966 54.2433 0.048593 50.7694 -3.91817e-05 46.7521C-3.91817e-05 46.7133 -3.91817e-05 46.6648 -3.91817e-05 46.626V46.3543C-3.91817e-05 46.3543 -3.91817e-05 46.2669 -3.91817e-05 46.2281C0.0388666 42.1429 2.50938 38.6981 6.00118 37.2619C2.45102 35.8743 -0.00976562 32.3325 -0.00976562 28.1793C-0.00976562 24.0261 2.58719 20.3581 6.29297 18.9996C2.59692 17.6896 -3.91817e-05 14.0604 -3.91817e-05 9.80052C-3.91817e-05 4.35676 4.30878 -0.000185858 9.61941 -0.000185858C14.9301 -0.000185858 19.2097 4.35676 19.2097 9.80052C19.2097 4.35676 23.5282 -0.000185858 28.8389 -0.000185858C34.1495 -0.000185858 38.3319 4.27913 38.4 9.67438C38.4 8.86897 38.507 8.09268 38.7015 7.34549C38.8182 6.87001 38.9738 6.41394 39.1489 5.97728C39.3337 5.54061 39.5477 5.11365 39.7908 4.7061C39.9465 4.43439 40.1215 4.17239 40.3063 3.9201C40.4036 3.79395 40.4911 3.6678 40.5884 3.54165C40.7927 3.29906 40.9969 3.06617 41.2109 2.85269C41.3179 2.74595 41.4346 2.62951 41.5416 2.52277C41.882 2.20255 42.2419 1.91144 42.6212 1.64944C43.3799 1.12544 44.2261 0.708182 45.1404 0.426776C46.0449 0.145369 47.0079 -0.00988953 48.0097 -0.00988953C49.0115 -0.00988953 49.955 0.145369 50.8498 0.426776C51.7544 0.708182 52.6006 1.12544 53.369 1.64944C54.0109 2.0861 54.5945 2.6004 55.11 3.18262C55.4212 3.53195 55.7033 3.90069 55.9659 4.28884C56.9677 5.79291 57.5611 7.58809 57.6 9.53852C57.7264 4.21121 61.9866 -0.00988953 67.2194 -0.00988953C72.4522 -0.00988953 76.6541 4.21121 76.7805 9.53852C76.8194 7.59779 77.4225 5.79291 78.4146 4.28884C78.5896 4.03654 78.7744 3.77454 78.969 3.53195C79.1732 3.29906 79.3677 3.05647 79.5915 2.84299C79.6984 2.73625 79.8152 2.61981 79.9221 2.51307C81.1671 1.34862 82.7234 0.523812 84.4547 0.184184C84.6103 0.145369 84.7757 0.125962 84.9313 0.0968509C85.4079 0.0289252 85.8942 -0.00988953 86.3902 -0.00988953C87.3823 -0.00988953 88.3355 0.145369 89.2304 0.426776C90.1349 0.708182 90.9811 1.12544 91.7495 1.64944C92.3915 2.0861 92.975 2.6004 93.4905 3.18262C93.8018 3.53195 94.0839 3.90069 94.3465 4.28884C95.3483 5.79291 95.9416 7.58809 95.9805 9.53852C96.107 4.21121 100.367 -0.00988953 105.6 -0.00988953C110.833 -0.00988953 115.035 4.21121 115.161 9.53852C115.2 7.93742 115.608 6.42365 116.319 5.10395C116.425 4.90017 116.552 4.69639 116.678 4.49261C116.795 4.28884 116.931 4.09476 117.067 3.91039C117.165 3.78425 117.252 3.6581 117.35 3.53195C117.544 3.28936 117.748 3.05647 117.972 2.84299C118.079 2.73625 118.196 2.61981 118.303 2.51307C118.643 2.19284 119.003 1.90173 119.382 1.63973C120.141 1.11574 120.987 0.698479 121.901 0.417072C122.806 0.135666 123.769 -0.0195932 124.771 -0.0195932C125.773 -0.0195932 126.716 0.135666 127.611 0.417072C128.515 0.698479 129.362 1.11574 130.13 1.63973C130.772 2.0764 131.356 2.59069 131.871 3.17291C132.182 3.52225 132.464 3.89099 132.727 4.27913C133.729 5.7832 134.322 7.57838 134.361 9.52882C134.487 4.2015 138.748 -0.0195932 143.98 -0.0195932C149.213 -0.0195932 153.415 4.2015 153.542 9.52882C153.581 7.58809 154.184 5.7832 155.176 4.27913C155.351 4.02684 155.536 3.76484 155.73 3.52225C155.925 3.27966 156.129 3.04677 156.353 2.83329C156.46 2.72655 156.576 2.6101 156.683 2.50336C157.928 1.33892 159.484 0.514109 161.216 0.17448C161.371 0.135666 161.537 0.116258 161.692 0.0871472C162.169 0.0192215 162.655 -0.0195932 163.151 -0.0195932C163.647 -0.0195932 164.124 0.0192215 164.591 0.0871472C164.746 0.116258 164.912 0.145369 165.067 0.17448C166.332 0.426776 167.499 0.931367 168.511 1.63003C169.153 2.0667 169.736 2.58099 170.252 3.16321C170.563 3.51254 170.845 3.88128 171.108 4.26943C172.109 5.7735 172.703 7.56868 172.742 9.51912C172.868 4.1918 177.128 -0.0292969 182.361 -0.0292969C187.594 -0.0292969 191.796 4.1918 191.922 9.51912C191.961 7.91801 192.37 6.40424 193.08 5.08454C193.187 4.88076 193.313 4.67698 193.439 4.47321C193.556 4.26943 193.692 4.07536 193.829 3.89099C193.926 3.76484 194.013 3.63869 194.111 3.51254C194.315 3.27966 194.519 3.03706 194.733 2.82358C194.84 2.71684 194.957 2.6004 195.064 2.49366C196.309 1.32922 197.865 0.504405 199.596 0.164777C199.752 0.125962 199.917 0.106555 200.073 0.0774435C200.549 0.00951781 201.036 -0.0292969 201.532 -0.0292969C202.028 -0.0292969 202.505 0.00951781 202.971 0.0774435C203.127 0.106555 203.292 0.135666 203.448 0.164777C205.179 0.514109 206.726 1.33892 207.98 2.49366C208.097 2.59069 208.214 2.69744 208.311 2.82358C208.525 3.04677 208.739 3.27966 208.934 3.51254C209.031 3.63869 209.128 3.76484 209.216 3.89099C209.352 4.07536 209.488 4.26943 209.615 4.47321C209.741 4.67698 209.858 4.87106 209.965 5.08454C210.675 6.40424 211.093 7.91801 211.122 9.51912C211.249 4.1918 215.509 -0.0292969 220.732 -0.0292969C225.955 -0.0292969 230.303 4.32765 230.303 9.77141C230.303 4.32765 234.573 -0.0292969 239.893 -0.0292969C245.213 -0.0292969 249.522 4.32765 249.522 9.77141C249.522 14.0313 246.925 17.6605 243.219 18.9802C246.935 20.3387 249.522 23.9679 249.522 28.1599C249.522 32.3519 247.071 35.8452 243.511 37.2425L243.579 37.2716Z" fill="#003D23"/>
<path d="M32.5503 35.73L35.1463 35.004L35.6303 35.4V47.038C35.6303 48.556 36.1803 49.282 37.8743 49.282H38.0943L39.6343 50.14V52.142L38.0943 53H37.7863C34.3103 53 32.6603 51.174 32.6383 47.764L32.5503 35.73ZM44.2909 59.116C41.2109 59.116 39.3189 56.586 39.6709 53H38.0869L36.5469 52.142V50.14L38.0869 49.282H40.0229L41.0129 43.54L44.1149 41.186L46.0949 42.088C48.0749 42.99 48.7789 44.156 49.0429 45.96L49.2189 47.038C49.2849 47.588 49.3069 48.094 49.1969 48.512C49.1309 48.776 49.0429 49.04 48.9109 49.282H50.1869H51.6829L53.2229 50.14V52.142L51.6829 53H50.3629C49.9449 53 49.3949 52.89 48.9549 52.626C49.6149 53.968 49.6589 55.772 49.0869 56.938L48.8889 57.334C48.2949 58.522 47.5029 59.116 45.6989 59.116H44.2909ZM42.6409 52.912C42.4429 54.87 43.2569 55.75 45.2369 55.75H46.3809C46.8209 54.848 46.6669 53.902 46.0289 53.242L45.2809 52.45C44.5329 52.67 43.6529 52.824 42.6409 52.912ZM42.9269 49.524C44.7969 49.392 45.9629 48.952 46.5569 48.116L46.3809 47.016C46.2049 46.048 45.8749 45.63 44.8629 45.146L43.6969 44.596L42.9269 49.524ZM51.6865 53L50.1465 52.142V50.14L51.6865 49.282H54.7225C55.8225 49.282 57.0105 49.106 57.8245 48.776L57.3185 47.5C56.9225 46.444 56.3725 46.026 55.0305 45.476L51.3125 43.98L51.6865 38.59L59.9805 36.214L60.4645 36.61L60.2885 39.624L53.9745 41.428L56.2845 42.352C58.5505 43.254 59.3645 44.2 60.0025 45.85L60.3765 46.796C60.6625 47.478 60.8605 48.226 60.8605 48.952C60.8605 50.052 60.4425 51.086 59.4965 51.746C58.3305 52.56 56.6145 53 54.6345 53H51.6865ZM61.8383 58.984C61.0903 58.984 60.6063 58.852 59.8363 58.654L58.9563 58.434L58.6263 55.574L59.0443 55.09L59.7703 55.2C60.2103 55.244 60.9583 55.376 61.4423 55.376C62.5203 55.376 63.3123 54.958 64.0603 54.056C64.3903 53.638 64.6983 53.22 64.9623 52.78C64.6323 50.624 64.1263 48.006 63.5323 45.058L66.3043 43.518C67.2723 48.05 67.6903 50.338 67.6903 51.9C67.6903 53.484 67.1843 55.178 66.0843 56.674C65.0283 58.06 63.5103 58.984 61.8383 58.984ZM69.8042 35.73L72.4002 35.004L72.8842 35.4V47.038C72.8842 48.556 73.4342 49.282 75.1282 49.282H75.3482L76.8882 50.14V52.142L75.3482 53H75.0402C71.5642 53 69.9142 51.174 69.8922 47.764L69.8042 35.73ZM84.5633 42.668L81.8353 40.996L83.4853 38.29L86.0593 39.896L87.0273 38.29L89.7333 39.962L88.0833 42.668L85.5313 41.084L84.5633 42.668ZM83.3753 37.3L84.8493 34.88L87.2693 36.376L85.7953 38.796L83.3753 37.3ZM75.3408 53L73.8008 52.142V50.14L75.3408 49.282H76.0008C77.1228 49.282 78.3328 48.93 78.3328 47.478V45.19L80.6428 44.706L81.1268 45.146V47.456C81.1268 48.71 81.9188 49.282 83.4148 49.282C84.1188 49.282 84.7348 49.216 85.3728 49.04V46.048H88.0788V47.61C88.0788 48.82 88.8268 49.282 89.8608 49.282C90.5428 49.282 91.1588 49.128 91.6648 48.886C91.5328 47.918 91.4228 47.324 91.1588 46.004C90.9828 45.168 90.8288 44.288 90.6528 43.452L93.4028 41.89C93.6668 43.1 93.9088 44.332 94.1948 45.564C94.4368 46.708 94.5468 47.786 94.5468 48.6C94.5468 49.81 94.2608 50.8 93.6888 51.526C92.9188 52.494 91.7088 53 90.0368 53C88.9808 53 87.7928 52.648 87.0228 51.966C85.7688 52.714 84.6028 53 83.2388 53C81.6768 53 80.4668 52.494 79.6308 51.614C78.6408 52.538 77.2328 53 75.6708 53H75.3408ZM99.1856 58.676C98.7896 58.61 97.9536 58.368 97.1616 58.104L96.8316 55.31L97.2716 54.826C98.4596 55.024 99.0976 55.112 99.8236 55.2C101.584 55.442 102.728 55.178 103.806 53.924C104.092 53.572 104.444 53.088 104.642 52.714L104.598 52.142L104.29 52.296C102.508 53.286 99.9776 53.352 98.3496 52.252L98.1516 52.142C97.1396 51.438 96.8096 50.36 96.8316 48.974L96.8536 47.522C96.8976 44.508 98.7456 42.506 101.584 42.506H102.706C104.818 42.506 106.226 43.672 106.644 46.004L106.974 47.94C107.216 49.348 107.348 50.382 107.348 51.438C107.348 53.088 106.754 55.09 105.742 56.366C103.96 58.676 101.98 59.402 99.1856 58.676ZM99.6036 48.754L99.7136 48.842C100.726 49.502 101.936 49.502 103.344 48.908L103.96 48.644L103.432 45.674H101.694C100.198 45.674 99.6036 46.466 99.6036 47.742V48.754ZM121.166 53.33C115.842 53.33 113.4 51.328 114.324 46.268L114.83 43.364H116.942L117.316 43.848L116.964 46.092C116.546 48.952 117.976 49.612 121.518 49.612C123.608 49.612 126.358 49.304 128.25 48.798L128.14 35.73L130.736 35.004L131.22 35.4V47.28C131.242 48.71 131.968 49.282 133.376 49.282H133.838L135.378 50.14V52.142L133.838 53H133.332C131.748 53 130.582 52.538 129.856 51.68C129.35 52.076 128.69 52.362 127.92 52.604C125.94 53.176 123.344 53.33 121.166 53.33ZM120.352 45.278V44.024L120.572 43.826C121.364 43.914 121.98 43.98 122.486 43.98C123.476 43.98 123.828 43.804 123.828 43.518C123.828 43.144 123.3 42.572 121.122 41.912L121.188 40.57L124.554 38.81L124.774 39.008L124.708 40.108L122.86 41.12C124.598 41.802 125.302 42.748 125.302 43.672C125.302 44.794 124.29 45.542 122.398 45.542C121.782 45.542 121.1 45.454 120.352 45.278ZM136.77 39.648L133.954 37.954L135.604 35.182L138.244 36.766L139.212 35.116L142.028 36.81L140.378 39.604L137.738 37.998L136.77 39.648ZM132.303 52.142V50.14L133.843 49.282H134.547C135.735 49.282 137.385 49.084 138.221 48.732C138.089 47.61 137.913 46.444 137.693 45.256L137.275 42.99L140.179 41.384L140.861 44.838C141.411 47.5 141.389 49.26 140.795 50.536C140.003 52.274 137.979 53 134.547 53H133.843L132.303 52.142ZM155.668 53C154.194 53 152.896 52.494 151.972 51.504L151.532 52.538L150.124 52.934C145.328 54.276 142.644 52.428 143.326 48.204L143.48 47.148H146.032L145.944 48.094C145.812 49.458 147.242 50.074 149.552 49.436L150.784 49.084C150.696 48.666 150.652 48.226 150.652 47.742L150.564 41.868L153.512 40.944L153.534 47.236C153.534 48.864 154.656 49.282 155.954 49.282H156.79L158.33 50.14V52.142L156.79 53H155.668ZM159.093 60.04L156.277 58.346L157.927 55.552L160.567 57.158L161.535 55.508L164.351 57.202L162.701 59.974L160.061 58.39L159.093 60.04ZM155.248 52.142V50.14L156.788 49.282H157.492C158.68 49.282 160.33 49.084 161.166 48.732C161.034 47.61 160.858 46.444 160.638 45.256L160.22 42.99L163.124 41.384L163.806 44.838C164.356 47.5 164.334 49.26 163.74 50.536C162.948 52.274 160.924 53 157.492 53H156.788L155.248 52.142ZM166.119 35.73L168.715 35.004L169.199 35.4V47.038C169.199 48.556 169.749 49.282 171.443 49.282H171.663L173.203 50.14V52.142L171.663 53H171.355C167.879 53 166.229 51.174 166.207 47.764L166.119 35.73ZM171.655 53L170.115 52.142V50.14L171.655 49.282H173.239C174.075 49.282 175.065 49.238 176.143 49.084C175.153 48.248 174.185 47.368 173.195 46.51L174.229 42.154L176.803 41.626C178.211 41.34 179.465 41.054 180.587 41.076C182.853 41.098 184.723 42.506 184.943 44.882L185.053 45.96C185.141 46.774 184.943 47.5 184.459 48.138C184.151 48.534 183.821 48.908 183.447 49.216C184.085 49.26 184.745 49.282 185.405 49.282H187.605L189.123 50.14V52.142L187.605 53H185.141C182.853 53 181.159 52.67 179.289 51.768C177.133 52.67 174.955 53 172.711 53H171.655ZM175.769 44.97C177.001 46.07 178.233 47.17 179.443 48.27L182.347 46.796L182.303 46.048C182.215 44.772 181.445 44.2 180.345 44.2C179.377 44.178 178.409 44.442 177.155 44.684L175.769 44.97ZM187.597 53L186.057 52.142V50.14L187.597 49.282H187.839C189.533 49.282 190.215 48.732 190.655 47.566L191.513 45.278C192.107 43.672 193.273 42.594 195.231 42.594H196.441C199.081 42.594 200.401 44.398 200.687 46.752L200.929 48.666C201.171 50.756 200.423 52.142 198.905 52.67L198.333 52.868C195.957 53.704 193.823 53.396 192.459 51.768L191.997 51.218C191.117 52.34 189.753 53 187.905 53H187.597ZM193.581 48.138L194.043 48.688C194.879 49.7 196.199 49.898 197.849 49.216L198.179 49.084L197.981 47.39C197.849 46.334 197.365 45.762 196.067 45.762H194.483L193.581 48.138ZM223.094 38.388L220.124 36.606L221.862 33.658L224.832 35.44L223.094 38.388ZM207.931 46.268L208.459 43.364H210.571L210.923 43.848L210.593 46.092C210.153 48.952 211.605 49.612 215.147 49.612C216.225 49.612 217.435 49.568 218.557 49.436C218.051 48.688 217.743 47.83 217.721 46.906C217.721 46.004 217.919 45.102 218.469 44.046L219.019 42.968C220.053 40.966 221.791 40.174 223.705 40.922L224.453 41.208C226.609 42.066 227.929 44.178 227.973 46.356C227.995 47.412 227.709 48.38 226.983 49.26C227.357 49.282 227.709 49.282 228.083 49.282H229.843L231.383 50.14V52.142L229.843 53H228.127C225.993 53 224.145 52.736 222.605 52.23C220.625 53.11 217.677 53.33 214.795 53.33C209.471 53.33 207.029 51.328 207.931 46.268ZM220.515 46.752C220.537 47.676 221.307 48.358 222.539 48.776C223.749 48.292 224.871 47.368 225.377 46.554C225.091 45.366 224.541 44.618 222.957 43.98L221.857 43.54L221.043 45.08C220.625 45.85 220.493 46.378 220.515 46.752ZM243.418 39.388L240.448 37.606L242.186 34.658L245.156 36.44L243.418 39.388ZM237.469 53C236.061 53 234.807 52.604 233.927 51.746C232.937 52.648 231.683 53 230.209 53H229.835L228.295 52.142V50.14L229.835 49.282H230.407C231.133 49.282 231.947 49.15 232.585 48.842C232.563 48.556 232.541 48.248 232.541 47.918V45.19L234.851 44.684L235.335 45.102V47.654C235.335 48.248 235.533 48.622 235.841 48.864L237.975 45.058C239.207 42.814 240.637 42.066 242.441 42.066H243.717C246.907 42.066 248.865 44.288 248.975 47.412L248.997 48.204C249.063 49.854 248.579 50.976 247.721 51.702C246.643 52.67 244.905 53 242.815 53H237.469ZM238.767 49.282H243.057C244.377 49.282 245.367 49.15 246.269 48.732L246.225 47.83C246.181 46.07 245.235 45.212 243.453 45.212H241.055L238.767 49.282ZM250.231 35.906V34.52L251.199 34.344C250.935 34.058 250.825 33.706 250.825 33.332V33.2C250.825 32.298 251.089 31.814 251.705 31.352L251.881 31.22C252.519 30.714 253.289 30.714 253.905 31.132L254.477 31.528L253.971 32.694L253.487 32.386C253.069 32.122 252.739 32.144 252.343 32.452L251.991 32.76V33.024C251.991 33.684 252.475 34.08 253.311 33.904L255.159 33.552V34.938L250.231 35.906ZM251.545 53.814L251.369 38.37L253.965 37.644L254.449 38.04V53.022L251.545 53.814Z" fill="#6FF6F8"/>
</g>
<defs>
<clipPath id="clip0_58_1522">
<rect width="288" height="93" fill="white"/>
</clipPath>
</defs>
</svg>
