<svg width="288" height="93" viewBox="0 0 288 93" fill="none" xmlns="http://www.w3.org/2000/svg">
<g clip-path="url(#clip0_270_211)">
<path d="M281.989 37.2719C285.481 38.708 287.951 42.1528 288 46.2381C288 46.2769 288 46.3254 288 46.3642V46.6359C288 46.6359 288 46.7232 288 46.7621C287.961 50.7794 285.5 54.2533 282.037 55.7186C285.568 57.1547 288 60.6965 288 64.7527C288 69.0126 285.403 72.6321 281.697 73.9518C285.412 75.3006 288 78.9394 288 83.1897C288 88.5849 283.681 93.0098 278.37 93.0098C273.06 93.0098 269.189 88.9827 268.839 83.8786H268.732C268.401 88.9827 264.257 93.0098 259.219 93.0098C254.181 93.0098 249.979 88.9827 249.658 83.8786H249.59C249.444 86.1105 248.559 88.1385 247.178 89.7105C247.081 89.8173 246.983 89.9337 246.876 90.0405C246.74 90.1763 246.604 90.3219 246.468 90.448C246.011 90.875 245.515 91.2534 244.98 91.5833C243.919 92.2432 242.733 92.6993 241.459 92.8933C240.992 92.971 240.505 93.0001 240.019 93.0001C239.533 93.0001 239.037 92.9613 238.56 92.8933C236.488 92.5634 234.631 91.5639 233.22 90.1181C232.987 89.8755 232.763 89.6232 232.559 89.3612C231.343 87.8377 230.565 85.9455 230.429 83.8689H230.361C230.03 88.973 225.887 93.0001 220.848 93.0001C215.81 93.0001 211.598 88.973 211.277 83.8689H211.209C211.034 86.4113 209.906 88.7013 208.175 90.351C208.116 90.4092 208.048 90.4674 207.98 90.5353C207.893 90.6033 207.825 90.6712 207.727 90.7488C207.611 90.8458 207.494 90.9429 207.367 91.0399C207.251 91.1273 207.124 91.2243 207.008 91.3116C207.008 91.3116 206.998 91.3116 206.978 91.3213C206.852 91.4087 206.725 91.4863 206.599 91.5736C205.539 92.2335 204.342 92.6896 203.068 92.8836C202.601 92.9613 202.125 92.9904 201.629 92.9904C201.133 92.9904 200.646 92.9516 200.17 92.8836C198.73 92.6507 197.398 92.1073 196.25 91.3116C195.871 91.0399 195.501 90.7488 195.161 90.4286C195.025 90.2927 194.879 90.1569 194.752 90.021C194.645 89.9143 194.548 89.8076 194.451 89.6911C193.06 88.1094 192.184 86.0813 192.029 83.8592H191.961C191.63 88.9633 187.487 92.9904 182.448 92.9904C177.41 92.9904 173.198 88.9633 172.877 83.8592H172.809C172.663 86.091 171.778 88.1191 170.397 89.6911C170.3 89.7979 170.203 89.9143 170.096 90.021C169.96 90.1569 169.823 90.3025 169.687 90.4286C169.347 90.7488 168.977 91.0399 168.598 91.3116C168.462 91.399 168.335 91.4863 168.199 91.5639C167.149 92.2238 165.952 92.6798 164.678 92.8739C164.211 92.9516 163.725 92.9807 163.239 92.9807C162.752 92.9807 162.256 92.9418 161.78 92.8739C160.34 92.641 159.008 92.0976 157.86 91.3019C157.481 91.0302 157.111 90.7391 156.77 90.4189C156.634 90.283 156.488 90.1472 156.362 90.0113C156.255 89.9046 156.158 89.7979 156.06 89.6814C154.679 88.0997 153.794 86.0716 153.639 83.8495H153.57C153.24 88.9536 149.096 92.9807 144.058 92.9807C139.02 92.9807 134.808 88.9536 134.487 83.8495H134.419C134.273 86.0814 133.388 88.1094 132.007 89.6814C131.91 89.7882 131.812 89.9046 131.705 90.0113C131.569 90.1472 131.433 90.2927 131.297 90.4189C130.956 90.7391 130.587 91.0302 130.208 91.3019C129.06 92.0976 127.727 92.641 126.288 92.8739C125.821 92.9516 125.335 92.9807 124.848 92.9807C124.362 92.9807 123.866 92.9418 123.389 92.8739C121.95 92.641 120.617 92.0976 119.47 91.3019C119.09 91.0302 118.721 90.7391 118.38 90.4189C118.244 90.283 118.098 90.1472 117.972 90.0113C117.865 89.9046 117.767 89.7979 117.67 89.6814C116.279 88.0997 115.404 86.0716 115.248 83.8495H115.18C114.849 88.9536 110.706 92.9807 105.668 92.9807C100.629 92.9807 96.4276 88.9536 96.0969 83.8495H96.0288C95.8829 86.0814 94.9978 88.1094 93.6167 89.6814C93.5194 89.7882 93.4221 89.9046 93.3152 90.0113C93.179 90.1472 93.0428 90.2927 92.9066 90.4189C92.5662 90.7391 92.1966 91.0302 91.8173 91.3019C91.6811 91.3893 91.5547 91.4766 91.4185 91.5542C90.368 92.2141 89.1717 92.6701 87.8975 92.8642C87.4209 92.9418 86.9443 92.971 86.458 92.971C85.9717 92.971 85.4756 92.9321 84.999 92.8642C83.5595 92.6313 82.227 92.0879 81.0793 91.2922C80.7 91.0205 80.3303 90.7294 79.9899 90.4092C79.8537 90.2733 79.7079 90.1375 79.5814 90.0016C79.4744 89.8949 79.3772 89.7882 79.2799 89.6717C77.8987 88.09 77.0136 86.0619 76.8677 83.8398H76.7996C76.4689 88.9439 72.3255 92.971 67.2872 92.971C62.2489 92.971 58.0471 88.9439 57.7164 83.8398H57.6094C57.2592 88.9439 53.1741 92.971 48.0775 92.971C42.9808 92.971 38.458 88.5461 38.458 83.1508C38.458 78.9006 41.055 75.2617 44.7607 73.9129C41.055 72.6029 38.458 68.9738 38.458 64.7139C38.458 60.4539 40.8896 57.1159 44.4203 55.6797C40.9577 54.2242 38.5066 50.7503 38.4677 46.7232C38.4677 46.6844 38.4677 46.6359 38.4677 46.5971V46.3254C38.4677 46.3254 38.4677 46.2381 38.4677 46.1992C38.5066 42.114 40.9772 38.6692 44.469 37.2331C40.9188 35.8454 38.458 32.3036 38.458 28.1504C38.458 23.9972 41.055 20.3293 44.7607 18.9707C41.055 17.651 38.458 14.0316 38.458 9.76195C38.458 4.31819 42.7668 -0.0387601 48.0775 -0.0387601C53.3881 -0.0387601 57.6677 4.31819 57.6677 9.76195C57.6677 4.31819 61.9863 -0.0387601 67.2969 -0.0387601C72.6076 -0.0387601 76.7899 4.24056 76.858 9.6358C76.858 8.8304 76.965 8.0541 77.1595 7.30692C77.2762 6.83144 77.4319 6.37537 77.6069 5.9387C77.7917 5.50204 78.0057 5.07508 78.2489 4.66752C78.4045 4.39582 78.5796 4.13382 78.7644 3.88152C78.8617 3.75538 78.9492 3.62923 79.0465 3.50308C79.2507 3.26049 79.455 3.0276 79.669 2.81412C79.7759 2.70738 79.8927 2.59094 79.9996 2.4842C80.3401 2.16397 80.7 1.87286 81.0793 1.61086C81.8379 1.08687 82.6841 0.669608 83.5984 0.388202C84.503 0.106795 85.4659 -0.0484637 86.4677 -0.0484637C87.4696 -0.0484637 88.413 0.106795 89.3079 0.388202C90.2124 0.669608 91.0586 1.08687 91.827 1.61086C92.469 2.04753 93.0525 2.56182 93.568 3.14405C93.8793 3.49338 94.1614 3.86212 94.424 4.25026C95.4258 5.75433 96.0191 7.54951 96.058 9.49995C96.1845 4.17263 100.445 -0.0484637 105.677 -0.0484637C110.91 -0.0484637 115.112 4.17263 115.239 9.49995C115.277 7.55922 115.881 5.75433 116.873 4.25026C117.048 3.99797 117.232 3.73597 117.427 3.49338C117.631 3.26049 117.826 3.0179 118.049 2.80442C118.156 2.69768 118.273 2.58123 118.38 2.47449C119.625 1.31005 121.181 0.485238 122.913 0.14561C123.068 0.106795 123.234 0.0873877 123.389 0.0582767C123.866 -0.00964905 124.352 -0.0484637 124.848 -0.0484637C125.84 -0.0484637 126.794 0.106795 127.688 0.388202C128.593 0.669608 129.439 1.08687 130.208 1.61086C130.849 2.04753 131.433 2.56182 131.949 3.14405C132.26 3.49338 132.542 3.86212 132.805 4.25026C133.806 5.75433 134.4 7.54951 134.439 9.49995C134.565 4.17263 138.825 -0.0484637 144.058 -0.0484637C149.291 -0.0484637 153.493 4.17263 153.619 9.49995C153.658 7.89885 154.067 6.38507 154.777 5.06537C154.884 4.8616 155.01 4.65782 155.136 4.45404C155.253 4.25026 155.389 4.05619 155.525 3.87182C155.623 3.74567 155.71 3.61952 155.808 3.49338C156.002 3.25079 156.206 3.0179 156.43 2.80442C156.537 2.69768 156.654 2.58123 156.761 2.47449C157.101 2.15427 157.461 1.86316 157.84 1.60116C158.599 1.07716 159.445 0.659904 160.36 0.378498C161.264 0.0970914 162.227 -0.0581674 163.229 -0.0581674C164.231 -0.0581674 165.174 0.0970914 166.069 0.378498C166.974 0.659904 167.82 1.07716 168.588 1.60116C169.23 2.03783 169.814 2.55212 170.329 3.13434C170.64 3.48367 170.922 3.85241 171.185 4.24056C172.187 5.74463 172.78 7.53981 172.819 9.49025C172.946 4.16293 177.206 -0.0581674 182.439 -0.0581674C187.671 -0.0581674 191.873 4.16293 192 9.49025C192.039 7.54951 192.642 5.74463 193.634 4.24056C193.809 3.98827 193.994 3.72627 194.188 3.48367C194.383 3.24108 194.587 3.00819 194.811 2.79471C194.918 2.68797 195.034 2.57153 195.141 2.46479C196.386 1.30035 197.943 0.475535 199.674 0.135906C199.829 0.0970914 199.995 0.077684 200.15 0.048573C200.627 -0.0193527 201.113 -0.0581674 201.609 -0.0581674C202.105 -0.0581674 202.582 -0.0193527 203.049 0.048573C203.205 0.077684 203.37 0.106795 203.525 0.135906C204.79 0.388202 205.957 0.892793 206.969 1.59146C207.611 2.02812 208.194 2.54242 208.71 3.12464C209.021 3.47397 209.303 3.84271 209.566 4.23086C210.567 5.73493 211.161 7.53011 211.2 9.48055C211.326 4.15323 215.586 -0.0678711 220.819 -0.0678711C226.052 -0.0678711 230.254 4.15323 230.38 9.48055C230.419 7.87944 230.828 6.36566 231.538 5.04597C231.645 4.84219 231.771 4.63841 231.898 4.43463C232.014 4.23086 232.15 4.03678 232.287 3.85241C232.384 3.72627 232.471 3.60012 232.569 3.47397C232.773 3.24108 232.977 2.99849 233.191 2.78501C233.298 2.67827 233.415 2.56182 233.522 2.45508C234.767 1.29064 236.323 0.465831 238.054 0.126202C238.21 0.0873877 238.375 0.0679803 238.531 0.0388693C239.008 -0.0290564 239.494 -0.0678711 239.99 -0.0678711C240.486 -0.0678711 240.963 -0.0290564 241.429 0.0388693C241.585 0.0679803 241.75 0.0970914 241.906 0.126202C243.637 0.475535 245.184 1.30035 246.439 2.45508C246.555 2.55212 246.672 2.65886 246.769 2.78501C246.983 3.00819 247.197 3.24108 247.392 3.47397C247.489 3.60012 247.586 3.72627 247.674 3.85241C247.81 4.03678 247.946 4.23086 248.073 4.43463C248.199 4.63841 248.316 4.83248 248.423 5.04597C249.133 6.36566 249.551 7.87944 249.58 9.48055C249.707 4.15323 253.967 -0.0678711 259.19 -0.0678711C264.413 -0.0678711 268.761 4.28908 268.761 9.73284C268.761 4.28908 273.031 -0.0678711 278.351 -0.0678711C283.671 -0.0678711 287.98 4.28908 287.98 9.73284C287.98 13.9928 285.383 17.6219 281.677 18.9416C285.393 20.3001 287.98 23.9293 287.98 28.1213C287.98 32.3133 285.529 35.8066 281.969 37.2039L281.989 37.2719Z" fill="#003D23"/>
<path d="M243.579 37.2719C247.071 38.708 249.542 42.1528 249.59 46.2381C249.59 46.2769 249.59 46.3254 249.59 46.3642V46.6359C249.59 46.6359 249.59 46.7232 249.59 46.7621C249.551 50.7794 247.091 54.2533 243.628 55.7185C247.159 57.1547 249.59 60.6965 249.59 64.7527C249.59 69.0126 246.993 72.632 243.288 73.9517C247.003 75.3006 249.59 78.9394 249.59 83.1896C249.59 88.5849 245.272 93.0098 239.961 93.0098C234.65 93.0098 230.779 88.9827 230.429 83.8786H230.322C229.991 88.9827 225.848 93.0098 220.81 93.0098C215.771 93.0098 211.57 88.9827 211.249 83.8786H211.181C211.035 86.1105 210.15 88.1385 208.768 89.7105C208.671 89.8172 208.574 89.9337 208.467 90.0404C208.331 90.1763 208.195 90.3218 208.058 90.448C207.601 90.8749 207.105 91.2534 206.57 91.5833C205.51 92.2432 204.323 92.6992 203.049 92.8933C202.582 92.9709 202.096 93.0001 201.61 93.0001C201.123 93.0001 200.627 92.9612 200.151 92.8933C198.079 92.5634 196.221 91.5639 194.811 90.1181C194.577 89.8755 194.354 89.6232 194.15 89.3612C192.934 87.8377 192.156 85.9455 192.019 83.8689H191.951C191.621 88.973 187.477 93.0001 182.439 93.0001C177.401 93.0001 173.189 88.973 172.868 83.8689H172.8C172.625 86.4113 171.497 88.7013 169.765 90.351C169.707 90.4092 169.639 90.4674 169.571 90.5353C169.483 90.6032 169.415 90.6712 169.318 90.7488C169.201 90.8458 169.084 90.9429 168.958 91.0399C168.841 91.1272 168.715 91.2243 168.598 91.3116C168.598 91.3116 168.588 91.3116 168.569 91.3213C168.443 91.4087 168.316 91.4863 168.19 91.5736C167.129 92.2335 165.933 92.6895 164.659 92.8836C164.192 92.9612 163.715 92.9904 163.219 92.9904C162.723 92.9904 162.237 92.9515 161.76 92.8836C160.321 92.6507 158.988 92.1073 157.841 91.3116C157.461 91.0399 157.092 90.7488 156.751 90.4286C156.615 90.2927 156.469 90.1569 156.343 90.021C156.236 89.9143 156.139 89.8075 156.041 89.6911C154.65 88.1094 153.775 86.0813 153.619 83.8592H153.551C153.221 88.9633 149.077 92.9904 144.039 92.9904C139.001 92.9904 134.789 88.9633 134.468 83.8592H134.4C134.254 86.091 133.369 88.1191 131.988 89.6911C131.891 89.7978 131.793 89.9143 131.686 90.021C131.55 90.1569 131.414 90.3024 131.278 90.4286C130.937 90.7488 130.568 91.0399 130.188 91.3116C130.052 91.3989 129.926 91.4863 129.79 91.5639C128.739 92.2238 127.543 92.6798 126.269 92.8739C125.802 92.9515 125.315 92.9806 124.829 92.9806C124.343 92.9806 123.847 92.9418 123.37 92.8739C121.931 92.641 120.598 92.0976 119.45 91.3019C119.071 91.0302 118.702 90.7391 118.361 90.4189C118.225 90.283 118.079 90.1472 117.953 90.0113C117.846 89.9046 117.748 89.7978 117.651 89.6814C116.27 88.0997 115.385 86.0716 115.229 83.8495H115.161C114.83 88.9536 110.687 92.9806 105.649 92.9806C100.61 92.9806 96.3988 88.9536 96.0778 83.8495H96.0097C95.8638 86.0813 94.9787 88.1094 93.5976 89.6814C93.5003 89.7881 93.403 89.9046 93.296 90.0113C93.1599 90.1472 93.0237 90.2927 92.8875 90.4189C92.5471 90.7391 92.1775 91.0302 91.7982 91.3019C90.6504 92.0976 89.3179 92.641 87.8784 92.8739C87.4115 92.9515 86.9252 92.9806 86.4389 92.9806C85.9526 92.9806 85.4565 92.9418 84.9799 92.8739C83.5404 92.641 82.2079 92.0976 81.0602 91.3019C80.6808 91.0302 80.3112 90.7391 79.9708 90.4189C79.8346 90.283 79.6888 90.1472 79.5623 90.0113C79.4553 89.9046 79.358 89.7978 79.2608 89.6814C77.8699 88.0997 76.9945 86.0716 76.8389 83.8495H76.7708C76.4401 88.9536 72.2967 92.9806 67.2584 92.9806C62.2201 92.9806 58.0182 88.9536 57.6875 83.8495H57.6194C57.4735 86.0813 56.5884 88.1094 55.2073 89.6814C55.11 89.7881 55.0128 89.9046 54.9058 90.0113C54.7696 90.1472 54.6334 90.2927 54.4973 90.4189C54.1568 90.7391 53.7872 91.0302 53.4079 91.3019C53.2717 91.3892 53.1453 91.4766 53.0091 91.5542C51.9587 92.2141 50.7623 92.6701 49.4881 92.8642C49.0115 92.9418 48.5349 92.9709 48.0486 92.9709C47.5623 92.9709 47.0663 92.9321 46.5897 92.8642C45.1501 92.6313 43.8176 92.0879 42.6699 91.2922C42.2906 91.0205 41.921 90.7294 41.5805 90.4092C41.4444 90.2733 41.2985 90.1375 41.172 90.0016C41.065 89.8949 40.9678 89.7881 40.8705 89.6717C39.4894 88.09 38.6042 86.0619 38.4584 83.8398H38.3903C38.0596 88.9439 33.9161 92.9709 28.8778 92.9709C23.8395 92.9709 19.6377 88.9439 19.307 83.8398H19.2C18.8498 88.9439 14.7647 92.9709 9.66808 92.9709C4.57142 92.9709 -8.66409e-06 88.5655 -8.66409e-06 83.1799C-8.66409e-06 78.9297 2.59695 75.2908 6.30273 73.942C2.59695 72.632 -8.66409e-06 69.0029 -8.66409e-06 64.743C-8.66409e-06 60.483 2.4316 57.145 5.9623 55.7088C2.49969 54.2436 0.0486236 50.7697 -8.66409e-06 46.7523C-8.66409e-06 46.7135 -8.66409e-06 46.665 -8.66409e-06 46.6262V46.3545C-8.66409e-06 46.3545 -8.66409e-06 46.2672 -8.66409e-06 46.2284C0.0388971 42.1431 2.50941 38.6983 6.00121 37.2622C2.45106 35.8745 -0.00973511 32.3327 -0.00973511 28.1795C-0.00973511 24.0264 2.58723 20.3584 6.293 18.9998C2.59695 17.6899 -8.66409e-06 14.0607 -8.66409e-06 9.80077C-8.66409e-06 4.35701 4.30881 5.82822e-05 9.61944 5.82822e-05C14.9301 5.82822e-05 19.2097 4.35701 19.2097 9.80077C19.2097 4.35701 23.5283 5.82822e-05 28.8389 5.82822e-05C34.1495 5.82822e-05 38.3319 4.27938 38.4 9.67462C38.4 8.86922 38.507 8.09292 38.7015 7.34574C38.8182 6.87026 38.9739 6.41419 39.1489 5.97752C39.3337 5.54086 39.5477 5.11389 39.7909 4.70634C39.9465 4.43464 40.1216 4.17264 40.3064 3.92034C40.4036 3.79419 40.4912 3.66805 40.5884 3.5419C40.7927 3.29931 40.9969 3.06642 41.2109 2.85294C41.3179 2.7462 41.4346 2.62975 41.5416 2.52301C41.8821 2.20279 42.2419 1.91168 42.6213 1.64968C43.3799 1.12568 44.2261 0.708426 45.1404 0.42702C46.045 0.145613 47.0079 -0.00964539 48.0097 -0.00964539C49.0115 -0.00964539 49.955 0.145613 50.8498 0.42702C51.7544 0.708426 52.6006 1.12568 53.369 1.64968C54.0109 2.08635 54.5945 2.60064 55.11 3.18286C55.4213 3.5322 55.7033 3.90093 55.966 4.28908C56.9678 5.79315 57.5611 7.58833 57.6 9.53877C57.7264 4.21145 61.9866 -0.00964539 67.2194 -0.00964539C72.4523 -0.00964539 76.6541 4.21145 76.7805 9.53877C76.8195 7.59803 77.4225 5.79315 78.4146 4.28908C78.5897 4.03679 78.7745 3.77479 78.969 3.5322C79.1732 3.29931 79.3678 3.05672 79.5915 2.84323C79.6985 2.73649 79.8152 2.62005 79.9222 2.51331C81.1672 1.34887 82.7234 0.524057 84.4547 0.184428C84.6103 0.145613 84.7757 0.126206 84.9313 0.097095C85.4079 0.0291693 85.8942 -0.00964539 86.3903 -0.00964539C87.3824 -0.00964539 88.3356 0.145613 89.2304 0.42702C90.1349 0.708426 90.9811 1.12568 91.7495 1.64968C92.3915 2.08635 92.9751 2.60064 93.4906 3.18286C93.8018 3.5322 94.0839 3.90093 94.3465 4.28908C95.3483 5.79315 95.9416 7.58833 95.9805 9.53877C96.107 4.21145 100.367 -0.00964539 105.6 -0.00964539C110.833 -0.00964539 115.035 4.21145 115.161 9.53877C115.2 7.93766 115.609 6.42389 116.319 5.10419C116.426 4.90041 116.552 4.69664 116.678 4.49286C116.795 4.28908 116.931 4.09501 117.067 3.91064C117.165 3.78449 117.252 3.65834 117.35 3.5322C117.544 3.2896 117.748 3.05672 117.972 2.84323C118.079 2.73649 118.196 2.62005 118.303 2.51331C118.643 2.19309 119.003 1.90198 119.382 1.63998C120.141 1.11598 120.987 0.698723 121.902 0.417316C122.806 0.13591 123.769 -0.0193491 124.771 -0.0193491C125.773 -0.0193491 126.716 0.13591 127.611 0.417316C128.515 0.698723 129.362 1.11598 130.13 1.63998C130.772 2.07664 131.356 2.59094 131.871 3.17316C132.182 3.52249 132.464 3.89123 132.727 4.27938C133.729 5.78345 134.322 7.57863 134.361 9.52906C134.488 4.20175 138.748 -0.0193491 143.981 -0.0193491C149.213 -0.0193491 153.415 4.20175 153.542 9.52906C153.581 7.58833 154.184 5.78345 155.176 4.27938C155.351 4.02708 155.536 3.76508 155.73 3.52249C155.925 3.2799 156.129 3.04701 156.353 2.83353C156.46 2.72679 156.576 2.61035 156.683 2.50361C157.928 1.33916 159.484 0.514353 161.216 0.174724C161.371 0.13591 161.537 0.116502 161.692 0.0873913C162.169 0.0194656 162.655 -0.0193491 163.151 -0.0193491C163.647 -0.0193491 164.124 0.0194656 164.591 0.0873913C164.746 0.116502 164.912 0.145613 165.067 0.174724C166.332 0.42702 167.499 0.931611 168.511 1.63028C169.153 2.06694 169.736 2.58124 170.252 3.16346C170.563 3.51279 170.845 3.88153 171.108 4.26967C172.109 5.77374 172.703 7.56892 172.742 9.51936C172.868 4.19205 177.128 -0.0290527 182.361 -0.0290527C187.594 -0.0290527 191.796 4.19205 191.922 9.51936C191.961 7.91826 192.37 6.40448 193.08 5.08478C193.187 4.88101 193.313 4.67723 193.44 4.47345C193.556 4.26967 193.692 4.0756 193.829 3.89123C193.926 3.76508 194.013 3.63894 194.111 3.51279C194.315 3.2799 194.519 3.03731 194.733 2.82383C194.84 2.71709 194.957 2.60064 195.064 2.4939C196.309 1.32946 197.865 0.504649 199.596 0.165021C199.752 0.126206 199.917 0.106799 200.073 0.0776877C200.55 0.00976196 201.036 -0.0290527 201.532 -0.0290527C202.028 -0.0290527 202.505 0.00976196 202.971 0.0776877C203.127 0.106799 203.292 0.13591 203.448 0.165021C205.179 0.514353 206.726 1.33916 207.981 2.4939C208.097 2.59094 208.214 2.69768 208.311 2.82383C208.525 3.04701 208.739 3.2799 208.934 3.51279C209.031 3.63894 209.128 3.76508 209.216 3.89123C209.352 4.0756 209.488 4.26967 209.615 4.47345C209.741 4.67723 209.858 4.8713 209.965 5.08478C210.675 6.40448 211.093 7.91826 211.122 9.51936C211.249 4.19205 215.509 -0.0290527 220.732 -0.0290527C225.955 -0.0290527 230.303 4.3279 230.303 9.77166C230.303 4.3279 234.573 -0.0290527 239.893 -0.0290527C245.213 -0.0290527 249.522 4.3279 249.522 9.77166C249.522 14.0316 246.925 17.6607 243.219 18.9804C246.935 20.339 249.522 23.9681 249.522 28.1601C249.522 32.3521 247.071 35.8454 243.511 37.2428L243.579 37.2719Z" fill="#003D23"/>
<path d="M76.6493 53V47.698L71.4133 37.6H74.6473L77.9033 44.2H78.2993L81.5553 37.6H84.7893L79.5533 47.698V53H76.6493ZM89.7642 53.308C88.6789 53.308 87.7036 53.088 86.8382 52.648C85.9729 52.208 85.2909 51.57 84.7922 50.734C84.2936 49.898 84.0442 48.8933 84.0442 47.72V47.368C84.0442 46.1947 84.2936 45.19 84.7922 44.354C85.2909 43.518 85.9729 42.88 86.8382 42.44C87.7036 42 88.6789 41.78 89.7642 41.78C90.8496 41.78 91.8249 42 92.6902 42.44C93.5556 42.88 94.2376 43.518 94.7362 44.354C95.2349 45.19 95.4842 46.1947 95.4842 47.368V47.72C95.4842 48.8933 95.2349 49.898 94.7362 50.734C94.2376 51.57 93.5556 52.208 92.6902 52.648C91.8249 53.088 90.8496 53.308 89.7642 53.308ZM89.7642 50.844C90.6149 50.844 91.3189 50.5727 91.8762 50.03C92.4336 49.4727 92.7122 48.6807 92.7122 47.654V47.434C92.7122 46.4073 92.4336 45.6227 91.8762 45.08C91.3336 44.5227 90.6296 44.244 89.7642 44.244C88.9136 44.244 88.2096 44.5227 87.6522 45.08C87.0949 45.6227 86.8162 46.4073 86.8162 47.434V47.654C86.8162 48.6807 87.0949 49.4727 87.6522 50.03C88.2096 50.5727 88.9136 50.844 89.7642 50.844ZM102.201 53.176C101.35 53.176 100.602 52.9853 99.9569 52.604C99.3263 52.208 98.8349 51.6653 98.4829 50.976C98.1309 50.2867 97.9549 49.4947 97.9549 48.6V42.088H100.727V48.38C100.727 49.2013 100.925 49.8173 101.321 50.228C101.732 50.6387 102.311 50.844 103.059 50.844C103.91 50.844 104.57 50.5653 105.039 50.008C105.508 49.436 105.743 48.644 105.743 47.632V42.088H108.515V53H105.787V51.57H105.391C105.215 51.9367 104.885 52.296 104.401 52.648C103.917 53 103.184 53.176 102.201 53.176ZM111.6 53V42.088H114.328V43.32H114.724C114.885 42.88 115.149 42.5573 115.516 42.352C115.897 42.1467 116.337 42.044 116.836 42.044H118.156V44.508H116.792C116.088 44.508 115.508 44.6987 115.054 45.08C114.599 45.4467 114.372 46.0187 114.372 46.796V53H111.6ZM131.144 53.308C130.088 53.308 129.127 53.0733 128.262 52.604C127.411 52.12 126.729 51.4233 126.216 50.514C125.717 49.59 125.468 48.468 125.468 47.148V43.452C125.468 41.472 126.025 39.954 127.14 38.898C128.255 37.8273 129.765 37.292 131.672 37.292C133.564 37.292 135.023 37.798 136.05 38.81C137.091 39.8073 137.612 41.164 137.612 42.88V42.968H134.752V42.792C134.752 42.2493 134.635 41.758 134.4 41.318C134.18 40.878 133.843 40.5333 133.388 40.284C132.933 40.02 132.361 39.888 131.672 39.888C130.645 39.888 129.839 40.2033 129.252 40.834C128.665 41.4647 128.372 42.3227 128.372 43.408V47.192C128.372 48.2627 128.665 49.128 129.252 49.788C129.839 50.4333 130.66 50.756 131.716 50.756C132.772 50.756 133.542 50.4773 134.026 49.92C134.51 49.3627 134.752 48.6587 134.752 47.808V47.588H131.1V45.124H137.612V53H134.928V51.526H134.532C134.429 51.7753 134.261 52.0393 134.026 52.318C133.806 52.5967 133.469 52.8313 133.014 53.022C132.559 53.2127 131.936 53.308 131.144 53.308ZM140.475 53V42.088H143.203V43.32H143.599C143.76 42.88 144.024 42.5573 144.391 42.352C144.772 42.1467 145.212 42.044 145.711 42.044H147.031V44.508H145.667C144.963 44.508 144.383 44.6987 143.929 45.08C143.474 45.4467 143.247 46.0187 143.247 46.796V53H140.475ZM153.783 53.308C152.697 53.308 151.737 53.0807 150.901 52.626C150.079 52.1567 149.434 51.504 148.965 50.668C148.51 49.8173 148.283 48.82 148.283 47.676V47.412C148.283 46.268 148.51 45.278 148.965 44.442C149.419 43.5913 150.057 42.9387 150.879 42.484C151.7 42.0147 152.653 41.78 153.739 41.78C154.809 41.78 155.741 42.022 156.533 42.506C157.325 42.9753 157.941 43.6353 158.381 44.486C158.821 45.322 159.041 46.2973 159.041 47.412V48.358H151.099C151.128 49.106 151.407 49.7147 151.935 50.184C152.463 50.6533 153.108 50.888 153.871 50.888C154.648 50.888 155.22 50.7193 155.587 50.382C155.953 50.0447 156.232 49.6707 156.423 49.26L158.689 50.448C158.483 50.8293 158.183 51.2473 157.787 51.702C157.405 52.142 156.892 52.5233 156.247 52.846C155.601 53.154 154.78 53.308 153.783 53.308ZM151.121 46.29H156.225C156.166 45.6593 155.909 45.1533 155.455 44.772C155.015 44.3907 154.435 44.2 153.717 44.2C152.969 44.2 152.375 44.3907 151.935 44.772C151.495 45.1533 151.223 45.6593 151.121 46.29ZM166.48 53.308C165.394 53.308 164.434 53.0807 163.598 52.626C162.776 52.1567 162.131 51.504 161.662 50.668C161.207 49.8173 160.98 48.82 160.98 47.676V47.412C160.98 46.268 161.207 45.278 161.662 44.442C162.116 43.5913 162.754 42.9387 163.576 42.484C164.397 42.0147 165.35 41.78 166.436 41.78C167.506 41.78 168.438 42.022 169.23 42.506C170.022 42.9753 170.638 43.6353 171.078 44.486C171.518 45.322 171.738 46.2973 171.738 47.412V48.358H163.796C163.825 49.106 164.104 49.7147 164.632 50.184C165.16 50.6533 165.805 50.888 166.568 50.888C167.345 50.888 167.917 50.7193 168.284 50.382C168.65 50.0447 168.929 49.6707 169.12 49.26L171.386 50.448C171.18 50.8293 170.88 51.2473 170.484 51.702C170.102 52.142 169.589 52.5233 168.944 52.846C168.298 53.154 167.477 53.308 166.48 53.308ZM163.818 46.29H168.922C168.863 45.6593 168.606 45.1533 168.152 44.772C167.712 44.3907 167.132 44.2 166.414 44.2C165.666 44.2 165.072 44.3907 164.632 44.772C164.192 45.1533 163.92 45.6593 163.818 46.29ZM178.02 53C177.301 53 176.714 52.78 176.26 52.34C175.82 51.8853 175.6 51.284 175.6 50.536V44.376H172.872V42.088H175.6V38.7H178.372V42.088H181.364V44.376H178.372V50.052C178.372 50.492 178.577 50.712 178.988 50.712H181.1V53H178.02ZM183.873 53V42.088H186.645V53H183.873ZM185.259 40.812C184.76 40.812 184.335 40.6507 183.983 40.328C183.646 40.0053 183.477 39.58 183.477 39.052C183.477 38.524 183.646 38.0987 183.983 37.776C184.335 37.4533 184.76 37.292 185.259 37.292C185.772 37.292 186.198 37.4533 186.535 37.776C186.872 38.0987 187.041 38.524 187.041 39.052C187.041 39.58 186.872 40.0053 186.535 40.328C186.198 40.6507 185.772 40.812 185.259 40.812ZM189.717 53V42.088H192.445V43.518H192.841C193.017 43.1367 193.347 42.7773 193.831 42.44C194.315 42.088 195.048 41.912 196.031 41.912C196.881 41.912 197.622 42.11 198.253 42.506C198.898 42.8873 199.397 43.4227 199.749 44.112C200.101 44.7867 200.277 45.5787 200.277 46.488V53H197.505V46.708C197.505 45.8867 197.299 45.2707 196.889 44.86C196.493 44.4493 195.921 44.244 195.173 44.244C194.322 44.244 193.662 44.53 193.193 45.102C192.723 45.6593 192.489 46.444 192.489 47.456V53H189.717ZM202.745 47.588V47.236C202.745 46.092 202.973 45.1167 203.427 44.31C203.882 43.4887 204.483 42.8653 205.231 42.44C205.994 42 206.823 41.78 207.717 41.78C208.715 41.78 209.47 41.956 209.983 42.308C210.497 42.66 210.871 43.0267 211.105 43.408H211.501V42.088H214.229V54.936C214.229 55.684 214.009 56.278 213.569 56.718C213.129 57.1727 212.543 57.4 211.809 57.4H204.505V54.98H210.841C211.252 54.98 211.457 54.76 211.457 54.32V51.482H211.061C210.915 51.7167 210.709 51.9587 210.445 52.208C210.181 52.4427 209.829 52.6407 209.389 52.802C208.949 52.9633 208.392 53.044 207.717 53.044C206.823 53.044 205.994 52.8313 205.231 52.406C204.483 51.966 203.882 51.3427 203.427 50.536C202.973 49.7147 202.745 48.732 202.745 47.588ZM208.509 50.624C209.36 50.624 210.071 50.3527 210.643 49.81C211.215 49.2673 211.501 48.5047 211.501 47.522V47.302C211.501 46.3047 211.215 45.542 210.643 45.014C210.086 44.4713 209.375 44.2 208.509 44.2C207.659 44.2 206.947 44.4713 206.375 45.014C205.803 45.542 205.517 46.3047 205.517 47.302V47.522C205.517 48.5047 205.803 49.2673 206.375 49.81C206.947 50.3527 207.659 50.624 208.509 50.624Z" fill="#6FF6F8"/>
</g>
<defs>
<clipPath id="clip0_270_211">
<rect width="288" height="93" fill="white"/>
</clipPath>
</defs>
</svg>
