<svg width="328" height="107" viewBox="0 0 328 107" fill="none" xmlns="http://www.w3.org/2000/svg">
<g clip-path="url(#clip0_58_1557)">
<path d="M321.137 42.8726C325.114 44.5234 327.942 48.4933 327.981 53.1903C327.99 53.2395 327.99 53.2788 327.99 53.3279V53.6424C327.99 53.7013 327.99 53.7406 327.981 53.7898C327.932 58.4082 325.134 62.4075 321.186 64.0977C325.202 65.7485 327.99 69.8265 327.99 74.494C327.99 79.4073 325.036 83.5737 320.806 85.0771C325.036 86.6297 327.99 90.8158 327.99 95.7093C327.99 101.92 323.067 107.01 317.023 107.01C310.979 107.01 306.563 102.372 306.163 96.5151H306.036C305.656 102.381 300.938 107.01 295.196 107.01C289.454 107.01 284.677 102.372 284.307 96.5151H284.219C284.219 96.5937 284.209 96.6723 284.2 96.7509C284.18 96.9769 284.151 97.1931 284.122 97.4191C284.093 97.6058 284.054 97.8023 284.024 97.9792C283.995 98.1659 283.946 98.3428 283.898 98.5295C283.81 98.8832 283.703 99.2468 283.576 99.5907C283.41 100.062 283.205 100.514 282.981 100.957V100.976C282.562 101.782 282.065 102.549 281.47 103.227C281.363 103.354 281.246 103.482 281.139 103.6C280.973 103.767 280.827 103.924 280.661 104.072C280.525 104.209 280.388 104.327 280.242 104.425C279.979 104.671 279.686 104.897 279.403 105.074C279.267 105.182 279.13 105.29 278.984 105.379C277.775 106.135 276.43 106.666 274.978 106.902C274.792 106.931 274.597 106.961 274.402 106.97C274.237 106.98 274.071 107 273.905 107.02C273.691 107.02 273.496 107.029 273.281 107.029C273.018 107.029 272.745 107.02 272.482 107C272.258 106.99 272.024 106.951 271.809 106.921C271.722 106.921 271.634 106.911 271.546 106.892C270.99 106.803 270.464 106.666 269.938 106.489C269.528 106.351 269.138 106.194 268.758 106.007C268.739 106.007 268.719 105.988 268.7 105.978C267.198 105.261 265.892 104.199 264.859 102.892C264.849 102.873 264.829 102.863 264.82 102.843C264.712 102.706 264.605 102.578 264.508 102.431C264.313 102.155 264.118 101.861 263.952 101.576C263.864 101.418 263.777 101.271 263.699 101.114C262.958 99.7283 262.499 98.1856 262.392 96.5347H262.314C262.1 99.8266 260.52 102.745 258.152 104.651H258.142C257.888 104.877 257.606 105.064 257.333 105.251H257.323C256.611 105.732 255.851 106.106 255.052 106.4C253.93 106.803 252.722 107.029 251.464 107.029C250.207 107.029 248.998 106.803 247.867 106.4C247.545 106.283 247.223 106.145 246.911 105.998C245.829 105.496 244.845 104.799 243.987 103.973C242.027 102.087 240.76 99.4532 240.575 96.5249H240.507C240.438 97.4879 240.253 98.4116 239.961 99.296C239.785 99.8757 239.551 100.436 239.259 100.966C239.249 100.986 239.23 101.025 239.2 101.055C239.103 101.271 238.976 101.477 238.859 101.694C238.781 101.802 238.713 101.92 238.635 102.028C238.528 102.195 238.411 102.362 238.294 102.529C238.118 102.775 237.923 103.01 237.728 103.236C237.68 103.295 237.641 103.335 237.582 103.394C237.524 103.472 237.465 103.541 237.397 103.61C237.231 103.777 237.085 103.934 236.929 104.081C236.9 104.131 236.851 104.15 236.822 104.19C236.734 104.278 236.646 104.357 236.549 104.445C236.412 104.543 236.276 104.661 236.139 104.769C235.993 104.877 235.866 104.985 235.72 105.084C235.72 105.084 235.71 105.094 235.701 105.103C235.554 105.192 235.408 105.29 235.262 105.379H235.252C234.043 106.135 232.698 106.666 231.246 106.902C230.7 106.99 230.163 107.02 229.598 107.02C229.033 107.02 228.477 106.97 227.941 106.902C227.912 106.902 227.873 106.892 227.843 106.882C227.619 106.852 227.405 106.803 227.18 106.744C226.625 106.626 226.089 106.44 225.572 106.233C225.426 106.165 225.279 106.106 225.143 106.047C224.548 105.772 223.983 105.447 223.447 105.064C223.028 104.769 222.628 104.445 222.248 104.081C222.111 103.973 221.984 103.846 221.858 103.718C221.585 103.443 221.341 103.148 221.097 102.843C221.029 102.755 220.98 102.666 220.912 102.578C220.727 102.322 220.542 102.067 220.376 101.792C220.22 101.536 220.074 101.281 219.937 101.025C219.918 101.016 219.918 100.996 219.918 100.976C219.781 100.711 219.664 100.436 219.538 100.161C219.06 99.0306 218.758 97.8122 218.67 96.5347H218.611C218.309 101.124 215.365 104.956 211.349 106.4C210.218 106.803 209.009 107.029 207.761 107.029C206.513 107.029 205.295 106.803 204.164 106.4C203.842 106.283 203.521 106.145 203.209 105.998C203.043 105.929 202.887 105.85 202.741 105.772C202.302 105.526 201.863 105.261 201.454 104.956H201.444C198.841 103.059 197.077 100.013 196.862 96.5249H196.794C196.784 96.6821 196.775 96.8393 196.745 96.9867C196.736 97.0359 196.726 97.0752 196.726 97.1243C196.658 97.8318 196.511 98.5098 196.297 99.1682C196.238 99.3353 196.19 99.5023 196.131 99.6694C195.663 100.996 194.942 102.205 194.045 103.246C193.938 103.374 193.821 103.502 193.714 103.62C193.548 103.787 193.402 103.944 193.246 104.091C193.138 104.19 193.021 104.288 192.914 104.386C192.895 104.406 192.856 104.435 192.827 104.465C192.69 104.563 192.554 104.681 192.417 104.789C192.281 104.917 192.144 105.015 192.008 105.113C191.852 105.211 191.696 105.31 191.549 105.408C190.497 106.076 189.307 106.568 188.05 106.823C187.874 106.852 187.699 106.892 187.504 106.921C186.987 107.01 186.431 107.039 185.876 107.039C185.32 107.039 184.755 106.99 184.199 106.921C183.604 106.823 183.01 106.676 182.435 106.479C182.24 106.41 182.045 106.342 181.859 106.263C181.674 106.184 181.479 106.106 181.294 106.017C180.748 105.762 180.231 105.457 179.734 105.113C179.305 104.799 178.886 104.465 178.496 104.101C178.34 103.954 178.184 103.796 178.028 103.629C177.921 103.521 177.804 103.384 177.697 103.256C176.117 101.438 175.104 99.0994 174.938 96.5446H174.87C174.655 99.8364 173.076 102.755 170.707 104.661H170.697C170.444 104.887 170.161 105.074 169.888 105.261H169.878C169.176 105.732 168.426 106.116 167.626 106.41C166.496 106.813 165.287 107.039 164.029 107.039C162.577 107.039 161.192 106.744 159.935 106.224C159.457 106.027 159.009 105.801 158.57 105.536C158.424 105.457 158.268 105.369 158.131 105.27C157.858 105.084 157.585 104.877 157.322 104.671C157.059 104.474 156.786 104.239 156.542 104.003C154.593 102.116 153.306 99.4827 153.13 96.5544H153.062C152.896 99.1093 151.892 101.448 150.313 103.266C150.206 103.394 150.089 103.521 149.972 103.639C149.894 103.728 149.816 103.806 149.728 103.885C149.65 103.964 149.572 104.042 149.494 104.111C149.104 104.484 148.685 104.818 148.256 105.123C148.1 105.221 147.954 105.32 147.798 105.418C147.73 105.457 147.661 105.487 147.603 105.526C147.379 105.654 147.164 105.791 146.93 105.909C146.609 106.076 146.277 106.224 145.936 106.351C145.585 106.489 145.224 106.607 144.864 106.695C144.688 106.754 144.513 106.784 144.327 106.833C144.152 106.862 143.967 106.902 143.782 106.931C143.236 107.02 142.699 107.049 142.134 107.049C141.569 107.049 141.013 107 140.477 106.931C139.853 106.833 139.268 106.676 138.693 106.489C138.118 106.292 137.562 106.057 137.045 105.762C136.694 105.575 136.343 105.359 136.012 105.123C135.583 104.809 135.164 104.474 134.774 104.111C134.618 103.964 134.452 103.806 134.306 103.639C134.189 103.531 134.072 103.394 133.965 103.266C132.395 101.448 131.381 99.1093 131.206 96.5544H131.147C130.962 99.4827 129.685 102.116 127.735 104.003C127.618 104.111 127.482 104.229 127.345 104.347C127.102 104.583 126.848 104.779 126.566 104.985H126.556C126.293 105.182 126.01 105.379 125.727 105.546C125.288 105.801 124.83 106.037 124.353 106.233C124.187 106.302 124.031 106.351 123.875 106.42C122.744 106.823 121.535 107.049 120.287 107.049C119.04 107.049 117.821 106.823 116.69 106.42C112.635 104.966 109.691 101.143 109.389 96.5544H109.33C109.164 99.1093 108.141 101.448 106.571 103.266C106.464 103.394 106.347 103.521 106.24 103.639C106.084 103.806 105.928 103.964 105.772 104.111C105.382 104.484 104.963 104.818 104.534 105.123C104.378 105.221 104.232 105.32 104.076 105.418C104.017 105.447 103.949 105.487 103.9 105.526C103.764 105.605 103.637 105.683 103.491 105.762C103.14 105.948 102.779 106.116 102.409 106.273C102.028 106.42 101.648 106.548 101.258 106.666C100.859 106.774 100.459 106.862 100.049 106.931C99.5133 107.02 98.9674 107.049 98.4117 107.049C97.856 107.049 97.2906 107 96.735 106.931C96.1403 106.833 95.5456 106.685 94.9705 106.489C94.7755 106.42 94.5805 106.351 94.3953 106.273C94.0151 106.116 93.6544 105.948 93.3035 105.762C92.9525 105.565 92.6016 105.359 92.2701 105.123C91.8412 104.809 91.422 104.474 91.032 104.111C90.8761 103.964 90.7201 103.806 90.5641 103.639C90.4569 103.531 90.3399 103.394 90.2327 103.266C88.6534 101.448 87.6395 99.1093 87.4738 96.5544H87.4153C87.2301 99.4827 85.953 102.116 84.0033 104.003C83.8669 104.111 83.7499 104.229 83.6134 104.347C83.3697 104.583 83.1162 104.779 82.8335 104.985H82.8238C82.5605 105.182 82.2778 105.379 81.9951 105.546C80.3866 106.509 78.5246 107.049 76.5554 107.049C73.6504 107.049 71.028 105.889 69.0685 104.003C67.1188 102.116 65.8418 99.4827 65.6565 96.5544H65.5786C65.4713 98.1954 65.0131 99.748 64.2722 101.133C64.1943 101.291 64.1163 101.438 64.0188 101.595C63.9408 101.743 63.8531 101.89 63.7556 102.018C63.6386 102.214 63.5021 102.421 63.3559 102.607C63.1902 102.833 63.0147 103.05 62.8197 103.266C62.7125 103.394 62.5955 103.521 62.4883 103.639C62.42 103.708 62.3518 103.767 62.2933 103.836C62.2153 103.914 62.1471 103.983 62.0691 104.062C62.0593 104.072 62.0398 104.091 62.0203 104.111C61.6304 104.484 61.2112 104.818 60.7823 105.123C60.6263 105.221 60.4801 105.32 60.3241 105.418C60.2656 105.457 60.1974 105.487 60.1291 105.526C59.9049 105.663 59.6709 105.801 59.437 105.919C59.1055 106.086 58.7643 106.243 58.4231 106.371C58.2476 106.43 58.0819 106.489 57.9162 106.548C57.8869 106.558 57.8479 106.568 57.8187 106.577C57.5165 106.666 57.2045 106.744 56.9023 106.813C56.7171 106.862 56.5124 106.892 56.3272 106.921C56.1419 106.951 55.9665 106.98 55.7715 106.99C55.6155 107.01 55.4596 107.02 55.3036 107.02C55.0891 107.039 54.8844 107.039 54.6699 107.039H54.6504C54.397 107.039 54.1337 107.029 53.8705 107.01C53.7146 107 53.5586 106.99 53.4026 106.961C53.2661 106.951 53.1394 106.941 53.0029 106.911C52.8469 106.882 52.7007 106.843 52.5447 106.813C52.4473 106.794 52.34 106.774 52.2425 106.744C51.9891 106.685 51.7356 106.617 51.4821 106.538C51.4139 106.518 51.3554 106.489 51.2872 106.469C50.3026 106.135 49.3667 105.683 48.5381 105.103C48.3918 104.995 48.2554 104.868 48.1091 104.759C47.9824 104.661 47.8654 104.563 47.7387 104.455C47.5925 104.327 47.4267 104.219 47.2903 104.091C47.1343 103.944 46.9686 103.787 46.8223 103.62C46.7053 103.511 46.5884 103.374 46.4811 103.246C44.9116 101.428 43.8978 99.0896 43.732 96.5347H43.654C43.2739 102.401 38.5555 107.029 32.8136 107.029C27.0717 107.029 22.295 102.391 21.9148 96.5347H21.7978C21.3981 102.401 16.748 107.029 10.9379 107.029C5.12774 107.029 0 101.91 0 95.6995C0 90.8059 2.94406 86.6199 7.16519 85.0673C2.94406 83.5638 0 79.3974 0 74.4842C0 69.571 2.76859 65.7387 6.77525 64.0879C2.83683 62.4075 0.0584914 58.4082 0 53.7898V53.2002C0.0584914 48.5031 2.86608 44.5333 6.83374 42.8824C2.78809 41.2905 0 37.2126 0 32.4271C0 27.6416 2.94406 23.4261 7.16519 21.8637C2.94406 20.3406 0 16.184 0 11.2708C0 5.00153 4.90352 -0.000123449 10.9574 -0.000123449C17.0112 -0.000123449 21.8758 5.00153 21.8758 11.2708C21.8758 5.01136 26.7793 -0.000123449 32.8331 -0.000123449C38.887 -0.000123449 43.654 4.92292 43.732 11.1332C43.732 10.8974 43.7613 10.6812 43.7808 10.4552C43.7808 10.3569 43.7905 10.2685 43.8003 10.1702C43.8295 9.89509 43.8588 9.61995 43.9075 9.34481C43.927 9.24655 43.9465 9.15811 43.9563 9.06967C43.9952 8.86332 44.0245 8.64714 44.0732 8.44078C44.2097 7.90033 44.3754 7.37953 44.5802 6.86855C44.7751 6.3674 45.0383 5.87608 45.3113 5.40441C45.4868 5.09979 45.6915 4.805 45.8865 4.51021C45.9937 4.36281 46.1107 4.21542 46.2179 4.07785C46.4421 3.80271 46.6858 3.52757 46.9296 3.2819C47.0465 3.16399 47.183 3.02642 47.3098 2.91833C47.378 2.85937 47.456 2.81024 47.5145 2.75128C47.7484 2.54492 47.9922 2.33857 48.2456 2.15186C48.3431 2.07325 48.4308 1.98482 48.5381 1.91603H48.5478C48.6551 1.83742 48.7915 1.77846 48.8988 1.70968C49.045 1.62124 49.1912 1.5328 49.3375 1.44436C49.6884 1.24783 50.0491 1.06113 50.4195 0.894082C50.595 0.81547 50.7705 0.746685 50.946 0.687727C51.1019 0.628768 51.2482 0.550157 51.4139 0.501024C51.7649 0.392934 52.1255 0.304496 52.4862 0.235711C52.4862 0.235711 52.4862 0.225884 52.496 0.235711C52.7982 0.176752 53.0907 0.12762 53.4026 0.0883144C53.5586 0.0686616 53.7146 0.0588351 53.8705 0.0391823C54.124 0.0195294 54.3872 0.00970298 54.6504 0.00970298H54.6992C54.9721 0.00970298 55.2451 0.0195294 55.518 0.0391823C55.713 0.0490087 55.9177 0.0686616 56.103 0.107967C56.2687 0.117794 56.4344 0.157099 56.6001 0.186579C56.7561 0.196405 56.9023 0.235711 57.0388 0.26519C57.341 0.333975 57.6237 0.412587 57.9162 0.501024C58.7058 0.756512 59.4467 1.08078 60.1291 1.49349C60.3533 1.63106 60.5678 1.76863 60.7823 1.91603H60.792C60.9675 2.0536 61.143 2.17152 61.3087 2.30909C61.4744 2.44666 61.6304 2.5744 61.7961 2.7218C61.8059 2.73162 61.8156 2.74145 61.8449 2.75128C62.0008 2.89867 62.1568 3.04607 62.303 3.18364C62.654 3.52757 62.9854 3.90097 63.2779 4.30385C63.4339 4.50038 63.5898 4.72639 63.7361 4.9524C63.8823 5.16858 64.009 5.38476 64.1455 5.62059C64.2625 5.8466 64.3892 6.08244 64.4965 6.30844C64.6037 6.54428 64.7207 6.78011 64.8084 7.02577C64.9059 7.28126 64.9936 7.52692 65.0716 7.78241C65.1496 8.00842 65.2081 8.21477 65.2569 8.44078C65.3933 8.99106 65.4908 9.53151 65.5493 10.1014L65.5786 10.4749C65.5883 10.6419 65.5981 10.8188 65.5981 10.9858C65.5981 10.8777 65.6078 10.7696 65.6078 10.6616C65.6176 10.4749 65.6273 10.298 65.6565 10.1014C65.676 9.91475 65.7053 9.71822 65.7248 9.54134C65.754 9.35464 65.793 9.15811 65.8223 8.98123C65.8515 8.79453 65.9003 8.61766 65.9393 8.43095C66.027 8.05755 66.1342 7.71362 66.261 7.3697C66.4364 6.8489 66.6606 6.33792 66.9239 5.86626C67.1968 5.3258 67.5283 4.81483 67.9085 4.33333C67.9865 4.19576 68.0839 4.07785 68.1814 3.95993C69.166 2.75128 70.4041 1.76863 71.8079 1.09061C71.9736 1.012 72.1296 0.933387 72.2953 0.864602C73.0167 0.550157 73.7673 0.314322 74.557 0.176752C74.8494 0.117794 75.1419 0.078488 75.4441 0.0391823C75.8145 0.00970298 76.1752 -0.0197763 76.5554 -0.0197763C77.2963 -0.0197763 78.0275 0.0588351 78.7391 0.206232C79.246 0.314322 79.7432 0.451892 80.2306 0.638595C80.2501 0.648421 80.2599 0.648421 80.2794 0.648421C82.4046 1.44436 84.2373 2.9085 85.4949 4.79517C85.5923 4.94257 85.6801 5.08997 85.7873 5.23736C86.7817 6.8489 87.3861 8.7454 87.4641 10.7893C87.4738 10.4552 87.5226 10.1309 87.5616 9.80665C87.5616 9.77717 87.5616 9.7477 87.5616 9.70839C87.7468 8.2246 88.2147 6.8489 88.9166 5.61077C88.9556 5.53216 88.9946 5.45355 89.0433 5.37493C89.0628 5.34545 89.0726 5.3258 89.0921 5.29632C89.1701 5.16858 89.2286 5.04084 89.3065 4.91309C89.5015 4.6183 89.716 4.32351 89.9402 4.03854C90.1742 3.77323 90.3984 3.49809 90.6518 3.2426C90.7786 3.12468 90.9053 2.98711 91.032 2.87902C91.227 2.69232 91.4415 2.50562 91.6559 2.35822C91.8704 2.19117 92.0654 2.03395 92.2896 1.87672C92.5041 1.7195 92.7088 1.58193 92.9233 1.47384C92.9818 1.42471 93.0305 1.39523 93.089 1.37558C93.2547 1.27731 93.4204 1.18887 93.5862 1.11026C93.6349 1.08078 93.6837 1.0513 93.7421 1.03165C93.9664 0.933387 94.1808 0.835123 94.405 0.736859C94.6 0.648421 94.8145 0.579636 95.029 0.510851C95.1167 0.461719 95.2044 0.442066 95.2922 0.422413C95.4579 0.363454 95.6334 0.324149 95.8088 0.284843C95.8868 0.255364 95.9551 0.235711 96.0331 0.225884C96.0915 0.206232 96.1403 0.196405 96.1988 0.176752C96.384 0.147273 96.5692 0.107967 96.7447 0.078488C97.3004 -0.000123445 97.856 -0.0492556 98.4214 -0.0492556C99.5523 -0.0492556 100.634 0.117794 101.658 0.442066H101.677C101.931 0.520677 102.175 0.618942 102.418 0.717206C102.925 0.913735 103.403 1.14957 103.871 1.42471C104.105 1.56228 104.329 1.69985 104.544 1.85707C105.08 2.23048 105.587 2.65301 106.055 3.13451C106.22 3.29173 106.376 3.45878 106.532 3.62583C106.883 4.02871 107.205 4.45125 107.497 4.90326C108.609 6.57376 109.272 8.57835 109.359 10.7402C109.476 7.7431 110.724 5.08014 112.664 3.14433C113.649 2.15186 114.828 1.3461 116.125 0.81547C116.291 0.736859 116.456 0.6779 116.622 0.618942C117.772 0.196405 119.01 -0.0394292 120.307 -0.0394292C121.418 -0.0394292 122.481 0.12762 123.485 0.451892C123.651 0.510851 123.816 0.559983 123.982 0.618942C128.047 2.10273 131.021 6.03331 131.206 10.7303C131.255 9.67891 131.43 8.67661 131.742 7.72345C131.849 7.35987 131.986 6.99629 132.142 6.65237C132.161 6.61306 132.181 6.57376 132.2 6.52463C132.307 6.28879 132.405 6.06278 132.522 5.83678C132.571 5.74834 132.619 5.66973 132.668 5.58129C132.678 5.57146 132.678 5.55181 132.697 5.53216C132.766 5.39459 132.844 5.26684 132.931 5.12927C132.98 5.05066 133.039 4.97205 133.087 4.89344C133.185 4.74604 133.273 4.59865 133.38 4.46108C133.487 4.31368 133.604 4.16628 133.711 4.02871C133.926 3.75357 134.169 3.47843 134.423 3.23277H134.433C134.501 3.17381 134.559 3.11485 134.618 3.04607C134.676 2.97728 134.735 2.92815 134.793 2.86919H134.803C135.193 2.48596 135.593 2.16169 136.022 1.8669H136.031C136.392 1.61141 136.782 1.37558 137.182 1.17905C137.377 1.08078 137.581 0.98252 137.796 0.874429C137.825 0.854776 137.874 0.84495 137.913 0.825297C138.108 0.736859 138.322 0.658247 138.537 0.579636C138.663 0.520677 138.78 0.491198 138.907 0.442066C139.014 0.412587 139.131 0.373281 139.239 0.353628C139.473 0.284843 139.697 0.225884 139.921 0.186579C140.642 0.0293558 141.393 -0.0492556 142.163 -0.0492556C143.294 -0.0492556 144.386 0.117794 145.41 0.442066H145.419C146.462 0.776165 147.418 1.24783 148.276 1.85707C148.646 2.11256 148.987 2.39753 149.328 2.67267C149.66 2.97728 149.982 3.29173 150.274 3.62583C150.625 4.02871 150.947 4.45125 151.249 4.90326C152.37 6.61306 153.043 8.63731 153.111 10.8384C153.111 10.6812 153.121 10.524 153.13 10.3668C153.16 9.98353 153.208 9.61013 153.267 9.24655C153.91 5.39459 156.445 2.25013 159.847 0.805644C159.847 0.805644 159.85 0.805644 159.857 0.805644C160.023 0.727032 160.188 0.668074 160.354 0.609115C160.52 0.550157 160.686 0.501024 160.851 0.442066C161.875 0.117794 162.947 -0.0492556 164.049 -0.0492556C166.076 -0.0492556 167.977 0.530504 169.625 1.52297C170.21 1.89638 170.766 2.30909 171.272 2.78076C171.409 2.88885 171.526 3.01659 171.653 3.13451C173.602 5.08014 174.84 7.78241 174.957 10.809C174.957 10.5829 175.006 10.3668 175.026 10.1408C175.045 9.92457 175.055 9.69856 175.084 9.49221C175.133 9.15811 175.201 8.82401 175.279 8.49974C175.308 8.38182 175.338 8.25408 175.367 8.13616C175.464 7.79224 175.572 7.45814 175.689 7.13387C175.718 7.04543 175.757 6.96682 175.786 6.87838C175.932 6.52463 176.078 6.1807 176.264 5.8466C176.264 5.8466 176.264 5.8466 176.264 5.83678C176.273 5.81712 176.293 5.79747 176.303 5.76799C176.459 5.4732 176.615 5.16858 176.8 4.89344C176.819 4.86396 176.858 4.81483 176.888 4.78535C177.053 4.52986 177.239 4.27437 177.434 4.02871C177.658 3.75357 177.892 3.47843 178.145 3.23277C178.213 3.16399 178.282 3.0952 178.34 3.04607C178.399 2.97728 178.457 2.92815 178.516 2.86919C178.711 2.68249 178.925 2.49579 179.14 2.34839C179.334 2.18134 179.559 2.02412 179.773 1.8669C179.988 1.70968 180.192 1.57211 180.407 1.46401C180.456 1.41488 180.504 1.39523 180.553 1.37558C180.748 1.26749 180.953 1.14957 181.157 1.0513C181.391 0.943214 181.635 0.825297 181.889 0.727032C182.084 0.638595 182.298 0.569809 182.513 0.501024C182.6 0.451892 182.688 0.43224 182.776 0.412587C182.941 0.353628 183.117 0.314322 183.292 0.275017C183.37 0.245537 183.439 0.225884 183.517 0.216058C183.575 0.196405 183.624 0.186579 183.682 0.166926C183.868 0.137447 184.053 0.0981409 184.228 0.0686616C184.784 -0.00994988 185.32 -0.059082 185.905 -0.059082C186.49 -0.059082 187.016 -0.0296027 187.533 0.0686616C187.718 0.0981409 187.894 0.137447 188.089 0.166926C188.264 0.196405 188.44 0.245537 188.625 0.284843C188.81 0.324149 188.966 0.373281 189.142 0.43224H189.161C189.298 0.481372 189.424 0.520677 189.551 0.579636C190.107 0.776165 190.643 1.02183 191.159 1.30679C191.462 1.47384 191.744 1.65072 192.037 1.85707C192.573 2.23048 193.08 2.65301 193.548 3.13451C193.714 3.29173 193.87 3.45878 194.026 3.62583C194.377 4.02871 194.698 4.45125 194.991 4.90326C196.083 6.56393 196.755 8.53905 196.853 10.7009C196.989 7.73328 198.217 5.07031 200.157 3.15416C201.025 2.27961 202.019 1.56228 203.131 1.03165C203.452 0.884255 203.774 0.736859 204.096 0.618942C205.246 0.196405 206.504 -0.0394292 207.81 -0.0394292C208.921 -0.0394292 209.984 0.12762 210.988 0.451892C211.154 0.510851 211.32 0.559983 211.485 0.618942C215.541 2.10273 218.494 6.00383 218.709 10.691C218.787 8.94193 219.245 7.30091 220.015 5.8466C220.064 5.75816 220.113 5.67955 220.161 5.59112C220.171 5.58129 220.171 5.56164 220.191 5.54198C220.259 5.40441 220.337 5.27667 220.425 5.1391C220.473 5.06049 220.532 4.98188 220.581 4.90326C220.678 4.75587 220.766 4.60847 220.873 4.4709C220.98 4.32351 221.088 4.17611 221.195 4.03854C221.283 3.94028 221.37 3.84201 221.458 3.74375C221.546 3.64548 221.633 3.54722 221.721 3.43913C221.789 3.37034 221.848 3.30156 221.906 3.2426C222.014 3.12468 222.15 2.98711 222.287 2.87902H222.296C222.647 2.5351 223.018 2.23048 223.417 1.95534C223.612 1.80794 223.827 1.6802 224.041 1.55245C224.451 1.28714 224.88 1.06113 225.328 0.864602C226.001 0.569809 226.712 0.343802 227.453 0.196405C227.629 0.166926 227.804 0.12762 227.999 0.0981409C228.545 0.0195294 229.091 -0.0296027 229.657 -0.0296027C230.222 -0.0296027 230.768 -0.000123452 231.294 0.0981409C231.47 0.12762 231.655 0.166926 231.84 0.196405H231.86C232.103 0.255364 232.337 0.304496 232.571 0.373281C232.805 0.442066 233.049 0.520677 233.283 0.599289C233.497 0.6779 233.712 0.766338 233.926 0.84495C233.936 0.854776 233.946 0.864602 233.975 0.864602C234.619 1.13974 235.223 1.48367 235.788 1.87672C235.954 1.98482 236.1 2.12239 236.247 2.2403C236.286 2.26978 236.315 2.29926 236.354 2.31891C236.861 2.7218 237.338 3.15416 237.767 3.63566C237.875 3.77323 238.001 3.90097 238.089 4.03854C238.333 4.31368 238.547 4.60847 238.742 4.91309C239.23 5.6599 239.62 6.47549 239.922 7.33039C240.107 7.84137 240.263 8.372 240.37 8.92228C240.419 9.14828 240.448 9.36447 240.477 9.59047C240.546 10.0032 240.585 10.4061 240.585 10.8286C240.741 6.08244 243.724 2.12239 247.838 0.618942C248.003 0.559983 248.169 0.510851 248.335 0.451892C249.339 0.12762 250.421 -0.0394292 251.523 -0.0394292C251.903 -0.0394292 252.273 -0.0197763 252.644 0.0195294C252.975 0.0490087 253.297 0.107967 253.619 0.176752C254.008 0.255364 254.379 0.343802 254.749 0.471545C255.081 0.569809 255.402 0.697553 255.714 0.825297C255.724 0.835123 255.734 0.835123 255.763 0.84495C256.065 0.98252 256.358 1.12009 256.66 1.27731C256.67 1.28714 256.689 1.29697 256.719 1.30679C256.875 1.39523 257.021 1.48367 257.177 1.57211C257.771 1.95534 258.337 2.3877 258.863 2.86919C258.98 2.99694 259.117 3.11486 259.243 3.23277C259.36 3.36052 259.487 3.48826 259.604 3.62583C259.711 3.7634 259.828 3.89114 259.945 4.02871C260.287 4.44142 260.589 4.88361 260.852 5.35528C260.94 5.5125 261.027 5.66973 261.115 5.82695C261.876 7.27144 262.343 8.8928 262.421 10.6419C262.431 10.7107 262.441 10.7893 262.441 10.8679C262.451 10.6714 262.46 10.4552 262.47 10.2587C262.519 9.82631 262.568 9.37429 262.646 8.95175C262.646 8.94193 262.646 8.9321 262.655 8.92228C262.743 8.48991 262.85 8.06738 262.987 7.64484C263.055 7.42866 263.123 7.2223 263.211 7.01595C263.611 5.97435 264.166 5.02118 264.829 4.16628C264.859 4.12698 264.898 4.07785 264.927 4.03854C264.956 4.00906 264.985 3.96975 265.015 3.94028C265.629 3.18364 266.34 2.52527 267.13 1.96516C267.14 1.96516 267.15 1.94551 267.159 1.94551C267.549 1.67037 267.959 1.40506 268.388 1.18887C268.612 1.08078 268.826 0.962867 269.05 0.864602C269.06 0.854776 269.07 0.854776 269.07 0.854776C269.294 0.766338 269.509 0.6779 269.733 0.599289C269.967 0.520677 270.201 0.442066 270.445 0.373281C270.503 0.353628 270.542 0.343802 270.6 0.324149C270.786 0.275017 270.981 0.235711 271.176 0.186579C271.322 0.166926 271.449 0.12762 271.605 0.107967C271.683 0.0883144 271.751 0.078488 271.819 0.078488C272.063 0.0490087 272.297 0.0195294 272.54 -0.000123449C272.804 -0.0197763 273.077 -0.0296027 273.34 -0.0296027H273.428C273.671 -0.0296027 273.905 -0.0197763 274.149 -0.000123449C274.305 0.00970298 274.461 0.0195294 274.617 0.0490087C274.763 0.0490087 274.89 0.0686616 275.026 0.0981409C275.192 0.12762 275.377 0.166926 275.543 0.196405H275.563C275.913 0.275017 276.264 0.363454 276.596 0.471545C277.805 0.835123 278.906 1.42471 279.901 2.19117C280.047 2.29926 280.174 2.41718 280.31 2.52527C280.456 2.63336 280.603 2.7611 280.729 2.87902C280.866 2.98711 280.973 3.10503 281.1 3.2426H281.109C281.353 3.49809 281.597 3.7634 281.821 4.03854C281.928 4.18594 282.045 4.33333 282.143 4.4709C282.25 4.6183 282.357 4.7657 282.445 4.90326C282.737 5.34545 283.001 5.82695 283.235 6.31827C283.313 6.48532 283.391 6.65237 283.459 6.81942C283.527 6.98647 283.595 7.15352 283.654 7.33039C284.063 8.46043 284.297 9.65926 284.326 10.9367C284.463 4.805 289.308 -0.0492556 295.274 -0.0492556C301.24 -0.0492556 306.173 4.9524 306.173 11.2217C306.173 4.96222 311.047 -0.0492556 317.091 -0.0492556C323.135 -0.0492556 328.059 4.9524 328.059 11.2217C328.059 16.1349 325.105 20.3013 320.874 21.8146C325.105 23.377 328.059 27.5532 328.059 32.378C328.059 37.2027 325.261 41.2316 321.205 42.8333L321.137 42.8726Z" fill="#003D23"/>
<path d="M302.4 69.6593C302.4 78.5817 295.225 85.814 286.374 85.814C280.583 85.814 275.504 82.7187 272.697 78.0806C269.869 82.7187 264.79 85.814 259 85.814C253.209 85.814 248.13 82.7187 245.323 78.0806C242.505 82.7187 237.426 85.814 231.636 85.814C225.845 85.814 220.766 82.7187 217.958 78.0806C215.131 82.7187 210.052 85.814 204.262 85.814C198.471 85.814 193.392 82.7187 190.584 78.0806C187.767 82.7187 182.688 85.814 176.897 85.814C171.107 85.814 166.028 82.7187 163.21 78.0806C160.393 82.7187 155.314 85.814 149.523 85.814C143.733 85.814 138.654 82.7187 135.846 78.0806C133.029 82.7187 127.95 85.814 122.159 85.814C116.369 85.814 111.28 82.7187 108.472 78.0806C105.655 82.7187 100.576 85.814 94.7853 85.814C88.9947 85.814 83.9157 82.7187 81.1081 78.0806C78.2907 82.7187 73.2117 85.814 67.4113 85.814C61.611 85.814 56.5417 82.7187 53.7341 78.0806C50.9168 82.7187 45.8378 85.814 40.0471 85.814C31.1954 85.814 24.0205 78.5817 24.0205 69.6593C24.0205 60.7369 31.1954 53.4948 40.0471 53.4948C31.1954 53.4948 24.0205 46.2626 24.0205 37.3402C24.0205 28.4178 31.1954 21.1855 40.0471 21.1855C45.8378 21.1855 50.9168 24.2809 53.7341 28.9288C56.5417 24.2809 61.6207 21.1855 67.4113 21.1855C73.202 21.1855 78.2907 24.2809 81.1081 28.9288C83.9157 24.2809 88.9947 21.1855 94.7853 21.1855C100.576 21.1855 105.655 24.2809 108.472 28.9288C111.28 24.2809 116.359 21.1855 122.159 21.1855C127.96 21.1855 133.029 24.2809 135.846 28.9288C138.654 24.2809 143.733 21.1855 149.523 21.1855C155.314 21.1855 160.393 24.2809 163.21 28.9288C166.028 24.2809 171.107 21.1855 176.897 21.1855C182.688 21.1855 187.767 24.2809 190.584 28.9288C193.392 24.2809 198.471 21.1855 204.262 21.1855C210.052 21.1855 215.131 24.2809 217.958 28.9288C220.766 24.2809 225.845 21.1855 231.636 21.1855C237.426 21.1855 242.505 24.2809 245.323 28.9288C248.13 24.2809 253.209 21.1855 259 21.1855C264.79 21.1855 269.869 24.2809 272.697 28.9288C275.504 24.2809 280.583 21.1855 286.374 21.1855C295.225 21.1855 302.4 28.4178 302.4 37.3402C302.4 46.2626 295.225 53.4948 286.374 53.4948C295.225 53.4948 302.4 60.7369 302.4 69.6593Z" fill="#06F93F"/>
<path d="M71.056 60C69.582 60 68.284 59.494 67.36 58.504L66.92 59.538L65.512 59.934C60.716 61.276 58.032 59.428 58.714 55.204L58.868 54.148H61.42L61.332 55.094C61.2 56.458 62.63 57.074 64.94 56.436L66.172 56.084C66.084 55.666 66.04 55.226 66.04 54.742L65.952 48.868L68.9 47.944L68.922 54.236C68.922 55.864 70.044 56.282 71.342 56.282H72.178L73.718 57.14V59.142L72.178 60H71.056ZM75.6619 67.04L72.8459 65.346L74.4959 62.552L77.1359 64.158L78.1039 62.508L80.9199 64.202L79.2699 66.974L76.6299 65.39L75.6619 67.04ZM72.1758 60L70.6358 59.142V57.14L72.1758 56.282H72.8798C74.1558 56.282 75.2998 56.062 76.1358 55.688C76.1138 55.336 76.1138 55.006 76.1138 54.654V51.046L78.5778 50.518L79.0838 50.936V54.192C79.0838 55.864 80.2058 56.282 81.6358 56.282H82.7138L84.2538 57.14V59.142L82.7138 60H82.0098C80.2498 60 78.7978 59.582 77.7638 58.702L77.6758 58.768C76.2238 59.648 74.6838 60 72.9238 60H72.1758ZM82.7031 60L81.1631 59.142V57.14L82.7031 56.282H84.2871C85.1231 56.282 86.1131 56.238 87.1911 56.084C86.2011 55.248 85.2331 54.368 84.2431 53.51L85.2771 49.154L87.8511 48.626C89.2591 48.34 90.5131 48.054 91.6351 48.076C93.9011 48.098 95.7711 49.506 95.9911 51.882L96.1011 52.96C96.1891 53.774 95.9911 54.5 95.5071 55.138C95.1991 55.534 94.8691 55.908 94.4951 56.216C95.1331 56.26 95.7931 56.282 96.4531 56.282H98.6531L100.171 57.14V59.142L98.6531 60H96.1891C93.9011 60 92.2071 59.67 90.3371 58.768C88.1811 59.67 86.0031 60 83.7591 60H82.7031ZM86.8171 51.97C88.0491 53.07 89.2811 54.17 90.4911 55.27L93.3951 53.796L93.3511 53.048C93.2631 51.772 92.4931 51.2 91.3931 51.2C90.4251 51.178 89.4571 51.442 88.2031 51.684L86.8171 51.97ZM98.6445 60L97.1045 59.142V57.14L98.6445 56.282H98.7765C99.7005 56.282 101.043 56.062 101.791 55.732L101.659 42.73L104.277 42.004L104.761 42.4V54.72C104.761 55.974 104.673 56.832 104.343 57.558C103.529 59.296 101.527 60 98.8865 60H98.6445ZM106.948 60.814L106.772 42.73L109.368 42.004L109.852 42.4V60.022L106.948 60.814ZM123.937 50.648L121.121 48.954L122.771 46.182L125.411 47.766L126.379 46.116L129.195 47.81L127.545 50.604L124.905 48.998L123.937 50.648ZM123.673 60.33C118.283 60.33 115.929 58.328 116.831 53.268L117.337 50.364H119.449L119.823 50.848L119.471 53.092C119.053 55.952 120.483 56.612 124.025 56.612C126.555 56.612 129.371 56.304 131.241 55.776C131.153 54.632 130.977 53.444 130.757 52.256L130.317 49.99L133.221 48.384L133.925 51.838C134.431 54.368 134.541 56.59 133.573 57.932C132.165 59.912 127.721 60.33 123.673 60.33ZM136.399 42.73L138.995 42.004L139.479 42.4V54.038C139.479 55.556 140.029 56.282 141.723 56.282H141.943L143.483 57.14V59.142L141.943 60H141.635C138.159 60 136.509 58.174 136.487 54.764L136.399 42.73ZM145.422 67.04L142.606 65.346L144.256 62.552L146.896 64.158L147.864 62.508L150.68 64.202L149.03 66.974L146.39 65.39L145.422 67.04ZM141.936 60L140.396 59.142V57.14L141.936 56.282H142.64C143.916 56.282 145.06 56.062 145.896 55.688C145.874 55.336 145.874 55.006 145.874 54.654V51.046L148.338 50.518L148.844 50.936V54.192C148.844 55.864 149.966 56.282 151.396 56.282H152.474L154.014 57.14V59.142L152.474 60H151.77C150.01 60 148.558 59.582 147.524 58.702L147.436 58.768C145.984 59.648 144.444 60 142.684 60H141.936ZM152.463 60L150.923 59.142V57.14L152.463 56.282H152.595C153.519 56.282 154.861 56.062 155.609 55.732L155.477 42.73L158.095 42.004L158.579 42.4V54.72C158.579 55.974 158.491 56.832 158.161 57.558C157.347 59.296 155.345 60 152.705 60H152.463ZM160.59 42.73L163.186 42.004L163.67 42.4V54.038C163.67 55.556 164.22 56.282 165.914 56.282H166.134L167.674 57.14V59.142L166.134 60H165.826C162.35 60 160.7 58.174 160.678 54.764L160.59 42.73ZM166.127 60L164.587 59.142V57.14L166.127 56.282H167.711C168.547 56.282 169.537 56.238 170.615 56.084C169.625 55.248 168.657 54.368 167.667 53.51L168.701 49.154L171.275 48.626C172.683 48.34 173.937 48.054 175.059 48.076C177.325 48.098 179.195 49.506 179.415 51.882L179.525 52.96C179.613 53.774 179.415 54.5 178.931 55.138C178.623 55.534 178.293 55.908 177.919 56.216C178.557 56.26 179.217 56.282 179.877 56.282H182.077L183.595 57.14V59.142L182.077 60H179.613C177.325 60 175.631 59.67 173.761 58.768C171.605 59.67 169.427 60 167.183 60H166.127ZM170.241 51.97C171.473 53.07 172.705 54.17 173.915 55.27L176.819 53.796L176.775 53.048C176.687 51.772 175.917 51.2 174.817 51.2C173.849 51.178 172.881 51.442 171.627 51.684L170.241 51.97ZM188.54 43.388L185.57 41.606L187.308 38.658L190.278 40.44L188.54 43.388ZM182.068 60L180.528 59.142V57.14L182.068 56.282H186.952C188.36 56.282 189.592 56.084 190.538 55.578C190.516 55.182 190.494 54.72 190.406 54.302C190.12 54.5 189.702 54.698 189.416 54.808C187.656 55.468 185.808 55.314 184.312 54.412L184.158 54.324C183.036 53.664 182.75 52.586 182.772 51.2L182.794 49.902C182.838 46.888 184.708 44.93 187.546 44.93H188.668C190.714 44.93 192.122 46.294 192.562 48.428C192.826 49.638 192.98 50.562 193.134 51.596C193.53 54.126 193.53 55.82 193.024 57.074C192.188 59.208 189.878 60 186.072 60H182.068ZM185.544 51.134C185.764 51.266 185.962 51.376 186.182 51.464C187.106 51.86 188.118 51.75 189.284 51.288L189.9 51.024L189.702 50.034L189.35 48.098H187.634C186.138 48.098 185.544 48.846 185.544 50.122V51.134ZM215.353 45.388L212.383 43.606L214.121 40.658L217.091 42.44L215.353 45.388ZM200.19 53.268L200.718 50.364H202.83L203.182 50.848L202.852 53.092C202.412 55.952 203.864 56.612 207.406 56.612C208.484 56.612 209.694 56.568 210.816 56.436C210.31 55.688 210.002 54.83 209.98 53.906C209.98 53.004 210.178 52.102 210.728 51.046L211.278 49.968C212.312 47.966 214.05 47.174 215.964 47.922L216.712 48.208C218.868 49.066 220.188 51.178 220.232 53.356C220.254 54.412 219.968 55.38 219.242 56.26C219.616 56.282 219.968 56.282 220.342 56.282H222.102L223.642 57.14V59.142L222.102 60H220.386C218.252 60 216.404 59.736 214.864 59.23C212.884 60.11 209.936 60.33 207.054 60.33C201.73 60.33 199.288 58.328 200.19 53.268ZM212.774 53.752C212.796 54.676 213.566 55.358 214.798 55.776C216.008 55.292 217.13 54.368 217.636 53.554C217.35 52.366 216.8 51.618 215.216 50.98L214.116 50.54L213.302 52.08C212.884 52.85 212.752 53.378 212.774 53.752ZM231.488 49.668L228.76 47.996L230.41 45.29L232.984 46.896L233.952 45.29L236.658 46.962L235.008 49.668L232.456 48.084L231.488 49.668ZM230.3 44.3L231.774 41.88L234.194 43.376L232.72 45.796L230.3 44.3ZM222.094 60L220.554 59.142V57.14L222.094 56.282H222.732C223.854 56.282 225.086 55.93 225.086 54.478V52.19L227.396 51.706L227.88 52.146V54.456C227.88 55.71 228.672 56.282 230.168 56.282C230.872 56.282 231.466 56.216 232.126 56.04V53.048H234.832V54.61C234.832 55.82 235.58 56.282 236.614 56.282C237.318 56.282 237.912 56.15 238.484 55.886C238.374 55.38 238.308 54.852 238.22 54.324L237.736 51.42L240.442 49.88L241.212 54.302C241.476 55.732 242.422 56.282 243.72 56.282H244.424L245.964 57.14V59.142L244.424 60H243.654C242.092 60 240.816 59.538 239.892 58.592C239.738 58.768 239.584 58.922 239.408 59.054C238.682 59.67 237.692 60 236.57 60C235.492 60 234.524 59.648 233.776 58.966C232.522 59.714 231.356 60 229.992 60C228.43 60 227.198 59.494 226.384 58.614C225.372 59.538 223.986 60 222.402 60H222.094ZM249.385 48.648L246.569 46.954L248.219 44.182L250.859 45.766L251.827 44.116L254.643 45.81L252.993 48.604L250.353 46.998L249.385 48.648ZM244.416 60L242.876 59.142V57.14L244.416 56.282H245.934C247.496 56.282 248.222 55.798 248.596 54.588L249.52 51.53L250.026 51.266L252.402 52.08L251.39 55.842V55.864C252.138 56.15 252.952 56.282 253.964 56.282H255.02L256.56 57.14V59.142L255.02 60H253.964C252.248 60 251.016 59.604 249.982 58.79L249.894 58.702C248.97 59.582 247.65 60 245.626 60H244.416ZM255.029 60L253.489 59.142V57.14L255.029 56.282H258.065C259.165 56.282 260.353 56.106 261.167 55.776L260.661 54.5C260.265 53.444 259.715 53.026 258.373 52.476L254.655 50.98L255.029 45.59L263.323 43.214L263.807 43.61L263.631 46.624L257.317 48.428L259.627 49.352C261.893 50.254 262.707 51.2 263.345 52.85L263.719 53.796C264.005 54.478 264.203 55.226 264.203 55.952C264.203 57.052 263.785 58.086 262.839 58.746C261.673 59.56 259.957 60 257.977 60H255.029ZM266.491 60.814L266.315 42.73L268.911 42.004L269.395 42.4V60.022L266.491 60.814Z" fill="#003D23"/>
</g>
<defs>
<clipPath id="clip0_58_1557">
<rect width="328" height="107" fill="white"/>
</clipPath>
</defs>
</svg>
