<svg width="297" height="345" viewBox="0 0 297 345" fill="none" xmlns="http://www.w3.org/2000/svg">
<rect width="297" height="345" fill="#17CC4A"/>
<g clip-path="url(#clip0_17_340)">
<path d="M10 128.977C10 131.544 11.5573 133.724 13.7911 134.519C11.5573 135.335 10 137.526 10 140.082C10 143.326 12.5883 146 15.7887 146C18.9892 146 21.309 143.573 21.513 140.501H21.5775C21.7708 143.573 24.2624 146 27.3232 146C30.3841 146 32.8435 143.573 33.0368 140.501H33.1012C33.3053 143.573 35.7647 146 38.8255 146C41.8864 146 44.6143 143.337 44.6143 140.082C44.6143 137.526 43.057 135.335 40.8231 134.519C43.0463 133.724 44.6143 131.544 44.6143 128.977C44.6143 126.41 43.057 124.273 40.8231 123.446C43.0463 122.651 44.6143 120.471 44.6143 117.904C44.6143 114.618 42.026 111.997 38.8255 111.997C35.6251 111.997 33.069 114.618 33.069 117.904C33.069 114.618 30.4807 111.997 27.3232 111.997C24.1658 111.997 21.5345 114.618 21.5345 117.904C21.5345 114.618 18.9677 111.997 15.778 111.997C12.5883 111.997 10 114.618 10 117.904C10 120.471 11.5573 122.651 13.7911 123.446C11.5573 124.273 10 126.453 10 128.977ZM27.3232 120.074L36.2265 128.999L27.3232 137.924L18.3985 128.999L27.3232 120.074Z" fill="#003D23"/>
<path d="M10 162.98C10 165.547 11.5573 167.727 13.7911 168.522C11.5573 169.327 10 171.529 10 174.085C10 177.328 12.5883 180.003 15.7887 180.003C18.9892 180.003 21.309 177.575 21.513 174.504H21.5775C21.7708 177.575 24.2624 180.003 27.3232 180.003C30.3519 180.003 32.8435 177.575 33.0368 174.504H33.1012C33.3053 177.575 35.7647 180.003 38.8255 180.003C41.8864 180.003 44.6143 177.339 44.6143 174.085C44.6143 171.529 43.057 169.338 40.8231 168.522C43.0463 167.727 44.6143 165.547 44.6143 162.98C44.6143 160.413 43.057 158.276 40.8231 157.449C43.0463 156.654 44.6143 154.474 44.6143 151.907C44.6143 148.621 42.026 146 38.8255 146C35.6251 146 33.069 148.621 33.069 151.907C33.069 148.621 30.4807 146 27.3232 146C24.1658 146 21.5345 148.621 21.5345 151.907C21.5345 148.621 18.9677 146 15.778 146C12.5883 146 10 148.621 10 151.907C10 154.474 11.5573 156.654 13.7911 157.449C11.5573 158.265 10 160.456 10 162.98ZM27.3232 154.076L36.2265 163.001L27.3232 171.926L18.3985 163.001L27.3232 154.076Z" fill="#003D23"/>
<path d="M10 196.983C10 199.549 11.5573 201.73 13.7911 202.524C11.5573 203.33 10 205.532 10 208.088C10 211.331 12.5883 214.005 15.7887 214.005C18.9892 214.005 21.309 211.578 21.513 208.507H21.5775C21.7708 211.578 24.2624 214.005 27.3232 214.005C30.3841 214.005 32.8435 211.578 33.0368 208.507H33.1012C33.3053 211.578 35.7647 214.005 38.8255 214.005C41.8864 214.005 44.6143 211.342 44.6143 208.088C44.6143 205.532 43.057 203.341 40.8231 202.524C43.0463 201.73 44.6143 199.549 44.6143 196.983C44.6143 194.416 43.057 192.278 40.8231 191.451C43.0463 190.657 44.6143 188.477 44.6143 185.91C44.6143 182.623 42.026 180.003 38.8255 180.003C35.6358 180.003 33.069 182.623 33.069 185.91C33.069 182.623 30.4807 180.003 27.3232 180.003C24.1658 180.003 21.5345 182.623 21.5345 185.91C21.5345 182.623 18.9677 180.003 15.778 180.003C12.5883 180.003 10 182.623 10 185.899C10 188.466 11.5573 190.646 13.7911 191.441C11.5573 192.268 10 194.459 10 196.983ZM27.3232 188.079L36.2265 197.004L27.3232 205.929L18.3985 197.004L27.3232 188.079Z" fill="#003D23"/>
<path d="M10 230.974C10 233.541 11.5573 235.722 13.7911 236.516C11.5573 237.333 10 239.523 10 242.08C10 245.323 12.5883 247.997 15.7887 247.997C18.9892 247.997 21.309 245.57 21.513 242.498H21.5775C21.7708 245.57 24.2624 247.997 27.3232 247.997C30.3519 247.997 32.8435 245.57 33.0368 242.498H33.1012C33.3053 245.57 35.7647 247.997 38.8255 247.997C42.0153 247.997 44.6143 245.334 44.6143 242.08C44.6143 239.523 43.057 237.333 40.8231 236.516C43.0463 235.722 44.6143 233.541 44.6143 230.974C44.6143 228.451 43.057 226.27 40.8231 225.443C43.0463 224.649 44.6143 222.468 44.6143 219.902C44.6143 216.615 42.026 213.995 38.8255 213.995C35.6251 213.995 33.069 216.615 33.069 219.902C33.069 216.615 30.4807 213.995 27.3232 213.995C24.1658 213.995 21.5345 216.615 21.5345 219.902C21.5345 216.615 18.9677 213.995 15.778 213.995C12.5883 213.995 10 216.626 10 219.902C10 222.468 11.5573 224.649 13.7911 225.443C11.5573 226.27 10 228.451 10 230.974ZM27.3232 222.071L36.2265 230.996L27.3232 239.921L18.3985 230.996L27.3232 222.071Z" fill="#003D23"/>
<path d="M44.625 26.9799C44.625 29.5467 46.1823 31.7269 48.4161 32.5217C46.193 33.3379 44.625 35.5289 44.625 38.085C44.625 41.3285 47.2133 44.0027 50.4137 44.0027C53.6142 44.0027 55.934 41.5755 56.138 38.5038H56.2025C56.3958 41.5755 58.8874 44.0027 61.9482 44.0027C65.0091 44.0027 67.4685 41.5755 67.6618 38.5038H67.7262C67.9303 41.5755 70.3897 44.0027 73.4505 44.0027C76.5114 44.0027 79.2393 41.3392 79.2393 38.085C79.2393 35.5289 77.682 33.3379 75.4481 32.5217C77.6712 31.7269 79.2393 29.5467 79.2393 26.9799C79.2393 24.456 77.682 22.2758 75.4481 21.4488C77.6712 20.654 79.2393 18.4738 79.2393 15.907C79.2393 12.6205 76.651 10 73.4505 10C70.2501 10 67.694 12.6205 67.694 15.907C67.694 12.6205 65.1057 10 61.9482 10C58.7907 10 56.1595 12.6205 56.1595 15.907C56.1595 12.6205 53.5927 10 50.403 10C47.2133 10 44.6143 12.6205 44.6143 15.907C44.6143 18.4738 46.1715 20.654 48.4054 21.4488C46.1823 22.2758 44.6143 24.456 44.6143 26.9799H44.625ZM61.9482 18.0764L70.8515 27.0014L61.9482 35.9263L53.0235 27.0014L61.9482 18.0764Z" fill="#003D23"/>
<path d="M79.25 26.9799C79.25 29.5467 80.8073 31.7269 83.0411 32.5217C80.818 33.3379 79.25 35.5289 79.25 38.085C79.25 41.3285 81.8383 44.0027 85.0387 44.0027C88.2392 44.0027 90.559 41.5755 90.763 38.5038H90.8275C91.0208 41.5755 93.5124 44.0027 96.5732 44.0027C99.6341 44.0027 102.093 41.5755 102.287 38.5038H102.351C102.555 41.5755 105.015 44.0027 108.076 44.0027C111.136 44.0027 113.864 41.3392 113.864 38.085C113.864 35.5289 112.307 33.3379 110.073 32.5217C112.296 31.7269 113.864 29.5467 113.864 26.9799C113.864 24.456 112.307 22.2758 110.073 21.4488C112.296 20.654 113.864 18.4738 113.864 15.907C113.864 12.6205 111.276 10 108.076 10C104.875 10 102.319 12.6205 102.319 15.907C102.319 12.6205 99.7307 10 96.5732 10C93.4157 10 90.7845 12.6205 90.7845 15.907C90.7845 12.6205 88.2177 10 85.028 10C81.8383 10 79.2393 12.6205 79.2393 15.907C79.2393 18.4738 80.7965 20.654 83.0304 21.4488C80.8073 22.2758 79.2393 24.456 79.2393 26.9799H79.25ZM96.5732 18.0764L105.477 27.0014L96.5732 35.9263L87.6485 27.0014L96.5732 18.0764Z" fill="#003D23"/>
<path d="M113.875 26.9799C113.875 29.5467 115.432 31.7269 117.666 32.5217C115.443 33.3379 113.875 35.5289 113.875 38.085C113.875 41.3285 116.463 44.0027 119.664 44.0027C122.864 44.0027 125.184 41.5755 125.388 38.5038H125.452C125.646 41.5755 128.137 44.0027 131.198 44.0027C134.259 44.0027 136.718 41.5755 136.912 38.5038H136.976C137.18 41.5755 139.64 44.0027 142.701 44.0027C145.761 44.0027 148.489 41.3392 148.489 38.085C148.489 35.5289 146.932 33.3379 144.698 32.5217C146.921 31.7269 148.489 29.5467 148.489 26.9799C148.489 24.456 146.932 22.2758 144.698 21.4488C146.921 20.654 148.489 18.4738 148.489 15.907C148.489 12.6205 145.901 10 142.701 10C139.5 10 136.944 12.6205 136.944 15.907C136.944 12.6205 134.356 10 131.198 10C128.041 10 125.41 12.6205 125.41 15.907C125.41 12.6205 122.843 10 119.653 10C116.463 10 113.864 12.6205 113.864 15.907C113.864 18.4738 115.422 20.654 117.655 21.4488C115.432 22.2758 113.864 24.456 113.864 26.9799H113.875ZM131.198 18.0764L140.102 27.0014L131.198 35.9263L122.273 27.0014L131.198 18.0764Z" fill="#003D23"/>
<path d="M148.5 26.9799C148.5 29.5467 150.057 31.7269 152.291 32.5217C150.068 33.3379 148.5 35.5289 148.5 38.085C148.5 41.3285 151.088 44.0027 154.289 44.0027C157.489 44.0027 159.809 41.5755 160.013 38.5038H160.077C160.271 41.5755 162.762 44.0027 165.823 44.0027C168.884 44.0027 171.343 41.5755 171.537 38.5038H171.601C171.805 41.5755 174.265 44.0027 177.326 44.0027C180.386 44.0027 183.114 41.3392 183.114 38.085C183.114 35.5289 181.557 33.3379 179.323 32.5217C181.546 31.7269 183.114 29.5467 183.114 26.9799C183.114 24.456 181.557 22.2758 179.323 21.4488C181.546 20.654 183.114 18.4738 183.114 15.907C183.114 12.6205 180.526 10 177.326 10C174.125 10 171.569 12.6205 171.569 15.907C171.569 12.6205 168.981 10 165.823 10C162.666 10 160.035 12.6205 160.035 15.907C160.035 12.6205 157.468 10 154.278 10C151.088 10 148.489 12.6205 148.489 15.907C148.489 18.4738 150.047 20.654 152.28 21.4488C150.057 22.2758 148.489 24.456 148.489 26.9799H148.5ZM165.823 18.0764L174.727 27.0014L165.823 35.9263L156.898 27.0014L165.823 18.0764Z" fill="#003D23"/>
<path d="M183.125 26.9799C183.125 29.5467 184.682 31.7269 186.916 32.5217C184.693 33.3379 183.125 35.5289 183.125 38.085C183.125 41.3285 185.713 44.0027 188.914 44.0027C192.114 44.0027 194.434 41.5755 194.638 38.5038H194.702C194.896 41.5755 197.387 44.0027 200.448 44.0027C203.509 44.0027 205.968 41.5755 206.162 38.5038H206.226C206.43 41.5755 208.89 44.0027 211.951 44.0027C215.011 44.0027 217.739 41.3392 217.739 38.085C217.739 35.5289 216.182 33.3379 213.948 32.5217C216.171 31.7269 217.739 29.5467 217.739 26.9799C217.739 24.456 216.182 22.2758 213.948 21.4488C216.171 20.654 217.739 18.4738 217.739 15.907C217.739 12.6205 215.151 10 211.951 10C208.75 10 206.194 12.6205 206.194 15.907C206.194 12.6205 203.606 10 200.448 10C197.291 10 194.66 12.6205 194.66 15.907C194.66 12.6205 192.093 10 188.903 10C185.713 10 183.114 12.6205 183.114 15.907C183.114 18.4738 184.672 20.654 186.905 21.4488C184.682 22.2758 183.114 24.456 183.114 26.9799H183.125ZM200.448 18.0764L209.351 27.0014L200.448 35.9263L191.523 27.0014L200.448 18.0764Z" fill="#003D23"/>
<path d="M217.75 26.9799C217.75 29.5467 219.307 31.7269 221.541 32.5217C219.318 33.3379 217.75 35.5289 217.75 38.085C217.75 41.3285 220.338 44.0027 223.539 44.0027C226.739 44.0027 229.059 41.5755 229.263 38.5038H229.327C229.521 41.5755 232.012 44.0027 235.073 44.0027C238.134 44.0027 240.593 41.5755 240.787 38.5038H240.851C241.055 41.5755 243.515 44.0027 246.576 44.0027C249.636 44.0027 252.364 41.3392 252.364 38.085C252.364 35.5289 250.807 33.3379 248.573 32.5217C250.796 31.7269 252.364 29.5467 252.364 26.9799C252.364 24.413 250.807 22.2758 248.573 21.4488C250.796 20.654 252.364 18.4738 252.364 15.907C252.364 12.6205 249.776 10 246.576 10C243.375 10 240.819 12.6205 240.819 15.907C240.819 12.6205 238.231 10 235.073 10C231.916 10 229.285 12.6205 229.285 15.907C229.285 12.6205 226.718 10 223.528 10C220.338 10 217.739 12.6205 217.739 15.907C217.739 18.4738 219.297 20.654 221.53 21.4488C219.307 22.2758 217.739 24.456 217.739 26.9799H217.75ZM235.073 18.0764L243.977 27.0014L235.073 35.9263L226.148 27.0014L235.073 18.0764Z" fill="#003D23"/>
<path d="M10 264.977C10 267.544 11.5573 269.724 13.7911 270.519C11.5573 271.335 10 273.526 10 276.082C10 279.326 12.5883 282 15.7887 282C18.9892 282 21.309 279.573 21.513 276.501H21.5775C21.7708 279.573 24.2624 282 27.3232 282C30.3841 282 32.8435 279.573 33.0368 276.501H33.1012C33.3053 279.573 35.7647 282 38.8255 282C42.0153 282 44.6143 279.336 44.6143 276.082C44.6143 273.526 43.057 271.335 40.8231 270.519C43.0463 269.724 44.6143 267.544 44.6143 264.977C44.6143 262.453 43.057 260.273 40.8231 259.446C43.0463 258.651 44.6143 256.471 44.6143 253.904C44.6143 250.618 42.026 247.997 38.8255 247.997C35.6358 247.997 33.069 250.618 33.069 253.904C33.069 250.618 30.4807 247.997 27.3232 247.997C24.1335 247.997 21.5345 250.618 21.5345 253.904C21.5345 250.618 18.9677 247.997 15.778 247.997C12.5883 247.997 10 250.618 10 253.904C10 256.471 11.5573 258.651 13.7911 259.446C11.5573 260.273 10 262.453 10 264.977ZM27.3232 256.074L36.2265 264.999L27.3232 273.924L18.3985 264.999L27.3232 256.074Z" fill="#003D23"/>
<path d="M44.625 264.977C44.625 267.544 46.1823 269.724 48.4161 270.519C46.193 271.335 44.625 273.526 44.625 276.082C44.625 279.326 47.2133 282 50.4137 282C53.6142 282 55.934 279.573 56.138 276.501H56.2025C56.3958 279.573 58.8874 282 61.9482 282C65.0091 282 67.4685 279.573 67.6618 276.501H67.7262C67.9303 279.573 70.3897 282 73.4505 282C76.5114 282 79.2393 279.336 79.2393 276.082C79.2393 273.526 77.682 271.335 75.4481 270.519C77.6712 269.724 79.2393 267.544 79.2393 264.977C79.2393 262.453 77.682 260.273 75.4481 259.446C77.6712 258.651 79.2393 256.471 79.2393 253.904C79.2393 250.618 76.651 247.997 73.4505 247.997C70.2501 247.997 67.694 250.618 67.694 253.904C67.694 250.618 65.1057 247.997 61.9482 247.997C58.7907 247.997 56.1595 250.618 56.1595 253.904C56.1595 250.618 53.5927 247.997 50.403 247.997C47.2133 247.997 44.6143 250.618 44.6143 253.904C44.6143 256.471 46.1715 258.651 48.4054 259.446C46.1823 260.273 44.6143 262.453 44.6143 264.977H44.625ZM61.9482 256.074L70.8515 264.999L61.9482 273.924L53.0235 264.999L61.9482 256.074Z" fill="#003D23"/>
<path d="M79.25 264.977C79.25 267.544 80.8073 269.724 83.0411 270.519C80.818 271.335 79.25 273.526 79.25 276.082C79.25 279.326 81.8383 282 85.0387 282C88.2392 282 90.559 279.573 90.763 276.501H90.8275C91.0208 279.573 93.5124 282 96.5732 282C99.6341 282 102.093 279.573 102.287 276.501H102.351C102.555 279.573 105.015 282 108.076 282C111.136 282 113.864 279.336 113.864 276.082C113.864 273.526 112.307 271.335 110.073 270.519C112.296 269.724 113.864 267.544 113.864 264.977C113.864 262.41 112.307 260.273 110.073 259.446C112.296 258.651 113.864 256.471 113.864 253.904C113.864 250.618 111.276 247.997 108.076 247.997C104.886 247.997 102.319 250.618 102.319 253.904C102.319 250.618 99.7307 247.997 96.5732 247.997C93.3835 247.997 90.7845 250.618 90.7845 253.904C90.7845 250.618 88.2177 247.997 85.028 247.997C81.8383 247.997 79.2393 250.618 79.2393 253.904C79.2393 256.471 80.7965 258.651 83.0304 259.446C80.8073 260.273 79.2393 262.453 79.2393 264.977H79.25ZM96.5732 256.074L105.477 264.999L96.5732 273.924L87.6485 264.999L96.5732 256.074Z" fill="#003D23"/>
<path d="M113.875 264.977C113.875 267.544 115.432 269.724 117.666 270.519C115.443 271.335 113.875 273.526 113.875 276.082C113.875 279.326 116.463 282 119.664 282C122.864 282 125.184 279.573 125.388 276.501H125.452C125.646 279.573 128.137 282 131.198 282C134.259 282 136.718 279.573 136.912 276.501H136.976C137.18 279.573 139.64 282 142.701 282C145.761 282 148.489 279.336 148.489 276.082C148.489 273.526 146.932 271.335 144.698 270.519C146.921 269.724 148.489 267.544 148.489 264.977C148.489 262.41 146.932 260.273 144.698 259.446C146.921 258.651 148.489 256.471 148.489 253.904C148.489 250.618 145.901 247.997 142.701 247.997C139.5 247.997 136.944 250.618 136.944 253.904C136.944 250.618 134.356 247.997 131.198 247.997C128.041 247.997 125.41 250.618 125.41 253.904C125.41 250.618 122.843 247.997 119.653 247.997C116.463 247.997 113.864 250.618 113.864 253.904C113.864 256.471 115.422 258.651 117.655 259.446C115.432 260.273 113.864 262.453 113.864 264.977H113.875ZM131.198 256.074L140.102 264.999L131.198 273.924L122.273 264.999L131.198 256.074Z" fill="#003D23"/>
<path d="M148.5 264.977C148.5 267.544 150.057 269.724 152.291 270.519C150.068 271.335 148.5 273.526 148.5 276.082C148.5 279.326 151.088 282 154.289 282C157.35 282 159.809 279.573 160.013 276.501H160.077C160.271 279.573 162.762 282 165.823 282C168.884 282 171.343 279.573 171.537 276.501H171.601C171.805 279.573 174.265 282 177.326 282C180.386 282 183.114 279.336 183.114 276.082C183.114 273.526 181.557 271.335 179.323 270.519C181.546 269.724 183.114 267.544 183.114 264.977C183.114 262.41 181.557 260.273 179.323 259.446C181.546 258.651 183.114 256.471 183.114 253.904C183.114 250.618 180.526 247.997 177.326 247.997C174.125 247.997 171.569 250.618 171.569 253.904C171.569 250.618 168.981 247.997 165.823 247.997C162.666 247.997 160.035 250.618 160.035 253.904C160.035 250.618 157.468 247.997 154.278 247.997C151.088 247.997 148.489 250.618 148.489 253.904C148.489 256.471 150.047 258.651 152.28 259.446C150.057 260.273 148.489 262.453 148.489 264.977H148.5ZM165.823 256.074L174.727 264.999L165.823 273.924L156.898 264.999L165.823 256.074Z" fill="#003D23"/>
<path d="M183.125 264.977C183.125 267.544 184.682 269.724 186.916 270.519C184.693 271.335 183.125 273.526 183.125 276.082C183.125 279.326 185.713 282 188.914 282C192.114 282 194.434 279.573 194.638 276.501H194.702C194.896 279.573 197.387 282 200.448 282C203.509 282 205.968 279.573 206.162 276.501H206.226C206.43 279.573 208.89 282 211.951 282C215.011 282 217.739 279.336 217.739 276.082C217.739 273.526 216.182 271.335 213.948 270.519C216.171 269.724 217.739 267.544 217.739 264.977C217.739 262.41 216.182 260.273 213.948 259.446C216.171 258.651 217.739 256.471 217.739 253.904C217.739 250.618 215.151 247.997 211.951 247.997C208.75 247.997 206.194 250.618 206.194 253.904C206.194 250.618 203.606 247.997 200.448 247.997C197.291 247.997 194.66 250.618 194.66 253.904C194.66 250.618 192.093 247.997 188.903 247.997C185.713 247.997 183.114 250.618 183.114 253.904C183.114 256.471 184.672 258.651 186.905 259.446C184.682 260.273 183.114 262.453 183.114 264.977H183.125ZM200.448 256.074L209.351 264.999L200.448 273.924L191.523 264.999L200.448 256.074Z" fill="#003D23"/>
<path d="M217.75 264.977C217.75 267.544 219.307 269.724 221.541 270.519C219.318 271.335 217.75 273.526 217.75 276.082C217.75 279.326 220.338 282 223.539 282C226.739 282 229.059 279.573 229.263 276.501H229.327C229.521 279.573 232.012 282 235.073 282C238.134 282 240.593 279.573 240.787 276.501H240.851C241.055 279.573 243.515 282 246.576 282C249.636 282 252.364 279.336 252.364 276.082C252.364 273.526 250.807 271.335 248.573 270.519C250.796 269.724 252.364 267.544 252.364 264.977C252.364 262.453 250.807 260.273 248.573 259.446C250.796 258.651 252.364 256.471 252.364 253.904C252.364 250.618 249.776 247.997 246.576 247.997C243.375 247.997 240.819 250.618 240.819 253.904C240.819 250.618 238.231 247.997 235.073 247.997C231.916 247.997 229.285 250.618 229.285 253.904C229.285 250.618 226.718 247.997 223.528 247.997C220.338 247.997 217.739 250.618 217.739 253.904C217.739 256.471 219.297 258.651 221.53 259.446C219.307 260.273 217.739 262.453 217.739 264.977H217.75ZM235.073 256.074L243.977 264.999L235.073 273.924L226.148 264.999L235.073 256.074Z" fill="#003D23"/>
<path d="M252.375 128.977C252.375 131.544 253.932 133.724 256.166 134.519C253.943 135.335 252.375 137.526 252.375 140.082C252.375 143.326 254.963 146 258.164 146C261.364 146 263.684 143.573 263.888 140.501H263.952C264.146 143.573 266.637 146 269.698 146C272.759 146 275.218 143.573 275.412 140.501H275.476C275.68 143.573 278.14 146 281.201 146C284.261 146 286.989 143.337 286.989 140.082C286.989 137.526 285.432 135.335 283.198 134.519C285.421 133.724 286.989 131.544 286.989 128.977C286.989 126.41 285.432 124.273 283.198 123.446C285.421 122.651 286.989 120.471 286.989 117.904C286.989 114.618 284.401 111.997 281.201 111.997C278 111.997 275.444 114.618 275.444 117.904C275.444 114.618 272.856 111.997 269.698 111.997C266.541 111.997 263.91 114.618 263.91 117.904C263.91 114.618 261.343 111.997 258.153 111.997C254.963 111.997 252.364 114.618 252.364 117.904C252.364 120.471 253.922 122.651 256.155 123.446C253.932 124.273 252.364 126.453 252.364 128.977H252.375ZM269.698 120.074L278.602 128.999L269.698 137.924L260.773 128.999L269.698 120.074Z" fill="#003D23"/>
<path d="M10 94.9745C10 97.5413 11.5573 99.7216 13.7911 100.516C11.5573 101.333 10 103.524 10 106.08C10 109.323 12.5883 111.997 15.7887 111.997C18.9892 111.997 21.309 109.57 21.513 106.498H21.5775C21.7708 109.57 24.2624 111.997 27.3232 111.997C30.3841 111.997 32.8435 109.57 33.0368 106.498H33.1012C33.3053 109.57 35.7647 111.997 38.8255 111.997C41.8864 111.997 44.6143 109.334 44.6143 106.08C44.6143 103.524 43.057 101.333 40.8231 100.516C43.0463 99.7216 44.6143 97.5413 44.6143 94.9745C44.6143 92.4077 43.057 90.2704 40.8231 89.4434C43.0463 88.6487 44.6143 86.4685 44.6143 83.9016C44.6143 80.6152 42.026 77.9946 38.8255 77.9946C35.6251 77.9946 33.069 80.6152 33.069 83.9016C33.069 80.6152 30.4807 77.9946 27.3232 77.9946C24.1658 77.9946 21.5345 80.6152 21.5345 83.9016C21.5345 80.6152 18.9677 77.9946 15.778 77.9946C12.5883 77.9946 10 80.6259 10 83.9016C10 86.4685 11.5573 88.6487 13.7911 89.4434C11.5573 90.2704 10 92.4506 10 94.9745ZM27.3232 86.0711L36.2265 94.996L27.3232 103.921L18.3985 94.996L27.3232 86.0711Z" fill="#003D23"/>
<path d="M252.375 94.9745C252.375 97.5413 253.932 99.7216 256.166 100.516C253.943 101.333 252.375 103.524 252.375 106.08C252.375 109.323 254.963 111.997 258.164 111.997C261.364 111.997 263.684 109.57 263.888 106.498H263.952C264.146 109.57 266.637 111.997 269.698 111.997C272.759 111.997 275.218 109.57 275.412 106.498H275.476C275.68 109.57 278.14 111.997 281.201 111.997C284.261 111.997 286.989 109.334 286.989 106.08C286.989 103.524 285.432 101.333 283.198 100.516C285.421 99.7216 286.989 97.5413 286.989 94.9745C286.989 92.4077 285.432 90.2704 283.198 89.4434C285.421 88.6487 286.989 86.4685 286.989 83.9016C286.989 80.6152 284.401 77.9946 281.201 77.9946C278 77.9946 275.444 80.6152 275.444 83.9016C275.444 80.6152 272.856 77.9946 269.698 77.9946C266.541 77.9946 263.91 80.6152 263.91 83.9016C263.91 80.6152 261.343 77.9946 258.153 77.9946C254.963 77.9946 252.364 80.6152 252.364 83.9016C252.364 86.4685 253.922 88.6487 256.155 89.4434C253.932 90.2704 252.364 92.4506 252.364 94.9745H252.375ZM269.698 86.0711L278.602 94.996L269.698 103.921L260.773 94.996L269.698 86.0711Z" fill="#003D23"/>
<path d="M10 60.9826C10 63.5494 11.5573 65.7296 13.7911 66.5244C11.5573 67.3299 10 69.5316 10 72.0877C10 75.3311 12.5883 78.0054 15.7887 78.0054C18.9892 78.0054 21.309 75.5782 21.513 72.5065H21.5775C21.7708 75.5782 24.2624 78.0054 27.3232 78.0054C30.3841 78.0054 32.8435 75.5782 33.0368 72.5065H33.1012C33.3053 75.5782 35.7647 78.0054 38.8255 78.0054C42.0153 78.0054 44.6143 75.3419 44.6143 72.0877C44.6143 69.5316 43.057 67.3406 40.8231 66.5244C43.0463 65.7296 44.6143 63.5494 44.6143 60.9826C44.6143 58.4157 43.057 56.2785 40.8231 55.4515C43.0463 54.6567 44.6143 52.4765 44.6143 49.9097C44.6143 46.6232 42.026 44.0027 38.8255 44.0027C35.6251 44.0027 33.069 46.6232 33.069 49.9097C33.069 46.6232 30.4807 44.0027 27.3232 44.0027C24.1658 44.0027 21.5345 46.6232 21.5345 49.9097C21.5345 46.6232 18.9677 44.0027 15.778 44.0027C12.5883 44.0027 10 46.6232 10 49.9097C10 52.4765 11.5573 54.6567 13.7911 55.4515C11.5573 56.2677 10 58.4587 10 60.9826ZM27.3232 52.0791L36.2265 61.004L27.3232 69.9289L18.3985 61.004L27.3232 52.0791Z" fill="#003D23"/>
<path d="M252.375 60.9826C252.375 63.5494 253.932 65.7296 256.166 66.5244C253.943 67.3406 252.375 69.5316 252.375 72.0877C252.375 75.3311 254.963 78.0054 258.164 78.0054C261.364 78.0054 263.684 75.5782 263.888 72.5065H263.952C264.146 75.5782 266.637 78.0054 269.698 78.0054C272.759 78.0054 275.218 75.5782 275.412 72.5065H275.476C275.68 75.5782 278.14 78.0054 281.201 78.0054C284.261 78.0054 286.989 75.3419 286.989 72.0877C286.989 69.5316 285.432 67.3406 283.198 66.5244C285.421 65.7296 286.989 63.5494 286.989 60.9826C286.989 58.4587 285.432 56.2785 283.198 55.4515C285.421 54.6567 286.989 52.4765 286.989 49.9097C286.989 46.6232 284.401 44.0027 281.201 44.0027C278 44.0027 275.444 46.6232 275.444 49.9097C275.444 46.6232 272.856 44.0027 269.698 44.0027C266.541 44.0027 263.91 46.6232 263.91 49.9097C263.91 46.6232 261.343 44.0027 258.153 44.0027C254.963 44.0027 252.364 46.6232 252.364 49.9097C252.364 52.4765 253.922 54.6567 256.155 55.4515C253.932 56.2785 252.364 58.4587 252.364 60.9826H252.375ZM269.698 52.0791L278.602 61.004L269.698 69.9289L260.773 61.004L269.698 52.0791Z" fill="#003D23"/>
<path d="M10 26.9799C10 29.5467 11.5573 31.7269 13.7911 32.5217C11.5573 33.3272 10 35.5289 10 38.085C10 41.3285 12.5883 44.0027 15.7887 44.0027C18.9892 44.0027 21.309 41.5755 21.513 38.5038H21.5775C21.7708 41.5755 24.2624 44.0027 27.3232 44.0027C30.3841 44.0027 32.8435 41.5755 33.0368 38.5038H33.1012C33.3053 41.5755 35.7647 44.0027 38.8255 44.0027C42.0152 44.0027 44.6143 41.3392 44.6143 38.085C44.6143 35.5289 43.057 33.3379 40.8231 32.5217C43.0463 31.7269 44.6143 29.5467 44.6143 26.9799C44.6143 24.413 43.057 22.2758 40.8231 21.4488C43.0463 20.654 44.6143 18.4738 44.6143 15.907C44.625 12.6205 42.0367 10 38.8363 10C35.6358 10 33.0798 12.6205 33.0798 15.907C33.0798 12.6205 30.4915 10 27.334 10C24.1765 10 21.5452 12.6205 21.5452 15.907C21.5452 12.6205 18.9784 10 15.7887 10C12.599 10 10 12.6205 10 15.907C10 18.4738 11.5573 20.654 13.7911 21.4488C11.5573 22.265 10 24.456 10 26.9799ZM27.3232 18.0764L36.2265 27.0014L27.3232 35.9263L18.3985 27.0014L27.3232 18.0764Z" fill="#003D23"/>
<path d="M252.375 26.9799C252.375 29.5467 253.932 31.7269 256.166 32.5217C253.943 33.3379 252.375 35.5289 252.375 38.085C252.375 41.3285 254.963 44.0027 258.164 44.0027C261.364 44.0027 263.684 41.5755 263.888 38.5038H263.952C264.146 41.5755 266.637 44.0027 269.698 44.0027C272.759 44.0027 275.218 41.5755 275.412 38.5038H275.476C275.68 41.5755 278.14 44.0027 281.201 44.0027C284.261 44.0027 286.989 41.3392 286.989 38.085C286.989 35.5289 285.432 33.3379 283.198 32.5217C285.421 31.7269 286.989 29.5467 286.989 26.9799C286.989 24.456 285.432 22.2758 283.198 21.4488C285.421 20.654 286.989 18.4738 286.989 15.907C286.989 12.6205 284.401 10 281.201 10C278 10 275.444 12.6205 275.444 15.907C275.455 12.6205 272.866 10 269.698 10C266.53 10 263.91 12.6205 263.91 15.907C263.92 12.6205 261.353 10 258.153 10C254.953 10 252.364 12.6205 252.364 15.907C252.364 18.4738 253.922 20.654 256.155 21.4488C253.932 22.2758 252.364 24.456 252.364 26.9799H252.375ZM269.698 18.0764L278.602 27.0014L269.698 35.9263L260.773 27.0014L269.698 18.0764Z" fill="#003D23"/>
<path d="M252.375 264.977C252.375 267.544 253.932 269.724 256.166 270.519C253.943 271.335 252.375 273.526 252.375 276.082C252.375 279.326 254.963 282 258.164 282C261.364 282 263.684 279.573 263.888 276.501H263.952C264.146 279.573 266.637 282 269.698 282C272.759 282 275.218 279.573 275.412 276.501H275.476C275.68 279.573 278.14 282 281.201 282C284.261 282 286.989 279.336 286.989 276.082C286.989 273.526 285.432 271.335 283.198 270.519C285.421 269.724 286.989 267.544 286.989 264.977C286.989 262.453 285.432 260.273 283.198 259.446C285.421 258.651 286.989 256.471 286.989 253.904C286.989 250.618 284.401 247.997 281.201 247.997C278 247.997 275.444 250.618 275.444 253.904C275.444 250.618 272.856 247.997 269.698 247.997C266.541 247.997 263.91 250.618 263.91 253.904C263.91 250.618 261.343 247.997 258.153 247.997C254.963 247.997 252.364 250.618 252.364 253.904C252.364 256.471 253.922 258.651 256.155 259.446C253.932 260.273 252.364 262.453 252.364 264.977H252.375ZM269.698 256.074L278.602 264.999L269.698 273.924L260.773 264.999L269.698 256.074Z" fill="#003D23"/>
<path d="M252.375 162.98C252.375 165.547 253.932 167.727 256.166 168.522C253.943 169.338 252.375 171.529 252.375 174.085C252.375 177.328 254.963 180.003 258.164 180.003C261.364 180.003 263.684 177.575 263.888 174.504H263.952C264.146 177.575 266.637 180.003 269.698 180.003C272.759 180.003 275.218 177.575 275.412 174.504H275.476C275.68 177.575 278.14 180.003 281.201 180.003C284.261 180.003 286.989 177.339 286.989 174.085C286.989 171.529 285.432 169.338 283.198 168.522C285.421 167.727 286.989 165.547 286.989 162.98C286.989 160.413 285.432 158.276 283.198 157.449C285.421 156.654 286.989 154.474 286.989 151.907C286.989 148.621 284.401 146 281.201 146C278 146 275.444 148.621 275.444 151.907C275.444 148.621 272.856 146 269.698 146C266.541 146 263.91 148.621 263.91 151.907C263.91 148.621 261.343 146 258.153 146C254.963 146 252.364 148.621 252.364 151.907C252.364 154.474 253.922 156.654 256.155 157.449C253.932 158.276 252.364 160.456 252.364 162.98H252.375ZM269.698 154.076L278.602 163.001L269.698 171.926L260.773 163.001L269.698 154.076Z" fill="#003D23"/>
<path d="M252.375 196.983C252.375 199.549 253.932 201.73 256.166 202.524C253.943 203.341 252.375 205.532 252.375 208.088C252.375 211.331 254.963 214.005 258.164 214.005C261.364 214.005 263.684 211.578 263.888 208.507H263.952C264.146 211.578 266.637 214.005 269.698 214.005C272.759 214.005 275.218 211.578 275.412 208.507H275.476C275.68 211.578 278.14 214.005 281.201 214.005C284.261 214.005 286.989 211.342 286.989 208.088C286.989 205.532 285.432 203.341 283.198 202.524C285.421 201.73 286.989 199.549 286.989 196.983C286.989 194.459 285.432 192.278 283.198 191.451C285.421 190.657 286.989 188.477 286.989 185.91C286.989 182.623 284.401 180.003 281.201 180.003C278 180.003 275.444 182.623 275.444 185.91C275.444 182.623 272.856 180.003 269.698 180.003C266.541 180.003 263.91 182.623 263.91 185.91C263.91 182.623 261.343 180.003 258.153 180.003C254.963 180.003 252.364 182.623 252.364 185.91C252.364 188.477 253.922 190.657 256.155 191.451C253.932 192.278 252.364 194.459 252.364 196.983H252.375ZM269.698 188.079L278.602 197.004L269.698 205.929L260.773 197.004L269.698 188.079Z" fill="#003D23"/>
<path d="M252.375 230.974C252.375 233.541 253.932 235.722 256.166 236.516C253.943 237.333 252.375 239.523 252.375 242.08C252.375 245.323 254.963 247.997 258.164 247.997C261.225 247.997 263.684 245.57 263.888 242.498H263.952C264.146 245.57 266.637 247.997 269.698 247.997C272.759 247.997 275.218 245.57 275.412 242.498H275.476C275.68 245.57 278.14 247.997 281.201 247.997C284.261 247.997 286.989 245.334 286.989 242.08C286.989 239.523 285.432 237.333 283.198 236.516C285.421 235.722 286.989 233.541 286.989 230.974C286.989 228.451 285.432 226.27 283.198 225.443C285.421 224.649 286.989 222.468 286.989 219.902C286.989 216.615 284.401 213.995 281.201 213.995C278 213.995 275.444 216.615 275.444 219.902C275.444 216.615 272.856 213.995 269.698 213.995C266.541 213.995 263.91 216.615 263.91 219.902C263.91 216.615 261.343 213.995 258.153 213.995C254.963 213.995 252.364 216.615 252.364 219.902C252.364 222.468 253.922 224.649 256.155 225.443C253.932 226.27 252.364 228.451 252.364 230.974H252.375ZM269.698 222.071L278.602 230.996L269.698 239.921L260.773 230.996L269.698 222.071Z" fill="#003D23"/>
</g>
<path d="M29.0265 331.432C27.9725 331.432 27.2905 331.246 26.2055 330.967L24.9655 330.657L24.5005 326.627L25.0895 325.945L26.1125 326.1L27.6935 326.286C29.6465 326.503 30.9795 325.976 32.1575 324.488C32.6225 323.899 33.0565 323.31 33.4285 322.69C32.9635 319.652 32.2505 315.963 31.4135 311.809L35.3195 309.639C35.6295 311.096 35.9085 312.367 36.1255 313.514L36.4355 314.971C36.9005 317.451 38.4505 317.761 40.0935 317.761H40.5895L42.7285 318.97V321.791L40.5895 323H40.2175C39.1325 323 38.1095 322.783 37.2415 322.349C37.0555 324.302 36.3425 326.348 35.0095 328.177C33.5215 330.13 31.3825 331.432 29.0265 331.432ZM40.5752 323L38.4052 321.791V318.97L40.5752 317.761H43.7372L44.2022 317.017C44.9152 315.808 45.1942 314.785 45.1942 313.08L45.0702 298.665L48.7592 297.642L49.4102 298.2V305.237C49.4102 307.593 49.4102 308.151 48.4182 309.856C48.0772 310.476 47.6742 311.096 47.3022 311.716L47.6122 311.902L48.2012 311.096C49.5032 308.988 51.3942 307.593 54.0602 307.593H55.8892C60.3532 307.593 63.1122 310.755 63.2672 315.126L63.2982 316.242V317.203C64.1042 317.637 65.0652 317.761 66.0572 317.761H66.7702L68.9402 318.97V321.791L66.7702 323H66.3982C64.4762 323 62.5232 322.566 61.1282 321.512C59.5782 322.628 57.2532 323 54.4632 323H40.5752ZM48.7592 317.761H54.9282C56.7882 317.761 58.2142 317.575 59.4542 316.986L59.4232 315.715C59.3302 313.266 58.0282 312.026 55.5172 312.026H52.1072L48.7592 317.761ZM76.8803 302.274L72.6953 299.763L75.1443 295.609L79.3293 298.12L76.8803 302.274ZM84.2767 323C81.1767 323 78.4797 322.597 76.2787 321.853C73.8917 322.659 70.9157 323 68.0327 323H66.7617L64.5917 321.791V318.97L66.7617 317.761H69.6757H70.5127C69.8927 316.738 69.5517 315.622 69.5207 314.413C69.5207 313.142 69.7997 311.871 70.5747 310.383L71.3497 308.864C72.8067 306.043 75.3487 305.051 77.7357 305.981L78.7897 306.384C81.8277 307.593 83.7187 310.569 83.7807 313.638C83.8117 315.126 83.3777 316.49 82.4477 317.761H86.5707L88.7097 318.97V321.791L86.5707 323H84.2767ZM73.4577 314.196C73.4887 315.467 74.5117 316.397 76.1547 316.986C77.8907 316.304 79.4097 315.064 80.1227 313.917C79.7197 312.243 78.9447 311.189 76.7127 310.29L75.2867 309.763L74.2017 311.84C73.6127 312.925 73.4267 313.669 73.4577 314.196ZM86.5605 323L84.3905 321.791V318.97L86.5605 317.761H86.7465C88.0485 317.761 89.9395 317.451 90.9935 316.986L90.8075 298.665L94.4965 297.642L95.1785 298.2V315.56C95.1785 317.327 95.0545 318.536 94.5895 319.559C93.4425 322.008 90.6215 323 86.9015 323H86.5605ZM98.2609 324.147L98.0129 298.665L101.671 297.642L102.353 298.2V323.031L98.2609 324.147ZM129.454 323C127.377 323 125.548 322.287 124.246 320.892L123.626 322.349L121.642 322.907C114.884 324.798 111.102 322.194 112.063 316.242L112.28 314.754H115.876L115.752 316.087C115.566 318.009 117.581 318.877 120.836 317.978L122.572 317.482C122.448 316.893 122.386 316.273 122.386 315.591L122.262 307.314L126.416 306.012L126.447 314.878C126.447 317.172 128.028 317.761 129.857 317.761H131.035L133.205 318.97V321.791L131.035 323H129.454ZM135.945 332.92L131.977 330.533L134.302 326.596L138.022 328.859L139.386 326.534L143.354 328.921L141.029 332.827L137.309 330.595L135.945 332.92ZM131.032 323L128.862 321.791V318.97L131.032 317.761H132.024C133.822 317.761 135.434 317.451 136.612 316.924C136.581 316.428 136.581 315.963 136.581 315.467V310.383L140.053 309.639L140.766 310.228V314.816C140.766 317.172 142.347 317.761 144.362 317.761H145.881L148.051 318.97V321.791L145.881 323H144.889C142.409 323 140.363 322.411 138.906 321.171L138.782 321.264C136.736 322.504 134.566 323 132.086 323H131.032ZM143.696 321.791V318.97L145.866 317.761H149.493C148.78 316.583 148.47 315.343 148.47 313.979V312.708C148.47 310.724 149.338 309.019 150.919 307.872L151.601 307.376C154.112 305.609 156.344 305.485 158.421 307.035L160.064 308.306L158.266 311.964L156.809 311.096C155.817 310.476 154.701 310.538 153.585 311.375L152.531 312.15V313.824C152.531 316.366 154.794 317.234 157.801 316.428L162.978 315.002L163.66 315.653L163.102 320.179L159.63 321.14C156.84 321.946 153.368 323 148.904 323H145.866L143.696 321.791ZM178.903 302.004L174.935 299.617L177.26 295.711L180.98 297.943L182.344 295.618L186.312 298.005L183.987 301.942L180.267 299.679L178.903 302.004ZM190.014 323C187.379 323 185.271 322.07 183.969 320.241L183.628 321.326L182.171 321.605C176.188 322.721 172.499 319.962 173.336 314.041L173.491 312.956C173.894 309.918 175.785 308.12 178.823 307.655L182.481 307.128V306.229L186.666 304.865L186.697 314.878C186.697 317.017 188.092 317.761 190.138 317.761H191.068L193.207 318.97V321.791L191.068 323H190.014ZM177.397 313.607C177.087 315.994 178.296 317.11 181.458 316.49L182.667 316.242C182.636 316.025 182.636 315.808 182.636 315.591L182.574 311.654L177.552 312.336L177.397 313.607ZM188.894 321.791V318.97L191.064 317.761H198.969L201.139 318.97V321.791L198.969 323H191.064L188.894 321.791ZM196.796 321.791V318.97L198.966 317.761H206.871L209.041 318.97V321.791L206.871 323H198.966L196.796 321.791ZM204.697 321.791V318.97L206.867 317.761H214.772L216.942 318.97V321.791L214.772 323H206.867L204.697 321.791ZM218.016 332.92L214.048 330.533L216.373 326.596L220.093 328.859L221.457 326.534L225.425 328.921L223.1 332.827L219.38 330.595L218.016 332.92ZM212.599 321.791V318.97L214.769 317.761H215.761C217.435 317.761 219.76 317.482 220.938 316.986C220.752 315.405 220.504 313.762 220.194 312.088L219.605 308.895L223.697 306.632L224.658 311.499C225.433 315.25 225.402 317.73 224.565 319.528C223.449 321.977 220.597 323 215.761 323H214.769L212.599 321.791ZM231.506 330.998C230.917 330.905 229.77 330.564 228.654 330.192L228.189 326.255L228.809 325.573C230.483 325.852 231.382 325.976 232.405 326.1C234.792 326.441 236.497 326.069 238.016 324.302C238.295 323.93 238.822 323.217 238.946 323V322.969L235.04 323C232.87 323 231.289 322.628 230.049 321.729C228.716 320.83 228.158 319.218 228.189 317.265L228.22 315.281C228.282 311.034 230.886 308.213 234.885 308.213H236.466C239.442 308.213 241.426 309.856 242.015 313.142L242.48 315.87C242.604 316.552 242.697 317.172 242.79 317.761H245.456L247.626 318.97V321.791L245.456 323H242.79C242.449 324.736 241.736 326.503 240.744 327.743C238.233 330.998 235.443 332.021 231.506 330.998ZM232.095 316.986C232.901 317.575 233.521 317.761 234.792 317.761H238.357L237.489 312.677H235.04C232.932 312.677 232.095 313.793 232.095 315.591V316.986ZM257.618 322.69C256.099 322.411 254.921 322.194 253.867 321.853C252.255 322.783 250.116 323 247.791 323H245.466L243.296 321.791V318.97L245.466 317.761H246.83C247.574 317.761 248.411 317.73 249.217 317.73C248.566 316.18 248.411 314.63 249 312.863L249.992 309.98L248.318 309.639L248.039 308.802L250.023 305.113L261.307 307.531C267.507 308.864 269.212 311.747 269.398 315.622L269.553 319.621L265.957 324.178L257.618 322.69ZM253.123 313.142C252.317 315.622 253.34 316.955 255.758 317.482C256.781 316.552 257.618 315.591 258.455 314.444C258.3 313.948 258.176 313.514 257.99 313.142C257.494 312.088 256.564 311.375 254.983 311.034C254.611 310.941 254.239 310.848 253.867 310.786L253.123 313.142ZM260.098 318.071L265.585 319.001L265.461 316.769C265.368 314.94 264.841 313.669 263.012 312.987C262.516 312.801 261.989 312.615 261.338 312.491C261.4 313.08 261.4 313.607 261.369 314.134C261.369 314.909 261.245 315.56 260.966 316.273C260.749 316.862 260.47 317.42 260.098 318.071Z" fill="#003D23"/>
<rect x="50" y="49" width="197" height="194" fill="#003D23"/>
<defs>
<clipPath id="clip0_17_340">
<rect width="277" height="272" fill="white" transform="translate(10 10)"/>
</clipPath>
</defs>
</svg>
