<svg preserveAspectRatio="none" width="100%" height="100%" overflow="visible" style="display: block;" viewBox="0 0 252 247" fill="none" xmlns="http://www.w3.org/2000/svg">
<g id="Layer_1" clip-path="url(#clip0_25_206)">
<path id="Vector" d="M0 108.042C0 110.373 1.41672 112.353 3.44898 113.074C1.41672 113.815 0 115.805 0 118.126C0 121.072 2.35468 123.5 5.26628 123.5C8.17788 123.5 10.2883 121.296 10.4739 118.507H10.5326C10.7084 121.296 12.9752 123.5 15.7598 123.5C18.5444 123.5 20.7818 121.296 20.9577 118.507H21.0163C21.2019 121.296 23.4394 123.5 26.2239 123.5C29.0085 123.5 31.4902 121.081 31.4902 118.126C31.4902 115.805 30.0735 113.815 28.0413 113.074C30.0637 112.353 31.4902 110.373 31.4902 108.042C31.4902 105.711 30.0735 103.77 28.0413 103.019C30.0637 102.297 31.4902 100.318 31.4902 97.9866C31.4902 95.0023 29.1355 92.6226 26.2239 92.6226C23.3123 92.6226 20.987 95.0023 20.987 97.9866C20.987 95.0023 18.6323 92.6226 15.7598 92.6226C12.8873 92.6226 10.4935 95.0023 10.4935 97.9866C10.4935 95.0023 8.15834 92.6226 5.25651 92.6226C2.35468 92.6226 0 95.0023 0 97.9866C0 100.318 1.41672 102.297 3.44898 103.019C1.41672 103.77 0 105.75 0 108.042ZM15.7598 99.9567L23.8595 108.061L15.7598 116.166L7.64051 108.061L15.7598 99.9567Z" fill="var(--fill-0, #FFE600)"/>
<path id="Vector_2" d="M0 138.919C0 141.25 1.41672 143.23 3.44898 143.952C1.41672 144.683 0 146.682 0 149.004C0 151.949 2.35468 154.377 5.26628 154.377C8.17788 154.377 10.2883 152.173 10.4739 149.384H10.5326C10.7084 152.173 12.9752 154.377 15.7598 154.377C18.515 154.377 20.7818 152.173 20.9577 149.384H21.0163C21.2019 152.173 23.4394 154.377 26.2239 154.377C29.0085 154.377 31.4902 151.959 31.4902 149.004C31.4902 146.682 30.0735 144.693 28.0413 143.952C30.0637 143.23 31.4902 141.25 31.4902 138.919C31.4902 136.588 30.0735 134.647 28.0413 133.897C30.0637 133.175 31.4902 131.195 31.4902 128.864C31.4902 125.88 29.1355 123.5 26.2239 123.5C23.3123 123.5 20.987 125.88 20.987 128.864C20.987 125.88 18.6323 123.5 15.7598 123.5C12.8873 123.5 10.4935 125.88 10.4935 128.864C10.4935 125.88 8.15834 123.5 5.25651 123.5C2.35468 123.5 0 125.88 0 128.864C0 131.195 1.41672 133.175 3.44898 133.897C1.41672 134.638 0 136.627 0 138.919ZM15.7598 130.834L23.8595 138.939L15.7598 147.043L7.64051 138.939L15.7598 130.834Z" fill="var(--fill-0, #FFE600)"/>
<path id="Vector_3" d="M0 169.797C0 172.128 1.41672 174.107 3.44898 174.829C1.41672 175.561 0 177.56 0 179.881C0 182.826 2.35468 185.255 5.26628 185.255C8.17788 185.255 10.2883 183.051 10.4739 180.261H10.5326C10.7084 183.051 12.9752 185.255 15.7598 185.255C18.5444 185.255 20.7818 183.051 20.9577 180.261H21.0163C21.2019 183.051 23.4394 185.255 26.2239 185.255C29.0085 185.255 31.4902 182.836 31.4902 179.881C31.4902 177.56 30.0735 175.57 28.0413 174.829C30.0637 174.107 31.4902 172.128 31.4902 169.797C31.4902 167.466 30.0735 165.525 28.0413 164.774C30.0637 164.052 31.4902 162.072 31.4902 159.741C31.4902 156.757 29.1355 154.377 26.2239 154.377C23.3221 154.377 20.987 156.757 20.987 159.741C20.987 156.757 18.6323 154.377 15.7598 154.377C12.8873 154.377 10.4935 156.757 10.4935 159.741C10.4935 156.757 8.15834 154.377 5.25651 154.377C2.35468 154.377 0 156.757 0 159.732C0 162.063 1.41672 164.042 3.44898 164.764C1.41672 165.515 0 167.505 0 169.797ZM15.7598 161.712L23.8595 169.816L15.7598 177.921L7.64051 169.816L15.7598 161.712Z" fill="var(--fill-0, #FFE600)"/>
<path id="Vector_4" d="M0 200.664C0 202.995 1.41672 204.975 3.44898 205.697C1.41672 206.438 0 208.428 0 210.749C0 213.694 2.35468 216.123 5.26628 216.123C8.17788 216.123 10.2883 213.918 10.4739 211.129H10.5326C10.7084 213.918 12.9752 216.123 15.7598 216.123C18.515 216.123 20.7818 213.918 20.9577 211.129H21.0163C21.2019 213.918 23.4394 216.123 26.2239 216.123C29.1258 216.123 31.4902 213.704 31.4902 210.749C31.4902 208.428 30.0735 206.438 28.0413 205.697C30.0637 204.975 31.4902 202.995 31.4902 200.664C31.4902 198.372 30.0735 196.393 28.0413 195.642C30.0637 194.92 31.4902 192.94 31.4902 190.609C31.4902 187.625 29.1355 185.245 26.2239 185.245C23.3123 185.245 20.987 187.625 20.987 190.609C20.987 187.625 18.6323 185.245 15.7598 185.245C12.8873 185.245 10.4935 187.625 10.4935 190.609C10.4935 187.625 8.15834 185.245 5.25651 185.245C2.35468 185.245 0 187.635 0 190.609C0 192.94 1.41672 194.92 3.44898 195.642C1.41672 196.393 0 198.372 0 200.664ZM15.7598 192.579L23.8595 200.684L15.7598 208.788L7.64051 200.684L15.7598 192.579Z" fill="var(--fill-0, #FFE600)"/>
<path id="Vector_5" d="M31.5 15.4192C31.5 17.7501 32.9167 19.73 34.949 20.4517C32.9265 21.1929 31.5 23.1825 31.5 25.5036C31.5 28.449 33.8547 30.8774 36.7663 30.8774C39.6779 30.8774 41.7883 28.6733 41.9739 25.884H42.0326C42.2084 28.6733 44.4752 30.8774 47.2598 30.8774C50.0444 30.8774 52.2818 28.6733 52.4577 25.884H52.5163C52.7019 28.6733 54.9394 30.8774 57.7239 30.8774C60.5085 30.8774 62.9902 28.4587 62.9902 25.5036C62.9902 23.1825 61.5735 21.1929 59.5412 20.4517C61.5637 19.73 62.9902 17.7501 62.9902 15.4192C62.9902 13.1273 61.5735 11.1475 59.5412 10.3965C61.5637 9.6748 62.9902 7.69498 62.9902 5.36405C62.9902 2.37969 60.6355 0 57.7239 0C54.8123 0 52.487 2.37969 52.487 5.36405C52.487 2.37969 50.1323 0 47.2598 0C44.3872 0 41.9935 2.37969 41.9935 5.36405C41.9935 2.37969 39.6583 0 36.7565 0C33.8547 0 31.4902 2.37969 31.4902 5.36405C31.4902 7.69498 32.9069 9.6748 34.9392 10.3965C32.9167 11.1475 31.4902 13.1273 31.4902 15.4192H31.5ZM47.2598 7.33412L55.3595 15.4387L47.2598 23.5433L39.1405 15.4387L47.2598 7.33412Z" fill="var(--fill-0, #FFE600)"/>
<path id="Vector_6" d="M63 15.4192C63 17.7501 64.4167 19.73 66.449 20.4517C64.4265 21.1929 63 23.1825 63 25.5036C63 28.449 65.3547 30.8774 68.2663 30.8774C71.1779 30.8774 73.2883 28.6733 73.4739 25.884H73.5326C73.7084 28.6733 75.9752 30.8774 78.7598 30.8774C81.5444 30.8774 83.7818 28.6733 83.9577 25.884H84.0163C84.2019 28.6733 86.4394 30.8774 89.2239 30.8774C92.0085 30.8774 94.4902 28.4587 94.4902 25.5036C94.4902 23.1825 93.0735 21.1929 91.0412 20.4517C93.0637 19.73 94.4902 17.7501 94.4902 15.4192C94.4902 13.1273 93.0735 11.1475 91.0412 10.3965C93.0637 9.6748 94.4902 7.69498 94.4902 5.36405C94.4902 2.37969 92.1355 0 89.2239 0C86.3123 0 83.987 2.37969 83.987 5.36405C83.987 2.37969 81.6323 0 78.7598 0C75.8872 0 73.4935 2.37969 73.4935 5.36405C73.4935 2.37969 71.1583 0 68.2565 0C65.3547 0 62.9902 2.37969 62.9902 5.36405C62.9902 7.69498 64.4069 9.6748 66.4392 10.3965C64.4167 11.1475 62.9902 13.1273 62.9902 15.4192H63ZM78.7598 7.33412L86.8595 15.4387L78.7598 23.5433L70.6405 15.4387L78.7598 7.33412Z" fill="var(--fill-0, #FFE600)"/>
<path id="Vector_7" d="M94.5 15.4192C94.5 17.7501 95.9167 19.73 97.949 20.4517C95.9265 21.1929 94.5 23.1825 94.5 25.5036C94.5 28.449 96.8547 30.8774 99.7663 30.8774C102.678 30.8774 104.788 28.6733 104.974 25.884H105.033C105.208 28.6733 107.475 30.8774 110.26 30.8774C113.044 30.8774 115.282 28.6733 115.458 25.884H115.516C115.702 28.6733 117.939 30.8774 120.724 30.8774C123.509 30.8774 125.99 28.4587 125.99 25.5036C125.99 23.1825 124.574 21.1929 122.541 20.4517C124.564 19.73 125.99 17.7501 125.99 15.4192C125.99 13.1273 124.574 11.1475 122.541 10.3965C124.564 9.6748 125.99 7.69498 125.99 5.36405C125.99 2.37969 123.636 0 120.724 0C117.812 0 115.487 2.37969 115.487 5.36405C115.487 2.37969 113.132 0 110.26 0C107.387 0 104.993 2.37969 104.993 5.36405C104.993 2.37969 102.658 0 99.7565 0C96.8547 0 94.4902 2.37969 94.4902 5.36405C94.4902 7.69498 95.9069 9.6748 97.9392 10.3965C95.9167 11.1475 94.4902 13.1273 94.4902 15.4192H94.5ZM110.26 7.33412L118.359 15.4387L110.26 23.5433L102.141 15.4387L110.26 7.33412Z" fill="var(--fill-0, #FFE600)"/>
<path id="Vector_8" d="M126 15.4192C126 17.7501 127.417 19.73 129.449 20.4517C127.426 21.1929 126 23.1825 126 25.5036C126 28.449 128.355 30.8774 131.266 30.8774C134.178 30.8774 136.288 28.6733 136.474 25.884H136.533C136.708 28.6733 138.975 30.8774 141.76 30.8774C144.544 30.8774 146.782 28.6733 146.958 25.884H147.016C147.202 28.6733 149.439 30.8774 152.224 30.8774C155.009 30.8774 157.49 28.4587 157.49 25.5036C157.49 23.1825 156.074 21.1929 154.041 20.4517C156.064 19.73 157.49 17.7501 157.49 15.4192C157.49 13.1273 156.074 11.1475 154.041 10.3965C156.064 9.6748 157.49 7.69498 157.49 5.36405C157.49 2.37969 155.136 0 152.224 0C149.312 0 146.987 2.37969 146.987 5.36405C146.987 2.37969 144.632 0 141.76 0C138.887 0 136.493 2.37969 136.493 5.36405C136.493 2.37969 134.158 0 131.257 0C128.355 0 125.99 2.37969 125.99 5.36405C125.99 7.69498 127.407 9.6748 129.439 10.3965C127.417 11.1475 125.99 13.1273 125.99 15.4192H126ZM141.76 7.33412L149.859 15.4387L141.76 23.5433L133.64 15.4387L141.76 7.33412Z" fill="var(--fill-0, #FFE600)"/>
<path id="Vector_9" d="M157.5 15.4192C157.5 17.7501 158.917 19.73 160.949 20.4517C158.926 21.1929 157.5 23.1825 157.5 25.5036C157.5 28.449 159.855 30.8774 162.766 30.8774C165.678 30.8774 167.788 28.6733 167.974 25.884H168.033C168.208 28.6733 170.475 30.8774 173.26 30.8774C176.044 30.8774 178.282 28.6733 178.458 25.884H178.516C178.702 28.6733 180.939 30.8774 183.724 30.8774C186.509 30.8774 188.99 28.4587 188.99 25.5036C188.99 23.1825 187.573 21.1929 185.541 20.4517C187.564 19.73 188.99 17.7501 188.99 15.4192C188.99 13.1273 187.573 11.1475 185.541 10.3965C187.564 9.6748 188.99 7.69498 188.99 5.36405C188.99 2.37969 186.636 0 183.724 0C180.812 0 178.487 2.37969 178.487 5.36405C178.487 2.37969 176.132 0 173.26 0C170.387 0 167.993 2.37969 167.993 5.36405C167.993 2.37969 165.658 0 162.757 0C159.855 0 157.49 2.37969 157.49 5.36405C157.49 7.69498 158.907 9.6748 160.939 10.3965C158.917 11.1475 157.49 13.1273 157.49 15.4192H157.5ZM173.26 7.33412L181.359 15.4387L173.26 23.5433L165.14 15.4387L173.26 7.33412Z" fill="var(--fill-0, #FFE600)"/>
<path id="Vector_10" d="M189 15.4192C189 17.7501 190.417 19.73 192.449 20.4517C190.426 21.1929 189 23.1825 189 25.5036C189 28.449 191.355 30.8774 194.266 30.8774C197.178 30.8774 199.288 28.6733 199.474 25.884H199.533C199.708 28.6733 201.975 30.8774 204.76 30.8774C207.544 30.8774 209.782 28.6733 209.958 25.884H210.016C210.202 28.6733 212.439 30.8774 215.224 30.8774C218.009 30.8774 220.49 28.4587 220.49 25.5036C220.49 23.1825 219.074 21.1929 217.041 20.4517C219.064 19.73 220.49 17.7501 220.49 15.4192C220.49 13.0883 219.074 11.1475 217.041 10.3965C219.064 9.6748 220.49 7.69498 220.49 5.36405C220.49 2.37969 218.136 0 215.224 0C212.312 0 209.987 2.37969 209.987 5.36405C209.987 2.37969 207.632 0 204.76 0C201.887 0 199.493 2.37969 199.493 5.36405C199.493 2.37969 197.158 0 194.257 0C191.355 0 188.99 2.37969 188.99 5.36405C188.99 7.69498 190.407 9.6748 192.439 10.3965C190.417 11.1475 188.99 13.1273 188.99 15.4192H189ZM204.76 7.33412L212.859 15.4387L204.76 23.5433L196.64 15.4387L204.76 7.33412Z" fill="var(--fill-0, #FFE600)"/>
<path id="Vector_11" d="M0 231.542C0 233.873 1.41672 235.853 3.44898 236.574C1.41672 237.315 0 239.305 0 241.626C0 244.572 2.35468 247 5.26628 247C8.17788 247 10.2883 244.796 10.4739 242.007H10.5326C10.7084 244.796 12.9752 247 15.7598 247C18.5444 247 20.7818 244.796 20.9577 242.007H21.0163C21.2019 244.796 23.4394 247 26.2239 247C29.1258 247 31.4902 244.581 31.4902 241.626C31.4902 239.305 30.0735 237.315 28.0413 236.574C30.0637 235.853 31.4902 233.873 31.4902 231.542C31.4902 229.25 30.0735 227.27 28.0413 226.519C30.0637 225.797 31.4902 223.818 31.4902 221.487C31.4902 218.502 29.1355 216.123 26.2239 216.123C23.3221 216.123 20.987 218.502 20.987 221.487C20.987 218.502 18.6323 216.123 15.7598 216.123C12.8579 216.123 10.4935 218.502 10.4935 221.487C10.4935 218.502 8.15834 216.123 5.25651 216.123C2.35468 216.123 0 218.502 0 221.487C0 223.818 1.41672 225.797 3.44898 226.519C1.41672 227.27 0 229.25 0 231.542ZM15.7598 223.457L23.8595 231.561L15.7598 239.666L7.64051 231.561L15.7598 223.457Z" fill="var(--fill-0, #FFE600)"/>
<path id="Vector_12" d="M31.5 231.542C31.5 233.873 32.9167 235.853 34.949 236.574C32.9265 237.315 31.5 239.305 31.5 241.626C31.5 244.572 33.8547 247 36.7663 247C39.6779 247 41.7883 244.796 41.9739 242.007H42.0326C42.2084 244.796 44.4752 247 47.2598 247C50.0444 247 52.2818 244.796 52.4577 242.007H52.5163C52.7019 244.796 54.9394 247 57.7239 247C60.5085 247 62.9902 244.581 62.9902 241.626C62.9902 239.305 61.5735 237.315 59.5412 236.574C61.5637 235.853 62.9902 233.873 62.9902 231.542C62.9902 229.25 61.5735 227.27 59.5412 226.519C61.5637 225.797 62.9902 223.818 62.9902 221.487C62.9902 218.502 60.6355 216.123 57.7239 216.123C54.8123 216.123 52.487 218.502 52.487 221.487C52.487 218.502 50.1323 216.123 47.2598 216.123C44.3872 216.123 41.9935 218.502 41.9935 221.487C41.9935 218.502 39.6583 216.123 36.7565 216.123C33.8547 216.123 31.4902 218.502 31.4902 221.487C31.4902 223.818 32.9069 225.797 34.9392 226.519C32.9167 227.27 31.4902 229.25 31.4902 231.542H31.5ZM47.2598 223.457L55.3595 231.561L47.2598 239.666L39.1405 231.561L47.2598 223.457Z" fill="var(--fill-0, #FFE600)"/>
<path id="Vector_13" d="M63 231.542C63 233.873 64.4167 235.853 66.449 236.574C64.4265 237.315 63 239.305 63 241.626C63 244.572 65.3547 247 68.2663 247C71.1779 247 73.2883 244.796 73.4739 242.007H73.5326C73.7084 244.796 75.9752 247 78.7598 247C81.5444 247 83.7818 244.796 83.9577 242.007H84.0163C84.2019 244.796 86.4394 247 89.2239 247C92.0085 247 94.4902 244.581 94.4902 241.626C94.4902 239.305 93.0735 237.315 91.0412 236.574C93.0637 235.853 94.4902 233.873 94.4902 231.542C94.4902 229.211 93.0735 227.27 91.0412 226.519C93.0637 225.797 94.4902 223.818 94.4902 221.487C94.4902 218.502 92.1355 216.123 89.2239 216.123C86.3221 216.123 83.987 218.502 83.987 221.487C83.987 218.502 81.6323 216.123 78.7598 216.123C75.8579 216.123 73.4935 218.502 73.4935 221.487C73.4935 218.502 71.1583 216.123 68.2565 216.123C65.3547 216.123 62.9902 218.502 62.9902 221.487C62.9902 223.818 64.4069 225.797 66.4392 226.519C64.4167 227.27 62.9902 229.25 62.9902 231.542H63ZM78.7598 223.457L86.8595 231.561L78.7598 239.666L70.6405 231.561L78.7598 223.457Z" fill="var(--fill-0, #FFE600)"/>
<path id="Vector_14" d="M94.5 231.542C94.5 233.873 95.9167 235.853 97.949 236.574C95.9265 237.315 94.5 239.305 94.5 241.626C94.5 244.572 96.8547 247 99.7663 247C102.678 247 104.788 244.796 104.974 242.007H105.033C105.208 244.796 107.475 247 110.26 247C113.044 247 115.282 244.796 115.458 242.007H115.516C115.702 244.796 117.939 247 120.724 247C123.509 247 125.99 244.581 125.99 241.626C125.99 239.305 124.574 237.315 122.541 236.574C124.564 235.853 125.99 233.873 125.99 231.542C125.99 229.211 124.574 227.27 122.541 226.519C124.564 225.797 125.99 223.818 125.99 221.487C125.99 218.502 123.636 216.123 120.724 216.123C117.812 216.123 115.487 218.502 115.487 221.487C115.487 218.502 113.132 216.123 110.26 216.123C107.387 216.123 104.993 218.502 104.993 221.487C104.993 218.502 102.658 216.123 99.7565 216.123C96.8547 216.123 94.4902 218.502 94.4902 221.487C94.4902 223.818 95.9069 225.797 97.9392 226.519C95.9167 227.27 94.4902 229.25 94.4902 231.542H94.5ZM110.26 223.457L118.359 231.561L110.26 239.666L102.141 231.561L110.26 223.457Z" fill="var(--fill-0, #FFE600)"/>
<path id="Vector_15" d="M126 231.542C126 233.873 127.417 235.853 129.449 236.574C127.426 237.315 126 239.305 126 241.626C126 244.572 128.355 247 131.266 247C134.051 247 136.288 244.796 136.474 242.007H136.533C136.708 244.796 138.975 247 141.76 247C144.544 247 146.782 244.796 146.958 242.007H147.016C147.202 244.796 149.439 247 152.224 247C155.009 247 157.49 244.581 157.49 241.626C157.49 239.305 156.074 237.315 154.041 236.574C156.064 235.853 157.49 233.873 157.49 231.542C157.49 229.211 156.074 227.27 154.041 226.519C156.064 225.797 157.49 223.818 157.49 221.487C157.49 218.502 155.136 216.123 152.224 216.123C149.312 216.123 146.987 218.502 146.987 221.487C146.987 218.502 144.632 216.123 141.76 216.123C138.887 216.123 136.493 218.502 136.493 221.487C136.493 218.502 134.158 216.123 131.257 216.123C128.355 216.123 125.99 218.502 125.99 221.487C125.99 223.818 127.407 225.797 129.439 226.519C127.417 227.27 125.99 229.25 125.99 231.542H126ZM141.76 223.457L149.859 231.561L141.76 239.666L133.64 231.561L141.76 223.457Z" fill="var(--fill-0, #FFE600)"/>
<path id="Vector_16" d="M157.5 231.542C157.5 233.873 158.917 235.853 160.949 236.574C158.926 237.315 157.5 239.305 157.5 241.626C157.5 244.572 159.855 247 162.766 247C165.678 247 167.788 244.796 167.974 242.007H168.033C168.208 244.796 170.475 247 173.26 247C176.044 247 178.282 244.796 178.458 242.007H178.516C178.702 244.796 180.939 247 183.724 247C186.509 247 188.99 244.581 188.99 241.626C188.99 239.305 187.573 237.315 185.541 236.574C187.564 235.853 188.99 233.873 188.99 231.542C188.99 229.211 187.573 227.27 185.541 226.519C187.564 225.797 188.99 223.818 188.99 221.487C188.99 218.502 186.636 216.123 183.724 216.123C180.812 216.123 178.487 218.502 178.487 221.487C178.487 218.502 176.132 216.123 173.26 216.123C170.387 216.123 167.993 218.502 167.993 221.487C167.993 218.502 165.658 216.123 162.757 216.123C159.855 216.123 157.49 218.502 157.49 221.487C157.49 223.818 158.907 225.797 160.939 226.519C158.917 227.27 157.49 229.25 157.49 231.542H157.5ZM173.26 223.457L181.359 231.561L173.26 239.666L165.14 231.561L173.26 223.457Z" fill="var(--fill-0, #FFE600)"/>
<path id="Vector_17" d="M189 231.542C189 233.873 190.417 235.853 192.449 236.574C190.426 237.315 189 239.305 189 241.626C189 244.572 191.355 247 194.266 247C197.178 247 199.288 244.796 199.474 242.007H199.533C199.708 244.796 201.975 247 204.76 247C207.544 247 209.782 244.796 209.958 242.007H210.016C210.202 244.796 212.439 247 215.224 247C218.009 247 220.49 244.581 220.49 241.626C220.49 239.305 219.074 237.315 217.041 236.574C219.064 235.853 220.49 233.873 220.49 231.542C220.49 229.25 219.074 227.27 217.041 226.519C219.064 225.797 220.49 223.818 220.49 221.487C220.49 218.502 218.136 216.123 215.224 216.123C212.312 216.123 209.987 218.502 209.987 221.487C209.987 218.502 207.632 216.123 204.76 216.123C201.887 216.123 199.493 218.502 199.493 221.487C199.493 218.502 197.158 216.123 194.257 216.123C191.355 216.123 188.99 218.502 188.99 221.487C188.99 223.818 190.407 225.797 192.439 226.519C190.417 227.27 188.99 229.25 188.99 231.542H189ZM204.76 223.457L212.859 231.561L204.76 239.666L196.64 231.561L204.76 223.457Z" fill="var(--fill-0, #FFE600)"/>
<path id="Vector_18" d="M220.5 108.042C220.5 110.373 221.917 112.353 223.949 113.074C221.926 113.815 220.5 115.805 220.5 118.126C220.5 121.072 222.855 123.5 225.766 123.5C228.678 123.5 230.788 121.296 230.974 118.507H231.033C231.208 121.296 233.475 123.5 236.26 123.5C239.044 123.5 241.282 121.296 241.458 118.507H241.516C241.702 121.296 243.939 123.5 246.724 123.5C249.509 123.5 251.99 121.081 251.99 118.126C251.99 115.805 250.574 113.815 248.541 113.074C250.564 112.353 251.99 110.373 251.99 108.042C251.99 105.711 250.574 103.77 248.541 103.019C250.564 102.297 251.99 100.318 251.99 97.9866C251.99 95.0023 249.636 92.6226 246.724 92.6226C243.812 92.6226 241.487 95.0023 241.487 97.9866C241.487 95.0023 239.132 92.6226 236.26 92.6226C233.387 92.6226 230.993 95.0023 230.993 97.9866C230.993 95.0023 228.658 92.6226 225.757 92.6226C222.855 92.6226 220.49 95.0023 220.49 97.9866C220.49 100.318 221.907 102.297 223.939 103.019C221.917 103.77 220.49 105.75 220.49 108.042H220.5ZM236.26 99.9567L244.359 108.061L236.26 116.166L228.14 108.061L236.26 99.9567Z" fill="var(--fill-0, #FFE600)"/>
<path id="Vector_19" d="M0 77.1643C0 79.4953 1.41672 81.4751 3.44898 82.1968C1.41672 82.938 0 84.9276 0 87.2488C0 90.1941 2.35468 92.6226 5.26628 92.6226C8.17788 92.6226 10.2883 90.4184 10.4739 87.6291H10.5326C10.7084 90.4184 12.9752 92.6226 15.7598 92.6226C18.5444 92.6226 20.7818 90.4184 20.9577 87.6291H21.0163C21.2019 90.4184 23.4394 92.6226 26.2239 92.6226C29.0085 92.6226 31.4902 90.2039 31.4902 87.2488C31.4902 84.9276 30.0735 82.938 28.0413 82.1968C30.0637 81.4751 31.4902 79.4953 31.4902 77.1643C31.4902 74.8334 30.0735 72.8926 28.0413 72.1416C30.0637 71.4199 31.4902 69.4401 31.4902 67.1092C31.4902 64.1248 29.1355 61.7451 26.2239 61.7451C23.3123 61.7451 20.987 64.1248 20.987 67.1092C20.987 64.1248 18.6323 61.7451 15.7598 61.7451C12.8873 61.7451 10.4935 64.1248 10.4935 67.1092C10.4935 64.1248 8.15834 61.7451 5.25651 61.7451C2.35468 61.7451 0 64.1346 0 67.1092C0 69.4401 1.41672 71.4199 3.44898 72.1416C1.41672 72.8926 0 74.8724 0 77.1643ZM15.7598 69.0792L23.8595 77.1838L15.7598 85.2884L7.64051 77.1838L15.7598 69.0792Z" fill="var(--fill-0, #FFE600)"/>
<path id="Vector_20" d="M220.5 77.1643C220.5 79.4953 221.917 81.4751 223.949 82.1968C221.926 82.938 220.5 84.9276 220.5 87.2488C220.5 90.1941 222.855 92.6226 225.766 92.6226C228.678 92.6226 230.788 90.4184 230.974 87.6291H231.033C231.208 90.4184 233.475 92.6226 236.26 92.6226C239.044 92.6226 241.282 90.4184 241.458 87.6291H241.516C241.702 90.4184 243.939 92.6226 246.724 92.6226C249.509 92.6226 251.99 90.2039 251.99 87.2488C251.99 84.9276 250.574 82.938 248.541 82.1968C250.564 81.4751 251.99 79.4953 251.99 77.1643C251.99 74.8334 250.574 72.8926 248.541 72.1416C250.564 71.4199 251.99 69.4401 251.99 67.1092C251.99 64.1248 249.636 61.7451 246.724 61.7451C243.812 61.7451 241.487 64.1248 241.487 67.1092C241.487 64.1248 239.132 61.7451 236.26 61.7451C233.387 61.7451 230.993 64.1248 230.993 67.1092C230.993 64.1248 228.658 61.7451 225.757 61.7451C222.855 61.7451 220.49 64.1248 220.49 67.1092C220.49 69.4401 221.907 71.4199 223.939 72.1416C221.917 72.8926 220.49 74.8724 220.49 77.1643H220.5ZM236.26 69.0792L244.359 77.1838L236.26 85.2884L228.14 77.1838L236.26 69.0792Z" fill="var(--fill-0, #FFE600)"/>
<path id="Vector_21" d="M0 46.2967C0 48.6276 1.41672 50.6074 3.44898 51.3291C1.41672 52.0606 0 54.0599 0 56.3811C0 59.3264 2.35468 61.7549 5.26628 61.7549C8.17788 61.7549 10.2883 59.5507 10.4739 56.7614H10.5326C10.7084 59.5507 12.9752 61.7549 15.7598 61.7549C18.5444 61.7549 20.7818 59.5507 20.9577 56.7614H21.0163C21.2019 59.5507 23.4394 61.7549 26.2239 61.7549C29.1258 61.7549 31.4902 59.3362 31.4902 56.3811C31.4902 54.0599 30.0735 52.0703 28.0413 51.3291C30.0637 50.6074 31.4902 48.6276 31.4902 46.2967C31.4902 43.9657 30.0735 42.0249 28.0413 41.2739C30.0637 40.5522 31.4902 38.5724 31.4902 36.2415C31.4902 33.2571 29.1355 30.8774 26.2239 30.8774C23.3123 30.8774 20.987 33.2571 20.987 36.2415C20.987 33.2571 18.6323 30.8774 15.7598 30.8774C12.8873 30.8774 10.4935 33.2571 10.4935 36.2415C10.4935 33.2571 8.15834 30.8774 5.25651 30.8774C2.35468 30.8774 0 33.2571 0 36.2415C0 38.5724 1.41672 40.5522 3.44898 41.2739C1.41672 42.0152 0 44.0047 0 46.2967ZM15.7598 38.2116L23.8595 46.3162L15.7598 54.4208L7.64051 46.3162L15.7598 38.2116Z" fill="var(--fill-0, #FFE600)"/>
<path id="Vector_22" d="M220.5 46.2967C220.5 48.6276 221.917 50.6074 223.949 51.3291C221.926 52.0703 220.5 54.0599 220.5 56.3811C220.5 59.3264 222.855 61.7549 225.766 61.7549C228.678 61.7549 230.788 59.5507 230.974 56.7614H231.033C231.208 59.5507 233.475 61.7549 236.26 61.7549C239.044 61.7549 241.282 59.5507 241.458 56.7614H241.516C241.702 59.5507 243.939 61.7549 246.724 61.7549C249.509 61.7549 251.99 59.3362 251.99 56.3811C251.99 54.0599 250.574 52.0703 248.541 51.3291C250.564 50.6074 251.99 48.6276 251.99 46.2967C251.99 44.0047 250.574 42.0249 248.541 41.2739C250.564 40.5522 251.99 38.5724 251.99 36.2415C251.99 33.2571 249.636 30.8774 246.724 30.8774C243.812 30.8774 241.487 33.2571 241.487 36.2415C241.487 33.2571 239.132 30.8774 236.26 30.8774C233.387 30.8774 230.993 33.2571 230.993 36.2415C230.993 33.2571 228.658 30.8774 225.757 30.8774C222.855 30.8774 220.49 33.2571 220.49 36.2415C220.49 38.5724 221.907 40.5522 223.939 41.2739C221.917 42.0249 220.49 44.0047 220.49 46.2967H220.5ZM236.26 38.2116L244.359 46.3162L236.26 54.4208L228.14 46.3162L236.26 38.2116Z" fill="var(--fill-0, #FFE600)"/>
<path id="Vector_23" d="M0 15.4192C0 17.7501 1.41672 19.73 3.44898 20.4517C1.41672 21.1831 0 23.1825 0 25.5036C0 28.449 2.35468 30.8774 5.26628 30.8774C8.17788 30.8774 10.2883 28.6733 10.4739 25.884H10.5326C10.7084 28.6733 12.9752 30.8774 15.7598 30.8774C18.5444 30.8774 20.7818 28.6733 20.9577 25.884H21.0163C21.2019 28.6733 23.4394 30.8774 26.2239 30.8774C29.1258 30.8774 31.4902 28.4587 31.4902 25.5036C31.4902 23.1825 30.0735 21.1929 28.0413 20.4517C30.0637 19.73 31.4902 17.7501 31.4902 15.4192C31.4902 13.0883 30.0735 11.1475 28.0413 10.3965C30.0637 9.6748 31.4902 7.69498 31.4902 5.36405C31.5 2.37969 29.1453 0 26.2337 0C23.3221 0 20.9967 2.37969 20.9967 5.36405C20.9967 2.37969 18.6421 0 15.7695 0C12.897 0 10.5033 2.37969 10.5033 5.36405C10.5033 2.37969 8.16811 0 5.26628 0C2.36445 0 0 2.37969 0 5.36405C0 7.69498 1.41672 9.6748 3.44898 10.3965C1.41672 11.1377 0 13.1273 0 15.4192ZM15.7598 7.33412L23.8595 15.4387L15.7598 23.5433L7.64051 15.4387L15.7598 7.33412Z" fill="var(--fill-0, #FFE600)"/>
<path id="Vector_24" d="M220.5 15.4192C220.5 17.7501 221.917 19.73 223.949 20.4517C221.926 21.1929 220.5 23.1825 220.5 25.5036C220.5 28.449 222.855 30.8774 225.766 30.8774C228.678 30.8774 230.788 28.6733 230.974 25.884H231.033C231.208 28.6733 233.475 30.8774 236.26 30.8774C239.044 30.8774 241.282 28.6733 241.458 25.884H241.516C241.702 28.6733 243.939 30.8774 246.724 30.8774C249.509 30.8774 251.99 28.4587 251.99 25.5036C251.99 23.1825 250.574 21.1929 248.541 20.4517C250.564 19.73 251.99 17.7501 251.99 15.4192C251.99 13.1273 250.574 11.1475 248.541 10.3965C250.564 9.6748 251.99 7.69498 251.99 5.36405C251.99 2.37969 249.636 0 246.724 0C243.812 0 241.487 2.37969 241.487 5.36405C241.497 2.37969 239.142 0 236.26 0C233.377 0 230.993 2.37969 230.993 5.36405C231.003 2.37969 228.668 0 225.757 0C222.845 0 220.49 2.37969 220.49 5.36405C220.49 7.69498 221.907 9.6748 223.939 10.3965C221.917 11.1475 220.49 13.1273 220.49 15.4192H220.5ZM236.26 7.33412L244.359 15.4387L236.26 23.5433L228.14 15.4387L236.26 7.33412Z" fill="var(--fill-0, #FFE600)"/>
<path id="Vector_25" d="M220.5 231.542C220.5 233.873 221.917 235.853 223.949 236.574C221.926 237.315 220.5 239.305 220.5 241.626C220.5 244.572 222.855 247 225.766 247C228.678 247 230.788 244.796 230.974 242.007H231.033C231.208 244.796 233.475 247 236.26 247C239.044 247 241.282 244.796 241.458 242.007H241.516C241.702 244.796 243.939 247 246.724 247C249.509 247 251.99 244.581 251.99 241.626C251.99 239.305 250.574 237.315 248.541 236.574C250.564 235.853 251.99 233.873 251.99 231.542C251.99 229.25 250.574 227.27 248.541 226.519C250.564 225.797 251.99 223.818 251.99 221.487C251.99 218.502 249.636 216.123 246.724 216.123C243.812 216.123 241.487 218.502 241.487 221.487C241.487 218.502 239.132 216.123 236.26 216.123C233.387 216.123 230.993 218.502 230.993 221.487C230.993 218.502 228.658 216.123 225.757 216.123C222.855 216.123 220.49 218.502 220.49 221.487C220.49 223.818 221.907 225.797 223.939 226.519C221.917 227.27 220.49 229.25 220.49 231.542H220.5ZM236.26 223.457L244.359 231.561L236.26 239.666L228.14 231.561L236.26 223.457Z" fill="var(--fill-0, #FFE600)"/>
<path id="Vector_26" d="M220.5 138.919C220.5 141.25 221.917 143.23 223.949 143.952C221.926 144.693 220.5 146.682 220.5 149.004C220.5 151.949 222.855 154.377 225.766 154.377C228.678 154.377 230.788 152.173 230.974 149.384H231.033C231.208 152.173 233.475 154.377 236.26 154.377C239.044 154.377 241.282 152.173 241.458 149.384H241.516C241.702 152.173 243.939 154.377 246.724 154.377C249.509 154.377 251.99 151.959 251.99 149.004C251.99 146.682 250.574 144.693 248.541 143.952C250.564 143.23 251.99 141.25 251.99 138.919C251.99 136.588 250.574 134.647 248.541 133.897C250.564 133.175 251.99 131.195 251.99 128.864C251.99 125.88 249.636 123.5 246.724 123.5C243.812 123.5 241.487 125.88 241.487 128.864C241.487 125.88 239.132 123.5 236.26 123.5C233.387 123.5 230.993 125.88 230.993 128.864C230.993 125.88 228.658 123.5 225.757 123.5C222.855 123.5 220.49 125.88 220.49 128.864C220.49 131.195 221.907 133.175 223.939 133.897C221.917 134.647 220.49 136.627 220.49 138.919H220.5ZM236.26 130.834L244.359 138.939L236.26 147.043L228.14 138.939L236.26 130.834Z" fill="var(--fill-0, #FFE600)"/>
<path id="Vector_27" d="M220.5 169.797C220.5 172.128 221.917 174.107 223.949 174.829C221.926 175.57 220.5 177.56 220.5 179.881C220.5 182.826 222.855 185.255 225.766 185.255C228.678 185.255 230.788 183.051 230.974 180.261H231.033C231.208 183.051 233.475 185.255 236.26 185.255C239.044 185.255 241.282 183.051 241.458 180.261H241.516C241.702 183.051 243.939 185.255 246.724 185.255C249.509 185.255 251.99 182.836 251.99 179.881C251.99 177.56 250.574 175.57 248.541 174.829C250.564 174.107 251.99 172.128 251.99 169.797C251.99 167.505 250.574 165.525 248.541 164.774C250.564 164.052 251.99 162.072 251.99 159.741C251.99 156.757 249.636 154.377 246.724 154.377C243.812 154.377 241.487 156.757 241.487 159.741C241.487 156.757 239.132 154.377 236.26 154.377C233.387 154.377 230.993 156.757 230.993 159.741C230.993 156.757 228.658 154.377 225.757 154.377C222.855 154.377 220.49 156.757 220.49 159.741C220.49 162.072 221.907 164.052 223.939 164.774C221.917 165.525 220.49 167.505 220.49 169.797H220.5ZM236.26 161.712L244.359 169.816L236.26 177.921L228.14 169.816L236.26 161.712Z" fill="var(--fill-0, #FFE600)"/>
<path id="Vector_28" d="M220.5 200.664C220.5 202.995 221.917 204.975 223.949 205.697C221.926 206.438 220.5 208.428 220.5 210.749C220.5 213.694 222.855 216.123 225.766 216.123C228.551 216.123 230.788 213.918 230.974 211.129H231.033C231.208 213.918 233.475 216.123 236.26 216.123C239.044 216.123 241.282 213.918 241.458 211.129H241.516C241.702 213.918 243.939 216.123 246.724 216.123C249.509 216.123 251.99 213.704 251.99 210.749C251.99 208.428 250.574 206.438 248.541 205.697C250.564 204.975 251.99 202.995 251.99 200.664C251.99 198.372 250.574 196.393 248.541 195.642C250.564 194.92 251.99 192.94 251.99 190.609C251.99 187.625 249.636 185.245 246.724 185.245C243.812 185.245 241.487 187.625 241.487 190.609C241.487 187.625 239.132 185.245 236.26 185.245C233.387 185.245 230.993 187.625 230.993 190.609C230.993 187.625 228.658 185.245 225.757 185.245C222.855 185.245 220.49 187.625 220.49 190.609C220.49 192.94 221.907 194.92 223.939 195.642C221.917 196.393 220.49 198.372 220.49 200.664H220.5ZM236.26 192.579L244.359 200.684L236.26 208.788L228.14 200.684L236.26 192.579Z" fill="var(--fill-0, #FFE600)"/>
</g>
<defs>
<clipPath id="clip0_25_206">
<rect width="252" height="247" fill="white"/>
</clipPath>
</defs>
</svg>
