<svg width="839" height="384" viewBox="0 0 839 384" fill="none" xmlns="http://www.w3.org/2000/svg">
<g clip-path="url(#clip0_20_544)">
<path d="M839 59.392L822.429 75.9692L839 92.5464L822.438 109.114L839 125.691L822.429 142.268L839 158.846L822.429 175.423L839 192L822.438 208.577L839 225.145V225.154L822.438 241.732L839 258.299V258.309L822.429 274.876L839 291.454L822.429 308.031L839 324.608L822.429 341.185L839 357.762L812.781 384L786.543 357.762L760.324 384L734.096 357.762L707.867 384L681.639 357.762L655.42 384L629.192 357.762L602.963 384L576.822 357.85L550.681 384L550.594 383.912L550.506 384L524.365 357.85L498.234 384L471.996 357.762L445.777 384L419.549 357.762L393.32 384L367.092 357.762L340.863 384L314.674 357.801L288.494 384L288.455 383.961L288.416 384L262.226 357.801L236.037 384L209.818 357.762L183.59 384L157.361 357.762L131.142 384L104.914 357.762L78.6757 384L52.4569 357.762L26.2285 384L0 357.762L16.5715 341.185L0 324.608L16.5715 308.031L0 291.454L16.5715 274.876L0 258.309V258.299L16.5715 241.732L0 225.154V225.145L16.5715 208.577L0 192L16.5715 175.423L0 158.846L16.5715 142.268L0 125.691L16.5715 109.114L0 92.5464L16.5715 75.9692L0 59.392L16.5715 42.8148L0 26.2375L26.2285 0L52.4569 26.2375L78.6757 0L104.914 26.2375L131.142 0L157.361 26.2375L183.59 0L209.818 26.2375L236.037 0L262.226 26.1986L288.416 0L288.455 0.0389137L288.494 0L314.674 26.1986L340.863 0L367.092 26.2375L393.32 0L419.549 26.2375L445.777 0L471.996 26.2375L498.234 0L524.365 26.15L550.506 0L550.594 0.0875557L550.681 0L576.822 26.15L602.963 0L629.192 26.2375L655.42 0L681.639 26.2375L707.867 0L734.096 26.2375L760.324 0L786.543 26.2375L812.781 0L839 26.2375L822.429 42.8148L839 59.392Z" fill="#003D23"/>
<path d="M62.5456 58.5449L47.4238 43.418L32.3021 58.545L47.4238 73.6719L62.5456 58.5449Z" fill="#FFE600"/>
<path d="M800.537 58.5498L785.415 43.4229L770.293 58.5498L785.415 73.6768L800.537 58.5498Z" fill="#FFE600"/>
<path d="M800.546 328.884L785.424 313.757L770.302 328.884L785.424 344.011L800.546 328.884Z" fill="#FFE600"/>
<path d="M62.5446 328.879L47.4229 313.752L32.3011 328.879L47.4229 344.006L62.5446 328.879Z" fill="#FFE600"/>
<path d="M110.309 107.772C99.5287 109.092 93.3247 104.912 93.4127 97.696C93.4127 92.9 95.7007 89.776 100.497 87.004C98.0327 84.848 95.5247 82.78 93.0607 80.624L94.8647 73.98L99.5287 73.056C102.389 72.44 105.469 71.824 107.977 71.956C111.805 72.176 114.841 74.508 115.237 78.556L115.413 80.36C115.721 82.912 114.885 84.716 112.817 85.992C111.365 86.916 110.309 87.532 109.121 88.192C110.969 88.896 113.169 89.248 115.193 89.248H120.825L122.937 90.348V92.9L120.825 94H115.677C111.189 94 107.317 92.944 103.841 90.304C103.225 90.568 102.653 90.876 102.081 91.14C99.0887 92.636 96.9327 94.792 96.2287 97.784C97.9887 102.096 102.081 104.164 110.397 103.108L116.909 102.316L117.349 102.844L115.941 107.068L110.309 107.772ZM96.1847 77.984L104.897 85.64L111.893 82.472L111.761 80.272C111.585 77.632 109.693 76.4 107.053 76.312C104.633 76.18 101.993 76.796 99.6167 77.28L96.1847 77.984ZM128.259 106.112L123.683 103.824L125.927 99.292L130.503 101.624L128.259 106.112ZM130.327 103.78L132.571 99.292L137.191 101.624L134.903 106.068L130.327 103.78ZM119.074 94L117.006 92.9V90.348L119.074 89.248H119.954C122.814 89.248 125.674 88.764 127.566 87.576C127.478 86.564 127.434 85.464 127.434 84.32V78.116L130.734 77.192L131.35 77.72V84.012C131.35 88.192 133.99 89.248 137.95 89.248H139.094L141.162 90.348V92.9L139.094 94H138.214C134.65 94 131.702 93.208 129.81 91.228L129.502 91.448C127.126 93.164 123.87 94 120.042 94H119.074ZM138.218 94L136.15 92.9V90.348L138.218 89.248H139.01C141.078 89.248 143.762 88.764 145.61 87.576C145.302 85.948 145.478 84.056 146.226 81.856L146.974 79.744C147.854 76.972 150.054 75.388 152.914 75.388H155.466C160.79 75.388 162.638 79.04 163.21 82.472L163.694 85.068C164.266 88.148 166.246 89.248 169.722 89.248H170.47L172.582 90.348V92.9L170.47 94H169.722C166.158 94 163.65 92.724 162.11 90.876L161.362 93.076L160.086 93.516C154.806 95.276 149.746 94.396 147.282 91.448C145.082 93.164 142.046 94 138.966 94H138.218ZM149.614 83.044C147.722 89.292 153.97 90.964 159.514 88.94L160.834 88.456C160.658 87.928 160.438 87.4 160.35 86.828L159.954 84.628C159.426 81.68 158.59 79.612 154.41 79.612H150.67L149.614 83.044ZM181.494 105.968L176.654 103.548L179.03 98.796L183.87 101.26L181.494 105.968ZM168.727 94L166.659 92.9V90.348L168.727 89.248H170.707C175.459 89.248 178.979 89.16 183.335 85.596L187.999 81.724L182.147 78.072C180.079 76.796 178.627 76.312 175.987 77.06L171.719 78.248L171.147 77.764V74.288L174.095 73.188C178.231 71.648 179.639 71.428 183.335 73.804L189.935 78.072C191.475 79.04 192.135 79.348 194.027 79.348H195.743L196.139 79.92L194.951 83.88H191.299L188.263 86.74L188.307 86.828C189.055 88.368 190.199 89.248 193.455 89.248H198.559L200.627 90.348V92.9L198.559 94H193.323C189.231 94 187.163 92.548 185.799 89.6L185.623 89.16C181.091 93.12 176.867 94 171.675 94H168.727ZM204.253 68.328L199.677 66.04L201.921 61.552L206.497 63.884L204.253 68.328ZM206.321 66.04L208.565 61.552L213.185 63.884L210.897 68.328L206.321 66.04ZM194.72 92.9V90.348L196.788 89.248H197.888C200.836 89.248 204.356 88.764 206.204 87.444C206.028 84.892 205.588 82.12 205.104 79.348L204.4 75.256L208.228 73.232L209.328 78.82C210.384 84.496 210.384 87.048 209.504 89.248C208.096 92.724 203.344 94 197.888 94H196.788L194.72 92.9ZM237.75 74.328L233.174 72.04L235.418 67.552L239.994 69.884L237.75 74.328ZM239.818 72.04L242.062 67.552L246.682 69.884L244.394 74.328L239.818 72.04ZM222.324 82.164L223.204 76.664H226.02L226.592 77.368L225.888 81.768C225.052 87.092 226.064 89.908 236.316 89.908C241.2 89.908 248.196 89.248 251.804 87.62C251.672 86.564 251.584 85.508 251.584 84.364V78.116L254.884 77.192L255.544 77.72V84.012C255.544 88.192 258.184 89.248 261.396 89.248H263.992L266.06 90.348V92.9L263.992 94H261.66C258.448 94 255.588 93.164 253.784 91.096C253.564 91.36 253.256 91.58 252.904 91.756C251.716 92.46 250.264 92.988 248.636 93.384C244.632 94.44 239.66 94.66 235.612 94.66C224.348 94.66 220.916 90.656 222.324 82.164ZM271.138 63.328L266.562 61.04L268.806 56.552L273.382 58.884L271.138 63.328ZM273.206 61.04L275.45 56.552L280.07 58.884L277.782 63.328L273.206 61.04ZM262.212 94L260.144 92.9V90.348L262.212 89.248H271.1C273.784 89.248 277.216 88.72 279.064 87.356C279.02 86.388 278.888 85.376 278.756 84.408C278.228 84.672 277.656 84.892 277.128 85.112C273.432 86.74 269.252 86.96 266.084 84.804L265.776 84.584C264.148 83.484 263.532 81.68 263.576 79.392L263.62 77.192C263.752 70.856 267.448 67.952 272.816 67.952H274.444C278.404 67.952 280.56 70.68 281.176 74.112L281.968 78.732C282.936 84.32 282.98 86.828 282.144 89.028C280.736 92.68 275.94 94 270.66 94H262.212ZM267.096 80.184C267.536 80.536 267.976 80.8 268.46 81.064C270.748 82.164 273.432 81.9 276.424 80.58L278.096 79.876L277.832 78.248L276.82 72.352H272.86C268.68 72.352 267.184 74.112 267.14 77.5L267.096 80.184ZM292.908 105.308C291.676 105.264 289.872 104.868 287.716 104.164L287.364 100.556L287.892 99.984C290.928 100.6 291.808 100.688 293.216 100.732C296.076 100.82 298.276 99.72 300.388 97.212C301.444 95.98 302.104 95.012 302.632 94.088L302.324 92.196L300.828 92.9C297.484 94.528 292.688 95.056 289.388 92.724L289.08 92.46C287.408 91.36 286.836 89.556 286.88 87.18L286.924 84.76C287.056 78.38 290.488 75.256 295.988 75.256H297.616C301.928 75.256 303.864 77.676 304.48 81.24L305.448 86.872C305.8 88.984 306.064 90.876 306.064 92.548C306.064 95.32 305.052 97.96 303.292 100.16C300.168 103.988 297 105.66 292.908 105.308ZM290.4 87.928L290.664 88.104C293.04 89.996 296.384 89.732 299.728 88.324L301.532 87.576L300.168 79.656H296.12C291.808 79.656 290.488 81.68 290.444 85.068L290.4 87.928ZM329.966 117.112L325.39 114.824L327.634 110.292L332.21 112.624L329.966 117.112ZM332.034 114.78L334.278 110.292L338.898 112.624L336.61 117.068L332.034 114.78ZM352.219 106.968L347.379 104.548L349.755 99.796L354.595 102.26L352.219 106.968ZM317.529 90.524L318.541 84.496H321.313L321.841 85.156L321.049 90.48C319.949 97.564 323.117 100.468 329.629 100.512C333.809 100.512 337.857 99.324 340.893 98.048C340.937 94.924 339.705 93.78 337.549 93.78H329.541L329.101 93.032L329.937 89.248C330.597 89.248 331.257 89.248 331.917 89.16C334.865 89.072 338.033 88.72 342.257 85.508C343.621 84.408 345.073 83.352 346.569 82.032L340.937 78.6C338.825 77.28 337.417 76.796 334.777 77.588L330.465 78.776L329.937 78.248V74.772L332.841 73.672C336.977 72.132 338.385 71.912 342.125 74.288L348.725 78.556C350.221 79.524 350.925 79.832 352.817 79.832H354.489L354.885 80.404L353.697 84.408H349.737L347.273 86.652L347.361 86.828C348.065 88.368 349.253 89.248 352.465 89.248H357.657L359.725 90.348V92.9L357.657 94H352.377C348.241 94 346.173 92.46 344.765 89.38L344.633 89.072C343.753 89.82 342.873 90.48 341.949 91.008C343.533 92.284 344.369 94.264 344.413 96.552C344.413 99.104 343.401 101.524 340.101 103.064C336.889 104.56 333.193 105.22 329.629 105.22C320.521 105.264 315.901 100.16 317.529 90.524ZM362.646 106.112L358.07 103.824L360.314 99.292L364.89 101.624L362.646 106.112ZM364.714 103.78L366.958 99.292L371.578 101.624L369.29 106.068L364.714 103.78ZM353.843 92.9V90.348L355.911 89.248H357.011C359.959 89.248 363.479 88.764 365.327 87.444C365.151 84.892 364.711 82.12 364.227 79.348L363.523 75.256L367.351 73.232L368.451 78.82C369.507 84.496 369.507 87.048 368.627 89.248C367.219 92.724 362.467 94 357.011 94H355.911L353.843 92.9ZM384.352 94.396C380.392 90.92 381.932 86.74 385.76 80.932L387.872 82.252L388.048 82.824C386.024 87.136 385.144 88.94 387.872 91.008V92.064L384.352 94.396ZM405.275 120.112L400.699 117.824L402.943 113.292L407.519 115.624L405.275 120.112ZM407.343 117.78L409.587 113.292L414.207 115.624L411.919 120.068L407.343 117.78ZM419.622 60.936C417.29 60.936 415.926 59.22 416.366 56.668L416.674 54.82L418.17 54.6L418.478 54.864L418.214 56.536C417.906 58.076 418.654 58.78 419.71 58.78C420.238 58.78 420.766 58.648 421.294 58.428V56.272L422.878 56.096L423.274 56.36V57.636C423.274 58.472 423.714 58.78 424.462 58.78C424.946 58.78 425.386 58.692 425.958 58.472L425.122 54.336L426.882 53.236L427.322 55.172C427.586 56.36 427.718 57.284 427.718 58.032C427.718 59.968 426.178 60.936 424.462 60.936C423.626 60.936 422.834 60.716 422.262 60.1C421.47 60.628 420.414 60.936 419.622 60.936ZM422.953 70.852L418.113 68.432L420.489 63.68L425.329 66.144L422.953 70.852ZM404.043 108.08C394.231 108.08 389.039 103.372 390.535 93.516L391.503 87.048H394.407L394.935 87.708L394.099 93.384C392.911 100.952 397.047 103.328 404.219 103.328C408.047 103.328 412.095 102.36 415.087 101.128C415.087 100.292 415.131 99.324 414.867 98.444C414.471 96.772 413.415 95.32 410.071 95.32H406.595C402.283 95.32 401.227 92.284 401.491 89.38L401.755 86.344C402.239 80.536 405.715 77.324 411.831 77.104C412.139 77.06 412.491 77.06 412.799 77.06C416.715 77.06 418.959 77.984 420.015 81.284L421.027 84.276C422.083 87.576 423.051 89.248 426.967 89.248H427.979L430.047 90.348V92.9L427.979 94H426.923C421.291 94 419.091 91.14 417.727 87.092L415.923 81.548H412.139C407.607 81.548 405.539 83.66 405.231 87.18L404.967 90.7H410.027C415.703 90.7 418.519 93.516 418.959 98.048C419.003 98.4 419.003 98.84 419.003 99.236C419.003 102.228 417.947 104.516 414.779 105.968C411.963 107.244 408.135 108.08 404.043 108.08ZM439.459 105.924C432.595 105.924 428.855 101.392 429.867 94H427.095L425.027 92.9V90.348L427.095 89.248H430.131L432.463 76.224L437.215 72.572L440.779 74.2C445.047 76.136 446.103 78.248 446.675 81.68L446.895 83.176C447.203 84.804 447.115 86.212 446.499 87.488C446.191 88.148 445.795 88.72 445.311 89.248H448.171H452.351L454.419 90.348V92.9L452.351 94H448.303C447.599 94 446.587 93.824 445.751 93.472C447.599 95.892 447.863 100.116 446.543 102.712L446.323 103.196C445.267 105.308 443.947 105.924 441.175 105.924H439.459ZM433.827 93.912C433.123 99.016 434.971 101.436 439.855 101.436H443.067C444.123 99.192 443.903 96.596 442.187 94.792L440.251 92.768C438.535 93.34 436.423 93.736 433.827 93.912ZM434.091 89.38C439.591 89.248 442.363 87.4 443.595 85.42L443.155 83.044C442.759 80.712 441.835 79.612 439.591 78.556L436.027 76.884L434.091 89.38ZM461.52 67.852L456.68 65.432L459.056 60.68L463.896 63.144L461.52 67.852ZM448.533 92.9V90.348L450.601 89.248H451.701C454.649 89.248 458.169 88.764 460.017 87.444C459.841 84.892 459.401 82.12 458.917 79.348L458.213 75.256L462.041 73.232L463.141 78.82C464.197 84.496 464.197 87.048 463.317 89.248C461.909 92.724 457.157 94 451.701 94H450.601L448.533 92.9ZM474.078 105.308C472.846 105.264 471.042 104.868 468.886 104.164L468.534 100.556L469.062 99.984C472.098 100.6 472.978 100.688 474.386 100.732C477.246 100.82 479.446 99.72 481.558 97.212C482.614 95.98 483.274 95.012 483.802 94.088L483.494 92.196L481.998 92.9C478.654 94.528 473.858 95.056 470.558 92.724L470.25 92.46C468.578 91.36 468.006 89.556 468.05 87.18L468.094 84.76C468.226 78.38 471.658 75.256 477.158 75.256H478.786C483.098 75.256 485.034 77.676 485.65 81.24L486.618 86.872C486.97 88.984 487.234 90.876 487.234 92.548C487.234 95.32 486.222 97.96 484.462 100.16C481.338 103.988 478.17 105.66 474.078 105.308ZM471.57 87.928L471.834 88.104C474.21 89.996 477.554 89.732 480.898 88.324L482.702 87.576L481.338 79.656H477.29C472.978 79.656 471.658 81.68 471.614 85.068L471.57 87.928ZM523.911 94C520.963 94 518.279 93.12 516.519 91.008L515.903 92.768L512.691 93.56C504.639 95.54 499.183 93.34 500.239 85.992L500.547 84.1H503.891L503.715 85.948C503.363 89.688 507.587 90.084 512.427 88.94L515.067 88.28C514.759 87.224 514.539 86.08 514.539 84.716L514.363 73.408L518.323 72.22L518.367 84.452C518.367 88.192 520.963 89.248 524.219 89.248H525.099L527.167 90.348V92.9L525.099 94H523.911ZM530.065 106.112L525.489 103.824L527.733 99.292L532.309 101.624L530.065 106.112ZM532.133 103.78L534.377 99.292L538.997 101.624L536.709 106.068L532.133 103.78ZM521.261 92.9V90.348L523.329 89.248H524.429C527.377 89.248 530.897 88.764 532.745 87.444C532.569 84.892 532.129 82.12 531.645 79.348L530.941 75.256L534.769 73.232L535.869 78.82C536.925 84.496 536.925 87.048 536.045 89.248C534.637 92.724 529.885 94 524.429 94H523.329L521.261 92.9ZM540.65 60.824L543.95 59.768L544.61 60.296V82.956C544.61 87.576 546.062 89.248 550.198 89.248H550.418L552.486 90.348V92.9L550.418 94H550.154C543.95 94 540.87 90.92 540.826 84.408L540.65 60.824ZM549.542 94L547.474 92.9V90.348L549.542 89.248H552.182C554.338 89.248 557.286 89.028 560.278 88.236C557.726 85.992 555.13 83.792 552.578 81.592L554.338 74.948L559.002 73.98C561.906 73.364 564.942 72.836 567.45 72.924C571.322 73.1 574.358 75.432 574.754 79.524L574.93 81.328C575.194 83.836 574.358 85.684 572.29 86.96C571.146 87.664 570.222 88.236 569.254 88.764C570.794 89.072 572.29 89.248 573.83 89.248H580.43L582.542 90.348V92.9L580.43 94H574.094C570.002 94 567.01 93.164 564.062 91.404C559.794 93.296 555.394 94 551.962 94H549.542ZM555.658 78.952C558.562 81.504 561.466 84.012 564.414 86.564L571.41 83.396L571.278 81.196C571.102 78.556 569.166 77.412 566.57 77.236C564.106 77.148 561.51 77.72 559.134 78.248L555.658 78.952ZM589.596 67.852L584.756 65.432L587.132 60.68L591.972 63.144L589.596 67.852ZM576.609 92.9V90.348L578.677 89.248H579.777C582.725 89.248 586.245 88.764 588.093 87.444C587.917 84.892 587.477 82.12 586.993 79.348L586.289 75.256L590.117 73.232L591.217 78.82C592.273 84.496 592.273 87.048 591.393 89.248C589.985 92.724 585.233 94 579.777 94H578.677L576.609 92.9ZM604.785 60.824L608.085 59.768L608.745 60.296V82.956C608.745 87.576 610.197 89.248 614.333 89.248H614.553L616.621 90.348V92.9L614.553 94H614.289C608.085 94 605.005 90.92 604.961 84.408L604.785 60.824ZM613.677 94L611.609 92.9V90.348L613.677 89.248H614.469C619.353 89.248 620.717 86.696 621.817 83.836L623.181 80.228C624.413 76.972 626.613 75.388 629.517 75.388H631.277C636.733 75.388 639.373 78.864 639.769 83.176L640.121 87.136C640.429 90.128 639.285 92.372 636.865 93.208L636.117 93.472C631.013 95.276 627.009 94.616 624.017 90.92L623.093 89.776C621.377 92.152 618.649 94 614.249 94H613.677ZM625.117 85.772L626.349 87.268C628.637 90.04 631.585 90.392 635.545 88.896L636.557 88.5L636.117 83.924C635.897 81.372 634.533 79.612 631.057 79.612H627.449L625.117 85.772ZM676.824 94C673.876 94 671.192 93.12 669.432 91.008L668.816 92.768L665.604 93.56C657.552 95.54 652.096 93.34 653.152 85.992L653.46 84.1H656.804L656.628 85.948C656.276 89.688 660.5 90.084 665.34 88.94L667.98 88.28C667.672 87.224 667.452 86.08 667.452 84.716L667.276 73.408L671.236 72.22L671.28 84.452C671.28 88.192 673.876 89.248 677.132 89.248H678.012L680.08 90.348V92.9L678.012 94H676.824ZM677.123 94L675.055 92.9V90.348L677.123 89.248H679.763C681.919 89.248 684.867 89.028 687.859 88.236C685.307 85.992 682.711 83.792 680.159 81.592L681.919 74.948L686.583 73.98C689.487 73.364 692.523 72.836 695.031 72.924C698.903 73.1 701.939 75.432 702.335 79.524L702.511 81.328C702.775 83.836 701.939 85.684 699.871 86.96C698.727 87.664 697.803 88.236 696.835 88.764C698.375 89.072 699.871 89.248 701.411 89.248H708.011L710.123 90.348V92.9L708.011 94H701.675C697.583 94 694.591 93.164 691.643 91.404C687.375 93.296 682.975 94 679.543 94H677.123ZM683.239 78.952C686.143 81.504 689.047 84.012 691.995 86.564L698.991 83.396L698.859 81.196C698.683 78.556 696.747 77.412 694.151 77.236C691.687 77.148 689.091 77.72 686.715 78.248L683.239 78.952ZM715.63 106.968L710.79 104.548L713.166 99.796L718.006 102.26L715.63 106.968ZM704.19 92.9V90.348L706.258 89.248H707.358C710.306 89.248 713.826 88.764 715.674 87.444C715.498 84.892 715.058 82.12 714.574 79.348L713.87 75.256L717.698 73.232L718.798 78.82C719.854 84.496 719.854 87.048 718.974 89.248C717.566 92.724 712.814 94 707.358 94H706.258L704.19 92.9ZM729.736 105.308C728.504 105.264 726.7 104.868 724.544 104.164L724.192 100.556L724.72 99.984C727.756 100.6 728.636 100.688 730.044 100.732C732.904 100.82 735.104 99.72 737.216 97.212C738.272 95.98 738.932 95.012 739.46 94.088L739.152 92.196L737.656 92.9C734.312 94.528 729.516 95.056 726.216 92.724L725.908 92.46C724.236 91.36 723.664 89.556 723.708 87.18L723.752 84.76C723.884 78.38 727.316 75.256 732.816 75.256H734.444C738.756 75.256 740.692 77.676 741.308 81.24L742.276 86.872C742.628 88.984 742.892 90.876 742.892 92.548C742.892 95.32 741.88 97.96 740.12 100.16C736.996 103.988 733.828 105.66 729.736 105.308ZM727.228 87.928L727.492 88.104C729.868 89.996 733.212 89.732 736.556 88.324L738.36 87.576L736.996 79.656H732.948C728.636 79.656 727.316 81.68 727.272 85.068L727.228 87.928ZM121.131 136.852L116.291 134.432L118.667 129.68L123.507 132.144L121.131 136.852ZM119.32 160.836C109.508 160.836 104.36 156.304 105.856 146.36L106.824 139.848H109.816L110.3 140.508L109.464 146.052C108.32 153.532 111.84 156.084 119.408 156.084C124.204 156.084 128.076 155.072 131.068 153.84C130.892 148.12 130.012 142.884 128.252 134.656L131.992 132.808C133.884 141.564 134.94 147.196 134.896 151.42C134.852 154.412 134.016 157.096 130.628 158.68C127.372 160.22 123.5 160.836 119.32 160.836ZM145.849 160.308C144.617 160.264 142.813 159.868 140.657 159.164L140.305 155.556L140.833 154.984C143.869 155.6 144.749 155.688 146.157 155.732C149.017 155.82 151.217 154.72 153.329 152.212C154.385 150.98 155.045 150.012 155.573 149.088L155.265 147.196L153.769 147.9C150.425 149.528 145.629 150.056 142.329 147.724L142.021 147.46C140.349 146.36 139.777 144.556 139.821 142.18L139.865 139.76C139.997 133.38 143.429 130.256 148.929 130.256H150.557C154.869 130.256 156.805 132.676 157.421 136.24L158.389 141.872C158.741 143.984 159.005 145.876 159.005 147.548C159.005 150.32 157.993 152.96 156.233 155.16C153.109 158.988 149.941 160.66 145.849 160.308ZM143.341 142.928L143.605 143.104C145.981 144.996 149.325 144.732 152.669 143.324L154.473 142.576L153.109 134.656H149.061C144.749 134.656 143.429 136.68 143.385 140.068L143.341 142.928ZM187.023 149C184.075 149 181.391 148.12 179.631 146.008L179.015 147.768L175.803 148.56C167.751 150.54 162.295 148.34 163.351 140.992L163.659 139.1H167.003L166.827 140.948C166.475 144.688 170.699 145.084 175.539 143.94L178.179 143.28C177.871 142.224 177.651 141.08 177.651 139.716L177.475 128.408L181.435 127.22L181.479 139.452C181.479 143.192 184.075 144.248 187.331 144.248H188.211L190.279 145.348V147.9L188.211 149H187.023ZM185.254 147.9V145.348L187.322 144.248H197.31L199.378 145.348V147.9L197.31 149H187.322L185.254 147.9ZM194.342 147.9V145.348L196.41 144.248H206.398L208.466 145.348V147.9L206.398 149H196.41L194.342 147.9ZM203.431 147.9V145.348L205.499 144.248H215.487L217.555 145.348V147.9L215.487 149H205.499L203.431 147.9ZM225.529 161.968L220.689 159.548L223.065 154.796L227.905 157.26L225.529 161.968ZM213.708 149L211.64 147.9V145.348L213.708 144.248H214.588C217.448 144.248 220.308 143.764 222.2 142.576C222.112 141.564 222.068 140.464 222.068 139.32V133.116L225.368 132.192L225.984 132.72V139.012C225.984 143.192 228.624 144.248 232.584 144.248H233.728L235.796 145.348V147.9L233.728 149H232.848C229.284 149 226.336 148.208 224.444 146.228L224.136 146.448C221.76 148.164 218.504 149 214.676 149H213.708ZM238.706 161.112L234.13 158.824L236.374 154.292L240.95 156.624L238.706 161.112ZM240.774 158.78L243.018 154.292L247.638 156.624L245.35 161.068L240.774 158.78ZM229.903 147.9V145.348L231.971 144.248H233.071C236.019 144.248 239.539 143.764 241.387 142.444C241.211 139.892 240.771 137.12 240.287 134.348L239.583 130.256L243.411 128.232L244.511 133.82C245.567 139.496 245.567 142.048 244.687 144.248C243.279 147.724 238.527 149 233.071 149H231.971L229.903 147.9ZM258.784 160.44C257.42 160.44 256.496 160.22 255.044 159.824L254.12 159.56L253.724 155.908L254.296 155.38L255.044 155.468C256.32 155.688 257.2 155.776 258.256 155.776C260.148 155.776 261.776 155.072 263.58 153.048C264.68 151.772 265.472 150.32 266 148.912C265.384 144.996 264.416 139.892 263.404 134.656L267.056 132.588C268.86 140.992 269.52 145.7 269.52 147.284C269.52 149.396 269.168 152.256 266.616 155.908C264.636 158.768 261.6 160.44 258.784 160.44ZM273.657 115.824L276.957 114.768L277.617 115.296V137.956C277.617 142.576 279.069 144.248 283.205 144.248H283.425L285.493 145.348V147.9L283.425 149H283.161C276.957 149 273.877 145.92 273.833 139.408L273.657 115.824ZM298.045 122.852L293.205 120.432L295.581 115.68L300.421 118.144L298.045 122.852ZM281.669 149L279.601 147.9V145.348L281.669 144.248H284.309C286.465 144.248 289.413 144.028 292.405 143.236C289.853 140.992 287.257 138.792 284.705 136.592L286.465 129.948L291.129 128.98C294.033 128.364 297.069 127.836 299.577 127.924C303.449 128.1 306.485 130.432 306.881 134.524L307.057 136.328C307.321 138.836 306.485 140.684 304.417 141.96C303.273 142.664 302.349 143.236 301.381 143.764C302.921 144.072 304.417 144.248 305.957 144.248H312.557L314.669 145.348V147.9L312.557 149H306.221C302.129 149 299.137 148.164 296.189 146.404C291.921 148.296 287.521 149 284.089 149H281.669ZM287.785 133.952C290.689 136.504 293.593 139.012 296.541 141.564L303.537 138.396L303.405 136.196C303.229 133.556 301.293 132.412 298.697 132.236C296.233 132.148 293.637 132.72 291.261 133.248L287.785 133.952ZM334.571 125.936C332.239 125.936 330.875 124.22 331.315 121.668L331.623 119.82L333.119 119.6L333.427 119.864L333.163 121.536C332.855 123.076 333.603 123.78 334.659 123.78C335.187 123.78 335.715 123.648 336.243 123.428V121.272L337.827 121.096L338.223 121.36V122.636C338.223 123.472 338.663 123.78 339.411 123.78C339.895 123.78 340.335 123.692 340.907 123.472L340.071 119.336L341.831 118.236L342.271 120.172C342.535 121.36 342.667 122.284 342.667 123.032C342.667 124.968 341.127 125.936 339.411 125.936C338.575 125.936 337.783 125.716 337.211 125.1C336.419 125.628 335.363 125.936 334.571 125.936ZM326.643 149C323.607 149.044 321.231 148.296 319.647 146.624C317.491 148.252 314.543 149 311.595 149H310.803L308.735 147.9V145.348L310.803 144.248H311.595C313.531 144.248 315.951 143.852 317.755 142.796C317.579 141.916 317.491 140.948 317.491 139.848V134.876L320.527 134.084L321.187 134.612V139.76C321.187 141.168 321.539 142.18 322.155 142.84L328.227 133.952C330.735 130.256 333.375 129.332 336.499 129.332H337.863C344.639 129.332 347.411 134.304 347.587 139.1L347.675 141.124C347.675 141.652 347.675 142.18 347.587 142.664C347.675 142.752 347.807 142.796 347.895 142.884C349.479 143.896 351.107 144.248 353.439 144.248H354.011L356.123 145.348V147.9L354.011 149H353.483C350.535 149 348.027 148.252 346.223 146.712C346.047 146.536 345.915 146.404 345.739 146.272C343.539 148.384 339.491 148.956 335.839 148.956L326.643 149ZM325.631 144.204C326.115 144.248 326.643 144.248 327.127 144.248H336.455C339.667 144.248 342.087 143.676 344.155 142.356L344.067 139.496C343.891 135.58 341.911 133.512 337.731 133.512H332.935L325.631 144.204ZM353.15 149L351.082 147.9V145.348L353.15 144.248H353.502C355.042 144.248 358.518 143.72 360.278 142.444L360.058 115.824L363.314 114.768L363.974 115.296L364.018 140.508C364.018 142.048 363.842 143.236 363.402 144.292C362.038 147.768 357.286 149 353.546 149H353.15ZM368.63 149.748L368.322 115.824L371.622 114.768L372.282 115.296V148.736L368.63 149.748ZM382.666 160.308C381.434 160.264 379.63 159.868 377.474 159.164L377.122 155.556L377.65 154.984C380.686 155.6 381.566 155.688 382.974 155.732C385.834 155.82 388.034 154.72 390.146 152.212C391.202 150.98 391.862 150.012 392.39 149.088L392.082 147.196L390.586 147.9C387.242 149.528 382.446 150.056 379.146 147.724L378.838 147.46C377.166 146.36 376.594 144.556 376.638 142.18L376.682 139.76C376.814 133.38 380.246 130.256 385.746 130.256H387.374C391.686 130.256 393.622 132.676 394.238 136.24L395.206 141.872C395.558 143.984 395.822 145.876 395.822 147.548C395.822 150.32 394.81 152.96 393.05 155.16C389.926 158.988 386.758 160.66 382.666 160.308ZM380.158 142.928L380.422 143.104C382.798 144.996 386.142 144.732 389.486 143.324L391.29 142.576L389.926 134.656H385.878C381.566 134.656 380.246 136.68 380.202 140.068L380.158 142.928ZM411.026 149.396C407.066 145.92 408.606 141.74 412.434 135.932L414.546 137.252L414.722 137.824C412.698 142.136 411.818 143.94 414.546 146.008V147.064L411.026 149.396ZM419.674 115.824L422.974 114.768L423.634 115.296V137.956C423.634 142.576 425.086 144.248 429.222 144.248H429.442L431.51 145.348V147.9L429.442 149H429.178C422.974 149 419.894 145.92 419.85 139.408L419.674 115.824ZM434.42 161.112L429.844 158.824L432.088 154.292L436.664 156.624L434.42 161.112ZM436.488 158.78L438.732 154.292L443.352 156.624L441.064 161.068L436.488 158.78ZM425.617 147.9V145.348L427.685 144.248H428.785C431.733 144.248 435.253 143.764 437.101 142.444C436.925 139.892 436.485 137.12 436.001 134.348L435.297 130.256L439.125 128.232L440.225 133.82C441.281 139.496 441.281 142.048 440.401 144.248C438.993 147.724 434.241 149 428.785 149H427.685L425.617 147.9ZM445.314 149.748L445.006 115.824L448.306 114.768L448.966 115.296V148.736L445.314 149.748ZM476.911 149C473.963 149 471.279 148.12 469.519 146.008L468.903 147.768L465.691 148.56C457.639 150.54 452.183 148.34 453.239 140.992L453.547 139.1H456.891L456.715 140.948C456.363 144.688 460.587 145.084 465.427 143.94L468.067 143.28C467.759 142.224 467.539 141.08 467.539 139.716L467.363 128.408L471.323 127.22L471.367 139.452C471.367 143.192 473.963 144.248 477.219 144.248H478.099L480.167 145.348V147.9L478.099 149H476.911ZM489.573 160.924C482.709 160.924 478.969 156.392 479.981 149H477.209L475.141 147.9V145.348L477.209 144.248H480.245L482.577 131.224L487.329 127.572L490.893 129.2C495.161 131.136 496.217 133.248 496.789 136.68L497.009 138.176C497.317 139.804 497.229 141.212 496.613 142.488C496.305 143.148 495.909 143.72 495.425 144.248H498.285H502.465L504.533 145.348V147.9L502.465 149H498.417C497.713 149 496.701 148.824 495.865 148.472C497.713 150.892 497.977 155.116 496.657 157.712L496.437 158.196C495.381 160.308 494.061 160.924 491.289 160.924H489.573ZM483.941 148.912C483.237 154.016 485.085 156.436 489.969 156.436H493.181C494.237 154.192 494.017 151.596 492.301 149.792L490.365 147.768C488.649 148.34 486.537 148.736 483.941 148.912ZM484.205 144.38C489.705 144.248 492.477 142.4 493.709 140.42L493.269 138.044C492.873 135.712 491.949 134.612 489.705 133.556L486.141 131.884L484.205 144.38ZM501.595 149L499.527 147.9V145.348L501.595 144.248H501.947C503.487 144.248 506.963 143.72 508.723 142.444L508.503 115.824L511.759 114.768L512.419 115.296L512.463 140.508C512.463 142.048 512.287 143.236 511.847 144.292C510.483 147.768 505.731 149 501.991 149H501.595ZM517.075 149.748L516.767 115.824L520.067 114.768L520.727 115.296V148.736L517.075 149.748ZM531.111 160.308C529.879 160.264 528.075 159.868 525.919 159.164L525.567 155.556L526.095 154.984C529.131 155.6 530.011 155.688 531.419 155.732C534.279 155.82 536.479 154.72 538.591 152.212C539.647 150.98 540.307 150.012 540.835 149.088L540.527 147.196L539.031 147.9C535.687 149.528 530.891 150.056 527.591 147.724L527.283 147.46C525.611 146.36 525.039 144.556 525.083 142.18L525.127 139.76C525.259 133.38 528.691 130.256 534.191 130.256H535.819C540.131 130.256 542.067 132.676 542.683 136.24L543.651 141.872C544.003 143.984 544.267 145.876 544.267 147.548C544.267 150.32 543.255 152.96 541.495 155.16C538.371 158.988 535.203 160.66 531.111 160.308ZM528.603 142.928L528.867 143.104C531.243 144.996 534.587 144.732 537.931 143.324L539.735 142.576L538.371 134.656H534.323C530.011 134.656 528.691 136.68 528.647 140.068L528.603 142.928ZM571.563 129.328L566.987 127.04L569.231 122.552L573.807 124.884L571.563 129.328ZM573.631 127.04L575.875 122.552L580.495 124.884L578.207 129.328L573.631 127.04ZM570.471 149.66C558.679 149.66 555.159 145.656 556.567 137.164L557.491 131.664H560.307L560.835 132.368L560.175 136.768C559.295 142.092 560.351 144.908 570.647 144.908C575.575 144.908 582.791 144.248 586.355 142.488C586.179 139.892 585.783 137.12 585.299 134.348L584.595 130.256L588.423 128.232L589.479 133.82C590.623 139.892 590.931 143.94 588.159 146.096C584.331 149.132 576.015 149.66 570.471 149.66ZM594.395 115.824L597.695 114.768L598.355 115.296V137.956C598.355 142.576 599.807 144.248 603.943 144.248H604.163L606.231 145.348V147.9L604.163 149H603.899C597.695 149 594.615 145.92 594.571 139.408L594.395 115.824ZM601.219 147.9V145.348L603.287 144.248H613.275L615.343 145.348V147.9L613.275 149H603.287L601.219 147.9ZM610.307 147.9V145.348L612.375 144.248H622.363L624.431 145.348V147.9L622.363 149H612.375L610.307 147.9ZM627.319 161.112L622.743 158.824L624.987 154.292L629.563 156.624L627.319 161.112ZM629.387 158.78L631.631 154.292L636.251 156.624L633.963 161.068L629.387 158.78ZM618.516 147.9V145.348L620.584 144.248H621.684C624.632 144.248 628.152 143.764 630 142.444C629.824 139.892 629.384 137.12 628.9 134.348L628.196 130.256L632.024 128.232L633.124 133.82C634.18 139.496 634.18 142.048 633.3 144.248C631.892 147.724 627.14 149 621.684 149H620.584L618.516 147.9ZM661.537 149C658.589 149 655.905 148.12 654.145 146.008L653.529 147.768L650.317 148.56C642.265 150.54 636.809 148.34 637.865 140.992L638.173 139.1H641.517L641.341 140.948C640.989 144.688 645.213 145.084 650.053 143.94L652.693 143.28C652.385 142.224 652.165 141.08 652.165 139.716L651.989 128.408L655.949 127.22L655.993 139.452C655.993 143.192 658.589 144.248 661.845 144.248H662.725L664.793 145.348V147.9L662.725 149H661.537ZM670.14 161.112L665.564 158.824L667.808 154.292L672.384 156.624L670.14 161.112ZM672.208 158.78L674.452 154.292L679.072 156.624L676.784 161.068L672.208 158.78ZM660.956 149L658.888 147.9V145.348L660.956 144.248H661.836C664.696 144.248 667.556 143.764 669.448 142.576C669.36 141.564 669.316 140.464 669.316 139.32V133.116L672.616 132.192L673.232 132.72V139.012C673.232 143.192 675.872 144.248 679.832 144.248H680.976L683.044 145.348V147.9L680.976 149H680.096C676.532 149 673.584 148.208 671.692 146.228L671.384 146.448C669.008 148.164 665.752 149 661.924 149H660.956ZM680.099 149L678.031 147.9V145.348L680.099 144.248H682.739C684.895 144.248 687.843 144.028 690.835 143.236C688.283 140.992 685.687 138.792 683.135 136.592L684.895 129.948L689.559 128.98C692.463 128.364 695.499 127.836 698.007 127.924C701.879 128.1 704.915 130.432 705.311 134.524L705.487 136.328C705.751 138.836 704.915 140.684 702.847 141.96C701.703 142.664 700.779 143.236 699.811 143.764C701.351 144.072 702.847 144.248 704.387 144.248H710.987L713.099 145.348V147.9L710.987 149H704.651C700.559 149 697.567 148.164 694.619 146.404C690.351 148.296 685.951 149 682.519 149H680.099ZM686.215 133.952C689.119 136.504 692.023 139.012 694.971 141.564L701.967 138.396L701.835 136.196C701.659 133.556 699.723 132.412 697.127 132.236C694.663 132.148 692.067 132.72 689.691 133.248L686.215 133.952ZM710.114 149L708.046 147.9V145.348L710.114 144.248H710.466C712.006 144.248 715.482 143.72 717.242 142.444L717.022 115.824L720.278 114.768L720.938 115.296L720.982 140.508C720.982 142.048 720.806 143.236 720.366 144.292C719.002 147.768 714.25 149 710.51 149H710.114ZM725.594 149.748L725.286 115.824L728.586 114.768L729.246 115.296V148.736L725.594 149.748ZM104.717 204C101.769 204 99.0851 203.12 97.3251 201.008L96.7091 202.768L93.4971 203.56C85.4451 205.54 79.9891 203.34 81.0451 195.992L81.3531 194.1H84.6971L84.5211 195.948C84.1691 199.688 88.3931 200.084 93.2331 198.94L95.8731 198.28C95.5651 197.224 95.3451 196.08 95.3451 194.716L95.1691 183.408L99.1291 182.22L99.1731 194.452C99.1731 198.192 101.769 199.248 105.025 199.248H105.905L107.973 200.348V202.9L105.905 204H104.717ZM105.016 204L102.948 202.9V200.348L105.016 199.248H106.996C111.748 199.248 115.268 199.16 119.624 195.596L124.288 191.724L118.436 188.072C116.368 186.796 114.916 186.312 112.276 187.06L108.008 188.248L107.436 187.764V184.288L110.384 183.188C114.52 181.648 115.928 181.428 119.624 183.804L126.224 188.072C127.764 189.04 128.424 189.348 130.316 189.348H132.032L132.428 189.92L131.24 193.88H127.588L124.552 196.74L124.596 196.828C125.344 198.368 126.488 199.248 129.744 199.248H134.848L136.916 200.348V202.9L134.848 204H129.612C125.52 204 123.452 202.548 122.088 199.6L121.912 199.16C117.38 203.12 113.156 204 107.964 204H105.016ZM133.956 204L131.888 202.9V200.348L133.956 199.248H134.748C139.632 199.248 140.996 196.696 142.096 193.836L143.46 190.228C144.692 186.972 146.892 185.388 149.796 185.388H151.556C157.012 185.388 159.652 188.864 160.048 193.176L160.4 197.136C160.708 200.128 159.564 202.372 157.144 203.208L156.396 203.472C151.292 205.276 147.288 204.616 144.296 200.92L143.372 199.776C141.656 202.152 138.928 204 134.528 204H133.956ZM145.396 195.772L146.628 197.268C148.916 200.04 151.864 200.392 155.824 198.896L156.836 198.5L156.396 193.924C156.176 191.372 154.812 189.612 151.336 189.612H147.728L145.396 195.772ZM186.411 218.08C176.467 218.08 172.023 212.756 173.475 203.252L174.443 197.048H177.303L177.831 197.708L177.039 203.164C175.983 210.072 179.195 213.328 186.235 213.328C190.063 213.328 194.287 212.316 197.279 211.128C197.279 210.292 197.279 209.412 197.103 208.532C196.707 206.816 195.607 205.32 192.219 205.32H189.491C185.179 205.32 184.079 202.284 184.387 198.808L184.607 196.344C185.135 190.272 188.875 187.06 195.475 187.06C195.959 187.06 196.399 187.06 196.839 187.104C200.051 187.28 201.943 188.336 202.911 191.284L203.879 194.276C204.935 197.576 205.947 199.248 209.731 199.248C211.931 199.248 213.471 199.028 214.923 198.412V191.108H218.619V195.112C218.619 198.236 220.247 199.248 222.667 199.248C224.383 199.248 225.439 198.94 227.023 198.104C226.715 197.048 226.495 195.904 226.319 194.672L225.219 187.984L228.783 186.048L230.103 194.1C230.851 198.544 233.975 199.248 236.923 199.248H237.539L239.607 200.348V202.9L237.539 204H236.351C233.491 204 230.851 203.164 228.959 201.14C228.651 201.536 228.299 201.888 227.947 202.24C226.627 203.384 224.779 204 222.711 204C220.687 204 218.839 203.296 217.431 202.02C214.923 203.472 212.635 203.956 209.687 204C204.187 204 201.943 201.14 200.623 197.092L198.819 191.548H195.255C190.503 191.548 188.391 193.66 188.083 197.18L187.819 200.7H192.175C198.379 200.7 201.195 204 201.151 209.28C201.151 210.292 201.063 211.172 200.799 212.008C200.227 213.68 199.039 215 196.927 215.968C194.155 217.244 190.195 218.08 186.411 218.08ZM234.607 202.9V200.348L236.675 199.248H243.099C241.911 197.84 241.119 196.036 241.119 193.66V191.768C241.119 188.864 242.263 186.708 244.287 185.256L245.167 184.64C248.423 182.264 251.415 182.308 253.879 184.156L255.947 185.652L254.275 189.216L252.163 187.94C250.535 186.972 248.819 186.884 246.751 188.424L244.859 189.832V192.692C244.859 197.444 248.907 199.204 253.923 197.796L261.051 195.86L261.579 196.388L261.007 200.7L255.683 202.196C251.899 203.208 247.103 204 240.723 204H236.675L234.607 202.9ZM271.11 215.308C269.878 215.264 268.074 214.868 265.918 214.164L265.566 210.556L266.094 209.984C269.13 210.6 270.01 210.688 271.418 210.732C274.278 210.82 276.478 209.72 278.59 207.212C279.646 205.98 280.306 205.012 280.834 204.088L280.526 202.196L279.03 202.9C275.686 204.528 270.89 205.056 267.59 202.724L267.282 202.46C265.61 201.36 265.038 199.556 265.082 197.18L265.126 194.76C265.258 188.38 268.69 185.256 274.19 185.256H275.818C280.13 185.256 282.066 187.676 282.682 191.24L283.65 196.872C284.002 198.984 284.266 200.876 284.266 202.548C284.266 205.32 283.254 207.96 281.494 210.16C278.37 213.988 275.202 215.66 271.11 215.308ZM268.602 197.928L268.866 198.104C271.242 199.996 274.586 199.732 277.93 198.324L279.734 197.576L278.37 189.656H274.322C270.01 189.656 268.69 191.68 268.646 195.068L268.602 197.928ZM299.471 204.396C295.511 200.92 297.051 196.74 300.879 190.932L302.991 192.252L303.167 192.824C301.143 197.136 300.263 198.94 302.991 201.008V202.064L299.471 204.396ZM316.096 176.328L311.52 174.04L313.764 169.552L318.34 171.884L316.096 176.328ZM318.164 174.04L320.408 169.552L325.028 171.884L322.74 176.328L318.164 174.04ZM330.206 204C326.554 204 323.474 202.724 321.89 199.688L321.406 201.008L318.722 201.536C310.626 203.164 306.402 198.984 307.37 191.988L307.546 190.712C308.074 187.104 310.318 184.86 314.278 184.288L320.658 183.32L320.614 181.604L324.574 180.284L324.618 194.364C324.618 198.148 327.126 199.248 330.426 199.248H331.218L333.33 200.348V202.9L331.218 204H330.206ZM310.978 191.768C310.406 195.552 312.606 198.06 318.062 196.916L320.922 196.344C320.834 195.86 320.79 195.288 320.79 194.716L320.702 187.632L311.418 188.908L310.978 191.768ZM336.208 216.112L331.632 213.824L333.876 209.292L338.452 211.624L336.208 216.112ZM338.276 213.78L340.52 209.292L345.14 211.624L342.852 216.068L338.276 213.78ZM327.405 202.9V200.348L329.473 199.248H330.573C333.521 199.248 337.041 198.764 338.889 197.444C338.713 194.892 338.273 192.12 337.789 189.348L337.085 185.256L340.913 183.232L342.013 188.82C343.069 194.496 343.069 197.048 342.189 199.248C340.781 202.724 336.029 204 330.573 204H329.473L327.405 202.9ZM352.95 215.308C351.542 215.264 349.914 214.868 347.758 214.164L347.406 210.556L347.934 209.984C350.97 210.6 351.85 210.688 353.258 210.732C356.118 210.82 358.318 209.72 360.43 207.212C361.486 206.024 362.102 205.144 362.542 204.308L362.454 204H356.074C352.642 204 350.442 203.384 348.946 202.108C347.582 200.964 346.878 199.204 346.922 197.004L346.966 194.76C347.098 188.38 350.53 185.256 356.03 185.256H357.658C361.97 185.256 363.906 187.676 364.522 191.24L365.49 196.872C365.622 197.708 365.754 198.5 365.842 199.248H370.594L372.662 200.348V202.9L370.594 204H366.018C365.71 206.244 364.742 208.4 363.334 210.16C360.21 213.988 357.042 215.66 352.95 215.308ZM350.442 197.796C351.718 198.852 353.126 199.292 355.854 199.292H361.838L360.21 189.656H356.162C351.85 189.656 350.53 191.68 350.486 195.068L350.442 197.796ZM381.064 181.852L376.224 179.432L378.6 174.68L383.44 177.144L381.064 181.852ZM368.813 204L366.745 202.9V200.348L368.813 199.248H369.693C372.553 199.248 375.413 198.764 377.305 197.576C377.217 196.564 377.173 195.464 377.173 194.32V188.116L380.473 187.192L381.089 187.72V194.012C381.089 198.192 383.729 199.248 387.689 199.248H388.833L390.901 200.348V202.9L388.833 204H387.953C384.389 204 381.441 203.208 379.549 201.228L379.241 201.448C376.865 203.164 373.609 204 369.781 204H368.813ZM387.956 204L385.888 202.9V200.348L387.956 199.248H388.924C391.696 199.248 395.084 198.676 395.084 195.068V190.008L398.208 189.348L398.824 189.876L398.868 194.848C398.912 197.356 400.1 199.248 404.368 199.248C406.348 199.248 407.844 199.028 409.252 198.412V191.592H412.948V195.112C412.948 198.236 414.576 199.248 417.04 199.248C418.756 199.248 419.768 198.94 421.396 198.104C421.088 197.048 420.868 195.904 420.648 194.672L419.592 187.984L423.112 186.048L424.476 194.1C425.18 198.544 428.348 199.248 431.296 199.248H431.912L433.98 200.348V202.9L431.912 204H430.724C427.864 204 425.224 203.164 423.332 201.14C423.068 201.492 422.76 201.844 422.408 202.196C421.088 203.384 419.196 204 416.908 204C414.928 204 413.212 203.34 411.76 202.02C409.296 203.472 407.052 204 404.104 204C400.628 204 398.252 202.812 396.844 200.876C394.864 203.12 391.916 204 388.924 204H387.956ZM431.033 204L428.965 202.9V200.348L431.033 199.248H431.385C432.925 199.248 436.401 198.72 438.161 197.444L437.941 170.824L441.197 169.768L441.857 170.296L441.901 195.508C441.901 197.048 441.725 198.236 441.285 199.292C439.921 202.768 435.169 204 431.429 204H431.033ZM446.514 204.748L446.206 170.824L449.506 169.768L450.166 170.296V203.736L446.514 204.748ZM493.28 204C489.716 204 487.208 202.768 485.668 200.92L484.92 203.076L483.644 203.516C476.912 205.716 471.016 203.692 469.52 198.72C468.508 199.028 467.54 199.38 466.528 199.688L467.232 215.352L463.712 217.156L463.096 216.716L463.008 202.856C463.008 200.304 463.624 198.368 464.9 196.872C466 195.552 467.452 194.628 469.344 193.968C469.476 193.308 469.652 192.604 469.916 191.856L470.62 189.744C471.544 186.972 473.744 185.388 476.56 185.388H479.024C484.348 185.388 486.152 189.04 486.768 192.472L487.208 195.068C487.824 198.148 489.76 199.248 493.28 199.248H494.028L496.096 200.348V202.9L494.028 204H493.28ZM473.26 193.044C471.368 199.292 477.528 200.92 483.028 198.94L484.348 198.544C484.172 198.104 484.084 197.708 483.996 197.268L483.468 194.628C482.94 191.68 482.148 189.612 477.924 189.612H474.36L473.26 193.044ZM505.534 215.924C498.67 215.924 494.93 211.392 495.942 204H493.17L491.102 202.9V200.348L493.17 199.248H496.206L498.538 186.224L503.29 182.572L506.854 184.2C511.122 186.136 512.178 188.248 512.75 191.68L512.97 193.176C513.278 194.804 513.19 196.212 512.574 197.488C512.266 198.148 511.87 198.72 511.386 199.248H514.246H518.426L520.494 200.348V202.9L518.426 204H514.378C513.674 204 512.662 203.824 511.826 203.472C513.674 205.892 513.938 210.116 512.618 212.712L512.398 213.196C511.342 215.308 510.022 215.924 507.25 215.924H505.534ZM499.902 203.912C499.198 209.016 501.046 211.436 505.93 211.436H509.142C510.198 209.192 509.978 206.596 508.262 204.792L506.326 202.768C504.61 203.34 502.498 203.736 499.902 203.912ZM500.166 199.38C505.666 199.248 508.438 197.4 509.67 195.42L509.23 193.044C508.834 190.712 507.91 189.612 505.666 188.556L502.102 186.884L500.166 199.38ZM524.141 178.328L519.565 176.04L521.809 171.552L526.385 173.884L524.141 178.328ZM526.209 176.04L528.453 171.552L533.073 173.884L530.785 178.328L526.209 176.04ZM514.607 202.9V200.348L516.675 199.248H517.775C520.723 199.248 524.243 198.764 526.091 197.444C525.915 194.892 525.475 192.12 524.991 189.348L524.287 185.256L528.115 183.232L529.215 188.82C530.271 194.496 530.271 197.048 529.391 199.248C527.983 202.724 523.231 204 517.775 204H516.675L514.607 202.9ZM540.153 215.308C538.921 215.264 537.117 214.868 534.961 214.164L534.609 210.556L535.137 209.984C538.173 210.6 539.053 210.688 540.461 210.732C543.321 210.82 545.521 209.72 547.633 207.212C548.689 205.98 549.349 205.012 549.877 204.088L549.569 202.196L548.073 202.9C544.729 204.528 539.933 205.056 536.633 202.724L536.325 202.46C534.653 201.36 534.081 199.556 534.125 197.18L534.169 194.76C534.301 188.38 537.733 185.256 543.233 185.256H544.861C549.173 185.256 551.109 187.676 551.725 191.24L552.693 196.872C553.045 198.984 553.309 200.876 553.309 202.548C553.309 205.32 552.297 207.96 550.537 210.16C547.413 213.988 544.245 215.66 540.153 215.308ZM537.645 197.928L537.909 198.104C540.285 199.996 543.629 199.732 546.973 198.324L548.777 197.576L547.413 189.656H543.365C539.053 189.656 537.733 191.68 537.689 195.068L537.645 197.928ZM556.035 215.44C554.671 215.44 553.747 215.22 552.295 214.824L551.371 214.56L550.975 210.908L551.547 210.38L552.295 210.468C553.527 210.688 554.187 210.776 555.199 210.776C557.267 210.864 558.939 210.116 560.831 208.048C561.931 206.772 562.723 205.32 563.251 203.912C562.635 199.996 561.667 194.892 560.655 189.656L564.307 187.588C564.835 190.14 565.319 192.34 565.627 194.232C566.639 198.676 569.587 199.248 572.403 199.248H572.843L574.955 200.348V202.9L572.843 204H572.447C570.379 204 568.399 203.516 566.771 202.372C566.771 204.484 566.375 207.3 563.867 210.908C561.887 213.768 558.851 215.44 556.035 215.44ZM578.806 177.344L574.67 175.276L576.694 171.228L580.83 173.34L578.806 177.344ZM576.782 169.732L578.762 165.86L582.722 167.884L580.742 171.756L576.782 169.732ZM580.654 175.276L582.722 171.228L586.814 173.34L584.79 177.344L580.654 175.276ZM569.009 202.9V200.348L571.077 199.248H572.177C575.125 199.248 578.645 198.764 580.493 197.444C580.317 194.892 579.877 192.12 579.393 189.348L578.689 185.256L582.517 183.232L583.617 188.82C584.673 194.496 584.673 197.048 583.793 199.248C582.385 202.724 577.633 204 572.177 204H571.077L569.009 202.9ZM611.669 191.852L606.829 189.432L609.205 184.68L614.045 187.144L611.669 191.852ZM609.858 215.836C600.046 215.836 594.898 211.304 596.394 201.36L597.362 194.848H600.354L600.838 195.508L600.002 201.052C598.858 208.532 602.378 211.084 609.946 211.084C614.742 211.084 618.614 210.072 621.606 208.84C621.43 203.12 620.55 197.884 618.79 189.656L622.53 187.808C624.422 196.564 625.478 202.196 625.434 206.42C625.39 209.412 624.554 212.096 621.166 213.68C617.91 215.22 614.038 215.836 609.858 215.836ZM636.388 215.308C634.98 215.264 633.352 214.868 631.196 214.164L630.844 210.556L631.372 209.984C634.408 210.6 635.288 210.688 636.696 210.732C639.556 210.82 641.756 209.72 643.868 207.212C644.924 206.024 645.54 205.144 645.98 204.308L645.892 204H639.512C636.08 204 633.88 203.384 632.384 202.108C631.02 200.964 630.316 199.204 630.36 197.004L630.404 194.76C630.536 188.38 633.968 185.256 639.468 185.256H641.096C645.408 185.256 647.344 187.676 647.96 191.24L648.928 196.872C649.06 197.708 649.192 198.5 649.28 199.248H654.032L656.1 200.348V202.9L654.032 204H649.456C649.148 206.244 648.18 208.4 646.772 210.16C643.648 213.988 640.48 215.66 636.388 215.308ZM633.88 197.796C635.156 198.852 636.564 199.292 639.292 199.292H645.276L643.648 189.656H639.6C635.288 189.656 633.968 191.68 633.924 195.068L633.88 197.796ZM653.13 204L651.062 202.9V200.348L653.13 199.248H655.77C657.926 199.248 660.874 199.028 663.866 198.236C661.314 195.992 658.718 193.792 656.166 191.592L657.926 184.948L662.59 183.98C665.494 183.364 668.53 182.836 671.038 182.924C674.91 183.1 677.946 185.432 678.342 189.524L678.518 191.328C678.782 193.836 677.946 195.684 675.878 196.96C674.734 197.664 673.81 198.236 672.842 198.764C674.382 199.072 675.878 199.248 677.418 199.248H684.018L686.13 200.348V202.9L684.018 204H677.682C673.59 204 670.598 203.164 667.65 201.404C663.382 203.296 658.982 204 655.55 204H653.13ZM659.246 188.952C662.15 191.504 665.054 194.012 668.002 196.564L674.998 193.396L674.866 191.196C674.69 188.556 672.754 187.412 670.158 187.236C667.694 187.148 665.098 187.72 662.722 188.248L659.246 188.952ZM683.145 204L681.077 202.9V200.348L683.145 199.248H683.937C686.005 199.248 688.689 198.764 690.537 197.576C690.229 195.948 690.405 194.056 691.153 191.856L691.901 189.744C692.781 186.972 694.981 185.388 697.841 185.388H700.393C705.717 185.388 707.565 189.04 708.137 192.472L708.621 195.068C709.193 198.148 711.173 199.248 714.649 199.248H715.397L717.509 200.348V202.9L715.397 204H714.649C711.085 204 708.577 202.724 707.037 200.876L706.289 203.076L705.013 203.516C699.733 205.276 694.673 204.396 692.209 201.448C690.009 203.164 686.973 204 683.893 204H683.145ZM694.541 193.044C692.649 199.292 698.897 200.964 704.441 198.94L705.761 198.456C705.585 197.928 705.365 197.4 705.277 196.828L704.881 194.628C704.353 191.68 703.517 189.612 699.337 189.612H695.597L694.541 193.044ZM726.421 215.968L721.581 213.548L723.957 208.796L728.797 211.26L726.421 215.968ZM713.654 204L711.586 202.9V200.348L713.654 199.248H715.634C720.386 199.248 723.906 199.16 728.262 195.596L732.926 191.724L727.074 188.072C725.006 186.796 723.554 186.312 720.914 187.06L716.646 188.248L716.074 187.764V184.288L719.022 183.188C723.158 181.648 724.566 181.428 728.262 183.804L734.862 188.072C736.402 189.04 737.062 189.348 738.954 189.348H740.67L741.066 189.92L739.878 193.88H736.226L733.19 196.74L733.234 196.828C733.982 198.368 735.126 199.248 738.382 199.248H743.486L745.554 200.348V202.9L743.486 204H738.25C734.158 204 732.09 202.548 730.726 199.6L730.55 199.16C726.018 203.12 721.794 204 716.602 204H713.654ZM748.45 216.112L743.874 213.824L746.118 209.292L750.694 211.624L748.45 216.112ZM750.518 213.78L752.762 209.292L757.382 211.624L755.094 216.068L750.518 213.78ZM739.647 202.9V200.348L741.715 199.248H742.815C745.763 199.248 749.283 198.764 751.131 197.444C750.955 194.892 750.515 192.12 750.031 189.348L749.327 185.256L753.155 183.232L754.255 188.82C755.311 194.496 755.311 197.048 754.431 199.248C753.023 202.724 748.271 204 742.815 204H741.715L739.647 202.9ZM116.919 243.852L112.079 241.432L114.455 236.68L119.295 239.144L116.919 243.852ZM137.765 271.112L133.189 268.824L135.433 264.292L140.009 266.624L137.765 271.112ZM139.833 268.78L142.077 264.292L146.697 266.624L144.409 271.068L139.833 268.78ZM99.3389 256.36L100.307 249.848H103.255L103.783 250.508L102.903 256.052C101.759 263.532 104.971 266.084 112.715 266.084C117.115 266.084 121.031 265.072 123.979 263.84C123.759 258.384 123.187 254.336 121.955 248.264L123.187 246.196C124.287 244.348 125.035 243.776 127.455 243.512L140.743 242.06L141.447 242.72V248.66C141.447 252.62 142.943 254.248 146.639 254.248H147.475L149.543 255.348V257.9L147.475 259H146.771C141.051 259 137.839 255.92 137.751 250.112L137.663 247.032L126.091 248.352C127.103 253.148 127.851 257.372 127.851 261.42C127.807 264.412 126.971 267.096 123.583 268.68C120.283 270.22 116.455 270.836 112.627 270.836C102.991 270.836 97.7989 266.304 99.3389 256.36ZM146.607 259L144.539 257.9V255.348L146.607 254.248H146.959C148.499 254.248 151.975 253.72 153.735 252.444L153.515 225.824L156.771 224.768L157.431 225.296L157.475 250.508C157.475 252.048 157.299 253.236 156.859 254.292C155.495 257.768 150.743 259 147.003 259H146.607ZM172.685 259.396C168.725 255.92 170.265 251.74 174.093 245.932L176.205 247.252L176.381 247.824C174.357 252.136 173.477 253.94 176.205 256.008V257.064L172.685 259.396ZM202.593 236.344L198.457 234.276L200.481 230.228L204.617 232.34L202.593 236.344ZM200.569 228.732L202.549 224.86L206.509 226.884L204.529 230.756L200.569 228.732ZM204.441 234.276L206.509 230.228L210.601 232.34L208.577 236.344L204.441 234.276ZM181.024 270.44C179.66 270.44 178.78 270.22 177.284 269.824L176.404 269.56L176.008 265.908L176.536 265.38L177.724 265.512C178.912 265.732 179.572 265.776 180.54 265.776C182.432 265.776 184.06 265.116 185.864 263.048C186.92 261.772 187.712 260.364 188.24 258.912C187.8 255.964 187.096 251.916 186.392 248.22L187.58 246.196C188.68 244.348 189.472 243.776 191.892 243.512L205.18 242.06L205.884 242.72V248.66C205.884 252.62 207.336 254.248 211.032 254.248H211.868L213.936 255.348V257.9L211.868 259H211.164C205.488 259 202.276 255.92 202.144 250.112L202.1 247.032L190.528 248.352C191.364 252.928 191.804 256.228 191.804 257.284C191.804 259.396 191.452 262.256 188.9 265.908C186.92 268.812 183.708 270.44 181.024 270.44ZM211 259L208.932 257.9V255.348L211 254.248H216.72C219.36 254.248 222.924 253.72 224.728 252.488L223.276 248.88C222.308 246.548 221.076 245.272 217.776 243.6L211.044 240.344L211.704 232.908L227.368 227.98L228.028 228.508L227.632 232.556L213.948 236.868L219.58 239.64C223.848 241.708 225.52 243.732 226.62 246.46L227.236 247.956C227.676 249.056 228.248 250.552 228.248 252.092C228.248 253.72 227.632 255.392 225.784 256.712C223.628 258.208 220.416 259 216.632 259H211ZM230.158 226.812V224.656L232.71 224.172C232.05 223.556 231.83 222.72 231.83 221.884V221.576C231.83 219.86 232.27 219.068 233.414 218.232L233.634 218.056C235.13 216.956 236.362 217.176 237.682 217.968L238.298 218.364L237.506 220.124L236.802 219.728C235.966 219.244 235.218 219.156 234.118 220.124L233.502 220.608V221.488C233.502 222.764 234.514 223.776 236.714 223.38L239.926 222.764V224.92L230.158 226.812ZM232.604 259.748L232.296 231.104L235.596 230.048L236.256 230.576V258.736L232.604 259.748ZM266.435 272.772C255.655 274.092 249.451 269.912 249.539 262.696C249.539 257.9 251.827 254.776 256.623 252.004C254.159 249.848 251.651 247.78 249.187 245.624L250.991 238.98L255.655 238.056C258.515 237.44 261.595 236.824 264.103 236.956C267.931 237.176 270.967 239.508 271.363 243.556L271.539 245.36C271.847 247.912 271.011 249.716 268.943 250.992C267.491 251.916 266.435 252.532 265.247 253.192C267.095 253.896 269.295 254.248 271.319 254.248H276.951L279.063 255.348V257.9L276.951 259H271.803C267.315 259 263.443 257.944 259.967 255.304C259.351 255.568 258.779 255.876 258.207 256.14C255.215 257.636 253.059 259.792 252.355 262.784C254.115 267.096 258.207 269.164 266.523 268.108L273.035 267.316L273.475 267.844L272.067 272.068L266.435 272.772ZM252.311 242.984L261.023 250.64L268.019 247.472L267.887 245.272C267.711 242.632 265.819 241.4 263.179 241.312C260.759 241.18 258.119 241.796 255.743 242.28L252.311 242.984ZM276.08 259L274.012 257.9V255.348L276.08 254.248H276.872C278.94 254.248 281.624 253.764 283.472 252.576C283.164 250.948 283.34 249.056 284.088 246.856L284.836 244.744C285.716 241.972 287.916 240.388 290.776 240.388H293.328C298.652 240.388 300.5 244.04 301.072 247.472L301.556 250.068C302.128 253.148 304.108 254.248 307.584 254.248H308.332L310.444 255.348V257.9L308.332 259H307.584C304.02 259 301.512 257.724 299.972 255.876L299.224 258.076L297.948 258.516C292.668 260.276 287.608 259.396 285.144 256.448C282.944 258.164 279.908 259 276.828 259H276.08ZM287.476 248.044C285.584 254.292 291.832 255.964 297.376 253.94L298.696 253.456C298.52 252.928 298.3 252.4 298.212 251.828L297.816 249.628C297.288 246.68 296.452 244.612 292.272 244.612H288.532L287.476 248.044ZM319.357 270.968L314.517 268.548L316.893 263.796L321.733 266.26L319.357 270.968ZM306.59 259L304.522 257.9V255.348L306.59 254.248H308.57C313.322 254.248 316.842 254.16 321.198 250.596L325.862 246.724L320.01 243.072C317.942 241.796 316.49 241.312 313.85 242.06L309.582 243.248L309.01 242.764V239.288L311.958 238.188C316.094 236.648 317.502 236.428 321.198 238.804L327.798 243.072C329.338 244.04 329.998 244.348 331.89 244.348H333.606L334.002 244.92L332.814 248.88H329.162L326.126 251.74L326.17 251.828C326.918 253.368 328.062 254.248 331.318 254.248H336.422L338.49 255.348V257.9L336.422 259H331.186C327.094 259 325.026 257.548 323.662 254.6L323.486 254.16C318.954 258.12 314.73 259 309.538 259H306.59ZM341.385 271.112L336.809 268.824L339.053 264.292L343.629 266.624L341.385 271.112ZM343.453 268.78L345.697 264.292L350.317 266.624L348.029 271.068L343.453 268.78ZM332.582 257.9V255.348L334.65 254.248H335.75C338.698 254.248 342.218 253.764 344.066 252.444C343.89 249.892 343.45 247.12 342.966 244.348L342.262 240.256L346.09 238.232L347.19 243.82C348.246 249.496 348.246 252.048 347.366 254.248C345.958 257.724 341.206 259 335.75 259H334.65L332.582 257.9ZM373.034 285.112L368.458 282.824L370.702 278.292L375.278 280.624L373.034 285.112ZM375.102 282.78L377.346 278.292L381.966 280.624L379.678 285.068L375.102 282.78ZM391.893 278.968L387.053 276.548L389.429 271.796L394.269 274.26L391.893 278.968ZM372.683 273.08C362.871 273.08 357.679 268.372 359.175 258.516L360.143 252.048H363.047L363.575 252.708L362.739 258.384C361.551 265.952 365.687 268.328 372.859 268.328C376.687 268.328 380.735 267.36 383.727 266.128C383.727 265.292 383.771 264.324 383.507 263.444C383.111 261.772 382.055 260.32 378.711 260.32H375.235C370.923 260.32 369.867 257.284 370.131 254.38L370.395 251.344C370.879 245.536 374.355 242.324 380.471 242.104C380.779 242.06 381.131 242.06 381.439 242.06C385.355 242.06 387.599 242.984 388.655 246.284L389.667 249.276C390.723 252.576 391.691 254.248 395.607 254.248H396.619L398.687 255.348V257.9L396.619 259H395.563C389.931 259 387.731 256.14 386.367 252.092L384.563 246.548H380.779C376.247 246.548 374.179 248.66 373.871 252.18L373.607 255.7H378.667C384.343 255.7 387.159 258.516 387.599 263.048C387.643 263.4 387.643 263.84 387.643 264.236C387.643 267.228 386.587 269.516 383.419 270.968C380.603 272.244 376.775 273.08 372.683 273.08ZM401.59 271.112L397.014 268.824L399.258 264.292L403.834 266.624L401.59 271.112ZM403.658 268.78L405.902 264.292L410.522 266.624L408.234 271.068L403.658 268.78ZM392.787 257.9V255.348L394.855 254.248H395.955C398.903 254.248 402.423 253.764 404.271 252.444C404.095 249.892 403.655 247.12 403.171 244.348L402.467 240.256L406.295 238.232L407.395 243.82C408.451 249.496 408.451 252.048 407.571 254.248C406.163 257.724 401.411 259 395.955 259H394.855L392.787 257.9ZM428.37 277.444V275.288L438.138 273.396V275.552L428.37 277.444ZM428.37 282.064V279.908L438.138 278.016V280.172L428.37 282.064ZM432.535 270.836C423.427 270.836 418.851 265.556 420.347 256.096L421.403 249.496H424.263L424.791 250.2L423.867 256.184C422.767 263.224 426.199 266.128 432.667 266.128C435.439 266.128 438.695 265.424 441.071 263.884L440.631 225.824L443.887 224.768L444.547 225.296V247.164C444.547 252.532 446.219 254.248 452.203 254.248C456.295 254.248 459.815 253.72 461.663 252.488L460.167 248.88C459.243 246.548 458.011 245.228 454.667 243.6L447.979 240.344L448.639 232.908L464.303 227.98L464.963 228.508L464.567 232.556L450.883 236.868L456.515 239.64C460.783 241.664 462.411 243.732 463.555 246.46L464.171 247.956C465.579 251.432 465.799 254.512 462.719 256.712C460.563 258.208 457.351 259 452.291 259C448.859 259 446.263 258.252 444.547 256.756V261.948C444.547 264.984 443.755 267.316 440.939 268.856C438.431 270.308 434.735 270.836 432.535 270.836ZM481.218 259C479.458 259 478.05 257.592 478.05 255.832C478.05 254.072 479.458 252.664 481.218 252.664C482.978 252.664 484.386 254.072 484.386 255.832C484.386 257.592 482.978 259 481.218 259ZM492.498 259C490.738 259 489.33 257.592 489.33 255.832C489.33 254.072 490.738 252.664 492.498 252.664C494.258 252.664 495.666 254.072 495.666 255.832C495.666 257.592 494.258 259 492.498 259ZM512.456 285.112L507.88 282.824L510.124 278.292L514.7 280.624L512.456 285.112ZM514.524 282.78L516.768 278.292L521.388 280.624L519.1 285.068L514.524 282.78ZM541.187 237.344L537.051 235.276L539.075 231.228L543.211 233.34L541.187 237.344ZM539.163 229.732L541.143 225.86L545.103 227.884L543.123 231.756L539.163 229.732ZM543.035 235.276L545.103 231.228L549.195 233.34L547.171 237.344L543.035 235.276ZM512.094 273.08C502.15 273.08 497.706 267.756 499.158 258.252L500.126 252.048H502.986L503.514 252.708L502.722 258.164C501.666 265.072 504.878 268.328 511.918 268.328C515.746 268.328 519.97 267.316 522.962 266.128C522.962 265.292 522.962 264.412 522.786 263.532C522.39 261.816 521.29 260.32 517.902 260.32H515.174C510.862 260.32 509.762 257.284 510.07 253.808L510.29 251.344C510.818 245.272 514.558 242.06 521.158 242.06C521.642 242.06 522.082 242.06 522.522 242.104C525.734 242.28 527.626 243.336 528.594 246.284L529.562 249.276C530.618 252.576 531.63 254.248 535.414 254.248C537.614 254.248 539.154 254.028 540.606 253.412V246.108H544.302V250.112C544.302 253.236 545.93 254.248 548.35 254.248C549.846 254.248 551.166 253.984 552.354 253.324C552.09 250.464 551.606 247.736 551.122 244.7L550.594 241.532L554.246 239.332L555.214 244.172C555.786 247.296 556.138 250.156 556.138 251.564C556.138 253.324 555.742 254.82 554.994 255.964C553.63 257.988 551.386 259 548.438 259C546.458 259 544.522 258.296 543.114 257.02C540.606 258.472 538.318 258.956 535.37 259C529.87 259 527.626 256.14 526.306 252.092L524.502 246.548H520.938C516.186 246.548 514.074 248.66 513.766 252.18L513.502 255.7H517.858C524.062 255.7 526.878 259 526.834 264.28C526.834 265.292 526.746 266.172 526.482 267.008C525.91 268.68 524.722 270 522.61 270.968C519.838 272.244 515.878 273.08 512.094 273.08ZM568.977 225.824L572.277 224.768L572.937 225.296V247.956C572.937 252.576 574.389 254.248 578.525 254.248H578.745L580.813 255.348V257.9L578.745 259H578.481C572.277 259 569.197 255.92 569.153 249.408L568.977 225.824ZM590.233 270.924C583.369 270.924 579.629 266.392 580.641 259H577.869L575.801 257.9V255.348L577.869 254.248H580.905L583.237 241.224L587.989 237.572L591.553 239.2C595.821 241.136 596.877 243.248 597.449 246.68L597.669 248.176C597.977 249.804 597.889 251.212 597.273 252.488C596.965 253.148 596.569 253.72 596.085 254.248H598.945H603.125L605.193 255.348V257.9L603.125 259H599.077C598.373 259 597.361 258.824 596.525 258.472C598.373 260.892 598.637 265.116 597.317 267.712L597.097 268.196C596.041 270.308 594.721 270.924 591.949 270.924H590.233ZM584.601 258.912C583.897 264.016 585.745 266.436 590.629 266.436H593.841C594.897 264.192 594.677 261.596 592.961 259.792L591.025 257.768C589.309 258.34 587.197 258.736 584.601 258.912ZM584.865 254.38C590.365 254.248 593.137 252.4 594.369 250.42L593.929 248.044C593.533 245.712 592.609 244.612 590.365 243.556L586.801 241.884L584.865 254.38ZM613.626 236.852L608.786 234.432L611.162 229.68L616.002 232.144L613.626 236.852ZM601.374 259L599.306 257.9V255.348L601.374 254.248H602.254C605.114 254.248 607.974 253.764 609.866 252.576C609.778 251.564 609.734 250.464 609.734 249.32V243.116L613.034 242.192L613.65 242.72V249.012C613.65 253.192 616.29 254.248 620.25 254.248H621.394L623.462 255.348V257.9L621.394 259H620.514C616.95 259 614.002 258.208 612.11 256.228L611.802 256.448C609.426 258.164 606.17 259 602.342 259H601.374ZM620.518 259L618.45 257.9V255.348L620.518 254.248H621.31C626.194 254.248 627.558 251.696 628.658 248.836L630.022 245.228C631.254 241.972 633.454 240.388 636.358 240.388H638.118C643.574 240.388 646.214 243.864 646.61 248.176L646.962 252.136C647.27 255.128 646.126 257.372 643.706 258.208L642.958 258.472C637.854 260.276 633.85 259.616 630.858 255.92L629.934 254.776C628.218 257.152 625.49 259 621.09 259H620.518ZM631.958 250.772L633.19 252.268C635.478 255.04 638.426 255.392 642.386 253.896L643.398 253.5L642.958 248.924C642.738 246.372 641.374 244.612 637.898 244.612H634.29L631.958 250.772ZM676.235 231.852L671.395 229.432L673.771 224.68L678.611 227.144L676.235 231.852ZM682.785 259C679.837 259 677.153 258.12 675.393 256.008L674.777 257.768L671.565 258.56C663.513 260.54 658.057 258.34 659.113 250.992L659.421 249.1H662.765L662.589 250.948C662.237 254.688 666.461 255.084 671.301 253.94L673.941 253.28C673.633 252.224 673.413 251.08 673.413 249.716L673.237 238.408L677.197 237.22L677.241 249.452C677.241 253.192 679.837 254.248 683.093 254.248H683.973L686.041 255.348V257.9L683.973 259H682.785ZM694.627 232.852L689.787 230.432L692.163 225.68L697.003 228.144L694.627 232.852ZM682.204 259L680.136 257.9V255.348L682.204 254.248H684.184C688.936 254.248 692.456 254.16 696.812 250.596L701.52 246.68L695.624 243.072C693.556 241.796 692.104 241.312 689.464 242.06L685.196 243.248L684.624 242.764V239.288L687.572 238.188C691.708 236.648 693.116 236.428 696.812 238.804L703.412 243.072C704.952 244.04 705.612 244.348 707.504 244.348H709.22L709.616 244.92L708.428 248.88H704.776L699.628 253.676C694.92 258.032 690.564 259 685.152 259H682.204ZM711.159 226.812V224.656L713.711 224.172C713.051 223.556 712.831 222.72 712.831 221.884V221.576C712.831 219.86 713.271 219.068 714.415 218.232L714.635 218.056C716.131 216.956 717.363 217.176 718.683 217.968L719.299 218.364L718.507 220.124L717.803 219.728C716.967 219.244 716.219 219.156 715.119 220.124L714.503 220.608V221.488C714.503 222.764 715.515 223.776 717.715 223.38L720.927 222.764V224.92L711.159 226.812ZM713.297 231.104L716.597 230.048L717.257 230.576V247.956C717.257 252.576 718.709 254.248 722.845 254.248H723.065L725.133 255.348V257.9L723.065 259H722.801C716.597 259 713.517 255.92 713.473 249.408L713.297 231.104ZM728.044 271.112L723.468 268.824L725.712 264.292L730.288 266.624L728.044 271.112ZM730.112 268.78L732.356 264.292L736.976 266.624L734.688 271.068L730.112 268.78ZM719.241 257.9V255.348L721.309 254.248H722.409C725.357 254.248 728.877 253.764 730.725 252.444C730.549 249.892 730.109 247.12 729.625 244.348L728.921 240.256L732.749 238.232L733.849 243.82C734.905 249.496 734.905 252.048 734.025 254.248C732.617 257.724 727.865 259 722.409 259H721.309L719.241 257.9ZM189.209 314C185.645 314 183.137 312.768 181.597 310.92L180.849 313.076L179.573 313.516C172.841 315.716 166.945 313.692 165.449 308.72C164.437 309.028 163.469 309.38 162.457 309.688L163.161 325.352L159.641 327.156L159.025 326.716L158.937 312.856C158.937 310.304 159.553 308.368 160.829 306.872C161.929 305.552 163.381 304.628 165.273 303.968C165.405 303.308 165.581 302.604 165.845 301.856L166.549 299.744C167.473 296.972 169.673 295.388 172.489 295.388H174.953C180.277 295.388 182.081 299.04 182.697 302.472L183.137 305.068C183.753 308.148 185.689 309.248 189.209 309.248H189.957L192.025 310.348V312.9L189.957 314H189.209ZM169.189 303.044C167.297 309.292 173.457 310.92 178.957 308.94L180.277 308.544C180.101 308.104 180.013 307.708 179.925 307.268L179.397 304.628C178.869 301.68 178.077 299.612 173.853 299.612H170.289L169.189 303.044ZM201.462 325.924C194.598 325.924 190.858 321.392 191.87 314H189.098L187.03 312.9V310.348L189.098 309.248H192.134L194.466 296.224L199.218 292.572L202.782 294.2C207.05 296.136 208.106 298.248 208.678 301.68L208.898 303.176C209.206 304.804 209.118 306.212 208.502 307.488C208.194 308.148 207.798 308.72 207.314 309.248H210.174H214.354L216.422 310.348V312.9L214.354 314H210.306C209.602 314 208.59 313.824 207.754 313.472C209.602 315.892 209.866 320.116 208.546 322.712L208.326 323.196C207.27 325.308 205.95 325.924 203.178 325.924H201.462ZM195.83 313.912C195.126 319.016 196.974 321.436 201.858 321.436H205.07C206.126 319.192 205.906 316.596 204.19 314.792L202.254 312.768C200.538 313.34 198.426 313.736 195.83 313.912ZM196.094 309.38C201.594 309.248 204.366 307.4 205.598 305.42L205.158 303.044C204.762 300.712 203.838 299.612 201.594 298.556L198.03 296.884L196.094 309.38ZM221.788 326.112L217.212 323.824L219.456 319.292L224.032 321.624L221.788 326.112ZM223.856 323.78L226.1 319.292L230.72 321.624L228.432 326.068L223.856 323.78ZM212.604 314L210.536 312.9V310.348L212.604 309.248H213.484C216.344 309.248 219.204 308.764 221.096 307.576C221.008 306.564 220.964 305.464 220.964 304.32V298.116L224.264 297.192L224.88 297.72V304.012C224.88 308.192 227.52 309.248 231.48 309.248H232.624L234.692 310.348V312.9L232.624 314H231.744C228.18 314 225.232 313.208 223.34 311.228L223.032 311.448C220.656 313.164 217.4 314 213.572 314H212.604ZM231.747 314L229.679 312.9V310.348L231.747 309.248H232.099C233.639 309.248 237.115 308.72 238.875 307.444L238.655 280.824L241.911 279.768L242.571 280.296L242.615 305.508C242.615 307.048 242.439 308.236 241.999 309.292C240.635 312.768 235.883 314 232.143 314H231.747ZM246.919 280.824L250.219 279.768L250.879 280.296V302.956C250.879 307.576 252.331 309.248 256.467 309.248H256.687L258.755 310.348V312.9L256.687 314H256.423C250.219 314 247.139 310.92 247.095 304.408L246.919 280.824ZM274.071 313.208C272.267 312.944 270.463 312.724 268.835 312.284C266.063 313.472 262.807 314 259.683 314H255.811L253.743 312.9V310.348L255.811 309.248H259.243C260.255 309.248 261.883 309.248 263.247 309.116C261.355 307.444 260.035 304.54 261.531 300.096L263.071 295.52L260.431 294.948L260.211 294.2L262.191 290.724L278.867 294.332C285.555 295.74 288.063 299.92 288.239 304.54L288.503 309.864L284.587 314.748L274.071 313.208ZM265.227 300.448C263.775 305.068 266.239 307.18 269.935 307.884C271.783 306.212 273.147 304.364 274.335 302.428C274.247 301.9 274.115 301.372 273.983 300.888C273.499 298.864 271.915 297.412 269.363 296.84C268.439 296.664 267.471 296.444 266.547 296.224L265.227 300.448ZM274.687 308.588L284.631 309.996L284.411 305.244C284.235 302.208 282.651 299.788 279.087 298.996L276.799 298.468C276.887 299.04 276.975 299.524 277.019 300.008C277.371 302.076 277.195 303.44 276.359 305.332C275.875 306.344 275.347 307.356 274.687 308.588ZM290.395 281.812V279.656L292.947 279.172C292.287 278.556 292.067 277.72 292.067 276.884V276.576C292.067 274.86 292.507 274.068 293.651 273.232L293.871 273.056C295.367 271.956 296.599 272.176 297.919 272.968L298.535 273.364L297.743 275.124L297.039 274.728C296.203 274.244 295.455 274.156 294.355 275.124L293.739 275.608V276.488C293.739 277.764 294.751 278.776 296.951 278.38L300.163 277.764V279.92L290.395 281.812ZM292.841 314.748L292.533 286.104L295.833 285.048L296.493 285.576V313.736L292.841 314.748ZM323.819 301.852L318.979 299.432L321.355 294.68L326.195 297.144L323.819 301.852ZM321.964 325.836C312.196 325.836 307.004 321.348 308.544 311.096L309.512 304.848H312.46L312.944 305.508L312.152 310.788C310.92 318.796 314.792 321.084 322.096 321.084C326.848 321.084 330.764 320.072 333.712 318.84C333.58 315.452 333.272 312.768 332.964 310.832C332.436 307.18 331.952 303.572 331.38 299.964L335.164 298.028C335.296 299.084 335.472 300.14 335.604 301.196L336.132 304.936C336.616 308.412 339.652 309.248 342.38 309.248H343.128L345.24 310.348V312.9L343.128 314H342.82C340.576 314 338.728 313.56 337.232 312.636C337.936 317.608 337.672 321.612 333.272 323.68C330.016 325.22 326.188 325.836 321.964 325.836ZM342.227 314L340.159 312.9V310.348L342.227 309.248H343.019C347.903 309.248 349.267 306.696 350.367 303.836L351.731 300.228C352.963 296.972 355.163 295.388 358.067 295.388H359.827C365.283 295.388 367.923 298.864 368.319 303.176L368.671 307.136C368.979 310.128 367.835 312.372 365.415 313.208L364.667 313.472C359.563 315.276 355.559 314.616 352.567 310.92L351.643 309.776C349.927 312.152 347.199 314 342.799 314H342.227ZM353.667 305.772L354.899 307.268C357.187 310.04 360.135 310.392 364.095 308.896L365.107 308.5L364.667 303.924C364.447 301.372 363.083 299.612 359.607 299.612H355.999L353.667 305.772ZM409.872 291.328L405.296 289.04L407.54 284.552L412.116 286.884L409.872 291.328ZM411.94 289.04L414.184 284.552L418.804 286.884L416.516 291.328L411.94 289.04ZM394.374 328.08C384.562 328.08 379.37 323.372 380.866 313.516L381.834 307.048H384.738L385.266 307.708L384.43 313.384C383.242 320.952 387.378 323.328 394.55 323.328C398.378 323.328 402.426 322.36 405.418 321.128C405.418 320.292 405.462 319.324 405.198 318.444C404.802 316.772 403.746 315.32 400.402 315.32H396.926C392.614 315.32 391.558 312.284 391.822 309.38L392.086 306.344C392.57 300.536 396.046 297.324 402.162 297.104C402.47 297.06 402.822 297.06 403.13 297.06C407.046 297.06 409.29 297.984 410.346 301.284L411.358 304.276C412.414 307.576 413.382 309.248 417.298 309.248H418.31L420.378 310.348V312.9L418.31 314H417.254C411.622 314 409.422 311.14 408.058 307.092L406.254 301.548H402.47C397.938 301.548 395.87 303.66 395.562 307.18L395.298 310.7H400.358C406.034 310.7 408.85 313.516 409.29 318.048C409.334 318.4 409.334 318.84 409.334 319.236C409.334 322.228 408.278 324.516 405.11 325.968C402.294 327.244 398.466 328.08 394.374 328.08ZM417.425 314L415.357 312.9V310.348L417.425 309.248H419.405C424.157 309.248 427.677 309.16 432.033 305.596L436.741 301.68L430.845 298.072C428.777 296.796 427.325 296.312 424.685 297.06L420.417 298.248L419.845 297.764V294.288L422.793 293.188C426.929 291.648 428.337 291.428 432.033 293.804L438.633 298.072C440.173 299.04 440.833 299.348 442.725 299.348H444.441L444.837 299.92L443.649 303.88H439.997L434.849 308.676C430.141 313.032 425.785 314 420.373 314H417.425ZM489.04 290.852L484.2 288.432L486.576 283.68L491.416 286.144L489.04 290.852ZM470.131 328.08C460.319 328.08 455.127 323.372 456.623 313.516L457.591 307.048H460.495L461.023 307.708L460.187 313.384C458.999 320.952 463.135 323.328 470.307 323.328C474.135 323.328 478.183 322.36 481.175 321.128C481.175 320.292 481.219 319.324 480.955 318.444C480.559 316.772 479.503 315.32 476.159 315.32H472.683C468.371 315.32 467.315 312.284 467.579 309.38L467.843 306.344C468.327 300.536 471.803 297.324 477.919 297.104C478.227 297.06 478.579 297.06 478.887 297.06C482.803 297.06 485.047 297.984 486.103 301.284L487.115 304.276C488.171 307.576 489.139 309.248 493.055 309.248H494.067L496.135 310.348V312.9L494.067 314H493.011C487.379 314 485.179 311.14 483.815 307.092L482.011 301.548H478.227C473.695 301.548 471.627 303.66 471.319 307.18L471.055 310.7H476.115C481.791 310.7 484.607 313.516 485.047 318.048C485.091 318.4 485.091 318.84 485.091 319.236C485.091 322.228 484.035 324.516 480.867 325.968C478.051 327.244 474.223 328.08 470.131 328.08ZM505.886 286.852L501.046 284.432L503.422 279.68L508.262 282.144L505.886 286.852ZM490.235 312.9V310.348L492.303 309.248H498.727C497.539 307.84 496.747 306.036 496.747 303.66V301.768C496.747 298.864 497.891 296.708 499.915 295.256L500.795 294.64C504.051 292.264 507.043 292.308 509.507 294.156L511.575 295.652L509.903 299.216L507.791 297.94C506.163 296.972 504.447 296.884 502.379 298.424L500.487 299.832V302.692C500.487 307.444 504.535 309.204 509.551 307.796L516.679 305.86L517.207 306.388L516.635 310.7L511.311 312.196C507.527 313.208 502.731 314 496.351 314H492.303L490.235 312.9ZM520.803 314.748L520.495 280.824L523.795 279.768L524.455 280.296V313.736L520.803 314.748ZM551.78 301.852L546.94 299.432L549.316 294.68L554.156 297.144L551.78 301.852ZM549.969 325.836C540.157 325.836 535.009 321.304 536.505 311.36L537.473 304.848H540.465L540.949 305.508L540.113 311.052C538.969 318.532 542.489 321.084 550.057 321.084C554.853 321.084 558.725 320.072 561.717 318.84C561.541 313.12 560.661 307.884 558.901 299.656L562.641 297.808C564.533 306.564 565.589 312.196 565.545 316.42C565.501 319.412 564.665 322.096 561.277 323.68C558.021 325.22 554.149 325.836 549.969 325.836ZM576.499 325.308C575.267 325.264 573.463 324.868 571.307 324.164L570.955 320.556L571.483 319.984C574.519 320.6 575.399 320.688 576.807 320.732C579.667 320.82 581.867 319.72 583.979 317.212C585.035 315.98 585.695 315.012 586.223 314.088L585.915 312.196L584.419 312.9C581.075 314.528 576.279 315.056 572.979 312.724L572.671 312.46C570.999 311.36 570.427 309.556 570.471 307.18L570.515 304.76C570.647 298.38 574.079 295.256 579.579 295.256H581.207C585.519 295.256 587.455 297.676 588.071 301.24L589.039 306.872C589.391 308.984 589.655 310.876 589.655 312.548C589.655 315.32 588.643 317.96 586.883 320.16C583.759 323.988 580.591 325.66 576.499 325.308ZM573.991 307.928L574.255 308.104C576.631 309.996 579.975 309.732 583.319 308.324L585.123 307.576L583.759 299.656H579.711C575.399 299.656 574.079 301.68 574.035 305.068L573.991 307.928ZM612.932 326.112L608.356 323.824L610.6 319.292L615.176 321.624L612.932 326.112ZM615 323.78L617.244 319.292L621.864 321.624L619.576 326.068L615 323.78ZM591.369 325.44C590.005 325.44 589.125 325.22 587.629 324.824L586.749 324.56L586.353 320.908L586.881 320.38L588.069 320.512C589.257 320.732 589.917 320.776 590.885 320.776C592.777 320.776 594.405 320.116 596.209 318.048C597.265 316.772 598.057 315.364 598.585 313.912C598.145 310.964 597.441 306.916 596.737 303.22L597.925 301.196C599.025 299.348 599.817 298.776 602.237 298.512L615.525 297.06L616.229 297.72V303.66C616.229 307.62 617.681 309.248 621.377 309.248H622.213L624.281 310.348V312.9L622.213 314H621.509C615.833 314 612.621 310.92 612.489 305.112L612.445 302.032L600.873 303.352C601.709 307.928 602.149 311.228 602.149 312.284C602.149 314.396 601.797 317.256 599.245 320.908C597.265 323.812 594.053 325.44 591.369 325.44ZM637.185 314C634.149 314.044 631.773 313.296 630.189 311.624C628.033 313.252 625.085 314 622.137 314H621.345L619.277 312.9V310.348L621.345 309.248H622.137C624.073 309.248 626.493 308.852 628.297 307.796C628.121 306.916 628.033 305.948 628.033 304.848V299.876L631.069 299.084L631.729 299.612V304.76C631.729 306.168 632.081 307.18 632.697 307.84L638.769 298.952C641.277 295.256 643.917 294.332 647.041 294.332H648.405C655.181 294.332 657.953 299.304 658.129 304.1L658.217 306.124C658.217 306.652 658.217 307.18 658.129 307.664C658.217 307.752 658.349 307.796 658.437 307.884C660.021 308.896 661.649 309.248 663.981 309.248H664.553L666.665 310.348V312.9L664.553 314H664.025C661.077 314 658.569 313.252 656.765 311.712C656.589 311.536 656.457 311.404 656.281 311.272C654.081 313.384 650.033 313.956 646.381 313.956L637.185 314ZM636.173 309.204C636.657 309.248 637.185 309.248 637.669 309.248H646.997C650.209 309.248 652.629 308.676 654.697 307.356L654.609 304.496C654.433 300.58 652.453 298.512 648.273 298.512H643.477L636.173 309.204ZM669.546 326.112L664.97 323.824L667.214 319.292L671.79 321.624L669.546 326.112ZM671.614 323.78L673.858 319.292L678.478 321.624L676.19 326.068L671.614 323.78ZM660.743 312.9V310.348L662.811 309.248H663.911C666.859 309.248 670.379 308.764 672.227 307.444C672.051 304.892 671.611 302.12 671.127 299.348L670.423 295.256L674.251 293.232L675.351 298.82C676.407 304.496 676.407 307.048 675.527 309.248C674.119 312.724 669.367 314 663.911 314H662.811L660.743 312.9Z" fill="#FFE600"/>
</g>
<defs>
<clipPath id="clip0_20_544">
<rect width="839" height="384" fill="white"/>
</clipPath>
</defs>
</svg>
