<svg preserveAspectRatio="none" width="100%" height="100%" overflow="visible" style="display: block;" viewBox="0 0 839 384" fill="none" xmlns="http://www.w3.org/2000/svg">
<path id="Vector" d="M839 59.392L822.429 75.9692L839 92.5464L822.438 109.114L839 125.691L822.429 142.268L839 158.846L822.429 175.423L839 192L822.438 208.577L839 225.145V225.154L822.438 241.732L839 258.299V258.309L822.429 274.876L839 291.454L822.429 308.031L839 324.608L822.429 341.185L839 357.762L812.781 384L786.543 357.762L760.324 384L734.096 357.762L707.867 384L681.639 357.762L655.42 384L629.192 357.762L602.963 384L576.822 357.85L550.681 384L550.594 383.912L550.506 384L524.365 357.85L498.234 384L471.996 357.762L445.777 384L419.549 357.762L393.32 384L367.092 357.762L340.863 384L314.674 357.801L288.494 384L288.455 383.961L288.416 384L262.226 357.801L236.037 384L209.818 357.762L183.59 384L157.361 357.762L131.142 384L104.914 357.762L78.6757 384L52.4569 357.762L26.2285 384L0 357.762L16.5715 341.185L0 324.608L16.5715 308.031L0 291.454L16.5715 274.876L0 258.309V258.299L16.5715 241.732L0 225.154V225.145L16.5715 208.577L0 192L16.5715 175.423L0 158.846L16.5715 142.268L0 125.691L16.5715 109.114L0 92.5464L16.5715 75.9692L0 59.392L16.5715 42.8148L0 26.2375L26.2285 0L52.4569 26.2375L78.6757 0L104.914 26.2375L131.142 0L157.361 26.2375L183.59 0L209.818 26.2375L236.037 0L262.226 26.1986L288.416 0L288.455 0.0389137L288.494 0L314.674 26.1986L340.863 0L367.092 26.2375L393.32 0L419.549 26.2375L445.777 0L471.996 26.2375L498.234 0L524.365 26.15L550.506 0L550.594 0.0875557L550.681 0L576.822 26.15L602.963 0L629.192 26.2375L655.42 0L681.639 26.2375L707.867 0L734.096 26.2375L760.324 0L786.543 26.2375L812.781 0L839 26.2375L822.429 42.8148L839 59.392Z" fill="var(--fill-0, #003D23)"/>
</svg>
