<svg preserveAspectRatio="none" width="100%" height="100%" overflow="visible" style="display: block;" viewBox="0 0 467 467" fill="none" xmlns="http://www.w3.org/2000/svg">
<g id="Layer_1" clip-path="url(#clip0_25_16)">
<path id="Vector" d="M447.917 0H19.0833C8.54388 0 0 8.54388 0 19.0833V447.917C0 458.456 8.54388 467 19.0833 467H447.917C458.456 467 467 458.456 467 447.917V19.0833C467 8.54388 458.456 0 447.917 0Z" fill="var(--fill-0, #D00D00)"/>
<g id="Group">
<path id="Vector_2" d="M12.8488 206.38C12.8488 210.471 15.3329 213.949 18.8787 215.206C15.3329 216.501 12.8488 219.999 12.8488 224.07C12.8488 229.243 16.9792 233.49 22.0641 233.49C27.1491 233.49 30.8606 229.623 31.1918 224.733H31.2989C31.6107 229.633 35.5851 233.49 40.4655 233.49C45.2875 233.49 49.262 229.623 49.5737 224.733H49.6809C50.0121 229.633 53.9281 233.49 58.8085 233.49C63.6889 233.49 68.0238 229.243 68.0238 224.07C68.0238 219.999 65.5398 216.501 61.9939 215.206C65.5398 213.949 68.0238 210.471 68.0238 206.38C68.0238 202.357 65.5398 198.879 61.9939 197.564C65.5398 196.308 68.0238 192.83 68.0238 188.739C68.0238 183.507 63.8935 179.328 58.8085 179.328C53.7235 179.328 49.6321 183.507 49.6321 188.739C49.6321 183.507 45.5018 179.328 40.4655 179.328C35.4293 179.328 31.2502 183.507 31.2502 188.739C31.2502 183.507 27.1589 179.328 22.0739 179.328C16.9889 179.328 12.8586 183.507 12.8586 188.739C12.8586 192.83 15.3426 196.308 18.8885 197.564C15.3426 198.879 12.8586 202.357 12.8586 206.38H12.8488ZM40.4461 192.197L54.6392 206.409L40.4461 220.622L26.2334 206.409L40.4461 192.197Z" fill="var(--fill-0, #FFE600)"/>
<path id="Vector_3" d="M12.8488 260.552C12.8488 264.643 15.3329 268.121 18.8787 269.377C15.3329 270.673 12.8488 274.17 12.8488 278.242C12.8488 283.415 16.9792 287.662 22.0641 287.662C26.9446 287.662 30.8606 283.795 31.1918 278.904H31.2989C31.6107 283.804 35.5851 287.662 40.4655 287.662C45.2875 287.662 49.262 283.795 49.5737 278.904H49.6809C50.0121 283.804 53.9281 287.662 58.8085 287.662C63.6889 287.662 68.0238 283.415 68.0238 278.242C68.0238 274.17 65.5398 270.673 61.9939 269.377C65.5398 268.121 68.0238 264.643 68.0238 260.552C68.0238 256.529 65.5398 253.051 61.9939 251.736C65.5398 250.479 68.0238 247.002 68.0238 242.91C68.0238 237.679 63.8935 233.5 58.8085 233.5C53.7235 233.5 49.6321 237.679 49.6321 242.91C49.6321 237.679 45.5018 233.5 40.4655 233.5C35.3806 233.5 31.2502 237.679 31.2502 242.91C31.2502 237.679 27.1589 233.5 22.0739 233.5C16.9889 233.5 12.8586 237.679 12.8586 242.91C12.8586 247.002 15.3426 250.479 18.8885 251.736C15.3426 253.051 12.8586 256.529 12.8586 260.552H12.8488ZM40.4461 246.368L54.6392 260.581L40.4461 274.794L26.2334 260.581L40.4461 246.368Z" fill="var(--fill-0, #FFE600)"/>
<path id="Vector_4" d="M12.8488 314.714C12.8488 318.805 15.3329 322.283 18.8787 323.539C15.3329 324.835 12.8488 328.332 12.8488 332.404C12.8488 337.577 16.9792 341.824 22.0641 341.824C26.9446 341.824 30.8606 337.956 31.1918 333.066H31.2989C31.6107 337.966 35.5851 341.824 40.4655 341.824C45.2875 341.824 49.262 337.956 49.5737 333.066H49.6809C50.0121 337.966 53.9281 341.824 58.8085 341.824C63.8935 341.824 68.0238 337.577 68.0238 332.404C68.0238 328.332 65.5398 324.835 61.9939 323.539C65.5398 322.283 68.0238 318.805 68.0238 314.714C68.0238 310.69 65.5398 307.213 61.9939 305.898C65.5398 304.641 68.0238 301.163 68.0238 297.072C68.0238 291.841 63.8935 287.662 58.8085 287.662C53.7235 287.662 49.6321 291.841 49.6321 297.072C49.6321 291.841 45.5018 287.662 40.4655 287.662C35.3806 287.662 31.2502 291.841 31.2502 297.072C31.2502 291.841 27.1589 287.662 22.0739 287.662C16.9889 287.662 12.8586 291.841 12.8586 297.072C12.8586 301.163 15.3426 304.641 18.8885 305.898C15.3426 307.213 12.8586 310.69 12.8586 314.714H12.8488ZM40.4461 300.53L54.6392 314.743L40.4461 328.955L26.2334 314.743L40.4461 300.53Z" fill="var(--fill-0, #FFE600)"/>
<path id="Vector_5" d="M12.8488 368.885C12.8488 372.977 15.3329 376.454 18.8787 377.711C15.3329 379.006 12.8488 382.504 12.8488 386.575C12.8488 391.748 16.9792 395.995 22.0641 395.995C27.1491 395.995 30.8606 392.128 31.1918 387.238H31.2989C31.6107 392.138 35.5851 395.995 40.4655 395.995C45.2875 395.995 49.262 392.128 49.5737 387.238H49.6809C50.0121 392.138 53.9281 395.995 58.8085 395.995C63.8935 395.995 68.0238 391.748 68.0238 386.575C68.0238 382.504 65.5398 379.006 61.9939 377.711C65.5398 376.454 68.0238 372.977 68.0238 368.885C68.0238 364.794 65.5398 361.384 61.9939 360.069C65.5398 358.813 68.0238 355.335 68.0238 351.244C68.0238 346.013 63.8935 341.833 58.8085 341.833C53.7235 341.833 49.6321 346.013 49.6321 351.244C49.6321 346.013 45.5018 341.833 40.4655 341.833C35.4293 341.833 31.2502 346.013 31.2502 351.244C31.2502 346.013 27.1589 341.833 22.0739 341.833C16.9889 341.833 12.8586 346.013 12.8586 351.244C12.8586 355.335 15.3426 358.813 18.8885 360.069C15.3426 361.384 12.8586 364.862 12.8586 368.885H12.8488ZM40.4461 354.702L54.6392 368.914L40.4461 383.127L26.2334 368.914L40.4461 354.702Z" fill="var(--fill-0, #FFE600)"/>
<path id="Vector_6" d="M68.0141 43.8848C68.0141 47.9761 70.4981 51.4538 74.044 52.7104C70.4981 54.006 68.0141 57.5032 68.0141 61.575C68.0141 66.7477 72.1444 70.9949 77.2294 70.9949C82.3144 70.9949 86.0258 67.1276 86.357 62.2374H86.4642C86.7759 67.1373 90.7504 70.9949 95.6308 70.9949C100.453 70.9949 104.427 67.1276 104.739 62.2374H104.846C105.177 67.1373 109.093 70.9949 113.974 70.9949C119.059 70.9949 123.189 66.7477 123.189 61.575C123.189 57.5032 120.705 54.006 117.159 52.7104C120.705 51.4538 123.189 47.9761 123.189 43.8848C123.189 39.8616 120.705 36.3839 117.159 35.0688C120.705 33.8122 123.189 30.3345 123.189 26.2432C123.189 21.0121 119.059 16.833 113.974 16.833C108.889 16.833 104.797 21.0121 104.797 26.2432C104.797 21.0121 100.667 16.833 95.6308 16.833C90.5458 16.833 86.4155 21.0121 86.4155 26.2432C86.4155 21.0121 82.3241 16.833 77.2391 16.833C72.1541 16.833 68.0238 21.0121 68.0238 26.2432C68.0238 30.3345 70.5078 33.8122 74.0537 35.0688C70.5078 36.3839 68.0238 39.8616 68.0238 43.8848H68.0141ZM95.6113 29.7014L109.804 43.914L95.6113 58.1266L81.3987 43.914L95.6113 29.7014Z" fill="var(--fill-0, #FFE600)"/>
<path id="Vector_7" d="M123.179 43.8848C123.179 47.9761 125.663 51.4538 129.209 52.7104C125.663 54.006 123.179 57.5032 123.179 61.575C123.179 66.7477 127.309 70.9949 132.394 70.9949C137.275 70.9949 141.191 67.1276 141.522 62.2374H141.629C141.941 67.1373 145.915 70.9949 150.796 70.9949C155.618 70.9949 159.592 67.1276 159.904 62.2374H160.011C160.342 67.1373 164.258 70.9949 169.139 70.9949C174.224 70.9949 178.354 66.7477 178.354 61.575C178.354 57.5032 175.87 54.006 172.324 52.7104C175.87 51.4538 178.354 47.9761 178.354 43.8848C178.354 39.7934 175.87 36.3839 172.324 35.0688C175.87 33.8122 178.354 30.3345 178.354 26.2432C178.354 21.0121 174.224 16.833 169.139 16.833C164.054 16.833 159.962 21.0121 159.962 26.2432C159.962 21.0121 155.832 16.833 150.796 16.833C145.759 16.833 141.58 21.0121 141.58 26.2432C141.58 21.0121 137.489 16.833 132.404 16.833C127.319 16.833 123.189 21.0121 123.189 26.2432C123.189 30.3345 125.673 33.8122 129.219 35.0688C125.673 36.3839 123.189 39.8616 123.189 43.8848H123.179ZM150.776 29.7014L164.969 43.914L150.776 58.1266L136.564 43.914L150.776 29.7014Z" fill="var(--fill-0, #FFE600)"/>
<path id="Vector_8" d="M178.335 43.8848C178.335 47.9761 180.819 51.4538 184.365 52.7104C180.819 54.006 178.335 57.5032 178.335 61.575C178.335 66.7477 182.465 70.9949 187.55 70.9949C192.431 70.9949 196.347 67.1276 196.678 62.2374H196.785C197.097 67.1373 201.071 70.9949 205.952 70.9949C210.832 70.9949 214.748 67.1276 215.06 62.2374H215.167C215.498 67.1373 219.414 70.9949 224.295 70.9949C229.175 70.9949 233.51 66.7477 233.51 61.575C233.51 57.5032 231.026 54.006 227.48 52.7104C231.026 51.4538 233.51 47.9761 233.51 43.8848C233.51 39.7934 231.026 36.3839 227.48 35.0688C231.026 33.8122 233.51 30.3345 233.51 26.2432C233.51 21.0121 229.38 16.833 224.295 16.833C219.21 16.833 215.118 21.0121 215.118 26.2432C215.118 21.0121 210.988 16.833 205.952 16.833C200.916 16.833 196.737 21.0121 196.737 26.2432C196.737 21.0121 192.645 16.833 187.56 16.833C182.475 16.833 178.345 21.0121 178.345 26.2432C178.345 30.3345 180.829 33.8122 184.375 35.0688C180.829 36.3839 178.345 39.8616 178.345 43.8848H178.335ZM205.932 29.7014L220.126 43.914L205.932 58.1266L191.72 43.914L205.932 29.7014Z" fill="var(--fill-0, #FFE600)"/>
<path id="Vector_9" d="M233.5 43.8848C233.5 47.9761 235.984 51.4538 239.53 52.7104C235.984 54.006 233.5 57.5032 233.5 61.575C233.5 66.7477 237.63 70.9949 242.715 70.9949C247.596 70.9949 251.512 67.1276 251.843 62.2374H251.95C252.262 67.1373 256.236 70.9949 261.117 70.9949C265.939 70.9949 269.913 67.1276 270.225 62.2374H270.332C270.663 67.1373 274.579 70.9949 279.46 70.9949C284.34 70.9949 288.675 66.7477 288.675 61.575C288.675 57.5032 286.191 54.006 282.645 52.7104C286.191 51.4538 288.675 47.9761 288.675 43.8848C288.675 39.8616 286.191 36.3839 282.645 35.0688C286.191 33.8122 288.675 30.3345 288.675 26.2432C288.675 21.0121 284.545 16.833 279.46 16.833C274.375 16.833 270.283 21.0121 270.283 26.2432C270.283 21.0121 266.153 16.833 261.117 16.833C256.032 16.833 251.901 21.0121 251.901 26.2432C251.901 21.0121 247.81 16.833 242.725 16.833C237.64 16.833 233.51 21.0121 233.51 26.2432C233.51 30.3345 235.994 33.8122 239.54 35.0688C235.994 36.3839 233.51 39.8616 233.51 43.8848H233.5ZM261.097 29.7014L275.29 43.914L261.097 58.1266L246.885 43.914L261.097 29.7014Z" fill="var(--fill-0, #FFE600)"/>
<path id="Vector_10" d="M288.665 43.8848C288.665 47.9761 291.149 51.4538 294.695 52.7104C291.149 54.006 288.665 57.5032 288.665 61.575C288.665 66.7477 292.796 70.9949 297.881 70.9949C302.966 70.9949 306.677 67.1276 307.008 62.2374H307.115C307.427 67.1373 311.402 70.9949 316.282 70.9949C321.162 70.9949 325.078 67.1276 325.39 62.2374H325.497C325.828 67.1373 329.744 70.9949 334.625 70.9949C339.71 70.9949 343.84 66.7477 343.84 61.575C343.84 57.5032 341.356 54.006 337.81 52.7104C341.356 51.4538 343.84 47.9761 343.84 43.8848C343.84 39.8616 341.356 36.3839 337.81 35.0688C341.356 33.8122 343.84 30.3345 343.84 26.2432C343.84 21.0121 339.71 16.833 334.625 16.833C329.54 16.833 325.449 21.0121 325.449 26.2432C325.449 21.0121 321.318 16.833 316.282 16.833C311.197 16.833 307.067 21.0121 307.067 26.2432C307.067 21.0121 302.975 16.833 297.89 16.833C292.805 16.833 288.675 21.0121 288.675 26.2432C288.675 30.3345 291.159 33.8122 294.705 35.0688C291.159 36.3839 288.675 39.8616 288.675 43.8848H288.665ZM316.262 29.7014L330.456 43.914L316.262 58.1266L302.05 43.914L316.262 29.7014Z" fill="var(--fill-0, #FFE600)"/>
<path id="Vector_11" d="M343.83 43.8848C343.83 47.9761 346.314 51.4538 349.86 52.7104C346.314 54.006 343.83 57.5032 343.83 61.575C343.83 66.7477 347.961 70.9949 353.046 70.9949C357.926 70.9949 361.842 67.1276 362.173 62.2374H362.281C362.592 67.1373 366.567 70.9949 371.447 70.9949C376.269 70.9949 380.244 67.1276 380.555 62.2374H380.662C380.994 67.1373 384.91 70.9949 389.79 70.9949C394.875 70.9949 399.005 66.7477 399.005 61.575C399.005 57.5032 396.521 54.006 392.976 52.7104C396.521 51.4538 399.005 47.9761 399.005 43.8848C399.005 39.7934 396.521 36.3839 392.976 35.0688C396.521 33.8122 399.005 30.3345 399.005 26.2432C399.005 21.0121 394.875 16.833 389.79 16.833C384.705 16.833 380.614 21.0121 380.614 26.2432C380.614 21.0121 376.483 16.833 371.447 16.833C366.362 16.833 362.232 21.0121 362.232 26.2432C362.232 21.0121 358.14 16.833 353.055 16.833C347.971 16.833 343.84 21.0121 343.84 26.2432C343.84 30.3345 346.324 33.8122 349.87 35.0688C346.324 36.3839 343.84 39.8616 343.84 43.8848H343.83ZM371.428 29.7014L385.621 43.914L371.428 58.1266L357.215 43.914L371.428 29.7014Z" fill="var(--fill-0, #FFE600)"/>
<path id="Vector_12" d="M12.8488 423.047C12.8488 427.138 15.3329 430.616 18.8787 431.873C15.3329 433.168 12.8488 436.665 12.8488 440.737C12.8488 445.91 16.9792 450.157 22.0641 450.157C26.9446 450.157 30.8606 446.29 31.1918 441.4H31.2989C31.6107 446.3 35.5851 450.157 40.4655 450.157C45.346 450.157 49.262 446.29 49.5737 441.4H49.6809C50.0121 446.3 53.9281 450.157 58.8085 450.157C63.8935 450.157 68.0238 445.91 68.0238 440.737C68.0238 436.665 65.5398 433.168 61.9939 431.873C65.5398 430.616 68.0238 427.138 68.0238 423.047C68.0238 419.024 65.5398 415.546 61.9939 414.231C65.5398 412.975 68.0238 409.497 68.0238 405.406C68.0238 400.174 63.8935 395.995 58.8085 395.995C53.7235 395.995 49.6321 400.174 49.6321 405.406C49.6321 400.174 45.5018 395.995 40.4655 395.995C35.3806 395.995 31.2502 400.174 31.2502 405.406C31.2502 400.174 27.1589 395.995 22.0739 395.995C16.9889 395.995 12.8586 400.174 12.8586 405.406C12.8586 409.497 15.3426 412.975 18.8885 414.231C15.3426 415.546 12.8586 419.024 12.8586 423.047H12.8488ZM40.4461 408.864L54.6392 423.076L40.4461 437.289L26.2334 423.076L40.4461 408.864Z" fill="var(--fill-0, #FFE600)"/>
<path id="Vector_13" d="M68.0141 423.047C68.0141 427.138 70.4981 430.616 74.044 431.873C70.4981 433.168 68.0141 436.665 68.0141 440.737C68.0141 445.91 72.1444 450.157 77.2294 450.157C82.1098 450.157 86.0258 446.29 86.357 441.4H86.4642C86.7759 446.3 90.7504 450.157 95.6308 450.157C100.511 450.157 104.427 446.29 104.739 441.4H104.846C105.177 446.3 109.093 450.157 113.974 450.157C119.059 450.157 123.189 445.91 123.189 440.737C123.189 436.665 120.705 433.168 117.159 431.873C120.705 430.616 123.189 427.138 123.189 423.047C123.189 418.956 120.705 415.546 117.159 414.231C120.705 412.975 123.189 409.497 123.189 405.406C123.189 400.174 119.059 395.995 113.974 395.995C108.889 395.995 104.797 400.174 104.797 405.406C104.797 400.174 100.667 395.995 95.6308 395.995C90.5458 395.995 86.4155 400.174 86.4155 405.406C86.4155 400.174 82.3241 395.995 77.2391 395.995C72.1541 395.995 68.0238 400.174 68.0238 405.406C68.0238 409.497 70.5078 412.975 74.0537 414.231C70.5078 415.546 68.0238 419.024 68.0238 423.047H68.0141ZM95.6113 408.864L109.804 423.076L95.6113 437.289L81.3987 423.076L95.6113 408.864Z" fill="var(--fill-0, #FFE600)"/>
<path id="Vector_14" d="M123.179 423.047C123.179 427.138 125.663 430.616 129.209 431.873C125.663 433.168 123.179 436.665 123.179 440.737C123.179 445.91 127.309 450.157 132.394 450.157C137.275 450.157 141.191 446.29 141.522 441.4H141.629C141.941 446.299 145.915 450.157 150.796 450.157C155.618 450.157 159.592 446.29 159.904 441.4H160.011C160.342 446.299 164.258 450.157 169.139 450.157C174.019 450.157 178.354 445.91 178.354 440.737C178.354 436.665 175.87 433.168 172.324 431.873C175.87 430.616 178.354 427.138 178.354 423.047C178.354 419.024 175.87 415.546 172.324 414.231C175.87 412.974 178.354 409.497 178.354 405.405C178.354 400.174 174.224 395.995 169.139 395.995C164.054 395.995 159.962 400.174 159.962 405.405C159.962 400.174 155.832 395.995 150.796 395.995C145.759 395.995 141.58 400.174 141.58 405.405C141.58 400.174 137.489 395.995 132.404 395.995C127.319 395.995 123.189 400.174 123.189 405.405C123.189 409.497 125.673 412.974 129.219 414.231C125.673 415.546 123.189 419.024 123.189 423.047H123.179ZM150.776 408.863L164.969 423.076L150.776 437.289L136.564 423.076L150.776 408.863Z" fill="var(--fill-0, #FFE600)"/>
<path id="Vector_15" d="M178.335 423.047C178.335 427.138 180.819 430.616 184.365 431.873C180.819 433.168 178.335 436.665 178.335 440.737C178.335 445.91 182.465 450.157 187.55 450.157C192.635 450.157 196.347 446.29 196.678 441.4H196.785C197.097 446.299 201.071 450.157 205.952 450.157C210.774 450.157 214.748 446.29 215.06 441.4H215.167C215.498 446.299 219.414 450.157 224.295 450.157C229.38 450.157 233.51 445.91 233.51 440.737C233.51 436.665 231.026 433.168 227.48 431.873C231.026 430.616 233.51 427.138 233.51 423.047C233.51 419.024 231.026 415.546 227.48 414.231C231.026 412.974 233.51 409.497 233.51 405.405C233.51 400.174 229.38 395.995 224.295 395.995C219.21 395.995 215.118 400.174 215.118 405.405C215.118 400.174 210.988 395.995 205.952 395.995C200.916 395.995 196.737 400.174 196.737 405.405C196.737 400.174 192.645 395.995 187.56 395.995C182.475 395.995 178.345 400.174 178.345 405.405C178.345 409.497 180.829 412.974 184.375 414.231C180.829 415.546 178.345 419.024 178.345 423.047H178.335ZM205.932 408.863L220.126 423.076L205.932 437.289L191.72 423.076L205.932 408.863Z" fill="var(--fill-0, #FFE600)"/>
<path id="Vector_16" d="M233.5 423.047C233.5 427.138 235.984 430.616 239.53 431.873C235.984 433.168 233.5 436.665 233.5 440.737C233.5 445.91 237.63 450.157 242.715 450.157C247.8 450.157 251.512 446.29 251.843 441.4H251.95C252.262 446.3 256.236 450.157 261.117 450.157C265.939 450.157 269.913 446.29 270.225 441.4H270.332C270.663 446.3 274.579 450.157 279.46 450.157C284.34 450.157 288.675 445.91 288.675 440.737C288.675 436.665 286.191 433.168 282.645 431.873C286.191 430.616 288.675 427.138 288.675 423.047C288.675 419.024 286.191 415.546 282.645 414.231C286.191 412.975 288.675 409.497 288.675 405.406C288.675 400.174 284.545 395.995 279.46 395.995C274.375 395.995 270.283 400.174 270.283 405.406C270.283 400.174 266.153 395.995 261.117 395.995C256.032 395.995 251.901 400.174 251.901 405.406C251.901 400.174 247.81 395.995 242.725 395.995C237.64 395.995 233.51 400.174 233.51 405.406C233.51 409.497 235.994 412.975 239.54 414.231C235.994 415.546 233.51 419.024 233.51 423.047H233.5ZM261.097 408.864L275.29 423.076L261.097 437.289L246.885 423.076L261.097 408.864Z" fill="var(--fill-0, #FFE600)"/>
<path id="Vector_17" d="M288.665 423.047C288.665 427.138 291.149 430.616 294.695 431.873C291.149 433.168 288.665 436.665 288.665 440.737C288.665 445.91 292.796 450.157 297.881 450.157C302.966 450.157 306.677 446.29 307.008 441.4H307.115C307.427 446.3 311.402 450.157 316.282 450.157C321.104 450.157 325.078 446.29 325.39 441.4H325.497C325.828 446.3 329.744 450.157 334.625 450.157C339.505 450.157 343.84 445.91 343.84 440.737C343.84 436.665 341.356 433.168 337.81 431.873C341.356 430.616 343.84 427.138 343.84 423.047C343.84 419.024 341.356 415.546 337.81 414.231C341.356 412.975 343.84 409.497 343.84 405.406C343.84 400.174 339.71 395.995 334.625 395.995C329.54 395.995 325.449 400.174 325.449 405.406C325.449 400.174 321.318 395.995 316.282 395.995C311.246 395.995 307.067 400.174 307.067 405.406C307.067 400.174 302.975 395.995 297.89 395.995C292.805 395.995 288.675 400.174 288.675 405.406C288.675 409.497 291.159 412.975 294.705 414.231C291.159 415.546 288.675 419.024 288.675 423.047H288.665ZM316.262 408.864L330.456 423.076L316.262 437.289L302.05 423.076L316.262 408.864Z" fill="var(--fill-0, #FFE600)"/>
<path id="Vector_18" d="M343.83 423.047C343.83 427.138 346.314 430.616 349.86 431.873C346.314 433.168 343.83 436.665 343.83 440.737C343.83 445.91 347.961 450.157 353.046 450.157C358.131 450.157 361.842 446.29 362.173 441.4H362.281C362.592 446.3 366.567 450.157 371.447 450.157C376.269 450.157 380.244 446.29 380.555 441.4H380.662C380.994 446.3 384.91 450.157 389.79 450.157C394.875 450.157 399.005 445.91 399.005 440.737C399.005 436.665 396.521 433.168 392.976 431.873C396.521 430.616 399.005 427.138 399.005 423.047C399.005 418.956 396.521 415.546 392.976 414.231C396.521 412.975 399.005 409.497 399.005 405.406C399.005 400.174 394.875 395.995 389.79 395.995C384.705 395.995 380.614 400.174 380.614 405.406C380.614 400.174 376.483 395.995 371.447 395.995C366.411 395.995 362.232 400.174 362.232 405.406C362.232 400.174 358.14 395.995 353.055 395.995C347.971 395.995 343.84 400.174 343.84 405.406C343.84 409.497 346.324 412.975 349.87 414.231C346.324 415.546 343.84 419.024 343.84 423.047H343.83ZM371.428 408.864L385.621 423.076L371.428 437.289L357.215 423.076L371.428 408.864Z" fill="var(--fill-0, #FFE600)"/>
<path id="Vector_19" d="M398.995 206.38C398.995 210.471 401.479 213.949 405.025 215.206C401.479 216.501 398.995 219.998 398.995 224.07C398.995 229.243 403.126 233.49 408.211 233.49C413.296 233.49 417.007 229.623 417.338 224.733H417.445C417.757 229.632 421.732 233.49 426.612 233.49C431.434 233.49 435.408 229.623 435.72 224.733H435.827C436.159 229.632 440.075 233.49 444.955 233.49C449.835 233.49 454.17 229.243 454.17 224.07C454.17 219.998 451.686 216.501 448.14 215.206C451.686 213.949 454.17 210.471 454.17 206.38C454.17 202.357 451.686 198.879 448.14 197.564C451.686 196.307 454.17 192.83 454.17 188.738C454.17 183.507 450.04 179.328 444.955 179.328C439.87 179.328 435.779 183.507 435.779 188.738C435.779 183.507 431.648 179.328 426.612 179.328C421.576 179.328 417.397 183.507 417.397 188.738C417.397 183.507 413.305 179.328 408.22 179.328C403.135 179.328 399.005 183.507 399.005 188.738C399.005 192.83 401.489 196.307 405.035 197.564C401.489 198.879 399.005 202.357 399.005 206.38H398.995ZM426.593 192.196L440.786 206.409L426.593 220.622L412.38 206.409L426.593 192.196Z" fill="var(--fill-0, #FFE600)"/>
<path id="Vector_20" d="M12.8488 152.218C12.8488 156.31 15.3329 159.787 18.8787 161.044C15.3329 162.34 12.8488 165.837 12.8488 169.909C12.8488 175.081 16.9792 179.328 22.0641 179.328C27.1491 179.328 30.8606 175.461 31.1918 170.571H31.2989C31.6107 175.471 35.5851 179.328 40.4655 179.328C45.2875 179.328 49.262 175.461 49.5737 170.571H49.6809C50.0121 175.471 53.9281 179.328 58.8085 179.328C63.8935 179.328 68.0238 175.081 68.0238 169.909C68.0238 165.837 65.5398 162.34 61.9939 161.044C65.5398 159.787 68.0238 156.31 68.0238 152.218C68.0238 148.127 65.5398 144.717 61.9939 143.402C65.5398 142.146 68.0238 138.668 68.0238 134.577C68.0238 129.346 63.8935 125.167 58.8085 125.167C53.7235 125.167 49.6321 129.346 49.6321 134.577C49.6321 129.346 45.5018 125.167 40.4655 125.167C35.4293 125.167 31.2502 129.346 31.2502 134.577C31.2502 129.346 27.1589 125.167 22.0739 125.167C16.9889 125.167 12.8586 129.346 12.8586 134.577C12.8586 138.668 15.3426 142.146 18.8885 143.402C15.3426 144.717 12.8586 148.195 12.8586 152.218H12.8488ZM40.4461 138.035L54.6392 152.247L40.4461 166.46L26.2334 152.247L40.4461 138.035Z" fill="var(--fill-0, #FFE600)"/>
<path id="Vector_21" d="M398.995 152.218C398.995 156.31 401.479 159.787 405.025 161.044C401.479 162.34 398.995 165.837 398.995 169.909C398.995 175.081 403.126 179.328 408.211 179.328C413.296 179.328 417.007 175.461 417.338 170.571H417.445C417.757 175.471 421.732 179.328 426.612 179.328C431.434 179.328 435.408 175.461 435.72 170.571H435.827C436.159 175.471 440.075 179.328 444.955 179.328C450.04 179.328 454.17 175.081 454.17 169.909C454.17 165.837 451.686 162.34 448.14 161.044C451.686 159.787 454.17 156.31 454.17 152.218C454.17 148.127 451.686 144.717 448.14 143.402C451.686 142.146 454.17 138.668 454.17 134.577C454.17 129.346 450.04 125.167 444.955 125.167C439.87 125.167 435.779 129.346 435.779 134.577C435.779 129.346 431.648 125.167 426.612 125.167C421.576 125.167 417.397 129.346 417.397 134.577C417.397 129.346 413.305 125.167 408.22 125.167C403.135 125.167 399.005 129.346 399.005 134.577C399.005 138.668 401.489 142.146 405.035 143.402C401.489 144.717 399.005 148.195 399.005 152.218H398.995ZM426.593 138.035L440.786 152.247L426.593 166.46L412.38 152.247L426.593 138.035Z" fill="var(--fill-0, #FFE600)"/>
<path id="Vector_22" d="M12.8488 98.0564C12.8488 102.148 15.3329 105.625 18.8787 106.882C15.3329 108.178 12.8488 111.675 12.8488 115.747C12.8488 120.919 16.9792 125.167 22.0641 125.167C26.9446 125.167 30.8606 121.299 31.1918 116.409H31.2989C31.6107 121.309 35.5851 125.167 40.4655 125.167C45.2875 125.167 49.262 121.299 49.5737 116.409H49.6809C50.0121 121.309 53.9281 125.167 58.8085 125.167C63.6889 125.167 68.0238 120.919 68.0238 115.747C68.0238 111.675 65.5398 108.178 61.9939 106.882C65.5398 105.625 68.0238 102.148 68.0238 98.0564C68.0238 94.0332 65.5398 90.5555 61.9939 89.2405C65.5398 87.9838 68.0238 84.5062 68.0238 80.4148C68.0238 75.1837 63.8935 71.0047 58.8085 71.0047C53.7235 71.0047 49.6321 75.1837 49.6321 80.4148C49.6321 75.1837 45.5018 71.0047 40.4655 71.0047C35.4293 71.0047 31.2502 75.1837 31.2502 80.4148C31.2502 75.1837 27.1589 71.0047 22.0739 71.0047C16.9889 71.0047 12.8586 75.1837 12.8586 80.4148C12.8586 84.5062 15.3426 87.9838 18.8885 89.2405C15.3426 90.5555 12.8586 94.0332 12.8586 98.0564H12.8488ZM40.4461 83.873L54.6392 98.0856L40.4461 112.298L26.2334 98.0856L40.4461 83.873Z" fill="var(--fill-0, #FFE600)"/>
<path id="Vector_23" d="M398.995 98.0561C398.995 102.148 401.479 105.625 405.025 106.882C401.479 108.177 398.995 111.675 398.995 115.746C398.995 120.919 403.126 125.166 408.211 125.166C413.091 125.166 417.007 121.299 417.338 116.409H417.445C417.757 121.309 421.732 125.166 426.612 125.166C431.434 125.166 435.408 121.299 435.72 116.409H435.827C436.159 121.309 440.075 125.166 444.955 125.166C450.04 125.166 454.17 120.919 454.17 115.746C454.17 111.675 451.686 108.177 448.14 106.882C451.686 105.625 454.17 102.148 454.17 98.0561C454.17 94.033 451.686 90.5553 448.14 89.2402C451.686 87.9836 454.17 84.5059 454.17 80.4146C454.17 75.1835 450.04 71.0044 444.955 71.0044C439.87 71.0044 435.779 75.1835 435.779 80.4146C435.779 75.1835 431.648 71.0044 426.612 71.0044C421.527 71.0044 417.397 75.1835 417.397 80.4146C417.397 75.1835 413.305 71.0044 408.22 71.0044C403.135 71.0044 399.005 75.1835 399.005 80.4146C399.005 84.5059 401.489 87.9836 405.035 89.2402C401.489 90.5553 399.005 94.033 399.005 98.0561H398.995ZM426.593 83.8727L440.786 98.0854L426.593 112.298L412.38 98.0854L426.593 83.8727Z" fill="var(--fill-0, #FFE600)"/>
<path id="Vector_24" d="M12.8488 43.8848C12.8488 47.9761 15.3329 51.4538 18.8787 52.7104C15.3329 54.006 12.8488 57.5032 12.8488 61.575C12.8488 66.7477 16.9792 70.9949 22.0641 70.9949C26.9446 70.9949 30.8606 67.1276 31.1918 62.2374H31.2989C31.6107 67.1373 35.5851 70.9949 40.4655 70.9949C45.2875 70.9949 49.262 67.1276 49.5737 62.2374H49.6809C50.0121 67.1373 53.9281 70.9949 58.8085 70.9949C63.8935 70.9949 68.0238 66.7477 68.0238 61.575C68.0238 57.5032 65.5398 54.006 61.9939 52.7104C65.5398 51.4538 68.0238 47.9761 68.0238 43.8848C68.0238 39.8616 65.5398 36.3839 61.9939 35.0688C65.5398 33.8122 68.0238 30.3345 68.0238 26.2432C68.0238 21.0121 63.8935 16.833 58.8085 16.833C53.7235 16.833 49.6321 21.0121 49.6321 26.2432C49.6321 21.0121 45.5018 16.833 40.4655 16.833C35.3806 16.833 31.2502 21.0121 31.2502 26.2432C31.2502 21.0121 27.1589 16.833 22.0739 16.833C16.9889 16.833 12.8586 21.0121 12.8586 26.2432C12.8586 30.3345 15.3426 33.8122 18.8885 35.0688C15.3426 36.3839 12.8586 39.8616 12.8586 43.8848H12.8488ZM40.4461 29.7014L54.6392 43.914L40.4461 58.1266L26.2334 43.914L40.4461 29.7014Z" fill="var(--fill-0, #FFE600)"/>
<path id="Vector_25" d="M398.995 43.8848C398.995 47.9761 401.479 51.4538 405.025 52.7104C401.479 54.006 398.995 57.5032 398.995 61.575C398.995 66.7477 403.126 70.9949 408.211 70.9949C413.091 70.9949 417.007 67.1276 417.338 62.2374H417.445C417.757 67.1373 421.732 70.9949 426.612 70.9949C431.492 70.9949 435.408 67.1276 435.72 62.2374H435.827C436.159 67.1373 440.075 70.9949 444.955 70.9949C449.835 70.9949 454.17 66.7477 454.17 61.575C454.17 57.5032 451.686 54.006 448.14 52.7104C451.686 51.4538 454.17 47.9761 454.17 43.8848C454.17 39.8616 451.686 36.3839 448.14 35.0688C451.686 33.8122 454.17 30.3345 454.17 26.2432C454.17 21.0121 450.04 16.833 444.955 16.833C439.87 16.833 435.779 21.0121 435.779 26.2432C435.779 21.0121 431.648 16.833 426.612 16.833C421.527 16.833 417.397 21.0121 417.397 26.2432C417.397 21.0121 413.305 16.833 408.22 16.833C403.135 16.833 399.005 21.0121 399.005 26.2432C399.005 30.3345 401.489 33.8122 405.035 35.0688C401.489 36.3839 399.005 39.8616 399.005 43.8848H398.995ZM426.593 29.7014L440.786 43.914L426.593 58.1266L412.38 43.914L426.593 29.7014Z" fill="var(--fill-0, #FFE600)"/>
<path id="Vector_26" d="M398.995 423.047C398.995 427.138 401.479 430.616 405.025 431.873C401.479 433.168 398.995 436.665 398.995 440.737C398.995 445.91 403.126 450.157 408.211 450.157C413.091 450.157 417.007 446.29 417.338 441.4H417.445C417.757 446.299 421.732 450.157 426.612 450.157C431.492 450.157 435.408 446.29 435.72 441.4H435.827C436.159 446.299 440.075 450.157 444.955 450.157C450.04 450.157 454.17 445.91 454.17 440.737C454.17 436.665 451.686 433.168 448.14 431.873C451.686 430.616 454.17 427.138 454.17 423.047C454.17 418.955 451.686 415.546 448.14 414.231C451.686 412.974 454.17 409.497 454.17 405.405C454.17 400.174 450.04 395.995 444.955 395.995C439.87 395.995 435.779 400.174 435.779 405.405C435.779 400.174 431.648 395.995 426.612 395.995C421.576 395.995 417.397 400.174 417.397 405.405C417.397 400.174 413.305 395.995 408.22 395.995C403.135 395.995 399.005 400.174 399.005 405.405C399.005 409.497 401.489 412.974 405.035 414.231C401.489 415.546 399.005 419.024 399.005 423.047H398.995ZM426.593 408.863L440.786 423.076L426.593 437.289L412.38 423.076L426.593 408.863Z" fill="var(--fill-0, #FFE600)"/>
<path id="Vector_27" d="M398.995 260.552C398.995 264.643 401.479 268.121 405.025 269.377C401.479 270.673 398.995 274.17 398.995 278.242C398.995 283.415 403.126 287.662 408.211 287.662C413.296 287.662 417.007 283.795 417.338 278.904H417.445C417.757 283.804 421.732 287.662 426.612 287.662C431.434 287.662 435.408 283.795 435.72 278.904H435.827C436.159 283.804 440.075 287.662 444.955 287.662C449.835 287.662 454.17 283.415 454.17 278.242C454.17 274.17 451.686 270.673 448.14 269.377C451.686 268.121 454.17 264.643 454.17 260.552C454.17 256.46 451.686 253.051 448.14 251.736C451.686 250.479 454.17 247.002 454.17 242.91C454.17 237.679 450.04 233.5 444.955 233.5C439.87 233.5 435.779 237.679 435.779 242.91C435.779 237.679 431.648 233.5 426.612 233.5C421.576 233.5 417.397 237.679 417.397 242.91C417.397 237.679 413.305 233.5 408.22 233.5C403.135 233.5 399.005 237.679 399.005 242.91C399.005 247.002 401.489 250.479 405.035 251.736C401.489 253.051 399.005 256.529 399.005 260.552H398.995ZM426.593 246.368L440.786 260.581L426.593 274.794L412.38 260.581L426.593 246.368Z" fill="var(--fill-0, #FFE600)"/>
<path id="Vector_28" d="M398.995 314.713C398.995 318.805 401.479 322.282 405.025 323.539C401.479 324.835 398.995 328.332 398.995 332.404C398.995 337.576 403.126 341.824 408.211 341.824C413.091 341.824 417.007 337.956 417.338 333.066H417.445C417.757 337.966 421.732 341.824 426.612 341.824C431.434 341.824 435.408 337.956 435.72 333.066H435.827C436.159 337.966 440.075 341.824 444.955 341.824C449.835 341.824 454.17 337.576 454.17 332.404C454.17 328.332 451.686 324.835 448.14 323.539C451.686 322.282 454.17 318.805 454.17 314.713C454.17 310.69 451.686 307.213 448.14 305.897C451.686 304.641 454.17 301.163 454.17 297.072C454.17 291.841 450.04 287.662 444.955 287.662C439.87 287.662 435.779 291.841 435.779 297.072C435.779 291.841 431.648 287.662 426.612 287.662C421.576 287.662 417.397 291.841 417.397 297.072C417.397 291.841 413.305 287.662 408.22 287.662C403.135 287.662 399.005 291.841 399.005 297.072C399.005 301.163 401.489 304.641 405.035 305.897C401.489 307.213 399.005 310.69 399.005 314.713H398.995ZM426.593 300.53L440.786 314.743L426.593 328.955L412.38 314.743L426.593 300.53Z" fill="var(--fill-0, #FFE600)"/>
<path id="Vector_29" d="M398.995 368.885C398.995 372.977 401.479 376.454 405.025 377.711C401.479 379.006 398.995 382.504 398.995 386.576C398.995 391.748 403.126 395.995 408.211 395.995C413.091 395.995 417.007 392.128 417.338 387.238H417.445C417.757 392.138 421.732 395.995 426.612 395.995C431.492 395.995 435.408 392.128 435.72 387.238H435.827C436.159 392.138 440.075 395.995 444.955 395.995C450.04 395.995 454.17 391.748 454.17 386.576C454.17 382.504 451.686 379.006 448.14 377.711C451.686 376.454 454.17 372.977 454.17 368.885C454.17 364.862 451.686 361.384 448.14 360.069C451.686 358.813 454.17 355.335 454.17 351.244C454.17 346.013 450.04 341.834 444.955 341.834C439.87 341.834 435.779 346.013 435.779 351.244C435.779 346.013 431.648 341.834 426.612 341.834C421.527 341.834 417.397 346.013 417.397 351.244C417.397 346.013 413.305 341.834 408.22 341.834C403.135 341.834 399.005 346.013 399.005 351.244C399.005 355.335 401.489 358.813 405.035 360.069C401.489 361.384 399.005 364.862 399.005 368.885H398.995ZM426.593 354.702L440.786 368.914L426.593 383.127L412.38 368.914L426.593 354.702Z" fill="var(--fill-0, #FFE600)"/>
</g>
</g>
<defs>
<clipPath id="clip0_25_16">
<rect width="467" height="467" fill="white"/>
</clipPath>
</defs>
</svg>
