<svg preserveAspectRatio="none" width="100%" height="100%" overflow="visible" style="display: block;" viewBox="0 0 277 272" fill="none" xmlns="http://www.w3.org/2000/svg">
<g id="Layer_1" clip-path="url(#clip0_25_158)">
<path id="Vector" d="M0 118.977C0 121.544 1.55727 123.724 3.79114 124.519C1.55727 125.335 0 127.526 0 130.082C0 133.326 2.58828 136 5.78874 136C8.98919 136 11.309 133.573 11.513 130.501H11.5775C11.7708 133.573 14.2624 136 17.3232 136C20.3841 136 22.8435 133.573 23.0368 130.501H23.1012C23.3053 133.573 25.7647 136 28.8255 136C31.8864 136 34.6143 133.337 34.6143 130.082C34.6143 127.526 33.057 125.335 30.8231 124.519C33.0463 123.724 34.6143 121.544 34.6143 118.977C34.6143 116.41 33.057 114.273 30.8231 113.446C33.0463 112.651 34.6143 110.471 34.6143 107.904C34.6143 104.618 32.026 101.997 28.8255 101.997C25.6251 101.997 23.069 104.618 23.069 107.904C23.069 104.618 20.4807 101.997 17.3232 101.997C14.1658 101.997 11.5345 104.618 11.5345 107.904C11.5345 104.618 8.96771 101.997 5.778 101.997C2.58828 101.997 0 104.618 0 107.904C0 110.471 1.55727 112.651 3.79114 113.446C1.55727 114.273 0 116.453 0 118.977ZM17.3232 110.074L26.2265 118.999L17.3232 127.924L8.3985 118.999L17.3232 110.074Z" fill="var(--fill-0, #003D23)"/>
<path id="Vector_2" d="M0 152.98C0 155.547 1.55727 157.727 3.79114 158.522C1.55727 159.327 0 161.529 0 164.085C0 167.328 2.58828 170.003 5.78874 170.003C8.98919 170.003 11.309 167.575 11.513 164.504H11.5775C11.7708 167.575 14.2624 170.003 17.3232 170.003C20.3519 170.003 22.8435 167.575 23.0368 164.504H23.1012C23.3053 167.575 25.7647 170.003 28.8255 170.003C31.8864 170.003 34.6143 167.339 34.6143 164.085C34.6143 161.529 33.057 159.338 30.8231 158.522C33.0463 157.727 34.6143 155.547 34.6143 152.98C34.6143 150.413 33.057 148.276 30.8231 147.449C33.0463 146.654 34.6143 144.474 34.6143 141.907C34.6143 138.621 32.026 136 28.8255 136C25.6251 136 23.069 138.621 23.069 141.907C23.069 138.621 20.4807 136 17.3232 136C14.1658 136 11.5345 138.621 11.5345 141.907C11.5345 138.621 8.96771 136 5.778 136C2.58828 136 0 138.621 0 141.907C0 144.474 1.55727 146.654 3.79114 147.449C1.55727 148.265 0 150.456 0 152.98ZM17.3232 144.076L26.2265 153.001L17.3232 161.926L8.3985 153.001L17.3232 144.076Z" fill="var(--fill-0, #003D23)"/>
<path id="Vector_3" d="M0 186.983C0 189.55 1.55727 191.73 3.79114 192.524C1.55727 193.33 0 195.532 0 198.088C0 201.331 2.58828 204.005 5.78874 204.005C8.98919 204.005 11.309 201.578 11.513 198.507H11.5775C11.7708 201.578 14.2624 204.005 17.3232 204.005C20.3841 204.005 22.8435 201.578 23.0368 198.507H23.1012C23.3053 201.578 25.7647 204.005 28.8255 204.005C31.8864 204.005 34.6143 201.342 34.6143 198.088C34.6143 195.532 33.057 193.341 30.8231 192.524C33.0463 191.73 34.6143 189.55 34.6143 186.983C34.6143 184.416 33.057 182.279 30.8231 181.452C33.0463 180.657 34.6143 178.477 34.6143 175.91C34.6143 172.623 32.026 170.003 28.8255 170.003C25.6358 170.003 23.069 172.623 23.069 175.91C23.069 172.623 20.4807 170.003 17.3232 170.003C14.1658 170.003 11.5345 172.623 11.5345 175.91C11.5345 172.623 8.96771 170.003 5.778 170.003C2.58828 170.003 0 172.623 0 175.899C0 178.466 1.55727 180.646 3.79114 181.441C1.55727 182.268 0 184.459 0 186.983ZM17.3232 178.079L26.2265 187.004L17.3232 195.929L8.3985 187.004L17.3232 178.079Z" fill="var(--fill-0, #003D23)"/>
<path id="Vector_4" d="M0 220.975C0 223.541 1.55727 225.722 3.79114 226.516C1.55727 227.333 0 229.524 0 232.08C0 235.323 2.58828 237.997 5.78874 237.997C8.98919 237.997 11.309 235.57 11.513 232.499H11.5775C11.7708 235.57 14.2624 237.997 17.3232 237.997C20.3519 237.997 22.8435 235.57 23.0368 232.499H23.1012C23.3053 235.57 25.7647 237.997 28.8255 237.997C32.0153 237.997 34.6143 235.334 34.6143 232.08C34.6143 229.524 33.057 227.333 30.8231 226.516C33.0463 225.722 34.6143 223.541 34.6143 220.975C34.6143 218.451 33.057 216.27 30.8231 215.444C33.0463 214.649 34.6143 212.469 34.6143 209.902C34.6143 206.615 32.026 203.995 28.8255 203.995C25.6251 203.995 23.069 206.615 23.069 209.902C23.069 206.615 20.4807 203.995 17.3232 203.995C14.1658 203.995 11.5345 206.615 11.5345 209.902C11.5345 206.615 8.96771 203.995 5.778 203.995C2.58828 203.995 0 206.626 0 209.902C0 212.469 1.55727 214.649 3.79114 215.444C1.55727 216.27 0 218.451 0 220.975ZM17.3232 212.071L26.2265 220.996L17.3232 229.921L8.3985 220.996L17.3232 212.071Z" fill="var(--fill-0, #003D23)"/>
<path id="Vector_5" d="M34.625 16.9799C34.625 19.5467 36.1823 21.7269 38.4162 22.5217C36.193 23.3379 34.625 25.5289 34.625 28.085C34.625 31.3285 37.2133 34.0027 40.4137 34.0027C43.6142 34.0027 45.934 31.5755 46.138 28.5038H46.2025C46.3958 31.5755 48.8874 34.0027 51.9483 34.0027C55.0091 34.0027 57.4685 31.5755 57.6618 28.5038H57.7262C57.9303 31.5755 60.3897 34.0027 63.4505 34.0027C66.5114 34.0027 69.2393 31.3392 69.2393 28.085C69.2393 25.5289 67.682 23.3379 65.4481 22.5217C67.6713 21.7269 69.2393 19.5467 69.2393 16.9799C69.2393 14.456 67.682 12.2758 65.4481 11.4488C67.6713 10.654 69.2393 8.47383 69.2393 5.90698C69.2393 2.62055 66.651 0 63.4505 0C60.2501 0 57.694 2.62055 57.694 5.90698C57.694 2.62055 55.1057 0 51.9483 0C48.7908 0 46.1595 2.62055 46.1595 5.90698C46.1595 2.62055 43.5927 0 40.403 0C37.2133 0 34.6143 2.62055 34.6143 5.90698C34.6143 8.47383 36.1715 10.654 38.4054 11.4488C36.1823 12.2758 34.6143 14.456 34.6143 16.9799H34.625ZM51.9483 8.07645L60.8515 17.0014L51.9483 25.9263L43.0235 17.0014L51.9483 8.07645Z" fill="var(--fill-0, #003D23)"/>
<path id="Vector_6" d="M69.25 16.9799C69.25 19.5467 70.8073 21.7269 73.0412 22.5217C70.818 23.3379 69.25 25.5289 69.25 28.085C69.25 31.3285 71.8383 34.0027 75.0387 34.0027C78.2392 34.0027 80.559 31.5755 80.763 28.5038H80.8275C81.0208 31.5755 83.5124 34.0027 86.5733 34.0027C89.6341 34.0027 92.0935 31.5755 92.2868 28.5038H92.3512C92.5553 31.5755 95.0147 34.0027 98.0755 34.0027C101.136 34.0027 103.864 31.3392 103.864 28.085C103.864 25.5289 102.307 23.3379 100.073 22.5217C102.296 21.7269 103.864 19.5467 103.864 16.9799C103.864 14.456 102.307 12.2758 100.073 11.4488C102.296 10.654 103.864 8.47383 103.864 5.90698C103.864 2.62055 101.276 0 98.0755 0C94.8751 0 92.319 2.62055 92.319 5.90698C92.319 2.62055 89.7307 0 86.5733 0C83.4158 0 80.7845 2.62055 80.7845 5.90698C80.7845 2.62055 78.2177 0 75.028 0C71.8383 0 69.2393 2.62055 69.2393 5.90698C69.2393 8.47383 70.7965 10.654 73.0304 11.4488C70.8073 12.2758 69.2393 14.456 69.2393 16.9799H69.25ZM86.5733 8.07645L95.4765 17.0014L86.5733 25.9263L77.6485 17.0014L86.5733 8.07645Z" fill="var(--fill-0, #003D23)"/>
<path id="Vector_7" d="M103.875 16.9799C103.875 19.5467 105.432 21.7269 107.666 22.5217C105.443 23.3379 103.875 25.5289 103.875 28.085C103.875 31.3285 106.463 34.0027 109.664 34.0027C112.864 34.0027 115.184 31.5755 115.388 28.5038H115.452C115.646 31.5755 118.137 34.0027 121.198 34.0027C124.259 34.0027 126.718 31.5755 126.912 28.5038H126.976C127.18 31.5755 129.64 34.0027 132.701 34.0027C135.761 34.0027 138.489 31.3392 138.489 28.085C138.489 25.5289 136.932 23.3379 134.698 22.5217C136.921 21.7269 138.489 19.5467 138.489 16.9799C138.489 14.456 136.932 12.2758 134.698 11.4488C136.921 10.654 138.489 8.47383 138.489 5.90698C138.489 2.62055 135.901 0 132.701 0C129.5 0 126.944 2.62055 126.944 5.90698C126.944 2.62055 124.356 0 121.198 0C118.041 0 115.41 2.62055 115.41 5.90698C115.41 2.62055 112.843 0 109.653 0C106.463 0 103.864 2.62055 103.864 5.90698C103.864 8.47383 105.422 10.654 107.655 11.4488C105.432 12.2758 103.864 14.456 103.864 16.9799H103.875ZM121.198 8.07645L130.102 17.0014L121.198 25.9263L112.274 17.0014L121.198 8.07645Z" fill="var(--fill-0, #003D23)"/>
<path id="Vector_8" d="M138.5 16.9799C138.5 19.5467 140.057 21.7269 142.291 22.5217C140.068 23.3379 138.5 25.5289 138.5 28.085C138.5 31.3285 141.088 34.0027 144.289 34.0027C147.489 34.0027 149.809 31.5755 150.013 28.5038H150.077C150.271 31.5755 152.762 34.0027 155.823 34.0027C158.884 34.0027 161.343 31.5755 161.537 28.5038H161.601C161.805 31.5755 164.265 34.0027 167.325 34.0027C170.386 34.0027 173.114 31.3392 173.114 28.085C173.114 25.5289 171.557 23.3379 169.323 22.5217C171.546 21.7269 173.114 19.5467 173.114 16.9799C173.114 14.456 171.557 12.2758 169.323 11.4488C171.546 10.654 173.114 8.47383 173.114 5.90698C173.114 2.62055 170.526 0 167.325 0C164.125 0 161.569 2.62055 161.569 5.90698C161.569 2.62055 158.981 0 155.823 0C152.666 0 150.034 2.62055 150.034 5.90698C150.034 2.62055 147.468 0 144.278 0C141.088 0 138.489 2.62055 138.489 5.90698C138.489 8.47383 140.046 10.654 142.28 11.4488C140.057 12.2758 138.489 14.456 138.489 16.9799H138.5ZM155.823 8.07645L164.726 17.0014L155.823 25.9263L146.898 17.0014L155.823 8.07645Z" fill="var(--fill-0, #003D23)"/>
<path id="Vector_9" d="M173.125 16.9799C173.125 19.5467 174.682 21.7269 176.916 22.5217C174.693 23.3379 173.125 25.5289 173.125 28.085C173.125 31.3285 175.713 34.0027 178.914 34.0027C182.114 34.0027 184.434 31.5755 184.638 28.5038H184.702C184.896 31.5755 187.387 34.0027 190.448 34.0027C193.509 34.0027 195.968 31.5755 196.162 28.5038H196.226C196.43 31.5755 198.89 34.0027 201.95 34.0027C205.011 34.0027 207.739 31.3392 207.739 28.085C207.739 25.5289 206.182 23.3379 203.948 22.5217C206.171 21.7269 207.739 19.5467 207.739 16.9799C207.739 14.456 206.182 12.2758 203.948 11.4488C206.171 10.654 207.739 8.47383 207.739 5.90698C207.739 2.62055 205.151 0 201.95 0C198.75 0 196.194 2.62055 196.194 5.90698C196.194 2.62055 193.606 0 190.448 0C187.291 0 184.659 2.62055 184.659 5.90698C184.659 2.62055 182.093 0 178.903 0C175.713 0 173.114 2.62055 173.114 5.90698C173.114 8.47383 174.671 10.654 176.905 11.4488C174.682 12.2758 173.114 14.456 173.114 16.9799H173.125ZM190.448 8.07645L199.351 17.0014L190.448 25.9263L181.523 17.0014L190.448 8.07645Z" fill="var(--fill-0, #003D23)"/>
<path id="Vector_10" d="M207.75 16.9799C207.75 19.5467 209.307 21.7269 211.541 22.5217C209.318 23.3379 207.75 25.5289 207.75 28.085C207.75 31.3285 210.338 34.0027 213.539 34.0027C216.739 34.0027 219.059 31.5755 219.263 28.5038H219.327C219.521 31.5755 222.012 34.0027 225.073 34.0027C228.134 34.0027 230.593 31.5755 230.787 28.5038H230.851C231.055 31.5755 233.515 34.0027 236.575 34.0027C239.636 34.0027 242.364 31.3392 242.364 28.085C242.364 25.5289 240.807 23.3379 238.573 22.5217C240.796 21.7269 242.364 19.5467 242.364 16.9799C242.364 14.413 240.807 12.2758 238.573 11.4488C240.796 10.654 242.364 8.47383 242.364 5.90698C242.364 2.62055 239.776 0 236.575 0C233.375 0 230.819 2.62055 230.819 5.90698C230.819 2.62055 228.231 0 225.073 0C221.916 0 219.284 2.62055 219.284 5.90698C219.284 2.62055 216.718 0 213.528 0C210.338 0 207.739 2.62055 207.739 5.90698C207.739 8.47383 209.296 10.654 211.53 11.4488C209.307 12.2758 207.739 14.456 207.739 16.9799H207.75ZM225.073 8.07645L233.976 17.0014L225.073 25.9263L216.148 17.0014L225.073 8.07645Z" fill="var(--fill-0, #003D23)"/>
<path id="Vector_11" d="M0 254.977C0 257.544 1.55727 259.724 3.79114 260.519C1.55727 261.335 0 263.526 0 266.082C0 269.326 2.58828 272 5.78874 272C8.98919 272 11.309 269.573 11.513 266.501H11.5775C11.7708 269.573 14.2624 272 17.3232 272C20.3841 272 22.8435 269.573 23.0368 266.501H23.1012C23.3053 269.573 25.7647 272 28.8255 272C32.0153 272 34.6143 269.336 34.6143 266.082C34.6143 263.526 33.057 261.335 30.8231 260.519C33.0463 259.724 34.6143 257.544 34.6143 254.977C34.6143 252.453 33.057 250.273 30.8231 249.446C33.0463 248.651 34.6143 246.471 34.6143 243.904C34.6143 240.618 32.026 237.997 28.8255 237.997C25.6358 237.997 23.069 240.618 23.069 243.904C23.069 240.618 20.4807 237.997 17.3232 237.997C14.1335 237.997 11.5345 240.618 11.5345 243.904C11.5345 240.618 8.96771 237.997 5.778 237.997C2.58828 237.997 0 240.618 0 243.904C0 246.471 1.55727 248.651 3.79114 249.446C1.55727 250.273 0 252.453 0 254.977ZM17.3232 246.074L26.2265 254.999L17.3232 263.923L8.3985 254.999L17.3232 246.074Z" fill="var(--fill-0, #003D23)"/>
<path id="Vector_12" d="M34.625 254.977C34.625 257.544 36.1823 259.724 38.4162 260.519C36.193 261.335 34.625 263.526 34.625 266.082C34.625 269.326 37.2133 272 40.4137 272C43.6142 272 45.934 269.573 46.138 266.501H46.2025C46.3958 269.573 48.8874 272 51.9483 272C55.0091 272 57.4685 269.573 57.6618 266.501H57.7262C57.9303 269.573 60.3897 272 63.4505 272C66.5114 272 69.2393 269.336 69.2393 266.082C69.2393 263.526 67.682 261.335 65.4481 260.519C67.6713 259.724 69.2393 257.544 69.2393 254.977C69.2393 252.453 67.682 250.273 65.4481 249.446C67.6713 248.651 69.2393 246.471 69.2393 243.904C69.2393 240.618 66.651 237.997 63.4505 237.997C60.2501 237.997 57.694 240.618 57.694 243.904C57.694 240.618 55.1057 237.997 51.9483 237.997C48.7908 237.997 46.1595 240.618 46.1595 243.904C46.1595 240.618 43.5927 237.997 40.403 237.997C37.2133 237.997 34.6143 240.618 34.6143 243.904C34.6143 246.471 36.1715 248.651 38.4054 249.446C36.1823 250.273 34.6143 252.453 34.6143 254.977H34.625ZM51.9483 246.074L60.8515 254.999L51.9483 263.923L43.0235 254.999L51.9483 246.074Z" fill="var(--fill-0, #003D23)"/>
<path id="Vector_13" d="M69.25 254.977C69.25 257.544 70.8073 259.724 73.0412 260.519C70.818 261.335 69.25 263.526 69.25 266.082C69.25 269.326 71.8383 272 75.0387 272C78.2392 272 80.559 269.573 80.763 266.501H80.8275C81.0208 269.573 83.5124 272 86.5733 272C89.6341 272 92.0935 269.573 92.2868 266.501H92.3512C92.5553 269.573 95.0147 272 98.0755 272C101.136 272 103.864 269.336 103.864 266.082C103.864 263.526 102.307 261.335 100.073 260.519C102.296 259.724 103.864 257.544 103.864 254.977C103.864 252.41 102.307 250.273 100.073 249.446C102.296 248.651 103.864 246.471 103.864 243.904C103.864 240.618 101.276 237.997 98.0755 237.997C94.8858 237.997 92.319 240.618 92.319 243.904C92.319 240.618 89.7307 237.997 86.5733 237.997C83.3835 237.997 80.7845 240.618 80.7845 243.904C80.7845 240.618 78.2177 237.997 75.028 237.997C71.8383 237.997 69.2393 240.618 69.2393 243.904C69.2393 246.471 70.7965 248.651 73.0304 249.446C70.8073 250.273 69.2393 252.453 69.2393 254.977H69.25ZM86.5733 246.074L95.4765 254.999L86.5733 263.923L77.6485 254.999L86.5733 246.074Z" fill="var(--fill-0, #003D23)"/>
<path id="Vector_14" d="M103.875 254.977C103.875 257.544 105.432 259.724 107.666 260.519C105.443 261.335 103.875 263.526 103.875 266.082C103.875 269.326 106.463 272 109.664 272C112.864 272 115.184 269.573 115.388 266.501H115.452C115.646 269.573 118.137 272 121.198 272C124.259 272 126.718 269.573 126.912 266.501H126.976C127.18 269.573 129.64 272 132.701 272C135.761 272 138.489 269.336 138.489 266.082C138.489 263.526 136.932 261.335 134.698 260.519C136.921 259.724 138.489 257.544 138.489 254.977C138.489 252.41 136.932 250.273 134.698 249.446C136.921 248.651 138.489 246.471 138.489 243.904C138.489 240.618 135.901 237.997 132.701 237.997C129.5 237.997 126.944 240.618 126.944 243.904C126.944 240.618 124.356 237.997 121.198 237.997C118.041 237.997 115.41 240.618 115.41 243.904C115.41 240.618 112.843 237.997 109.653 237.997C106.463 237.997 103.864 240.618 103.864 243.904C103.864 246.471 105.422 248.651 107.655 249.446C105.432 250.273 103.864 252.453 103.864 254.977H103.875ZM121.198 246.074L130.102 254.999L121.198 263.923L112.274 254.999L121.198 246.074Z" fill="var(--fill-0, #003D23)"/>
<path id="Vector_15" d="M138.5 254.977C138.5 257.544 140.057 259.724 142.291 260.519C140.068 261.335 138.5 263.526 138.5 266.082C138.5 269.326 141.088 272 144.289 272C147.349 272 149.809 269.573 150.013 266.501H150.077C150.271 269.573 152.762 272 155.823 272C158.884 272 161.343 269.573 161.537 266.501H161.601C161.805 269.573 164.265 272 167.325 272C170.386 272 173.114 269.336 173.114 266.082C173.114 263.526 171.557 261.335 169.323 260.519C171.546 259.724 173.114 257.544 173.114 254.977C173.114 252.41 171.557 250.273 169.323 249.446C171.546 248.651 173.114 246.471 173.114 243.904C173.114 240.618 170.526 237.997 167.325 237.997C164.125 237.997 161.569 240.618 161.569 243.904C161.569 240.618 158.981 237.997 155.823 237.997C152.666 237.997 150.034 240.618 150.034 243.904C150.034 240.618 147.468 237.997 144.278 237.997C141.088 237.997 138.489 240.618 138.489 243.904C138.489 246.471 140.046 248.651 142.28 249.446C140.057 250.273 138.489 252.453 138.489 254.977H138.5ZM155.823 246.074L164.726 254.999L155.823 263.923L146.898 254.999L155.823 246.074Z" fill="var(--fill-0, #003D23)"/>
<path id="Vector_16" d="M173.125 254.977C173.125 257.544 174.682 259.724 176.916 260.519C174.693 261.335 173.125 263.526 173.125 266.082C173.125 269.326 175.713 272 178.914 272C182.114 272 184.434 269.573 184.638 266.501H184.702C184.896 269.573 187.387 272 190.448 272C193.509 272 195.968 269.573 196.162 266.501H196.226C196.43 269.573 198.89 272 201.95 272C205.011 272 207.739 269.336 207.739 266.082C207.739 263.526 206.182 261.335 203.948 260.519C206.171 259.724 207.739 257.544 207.739 254.977C207.739 252.41 206.182 250.273 203.948 249.446C206.171 248.651 207.739 246.471 207.739 243.904C207.739 240.618 205.151 237.997 201.95 237.997C198.75 237.997 196.194 240.618 196.194 243.904C196.194 240.618 193.606 237.997 190.448 237.997C187.291 237.997 184.659 240.618 184.659 243.904C184.659 240.618 182.093 237.997 178.903 237.997C175.713 237.997 173.114 240.618 173.114 243.904C173.114 246.471 174.671 248.651 176.905 249.446C174.682 250.273 173.114 252.453 173.114 254.977H173.125ZM190.448 246.074L199.351 254.999L190.448 263.923L181.523 254.999L190.448 246.074Z" fill="var(--fill-0, #003D23)"/>
<path id="Vector_17" d="M207.75 254.977C207.75 257.544 209.307 259.724 211.541 260.519C209.318 261.335 207.75 263.526 207.75 266.082C207.75 269.326 210.338 272 213.539 272C216.739 272 219.059 269.573 219.263 266.501H219.327C219.521 269.573 222.012 272 225.073 272C228.134 272 230.593 269.573 230.787 266.501H230.851C231.055 269.573 233.515 272 236.575 272C239.636 272 242.364 269.336 242.364 266.082C242.364 263.526 240.807 261.335 238.573 260.519C240.796 259.724 242.364 257.544 242.364 254.977C242.364 252.453 240.807 250.273 238.573 249.446C240.796 248.651 242.364 246.471 242.364 243.904C242.364 240.618 239.776 237.997 236.575 237.997C233.375 237.997 230.819 240.618 230.819 243.904C230.819 240.618 228.231 237.997 225.073 237.997C221.916 237.997 219.284 240.618 219.284 243.904C219.284 240.618 216.718 237.997 213.528 237.997C210.338 237.997 207.739 240.618 207.739 243.904C207.739 246.471 209.296 248.651 211.53 249.446C209.307 250.273 207.739 252.453 207.739 254.977H207.75ZM225.073 246.074L233.976 254.999L225.073 263.923L216.148 254.999L225.073 246.074Z" fill="var(--fill-0, #003D23)"/>
<path id="Vector_18" d="M242.375 118.977C242.375 121.544 243.932 123.724 246.166 124.519C243.943 125.335 242.375 127.526 242.375 130.082C242.375 133.326 244.963 136 248.164 136C251.364 136 253.684 133.573 253.888 130.501H253.952C254.146 133.573 256.637 136 259.698 136C262.759 136 265.218 133.573 265.412 130.501H265.476C265.68 133.573 268.14 136 271.2 136C274.261 136 276.989 133.337 276.989 130.082C276.989 127.526 275.432 125.335 273.198 124.519C275.421 123.724 276.989 121.544 276.989 118.977C276.989 116.41 275.432 114.273 273.198 113.446C275.421 112.651 276.989 110.471 276.989 107.904C276.989 104.618 274.401 101.997 271.2 101.997C268 101.997 265.444 104.618 265.444 107.904C265.444 104.618 262.856 101.997 259.698 101.997C256.541 101.997 253.909 104.618 253.909 107.904C253.909 104.618 251.343 101.997 248.153 101.997C244.963 101.997 242.364 104.618 242.364 107.904C242.364 110.471 243.921 112.651 246.155 113.446C243.932 114.273 242.364 116.453 242.364 118.977H242.375ZM259.698 110.074L268.601 118.999L259.698 127.924L250.773 118.999L259.698 110.074Z" fill="var(--fill-0, #003D23)"/>
<path id="Vector_19" d="M0 84.9745C0 87.5413 1.55727 89.7215 3.79114 90.5163C1.55727 91.3325 0 93.5235 0 96.0796C0 99.3231 2.58828 101.997 5.78874 101.997C8.98919 101.997 11.309 99.5701 11.513 96.4984H11.5775C11.7708 99.5701 14.2624 101.997 17.3232 101.997C20.3841 101.997 22.8435 99.5701 23.0368 96.4984H23.1012C23.3053 99.5701 25.7647 101.997 28.8255 101.997C31.8864 101.997 34.6143 99.3338 34.6143 96.0796C34.6143 93.5235 33.057 91.3325 30.8231 90.5163C33.0463 89.7215 34.6143 87.5413 34.6143 84.9745C34.6143 82.4076 33.057 80.2704 30.8231 79.4434C33.0463 78.6486 34.6143 76.4684 34.6143 73.9016C34.6143 70.6152 32.026 67.9946 28.8255 67.9946C25.6251 67.9946 23.069 70.6152 23.069 73.9016C23.069 70.6152 20.4807 67.9946 17.3232 67.9946C14.1658 67.9946 11.5345 70.6152 11.5345 73.9016C11.5345 70.6152 8.96771 67.9946 5.778 67.9946C2.58828 67.9946 0 70.6259 0 73.9016C0 76.4684 1.55727 78.6486 3.79114 79.4434C1.55727 80.2704 0 82.4506 0 84.9745ZM17.3232 76.0711L26.2265 84.996L17.3232 93.9209L8.3985 84.996L17.3232 76.0711Z" fill="var(--fill-0, #003D23)"/>
<path id="Vector_20" d="M242.375 84.9745C242.375 87.5413 243.932 89.7215 246.166 90.5163C243.943 91.3325 242.375 93.5235 242.375 96.0796C242.375 99.3231 244.963 101.997 248.164 101.997C251.364 101.997 253.684 99.5701 253.888 96.4984H253.952C254.146 99.5701 256.637 101.997 259.698 101.997C262.759 101.997 265.218 99.5701 265.412 96.4984H265.476C265.68 99.5701 268.14 101.997 271.2 101.997C274.261 101.997 276.989 99.3338 276.989 96.0796C276.989 93.5235 275.432 91.3325 273.198 90.5163C275.421 89.7215 276.989 87.5413 276.989 84.9745C276.989 82.4076 275.432 80.2704 273.198 79.4434C275.421 78.6486 276.989 76.4684 276.989 73.9016C276.989 70.6152 274.401 67.9946 271.2 67.9946C268 67.9946 265.444 70.6152 265.444 73.9016C265.444 70.6152 262.856 67.9946 259.698 67.9946C256.541 67.9946 253.909 70.6152 253.909 73.9016C253.909 70.6152 251.343 67.9946 248.153 67.9946C244.963 67.9946 242.364 70.6152 242.364 73.9016C242.364 76.4684 243.921 78.6486 246.155 79.4434C243.932 80.2704 242.364 82.4506 242.364 84.9745H242.375ZM259.698 76.0711L268.601 84.996L259.698 93.9209L250.773 84.996L259.698 76.0711Z" fill="var(--fill-0, #003D23)"/>
<path id="Vector_21" d="M0 50.9826C0 53.5494 1.55727 55.7296 3.79114 56.5244C1.55727 57.3299 0 59.5316 0 62.0877C0 65.3312 2.58828 68.0054 5.78874 68.0054C8.98919 68.0054 11.309 65.5782 11.513 62.5065H11.5775C11.7708 65.5782 14.2624 68.0054 17.3232 68.0054C20.3841 68.0054 22.8435 65.5782 23.0368 62.5065H23.1012C23.3053 65.5782 25.7647 68.0054 28.8255 68.0054C32.0153 68.0054 34.6143 65.3419 34.6143 62.0877C34.6143 59.5316 33.057 57.3406 30.8231 56.5244C33.0463 55.7296 34.6143 53.5494 34.6143 50.9826C34.6143 48.4157 33.057 46.2785 30.8231 45.4515C33.0463 44.6567 34.6143 42.4765 34.6143 39.9097C34.6143 36.6233 32.026 34.0027 28.8255 34.0027C25.6251 34.0027 23.069 36.6233 23.069 39.9097C23.069 36.6233 20.4807 34.0027 17.3232 34.0027C14.1658 34.0027 11.5345 36.6233 11.5345 39.9097C11.5345 36.6233 8.96771 34.0027 5.778 34.0027C2.58828 34.0027 0 36.6233 0 39.9097C0 42.4765 1.55727 44.6567 3.79114 45.4515C1.55727 46.2677 0 48.4587 0 50.9826ZM17.3232 42.0791L26.2265 51.0041L17.3232 59.929L8.3985 51.0041L17.3232 42.0791Z" fill="var(--fill-0, #003D23)"/>
<path id="Vector_22" d="M242.375 50.9826C242.375 53.5494 243.932 55.7296 246.166 56.5244C243.943 57.3406 242.375 59.5316 242.375 62.0877C242.375 65.3312 244.963 68.0054 248.164 68.0054C251.364 68.0054 253.684 65.5782 253.888 62.5065H253.952C254.146 65.5782 256.637 68.0054 259.698 68.0054C262.759 68.0054 265.218 65.5782 265.412 62.5065H265.476C265.68 65.5782 268.14 68.0054 271.2 68.0054C274.261 68.0054 276.989 65.3419 276.989 62.0877C276.989 59.5316 275.432 57.3406 273.198 56.5244C275.421 55.7296 276.989 53.5494 276.989 50.9826C276.989 48.4587 275.432 46.2785 273.198 45.4515C275.421 44.6567 276.989 42.4765 276.989 39.9097C276.989 36.6233 274.401 34.0027 271.2 34.0027C268 34.0027 265.444 36.6233 265.444 39.9097C265.444 36.6233 262.856 34.0027 259.698 34.0027C256.541 34.0027 253.909 36.6233 253.909 39.9097C253.909 36.6233 251.343 34.0027 248.153 34.0027C244.963 34.0027 242.364 36.6233 242.364 39.9097C242.364 42.4765 243.921 44.6567 246.155 45.4515C243.932 46.2785 242.364 48.4587 242.364 50.9826H242.375ZM259.698 42.0791L268.601 51.0041L259.698 59.929L250.773 51.0041L259.698 42.0791Z" fill="var(--fill-0, #003D23)"/>
<path id="Vector_23" d="M0 16.9799C0 19.5467 1.55727 21.7269 3.79114 22.5217C1.55727 23.3272 0 25.5289 0 28.085C0 31.3285 2.58828 34.0027 5.78873 34.0027C8.98919 34.0027 11.309 31.5755 11.513 28.5038H11.5775C11.7708 31.5755 14.2624 34.0027 17.3232 34.0027C20.3841 34.0027 22.8435 31.5755 23.0368 28.5038H23.1012C23.3053 31.5755 25.7647 34.0027 28.8255 34.0027C32.0152 34.0027 34.6143 31.3392 34.6143 28.085C34.6143 25.5289 33.057 23.3379 30.8231 22.5217C33.0463 21.7269 34.6143 19.5467 34.6143 16.9799C34.6143 14.413 33.057 12.2758 30.8231 11.4488C33.0463 10.654 34.6143 8.47383 34.6143 5.90698C34.625 2.62055 32.0367 0 28.8363 0C25.6358 0 23.0798 2.62055 23.0798 5.90698C23.0798 2.62055 20.4915 0 17.334 0C14.1765 0 11.5453 2.62055 11.5453 5.90698C11.5453 2.62055 8.97845 0 5.78873 0C2.59902 0 0 2.62055 0 5.90698C0 8.47383 1.55727 10.654 3.79114 11.4488C1.55727 12.265 0 14.456 0 16.9799ZM17.3232 8.07645L26.2265 17.0014L17.3232 25.9263L8.3985 17.0014L17.3232 8.07645Z" fill="var(--fill-0, #003D23)"/>
<path id="Vector_24" d="M242.375 16.9799C242.375 19.5467 243.932 21.7269 246.166 22.5217C243.943 23.3379 242.375 25.5289 242.375 28.085C242.375 31.3285 244.963 34.0027 248.164 34.0027C251.364 34.0027 253.684 31.5755 253.888 28.5038H253.952C254.146 31.5755 256.637 34.0027 259.698 34.0027C262.759 34.0027 265.218 31.5755 265.412 28.5038H265.476C265.68 31.5755 268.14 34.0027 271.2 34.0027C274.261 34.0027 276.989 31.3392 276.989 28.085C276.989 25.5289 275.432 23.3379 273.198 22.5217C275.421 21.7269 276.989 19.5467 276.989 16.9799C276.989 14.456 275.432 12.2758 273.198 11.4488C275.421 10.654 276.989 8.47383 276.989 5.90698C276.989 2.62055 274.401 0 271.2 0C268 0 265.444 2.62055 265.444 5.90698C265.455 2.62055 262.866 0 259.698 0C256.53 0 253.909 2.62055 253.909 5.90698C253.92 2.62055 251.353 0 248.153 0C244.952 0 242.364 2.62055 242.364 5.90698C242.364 8.47383 243.921 10.654 246.155 11.4488C243.932 12.2758 242.364 14.456 242.364 16.9799H242.375ZM259.698 8.07645L268.601 17.0014L259.698 25.9263L250.773 17.0014L259.698 8.07645Z" fill="var(--fill-0, #003D23)"/>
<path id="Vector_25" d="M242.375 254.977C242.375 257.544 243.932 259.724 246.166 260.519C243.943 261.335 242.375 263.526 242.375 266.082C242.375 269.326 244.963 272 248.164 272C251.364 272 253.684 269.573 253.888 266.501H253.952C254.146 269.573 256.637 272 259.698 272C262.759 272 265.218 269.573 265.412 266.501H265.476C265.68 269.573 268.14 272 271.2 272C274.261 272 276.989 269.336 276.989 266.082C276.989 263.526 275.432 261.335 273.198 260.519C275.421 259.724 276.989 257.544 276.989 254.977C276.989 252.453 275.432 250.273 273.198 249.446C275.421 248.651 276.989 246.471 276.989 243.904C276.989 240.618 274.401 237.997 271.2 237.997C268 237.997 265.444 240.618 265.444 243.904C265.444 240.618 262.856 237.997 259.698 237.997C256.541 237.997 253.909 240.618 253.909 243.904C253.909 240.618 251.343 237.997 248.153 237.997C244.963 237.997 242.364 240.618 242.364 243.904C242.364 246.471 243.921 248.651 246.155 249.446C243.932 250.273 242.364 252.453 242.364 254.977H242.375ZM259.698 246.074L268.601 254.999L259.698 263.923L250.773 254.999L259.698 246.074Z" fill="var(--fill-0, #003D23)"/>
<path id="Vector_26" d="M242.375 152.98C242.375 155.547 243.932 157.727 246.166 158.522C243.943 159.338 242.375 161.529 242.375 164.085C242.375 167.328 244.963 170.003 248.164 170.003C251.364 170.003 253.684 167.575 253.888 164.504H253.952C254.146 167.575 256.637 170.003 259.698 170.003C262.759 170.003 265.218 167.575 265.412 164.504H265.476C265.68 167.575 268.14 170.003 271.2 170.003C274.261 170.003 276.989 167.339 276.989 164.085C276.989 161.529 275.432 159.338 273.198 158.522C275.421 157.727 276.989 155.547 276.989 152.98C276.989 150.413 275.432 148.276 273.198 147.449C275.421 146.654 276.989 144.474 276.989 141.907C276.989 138.621 274.401 136 271.2 136C268 136 265.444 138.621 265.444 141.907C265.444 138.621 262.856 136 259.698 136C256.541 136 253.909 138.621 253.909 141.907C253.909 138.621 251.343 136 248.153 136C244.963 136 242.364 138.621 242.364 141.907C242.364 144.474 243.921 146.654 246.155 147.449C243.932 148.276 242.364 150.456 242.364 152.98H242.375ZM259.698 144.076L268.601 153.001L259.698 161.926L250.773 153.001L259.698 144.076Z" fill="var(--fill-0, #003D23)"/>
<path id="Vector_27" d="M242.375 186.983C242.375 189.55 243.932 191.73 246.166 192.524C243.943 193.341 242.375 195.532 242.375 198.088C242.375 201.331 244.963 204.005 248.164 204.005C251.364 204.005 253.684 201.578 253.888 198.507H253.952C254.146 201.578 256.637 204.005 259.698 204.005C262.759 204.005 265.218 201.578 265.412 198.507H265.476C265.68 201.578 268.14 204.005 271.2 204.005C274.261 204.005 276.989 201.342 276.989 198.088C276.989 195.532 275.432 193.341 273.198 192.524C275.421 191.73 276.989 189.55 276.989 186.983C276.989 184.459 275.432 182.279 273.198 181.452C275.421 180.657 276.989 178.477 276.989 175.91C276.989 172.623 274.401 170.003 271.2 170.003C268 170.003 265.444 172.623 265.444 175.91C265.444 172.623 262.856 170.003 259.698 170.003C256.541 170.003 253.909 172.623 253.909 175.91C253.909 172.623 251.343 170.003 248.153 170.003C244.963 170.003 242.364 172.623 242.364 175.91C242.364 178.477 243.921 180.657 246.155 181.452C243.932 182.279 242.364 184.459 242.364 186.983H242.375ZM259.698 178.079L268.601 187.004L259.698 195.929L250.773 187.004L259.698 178.079Z" fill="var(--fill-0, #003D23)"/>
<path id="Vector_28" d="M242.375 220.975C242.375 223.541 243.932 225.722 246.166 226.516C243.943 227.333 242.375 229.524 242.375 232.08C242.375 235.323 244.963 237.997 248.164 237.997C251.224 237.997 253.684 235.57 253.888 232.499H253.952C254.146 235.57 256.637 237.997 259.698 237.997C262.759 237.997 265.218 235.57 265.412 232.499H265.476C265.68 235.57 268.14 237.997 271.2 237.997C274.261 237.997 276.989 235.334 276.989 232.08C276.989 229.524 275.432 227.333 273.198 226.516C275.421 225.722 276.989 223.541 276.989 220.975C276.989 218.451 275.432 216.27 273.198 215.444C275.421 214.649 276.989 212.469 276.989 209.902C276.989 206.615 274.401 203.995 271.2 203.995C268 203.995 265.444 206.615 265.444 209.902C265.444 206.615 262.856 203.995 259.698 203.995C256.541 203.995 253.909 206.615 253.909 209.902C253.909 206.615 251.343 203.995 248.153 203.995C244.963 203.995 242.364 206.615 242.364 209.902C242.364 212.469 243.921 214.649 246.155 215.444C243.932 216.27 242.364 218.451 242.364 220.975H242.375ZM259.698 212.071L268.601 220.996L259.698 229.921L250.773 220.996L259.698 212.071Z" fill="var(--fill-0, #003D23)"/>
</g>
<defs>
<clipPath id="clip0_25_158">
<rect width="277" height="272" fill="white"/>
</clipPath>
</defs>
</svg>
