<svg width="395" height="50" viewBox="0 0 395 50" fill="none" xmlns="http://www.w3.org/2000/svg">
<path d="M0 49.5349C7.70259 23.7167 30.5295 3.87833 56.5258 0.403581C64.5092 -0.646924 73.5758 0.0399447 79.4731 5.97934C87.6571 14.1814 85.9721 27.7975 83.0836 38.949C101.056 17.2521 128.617 4.52479 156.619 4.96924C163.6 5.09045 171.744 6.70661 175.154 13.1309C179.486 21.3733 173.108 30.7874 167.09 37.4541C185.624 23.9995 208.331 15.7167 231.278 17.2925C248.408 18.4642 264.897 24.9288 281.425 30.1005C318.293 41.5753 356.887 46.5854 394.998 44.8884C279.861 48.6056 164.563 49.9389 49.2645 48.9288" fill="white"/>
</svg>
